<svg width="300" height="300" viewBox="0 0 300 300" fill="none" xmlns="http://www.w3.org/2000/svg">
<path d="M300 229.439H0V229.589H300V229.439Z" fill="#EBEBEB"/>
<path d="M269.94 239.096H250.066V239.246H269.94V239.096Z" fill="#EBEBEB"/>
<path d="M163.935 237.217H156.203V237.367H163.935V237.217Z" fill="#EBEBEB"/>
<path d="M209.8 237.85H193.516V238H209.8V237.85Z" fill="#EBEBEB"/>
<path d="M249.467 233.525H215.801V233.675H249.467V233.525Z" fill="#EBEBEB"/>
<path d="M47.3928 240.467H31.4766V240.617H47.3928V240.467Z" fill="#EBEBEB"/>
<path d="M66.5344 240.467H52.7344V240.617H66.5344V240.467Z" fill="#EBEBEB"/>
<path d="M115.09 237.141H78.6016V237.291H115.09V237.141Z" fill="#EBEBEB"/>
<path d="M142.21 202.68H26.3506C24.4624 202.68 22.9258 201.143 22.9258 199.255V36.396C22.9258 34.5078 24.4624 32.9712 26.3506 32.9712H142.21C144.098 32.9712 145.634 34.5078 145.634 36.396V199.255C145.634 201.143 144.098 202.68 142.21 202.68ZM26.3506 33.1218C24.5446 33.1218 23.0758 34.5906 23.0758 36.3966V199.256C23.0758 201.062 24.5446 202.531 26.3506 202.531H142.21C144.015 202.531 145.484 201.062 145.484 199.256V36.396C145.484 34.5906 144.015 33.1212 142.21 33.1212L26.3506 33.1218Z" fill="#EBEBEB"/>
<path d="M271.986 202.68H156.127C154.239 202.68 152.703 201.143 152.703 199.255V36.396C152.703 34.5078 154.24 32.9712 156.127 32.9712H271.986C273.875 32.9712 275.411 34.5078 275.411 36.396V199.255C275.412 201.143 273.875 202.68 271.986 202.68ZM156.127 33.1218C154.322 33.1218 152.853 34.5906 152.853 36.3966V199.256C152.853 201.062 154.322 202.531 156.127 202.531H271.986C273.792 202.531 275.261 201.062 275.261 199.256V36.396C275.261 34.5906 273.792 33.1212 271.986 33.1212L156.127 33.1218Z" fill="#EBEBEB"/>
<path d="M280.242 116.503C282.195 109.733 281.837 102.847 279.647 96.6767C281.359 94.2269 282.709 91.4633 283.583 88.4315C287.602 74.5007 280.274 59.9897 267.061 54.7679C264.511 36.5189 251.558 20.5679 232.709 15.1319C217.807 10.8341 202.525 14.0651 190.907 22.5653C187.999 19.5221 184.278 17.1803 179.942 15.9299C166.874 12.1607 153.224 19.6997 149.455 32.7677C148.825 34.9535 148.517 37.1549 148.493 39.3239C135.341 41.9729 124.079 51.6671 120.104 65.4479C116.534 77.8283 119.694 90.5513 127.42 99.7139C126.421 101.518 125.601 103.456 125.005 105.522C120.727 120.357 129.284 135.852 144.12 140.131C149.012 141.542 153.973 141.549 158.583 140.404C164.037 147.924 171.937 153.755 181.554 156.528C193.93 160.098 206.596 157.878 216.679 151.479C221.191 161.976 224.901 177.719 216.917 193.157C245.923 190.311 266.87 162.489 262.601 136.998C270.878 133.19 277.519 125.945 280.242 116.503Z" fill="#EBEBEB"/>
<path d="M224.592 187.399C224.435 187.399 224.283 187.338 224.168 187.224C224.013 187.07 223.955 186.843 224.015 186.633C228.101 172.403 224.378 158.76 220.535 149.82L218.588 145.292L214.425 147.933C208.141 151.921 200.915 154.029 193.528 154.029C189.888 154.029 186.251 153.513 182.715 152.493C174.295 150.065 167.126 145.031 161.981 137.937L160.317 135.644L157.568 136.328C153.537 137.33 149.294 137.251 145.283 136.095C139.185 134.337 134.138 130.309 131.069 124.754C128.001 119.199 127.28 112.782 129.039 106.685C129.53 104.983 130.221 103.322 131.093 101.747L132.493 99.2164L130.629 97.0054C123.51 88.564 121.083 77.2012 124.138 66.6112C127.557 54.7588 137.206 45.8806 149.321 43.441L152.652 42.7702L152.691 39.3712C152.712 37.525 152.98 35.695 153.489 33.9316C155.997 25.2334 164.064 19.1584 173.105 19.1584C175.014 19.1584 176.923 19.4296 178.777 19.9648C182.241 20.9638 185.385 22.8664 187.868 25.4668L190.412 28.1296L193.385 25.9558C200.894 20.4616 210.117 17.4358 219.355 17.4358C223.458 17.4358 227.559 18.0184 231.543 19.1674C248.191 23.9692 260.499 38.1718 262.899 55.3498L263.237 57.7744L265.514 58.675C276.915 63.181 282.947 75.4732 279.545 87.2686C278.822 89.7748 277.697 92.131 276.201 94.2718L274.963 96.0442L275.686 98.0824C277.669 103.671 277.848 109.638 276.204 115.34C273.926 123.236 268.327 129.74 260.843 133.184L257.925 134.526L258.456 137.693C260.277 148.57 257.001 160.451 249.466 170.291C243.19 178.485 234.416 184.553 224.76 187.376C224.705 187.391 224.648 187.399 224.592 187.399ZM218.861 143.808C218.921 143.808 218.981 143.817 219.038 143.835C219.206 143.887 219.342 144.01 219.412 144.172L221.637 149.347C225.462 158.245 229.168 171.723 225.459 185.907C234.462 183.034 242.618 177.26 248.514 169.561C255.848 159.985 259.04 148.442 257.273 137.891L256.667 134.272C256.622 134.005 256.762 133.741 257.008 133.628L260.342 132.094C267.509 128.795 272.87 122.568 275.051 115.007C276.626 109.547 276.454 103.834 274.556 98.4832L273.729 96.154C273.665 95.9716 273.692 95.7688 273.803 95.6104L275.217 93.5848C276.638 91.5514 277.706 89.3146 278.392 86.9356C281.622 75.7378 275.895 64.0678 265.073 59.7904L262.47 58.7614C262.269 58.6822 262.127 58.5004 262.097 58.2868L261.71 55.516C259.375 38.806 247.403 24.991 231.21 20.3206C227.334 19.2028 223.344 18.6358 219.354 18.6358C210.369 18.6358 201.398 21.5794 194.093 26.9242L190.695 29.4094C190.452 29.5876 190.115 29.557 189.908 29.3398L187 26.2966C184.662 23.8498 181.704 22.0594 178.443 21.1192C176.697 20.6152 174.901 20.3596 173.104 20.3596C164.595 20.3596 157.003 26.0776 154.641 34.2658C154.163 35.9254 153.91 37.648 153.891 39.3862L153.847 43.2706C153.844 43.5538 153.643 43.7956 153.365 43.852L149.557 44.6188C137.883 46.9696 128.585 55.525 125.291 66.9454C122.348 77.1496 124.687 88.0984 131.547 96.2338L133.677 98.7604C133.838 98.95 133.864 99.22 133.743 99.4378L132.143 102.33C131.315 103.825 130.659 105.403 130.193 107.019C128.523 112.807 129.207 118.901 132.12 124.175C135.033 129.45 139.826 133.274 145.615 134.943C149.424 136.041 153.453 136.116 157.279 135.164L160.421 134.383C160.658 134.322 160.908 134.414 161.052 134.613L162.953 137.234C167.939 144.109 174.888 148.988 183.048 151.341C186.476 152.33 190.001 152.831 193.529 152.831C200.687 152.831 207.691 150.787 213.783 146.921L218.54 143.903C218.637 143.84 218.748 143.808 218.861 143.808Z" fill="white"/>
<path d="M182.517 87.7133L166.435 85.2095L166.685 83.6015C167.111 80.8649 167.767 78.6911 168.653 77.0807C169.54 75.4703 170.707 74.0555 172.154 72.8351C173.6 71.6159 176.745 69.5621 181.588 66.6755C184.163 65.1683 185.571 63.6401 185.813 62.0885C186.055 60.5369 185.783 59.2595 185.001 58.2557C184.218 57.2519 182.896 56.6057 181.033 56.3153C179.03 56.0033 177.269 56.4089 175.751 57.5297C174.232 58.6517 173.032 60.8345 172.151 64.0793L156.047 59.4911C157.551 53.5409 160.501 49.0223 164.898 45.9365C169.294 42.8489 175.442 41.9207 183.343 43.1507C189.493 44.1083 194.259 46.1657 197.64 49.3217C202.235 53.5907 204.082 58.6187 203.182 64.4015C202.808 66.8009 201.785 69.0107 200.111 71.0333C198.438 73.0559 195.306 75.3569 190.714 77.9357C187.513 79.7501 185.432 81.2819 184.471 82.5341C183.511 83.7863 182.86 85.5125 182.517 87.7133ZM165.218 89.3987L182.443 92.0801L180.078 107.273L162.853 104.592L165.218 89.3987Z" fill="white"/>
<path d="M223.553 111.254L214.624 104.021L215.347 103.129C216.577 101.609 217.749 100.515 218.861 99.8465C219.974 99.1775 221.188 98.7281 222.504 98.4965C223.82 98.2655 226.468 98.1269 230.448 98.0825C232.554 98.0759 233.956 97.6428 234.653 96.7812C235.351 95.9196 235.639 95.0436 235.517 94.1538C235.396 93.2634 234.817 92.3993 233.784 91.5617C232.671 90.6605 231.452 90.2838 230.128 90.4296C228.803 90.576 227.297 91.4826 225.609 93.1512L217.405 84.6383C220.433 81.5399 223.837 79.8281 227.616 79.5035C231.395 79.1783 235.477 80.7923 239.863 84.3449C243.277 87.1109 245.456 90.0575 246.402 93.1829C247.692 97.4183 247.036 101.143 244.435 104.354C243.356 105.686 241.948 106.672 240.209 107.313C238.47 107.954 235.742 108.248 232.024 108.193C229.426 108.165 227.613 108.362 226.583 108.786C225.552 109.21 224.542 110.033 223.553 111.254ZM212.395 106.148L221.959 113.894L215.126 122.33L205.562 114.583L212.395 106.148Z" fill="white"/>
<path d="M226.049 59.2824L222.184 54.0054L222.712 53.619C223.61 52.9614 224.413 52.5294 225.122 52.3224C225.832 52.116 226.565 52.0446 227.323 52.1082C228.081 52.1718 229.558 52.4802 231.755 53.0334C232.916 53.3358 233.75 53.3004 234.259 52.9278C234.769 52.5552 235.054 52.1148 235.116 51.6072C235.178 51.0996 234.985 50.5404 234.538 49.929C234.056 49.2714 233.44 48.8868 232.69 48.7752C231.94 48.6636 230.979 48.9438 229.807 49.617L226.528 43.7406C228.644 42.4746 230.766 42.0264 232.893 42.3966C235.02 42.7662 237.032 44.247 238.931 46.839C240.409 48.8574 241.181 50.7954 241.247 52.653C241.342 55.1718 240.44 57.1266 238.543 58.5162C237.756 59.0928 236.837 59.4312 235.787 59.5314C234.737 59.6316 233.193 59.3976 231.155 58.8276C229.729 58.4352 228.702 58.2804 228.074 58.3638C227.446 58.4472 226.771 58.7538 226.049 59.2824ZM220.649 54.852L224.789 60.504L219.803 64.155L215.664 58.503L220.649 54.852Z" fill="white"/>
<path d="M76.9964 134.144C72.035 134.144 67.0442 132.785 62.621 130.15C56.5328 126.521 52.2302 120.898 50.7686 114.679C45.8264 114.323 41.273 111.896 38.2328 107.983C36.0332 105.152 34.7762 101.776 34.589 98.2051C33.2846 97.3183 32.1332 96.2383 31.1648 94.9921C26.4326 88.9021 27.0272 80.3527 32.5142 74.9905C30.2264 65.2363 33.833 55.0027 41.7488 48.8521C47.9582 44.0263 55.8674 42.3313 63.5114 44.1733C64.4006 42.1477 65.7872 40.3669 67.5398 39.0055C70.3562 36.8173 73.8566 35.8567 77.396 36.2995C80.9354 36.7435 84.0896 38.5393 86.2784 41.3563C86.9378 42.2053 87.4928 43.1323 87.9314 44.1163C95.1518 42.9343 102.381 45.7561 106.876 51.5413C110.896 56.7139 112.107 63.4945 110.142 69.7393C110.929 70.4113 111.643 71.1571 112.267 71.9617C117.375 78.5341 116.182 88.0369 109.61 93.1447C107.603 94.7047 105.229 95.7331 102.725 96.1309C101.418 101.027 98.6144 105.255 94.6034 108.371C89.54 112.307 83.0558 113.949 76.7306 112.918C76.667 118.747 78.0218 126.649 84.5456 132.299C84.6758 132.412 84.734 132.586 84.6974 132.755C84.6602 132.924 84.5342 133.059 84.3686 133.107C81.9698 133.802 79.4864 134.144 76.9964 134.144ZM57.4316 44.3887C52.0124 44.3887 46.7264 46.1761 42.3266 49.5949C34.6322 55.5745 31.1648 65.5579 33.4928 75.0307C33.533 75.1951 33.482 75.3691 33.3584 75.4861C28.0424 80.4991 27.419 88.6375 31.9082 94.4149C32.8622 95.6425 34.0058 96.6985 35.3066 97.5523C35.4338 97.6363 35.513 97.7755 35.519 97.9279C35.6534 101.39 36.8492 104.667 38.9768 107.405C41.9222 111.196 46.3682 113.512 51.1748 113.761C51.3872 113.771 51.5654 113.923 51.6104 114.13C52.9358 120.234 57.125 125.778 63.1034 129.341C69.269 133.016 76.5746 134.122 83.2808 132.427C76.8422 126.405 75.6458 118.232 75.8 112.348C75.8036 112.21 75.8678 112.081 75.9752 111.994C76.0826 111.907 76.2218 111.873 76.358 111.897C82.5902 113.068 89.0294 111.511 94.0268 107.629C97.9532 104.578 100.674 100.417 101.892 95.5957C101.94 95.4091 102.094 95.2705 102.285 95.2447C104.74 94.9075 107.073 93.9253 109.033 92.4025C115.195 87.6133 116.313 78.7033 111.525 72.5401C110.878 71.7079 110.13 70.9411 109.299 70.2619C109.148 70.1383 109.089 69.9343 109.15 69.7495C111.154 63.7189 110.026 57.1291 106.134 52.1197C101.778 46.5139 94.727 43.8289 87.731 45.1069C87.512 45.1471 87.296 45.0283 87.2108 44.8231C86.7836 43.7869 86.2202 42.8149 85.5356 41.9341C83.501 39.3163 80.5694 37.6465 77.2796 37.2343C73.9898 36.8191 70.736 37.7149 68.1182 39.7489C66.3884 41.0935 65.0426 42.8761 64.226 44.9041C64.1378 45.1231 63.899 45.2425 63.6722 45.1843C61.6004 44.6509 59.5058 44.3887 57.4316 44.3887Z" fill="#E6E6E6"/>
<path d="M60.3526 83.9742L52.0648 85.9254L51.8698 85.0968C51.538 83.6862 51.4282 82.5036 51.541 81.549C51.6538 80.5938 51.9412 79.6788 52.402 78.8022C52.8634 77.9262 53.983 76.3122 55.7626 73.9602C56.7142 72.723 57.0958 71.7048 56.908 70.9056C56.7196 70.1058 56.3374 69.54 55.7602 69.2076C55.183 68.8752 54.415 68.8218 53.455 69.048C52.4224 69.291 51.649 69.834 51.1336 70.6764C50.6182 71.5194 50.4664 72.813 50.6782 74.559L41.9692 75.5046C41.5276 72.3246 42.0682 69.5538 43.5922 67.1928C45.1156 64.8312 47.9128 63.1716 51.9844 62.2128C55.1542 61.4664 57.8692 61.5258 60.1288 62.3904C63.196 63.5556 65.0806 65.6292 65.7826 68.6094C66.0736 69.846 66.0124 71.118 65.5996 72.4278C65.1868 73.7376 64.1212 75.4692 62.4028 77.6226C61.2082 79.1322 60.5008 80.2842 60.2818 81.0798C60.0616 81.8748 60.0856 82.8402 60.3526 83.9742ZM52.2994 88.1952L61.1758 86.1054L63.019 93.9348L54.142 96.0246L52.2994 88.1952Z" fill="#EBEBEB"/>
<path d="M81.4481 66.4729L75.6971 64.7245L75.8717 64.1497C76.1693 63.1711 76.5215 62.4103 76.9295 61.8673C77.3369 61.3243 77.8373 60.8677 78.4295 60.4963C79.0217 60.1255 80.2781 59.5375 82.1981 58.7323C83.2181 58.3147 83.8121 57.8287 83.9807 57.2737C84.1493 56.7187 84.1169 56.2375 83.8823 55.8301C83.6477 55.4227 83.1977 55.1173 82.5317 54.9151C81.8153 54.6973 81.1505 54.7543 80.5373 55.0855C79.9241 55.4173 79.3721 56.1529 78.8819 57.2941L73.2305 54.7819C74.0885 52.6843 75.4013 51.1843 77.1695 50.2837C78.9371 49.3825 81.2333 49.3615 84.0587 50.2207C86.2583 50.8897 87.8945 51.8887 88.9673 53.2177C90.4265 55.0171 90.8411 56.9509 90.2123 59.0191C89.9513 59.8771 89.4629 60.6319 88.7465 61.2853C88.0295 61.9381 86.7653 62.6173 84.9527 63.3229C83.6879 63.8203 82.8479 64.2727 82.4315 64.6813C82.0151 65.0881 81.6875 65.6857 81.4481 66.4729ZM75.0353 66.1933L81.1949 68.0659L79.5431 73.4989L73.3835 71.6263L75.0353 66.1933Z" fill="#EBEBEB"/>
<path d="M149.997 256.537C214.247 256.537 266.331 253.495 266.331 249.743C266.331 245.991 214.247 242.949 149.997 242.949C85.7483 242.949 33.6641 245.991 33.6641 249.743C33.6641 253.495 85.7483 256.537 149.997 256.537Z" fill="#F5F5F5"/>
<path d="M94.5647 148.463L94.0121 148.229C94.5083 147.056 94.7939 146.084 94.8845 145.256L95.4809 145.321C95.3837 146.209 95.0837 147.236 94.5647 148.463ZM94.3289 141.59C93.1649 139.032 91.0007 137.419 88.0703 136.925L88.1699 136.334C91.3055 136.862 93.6239 138.595 94.8749 141.342L94.3289 141.59Z" fill="#FDB514"/>
<path d="M91.1855 154.498L85.2821 157.186L85.0133 156.595C84.5561 155.591 84.2987 154.723 84.2411 153.993C84.1835 153.263 84.2627 152.536 84.4769 151.813C84.6917 151.091 85.2893 149.718 86.2691 147.697C86.7965 146.631 86.9309 145.814 86.6717 145.244C86.4125 144.675 86.0422 144.309 85.5622 144.146C85.0816 143.983 84.4997 144.057 83.8163 144.368C83.0807 144.703 82.5833 145.223 82.3235 145.93C82.0637 146.636 82.1417 147.625 82.5593 148.898L76.1927 150.896C75.3905 148.586 75.3839 146.435 76.1723 144.445C76.9601 142.455 78.8039 140.8 81.7037 139.48C83.9615 138.452 85.9985 138.094 87.8153 138.404C90.2801 138.819 91.9955 140.089 92.9621 142.211C93.3629 143.092 93.5063 144.052 93.3917 145.092C93.2771 146.132 92.7383 147.584 91.7741 149.448C91.1051 150.753 90.7474 151.719 90.7024 152.346C90.6568 152.973 90.8177 153.69 91.1855 154.498ZM85.795 158.846L92.1173 155.968L94.6559 161.545L88.3337 164.423L85.795 158.846Z" fill="#FDB514"/>
<path d="M76.5844 167.839L73.5814 171.916L73.174 171.616C72.4804 171.104 71.9752 170.611 71.6584 170.135C71.3416 169.658 71.119 169.133 70.9906 168.559C70.8622 167.984 70.7476 166.822 70.648 165.07C70.6024 164.143 70.3834 163.535 69.9898 163.245C69.5962 162.955 69.205 162.846 68.8156 162.918C68.4262 162.99 68.0578 163.262 67.7098 163.733C67.336 164.241 67.1944 164.785 67.2856 165.365C67.3768 165.946 67.8064 166.591 68.575 167.3L64.9936 171.083C63.5686 169.813 62.746 168.349 62.527 166.692C62.3074 165.035 62.9356 163.205 64.4104 161.203C65.5588 159.644 66.8116 158.625 68.1688 158.146C70.0072 157.493 71.6596 157.706 73.1254 158.786C73.7338 159.234 74.1958 159.834 74.5138 160.586C74.8312 161.339 75.0154 162.534 75.067 164.171C75.1072 165.316 75.2308 166.11 75.4378 166.555C75.6436 167 76.0264 167.428 76.5844 167.839ZM74.5618 172.853L77.7784 168.487L81.6298 171.324L78.4132 175.69L74.5618 172.853Z" fill="#FDB514"/>
<path d="M140.45 247.582C139.476 247.582 138.536 247.051 138.058 246.127C135.647 241.469 132.618 236.003 127.166 230.087C126.528 229.396 126.298 228.422 126.558 227.518C128.583 220.492 131.761 210.887 131.793 210.791C132.26 209.378 133.783 208.615 135.194 209.082C136.605 209.549 137.37 211.072 136.902 212.483C136.873 212.572 134.136 220.846 132.149 227.576C137.16 233.26 140.249 238.651 142.838 243.653C143.522 244.972 143.006 246.596 141.686 247.28C141.29 247.485 140.867 247.582 140.45 247.582Z" fill="#FDB514"/>
<path d="M144.935 249.743H124.062L135.124 243.469L144.397 243.827L144.935 249.743Z" fill="#263238"/>
<path d="M142.933 224.472C152.435 221.502 158.143 212.711 155.682 204.837C153.221 196.962 143.524 192.986 134.021 195.956C124.519 198.925 118.811 207.716 121.272 215.591C123.733 223.465 133.431 227.441 142.933 224.472Z" fill="#263238"/>
<path d="M90.99 200.389C89.934 200.389 88.9314 199.763 88.5024 198.727C87.9336 197.353 88.5858 195.779 89.9586 195.21C91.5216 194.563 91.7394 192.964 91.7406 192.948C91.8534 191.745 92.754 190.765 93.9426 190.551C94.584 190.435 95.2038 190.254 95.9208 190.044C99.5676 188.979 104.083 187.658 118.306 191.641C132.335 183.796 132.494 169.083 132.494 168.448C132.494 166.965 133.693 165.757 135.176 165.752C135.179 165.752 135.182 165.752 135.186 165.752C136.665 165.752 137.867 166.941 137.877 168.421C137.882 169.203 137.795 187.671 119.852 196.921C119.24 197.236 118.533 197.306 117.872 197.114C104.315 193.199 100.498 194.314 97.431 195.211C97.1592 195.29 96.8838 195.371 96.603 195.448C95.9388 197.156 94.5564 199.131 92.0184 200.183C91.6824 200.323 91.3332 200.389 90.99 200.389Z" fill="#263238"/>
<path d="M122.447 181.135C117.343 160.84 103.736 108.498 147.327 105.298C186.434 102.427 197.167 154.48 199.776 172.514C201.296 183.024 201.807 192.556 201.896 200.005C202.011 209.614 195.26 217.9 185.843 219.813C164.537 224.14 144.374 224.756 130.794 219.396C127.122 217.946 124.901 214.205 125.254 210.273C125.777 204.443 125.787 194.417 122.447 181.135Z" fill="#FDB514"/>
<path opacity="0.1" d="M199.775 172.512C197.317 155.518 187.642 108.287 153.779 105.334C149.838 104.99 145.949 106.93 144.134 110.444C142.624 113.369 142.672 116.918 144.935 120.425C152.399 132 170.198 172.002 167.51 193.8C166.286 203.718 160.066 211.637 165.479 222.786C172.013 222.246 178.865 221.232 185.843 219.81C195.263 217.902 202.013 209.616 201.899 200.004C201.809 192.558 201.299 183.024 199.775 172.512Z" fill="black"/>
<path d="M193.938 200.274C193.791 200.274 193.671 200.156 193.669 200.008C193.558 190.737 192.846 181.499 191.552 172.552C185.072 127.761 167.627 105.107 141.093 107.062C140.949 107.08 140.816 106.962 140.805 106.814C140.795 106.666 140.906 106.536 141.054 106.526C167.906 104.545 185.558 127.36 192.084 172.475C193.382 181.445 194.097 190.708 194.208 200.003C194.21 200.151 194.09 200.273 193.942 200.275C193.941 200.274 193.94 200.274 193.938 200.274Z" fill="#263238"/>
<path d="M193.527 225.909C203.029 222.94 208.737 214.149 206.276 206.274C203.815 198.4 194.117 194.424 184.615 197.393C175.113 200.363 169.405 209.154 171.866 217.028C174.327 224.903 184.025 228.879 193.527 225.909Z" fill="#263238"/>
<path d="M195.176 247.582C194.202 247.582 193.262 247.051 192.784 246.127C190.373 241.469 187.344 236.004 181.892 230.087C181.254 229.396 181.025 228.422 181.285 227.518C183.309 220.492 186.488 210.887 186.519 210.791C186.987 209.379 188.507 208.612 189.92 209.082C191.331 209.549 192.096 211.072 191.629 212.483C191.6 212.572 188.862 220.846 186.875 227.576C191.886 233.26 194.976 238.651 197.564 243.653C198.248 244.972 197.732 246.596 196.412 247.28C196.016 247.485 195.593 247.582 195.176 247.582Z" fill="#FDB514"/>
<path d="M189.525 165.544C188.557 165.544 187.622 165.02 187.14 164.103C186.45 162.789 186.954 161.165 188.265 160.472C188.784 160.196 200.502 153.791 203.792 138.41C195.979 135.143 181.938 127.768 178.868 124.06C178.57 123.701 178.371 123.271 178.29 122.812C178.218 122.407 177.714 119.224 178.891 116.21L177.474 113.473C176.79 112.153 177.306 110.53 178.626 109.846C179.946 109.164 181.571 109.678 182.254 110.998L184.293 114.936C184.729 115.778 184.689 116.787 184.19 117.593C183.546 118.631 183.466 120.15 183.518 121.14C186.976 124.264 200.942 131.666 207.774 134.202C208.973 134.647 209.693 135.874 209.498 137.137C206.454 156.797 191.414 164.9 190.775 165.235C190.375 165.445 189.947 165.544 189.525 165.544Z" fill="#263238"/>
<path d="M180.938 123.689C180.686 123.689 180.431 123.619 180.203 123.47C179.581 123.064 179.407 122.23 179.813 121.608C179.906 121.466 182.131 118.11 185.515 117.203C186.232 117.01 186.971 117.437 187.163 118.155C187.355 118.873 186.929 119.611 186.212 119.803C183.848 120.436 182.084 123.053 182.066 123.08C181.808 123.475 181.378 123.689 180.938 123.689Z" fill="#263238"/>
<path d="M199.662 249.743H178.789L189.851 243.469L199.124 243.827L199.662 249.743Z" fill="#263238"/>
<path d="M155.952 169.354C163.848 168.655 169.739 162.326 169.11 155.22C168.481 148.113 161.569 142.918 153.673 143.617C145.776 144.316 139.885 150.645 140.514 157.752C141.144 164.858 148.055 170.053 155.952 169.354Z" fill="white"/>
<path d="M155.098 156.669C156.184 160.48 155.365 164.053 153.271 164.65C151.176 165.247 148.597 162.641 147.511 158.831C146.425 155.02 147.244 151.447 149.338 150.85C151.433 150.253 154.012 152.858 155.098 156.669Z" fill="#263238"/>
<path d="M138.477 158.916C147.538 157.75 165.48 152.636 168.44 150.573C166.107 143.755 155.265 137.924 145.563 141.208C136.819 144.169 138.477 158.916 138.477 158.916Z" fill="#263238"/>
<path d="M140.242 163.296C151.487 161.159 166.111 157.57 170.293 155.271C170.035 162.608 167.905 170.04 156.421 172.552C147.039 174.605 140.242 163.296 140.242 163.296Z" fill="#263238"/>
<path d="M130.972 170.345C135.04 167.654 135.577 161.299 132.171 156.152C128.765 151.004 122.707 149.013 118.639 151.705C114.571 154.396 114.034 160.751 117.44 165.898C120.846 171.046 126.904 173.037 130.972 170.345Z" fill="white"/>
<path d="M124.997 161.208C125.679 164.422 125.09 167.104 123.681 167.197C122.272 167.29 120.576 164.761 119.893 161.546C119.211 158.332 119.8 155.65 121.209 155.557C122.619 155.464 124.315 157.993 124.997 161.208Z" fill="#263238"/>
<path d="M113.844 159.977C119.923 160.695 131.994 159.894 134 158.797C132.518 152.975 125.327 146.394 118.794 147.238C112.906 147.999 113.844 159.977 113.844 159.977Z" fill="#263238"/>
<path d="M114.973 163.765C122.525 164.109 132.356 163.916 135.183 162.853C134.925 168.616 133.412 174.116 125.696 174.026C119.391 173.951 114.973 163.765 114.973 163.765Z" fill="#263238"/>
<path d="M158.449 137.58C147.118 137.58 139.584 131.982 139.214 131.701C138.029 130.803 137.798 129.115 138.695 127.93C139.592 126.749 141.276 126.516 142.459 127.408C142.589 127.503 151.539 134.029 163.962 131.674C165.423 131.4 166.831 132.358 167.108 133.817C167.384 135.278 166.425 136.685 164.965 136.963C162.683 137.396 160.503 137.58 158.449 137.58Z" fill="#263238"/>
<path d="M110.325 132.94C110.023 132.94 109.715 132.889 109.415 132.781C108.016 132.278 107.29 130.736 107.792 129.338C109.219 125.366 111.584 122.788 114.824 121.673C120.696 119.651 127.02 123.583 127.286 123.752C128.543 124.546 128.918 126.208 128.125 127.465C127.332 128.718 125.675 129.095 124.419 128.307C123.194 127.544 119.395 125.784 116.559 126.769C114.925 127.336 113.714 128.773 112.858 131.157C112.463 132.256 111.428 132.94 110.325 132.94Z" fill="#263238"/>
<path d="M131.533 178.348C131.459 178.348 131.384 178.337 131.309 178.315C130.885 178.192 130.638 177.755 130.756 177.329C130.777 177.256 131.283 175.513 133.494 174.372C136.581 172.78 141.286 173.11 147.479 175.351C147.898 175.503 148.116 175.966 147.963 176.386C147.811 176.806 147.348 177.023 146.929 176.87C139.829 174.298 136.143 174.854 134.301 175.774C132.692 176.577 132.324 177.724 132.31 177.772C132.202 178.12 131.881 178.348 131.533 178.348Z" fill="#263238"/>
<path d="M106.129 175.392C90.4688 176.798 79.2578 183.283 79.2578 183.283C83.8952 182.407 100.471 202.919 104.733 218.739C112.594 215.824 121.762 213.839 131.539 212.288C125.617 195.982 114.788 177.511 106.129 175.392Z" fill="#FDB514"/>
<path opacity="0.6" d="M106.129 175.392C90.4688 176.798 79.2578 183.283 79.2578 183.283C83.8952 182.407 100.471 202.919 104.733 218.739C112.594 215.824 121.762 213.839 131.539 212.288C125.617 195.982 114.788 177.511 106.129 175.392Z" fill="white"/>
<path d="M106.128 175.392C95.8801 174.235 79.2415 182.815 79.2415 182.815C76.2937 184.695 77.0935 188.222 78.7021 189.709C80.2453 187.495 97.4419 181.733 103.906 180.96C100.689 177.984 103.678 175.826 106.128 175.392Z" fill="#FDB514"/>
<path opacity="0.2" d="M106.128 175.392C95.8801 174.235 79.2415 182.815 79.2415 182.815C76.2937 184.695 77.0935 188.222 78.7021 189.709C80.2453 187.495 97.4419 181.733 103.906 180.96C100.689 177.984 103.678 175.826 106.128 175.392Z" fill="white"/>
<path d="M90.9921 200.389C90.1131 200.389 89.2521 199.958 88.7355 199.168C86.7837 196.177 88.0028 191.614 88.2668 190.73C88.6922 189.305 90.191 188.496 91.616 188.921C93.0386 189.346 93.8481 190.843 93.4257 192.265C92.9859 193.771 92.8964 195.695 93.2426 196.226C94.055 197.471 93.7046 199.139 92.4597 199.951C92.0061 200.247 91.4961 200.389 90.9921 200.389Z" fill="#263238"/>
<path d="M107.443 60.235V55.285L122.158 34.225H129.493V54.745H133.453V60.235H129.493V66.625H123.193V60.235H107.443ZM123.598 40.975L114.373 54.745H123.598V40.975ZM137.464 49.795C137.464 44.605 138.394 40.54 140.254 37.6C142.144 34.66 145.264 33.19 149.614 33.19C153.964 33.19 157.069 34.66 158.929 37.6C160.819 40.54 161.764 44.605 161.764 49.795C161.764 55.015 160.819 59.11 158.929 62.08C157.069 65.05 153.964 66.535 149.614 66.535C145.264 66.535 142.144 65.05 140.254 62.08C138.394 59.11 137.464 55.015 137.464 49.795ZM155.554 49.795C155.554 47.575 155.404 45.715 155.104 44.215C154.834 42.685 154.264 41.44 153.394 40.48C152.554 39.52 151.294 39.04 149.614 39.04C147.934 39.04 146.659 39.52 145.789 40.48C144.949 41.44 144.379 42.685 144.079 44.215C143.809 45.715 143.674 47.575 143.674 49.795C143.674 52.075 143.809 53.995 144.079 55.555C144.349 57.085 144.919 58.33 145.789 59.29C146.659 60.22 147.934 60.685 149.614 60.685C151.294 60.685 152.569 60.22 153.439 59.29C154.309 58.33 154.879 57.085 155.149 55.555C155.419 53.995 155.554 52.075 155.554 49.795ZM166.286 60.235V55.285L181.001 34.225H188.336V54.745H192.296V60.235H188.336V66.625H182.036V60.235H166.286ZM182.441 40.975L173.216 54.745H182.441V40.975Z" fill="#1A1A1A"/>
<path d="M114.751 82.667C114.475 82.667 114.227 82.619 114.007 82.523C113.791 82.423 113.621 82.287 113.497 82.115C113.373 81.939 113.309 81.737 113.305 81.509H113.887C113.907 81.705 113.987 81.871 114.127 82.007C114.271 82.139 114.479 82.205 114.751 82.205C115.011 82.205 115.215 82.141 115.363 82.013C115.515 81.881 115.591 81.713 115.591 81.509C115.591 81.349 115.547 81.219 115.459 81.119C115.371 81.019 115.261 80.943 115.129 80.891C114.997 80.839 114.819 80.783 114.595 80.723C114.319 80.651 114.097 80.579 113.929 80.507C113.765 80.435 113.623 80.323 113.503 80.171C113.387 80.015 113.329 79.807 113.329 79.547C113.329 79.319 113.387 79.117 113.503 78.941C113.619 78.765 113.781 78.629 113.989 78.533C114.201 78.437 114.443 78.389 114.715 78.389C115.107 78.389 115.427 78.487 115.675 78.683C115.927 78.879 116.069 79.139 116.101 79.463H115.501C115.481 79.303 115.397 79.163 115.249 79.043C115.101 78.919 114.905 78.857 114.661 78.857C114.433 78.857 114.247 78.917 114.103 79.037C113.959 79.153 113.887 79.317 113.887 79.529C113.887 79.681 113.929 79.805 114.013 79.901C114.101 79.997 114.207 80.071 114.331 80.123C114.459 80.171 114.637 80.227 114.865 80.291C115.141 80.367 115.363 80.443 115.531 80.519C115.699 80.591 115.843 80.705 115.963 80.861C116.083 81.013 116.143 81.221 116.143 81.485C116.143 81.689 116.089 81.881 115.981 82.061C115.873 82.241 115.713 82.387 115.501 82.499C115.289 82.611 115.039 82.667 114.751 82.667ZM118.842 82.667C118.454 82.667 118.1 82.577 117.78 82.397C117.46 82.213 117.206 81.959 117.018 81.635C116.834 81.307 116.742 80.939 116.742 80.531C116.742 80.123 116.834 79.757 117.018 79.433C117.206 79.105 117.46 78.851 117.78 78.671C118.1 78.487 118.454 78.395 118.842 78.395C119.234 78.395 119.59 78.487 119.91 78.671C120.23 78.851 120.482 79.103 120.666 79.427C120.85 79.751 120.942 80.119 120.942 80.531C120.942 80.943 120.85 81.311 120.666 81.635C120.482 81.959 120.23 82.213 119.91 82.397C119.59 82.577 119.234 82.667 118.842 82.667ZM118.842 82.193C119.134 82.193 119.396 82.125 119.628 81.989C119.864 81.853 120.048 81.659 120.18 81.407C120.316 81.155 120.384 80.863 120.384 80.531C120.384 80.195 120.316 79.903 120.18 79.655C120.048 79.403 119.866 79.209 119.634 79.073C119.402 78.937 119.138 78.869 118.842 78.869C118.546 78.869 118.282 78.937 118.05 79.073C117.818 79.209 117.634 79.403 117.498 79.655C117.366 79.903 117.3 80.195 117.3 80.531C117.3 80.863 117.366 81.155 117.498 81.407C117.634 81.659 117.818 81.853 118.05 81.989C118.286 82.125 118.55 82.193 118.842 82.193ZM123.865 82.625L122.869 80.915H122.209V82.625H121.663V78.443H123.013C123.329 78.443 123.595 78.497 123.811 78.605C124.031 78.713 124.195 78.859 124.303 79.043C124.411 79.227 124.465 79.437 124.465 79.673C124.465 79.961 124.381 80.215 124.213 80.435C124.049 80.655 123.801 80.801 123.469 80.873L124.519 82.625H123.865ZM122.209 80.477H123.013C123.309 80.477 123.531 80.405 123.679 80.261C123.827 80.113 123.901 79.917 123.901 79.673C123.901 79.425 123.827 79.233 123.679 79.097C123.535 78.961 123.313 78.893 123.013 78.893H122.209V80.477ZM127.516 82.625L126.52 80.915H125.86V82.625H125.314V78.443H126.664C126.98 78.443 127.246 78.497 127.462 78.605C127.682 78.713 127.846 78.859 127.954 79.043C128.062 79.227 128.116 79.437 128.116 79.673C128.116 79.961 128.032 80.215 127.864 80.435C127.7 80.655 127.452 80.801 127.12 80.873L128.17 82.625H127.516ZM125.86 80.477H126.664C126.96 80.477 127.182 80.405 127.33 80.261C127.478 80.113 127.552 79.917 127.552 79.673C127.552 79.425 127.478 79.233 127.33 79.097C127.186 78.961 126.964 78.893 126.664 78.893H125.86V80.477ZM131.892 78.443L130.53 81.047V82.625H129.984V81.047L128.616 78.443H129.222L130.254 80.561L131.286 78.443H131.892ZM133.176 78.443L133.11 81.443H132.654L132.588 78.443H133.176ZM132.906 82.661C132.802 82.661 132.714 82.625 132.642 82.553C132.57 82.481 132.534 82.393 132.534 82.289C132.534 82.185 132.57 82.097 132.642 82.025C132.714 81.953 132.802 81.917 132.906 81.917C133.006 81.917 133.09 81.953 133.158 82.025C133.23 82.097 133.266 82.185 133.266 82.289C133.266 82.393 133.23 82.481 133.158 82.553C133.09 82.625 133.006 82.661 132.906 82.661ZM138.651 79.667C138.651 80.015 138.531 80.305 138.291 80.537C138.055 80.765 137.693 80.879 137.205 80.879H136.401V82.625H135.855V78.443H137.205C137.677 78.443 138.035 78.557 138.279 78.785C138.527 79.013 138.651 79.307 138.651 79.667ZM137.205 80.429C137.509 80.429 137.733 80.363 137.877 80.231C138.021 80.099 138.093 79.911 138.093 79.667C138.093 79.151 137.797 78.893 137.205 78.893H136.401V80.429H137.205ZM141.801 81.695H139.977L139.641 82.625H139.065L140.577 78.467H141.207L142.713 82.625H142.137L141.801 81.695ZM141.645 81.251L140.889 79.139L140.133 81.251H141.645ZM146.54 79.655C146.424 79.411 146.256 79.223 146.036 79.091C145.816 78.955 145.56 78.887 145.268 78.887C144.976 78.887 144.712 78.955 144.476 79.091C144.244 79.223 144.06 79.415 143.924 79.667C143.792 79.915 143.726 80.203 143.726 80.531C143.726 80.859 143.792 81.147 143.924 81.395C144.06 81.643 144.244 81.835 144.476 81.971C144.712 82.103 144.976 82.169 145.268 82.169C145.676 82.169 146.012 82.047 146.276 81.803C146.54 81.559 146.694 81.229 146.738 80.813H145.07V80.369H147.32V80.789C147.288 81.133 147.18 81.449 146.996 81.737C146.812 82.021 146.57 82.247 146.27 82.415C145.97 82.579 145.636 82.661 145.268 82.661C144.88 82.661 144.526 82.571 144.206 82.391C143.886 82.207 143.632 81.953 143.444 81.629C143.26 81.305 143.168 80.939 143.168 80.531C143.168 80.123 143.26 79.757 143.444 79.433C143.632 79.105 143.886 78.851 144.206 78.671C144.526 78.487 144.88 78.395 145.268 78.395C145.712 78.395 146.104 78.505 146.444 78.725C146.788 78.945 147.038 79.255 147.194 79.655H146.54ZM148.588 78.887V80.285H150.112V80.735H148.588V82.175H150.292V82.625H148.042V78.437H150.292V78.887H148.588ZM156.006 82.625H155.46L153.264 79.295V82.625H152.718V78.437H153.264L155.46 81.761V78.437H156.006V82.625ZM158.833 82.667C158.445 82.667 158.091 82.577 157.771 82.397C157.451 82.213 157.197 81.959 157.009 81.635C156.825 81.307 156.733 80.939 156.733 80.531C156.733 80.123 156.825 79.757 157.009 79.433C157.197 79.105 157.451 78.851 157.771 78.671C158.091 78.487 158.445 78.395 158.833 78.395C159.225 78.395 159.581 78.487 159.901 78.671C160.221 78.851 160.473 79.103 160.657 79.427C160.841 79.751 160.933 80.119 160.933 80.531C160.933 80.943 160.841 81.311 160.657 81.635C160.473 81.959 160.221 82.213 159.901 82.397C159.581 82.577 159.225 82.667 158.833 82.667ZM158.833 82.193C159.125 82.193 159.387 82.125 159.619 81.989C159.855 81.853 160.039 81.659 160.171 81.407C160.307 81.155 160.375 80.863 160.375 80.531C160.375 80.195 160.307 79.903 160.171 79.655C160.039 79.403 159.857 79.209 159.625 79.073C159.393 78.937 159.129 78.869 158.833 78.869C158.537 78.869 158.273 78.937 158.041 79.073C157.809 79.209 157.625 79.403 157.489 79.655C157.357 79.903 157.291 80.195 157.291 80.531C157.291 80.863 157.357 81.155 157.489 81.407C157.625 81.659 157.809 81.853 158.041 81.989C158.277 82.125 158.541 82.193 158.833 82.193ZM164.227 78.443V78.887H163.087V82.625H162.541V78.887H161.395V78.443H164.227ZM168.863 78.443V78.887H167.045V80.297H168.521V80.741H167.045V82.625H166.499V78.443H168.863ZM171.419 82.667C171.031 82.667 170.677 82.577 170.357 82.397C170.037 82.213 169.783 81.959 169.595 81.635C169.411 81.307 169.319 80.939 169.319 80.531C169.319 80.123 169.411 79.757 169.595 79.433C169.783 79.105 170.037 78.851 170.357 78.671C170.677 78.487 171.031 78.395 171.419 78.395C171.811 78.395 172.167 78.487 172.487 78.671C172.807 78.851 173.059 79.103 173.243 79.427C173.427 79.751 173.519 80.119 173.519 80.531C173.519 80.943 173.427 81.311 173.243 81.635C173.059 81.959 172.807 82.213 172.487 82.397C172.167 82.577 171.811 82.667 171.419 82.667ZM171.419 82.193C171.711 82.193 171.973 82.125 172.205 81.989C172.441 81.853 172.625 81.659 172.757 81.407C172.893 81.155 172.961 80.863 172.961 80.531C172.961 80.195 172.893 79.903 172.757 79.655C172.625 79.403 172.443 79.209 172.211 79.073C171.979 78.937 171.715 78.869 171.419 78.869C171.123 78.869 170.859 78.937 170.627 79.073C170.395 79.209 170.211 79.403 170.075 79.655C169.943 79.903 169.877 80.195 169.877 80.531C169.877 80.863 169.943 81.155 170.075 81.407C170.211 81.659 170.395 81.853 170.627 81.989C170.863 82.125 171.127 82.193 171.419 82.193ZM174.773 78.443V81.089C174.773 81.461 174.863 81.737 175.043 81.917C175.227 82.097 175.481 82.187 175.805 82.187C176.125 82.187 176.375 82.097 176.555 81.917C176.739 81.737 176.831 81.461 176.831 81.089V78.443H177.377V81.083C177.377 81.431 177.307 81.725 177.167 81.965C177.027 82.201 176.837 82.377 176.597 82.493C176.361 82.609 176.095 82.667 175.799 82.667C175.503 82.667 175.235 82.609 174.995 82.493C174.759 82.377 174.571 82.201 174.431 81.965C174.295 81.725 174.227 81.431 174.227 81.083V78.443H174.773ZM181.576 82.625H181.03L178.834 79.295V82.625H178.288V78.437H178.834L181.03 81.761V78.437H181.576V82.625ZM183.809 78.443C184.265 78.443 184.659 78.529 184.991 78.701C185.327 78.869 185.583 79.111 185.759 79.427C185.939 79.743 186.029 80.115 186.029 80.543C186.029 80.971 185.939 81.343 185.759 81.659C185.583 81.971 185.327 82.211 184.991 82.379C184.659 82.543 184.265 82.625 183.809 82.625H182.507V78.443H183.809ZM183.809 82.175C184.349 82.175 184.761 82.033 185.045 81.749C185.329 81.461 185.471 81.059 185.471 80.543C185.471 80.023 185.327 79.617 185.039 79.325C184.755 79.033 184.345 78.887 183.809 78.887H183.053V82.175H183.809Z" fill="#1A1A1A"/>
</svg>
