<svg width="301" height="300" viewBox="0 0 301 300" fill="none" xmlns="http://www.w3.org/2000/svg">
<g clip-path="url(#clip0_2747_23666)">
<path d="M128.713 193.032L128.163 196.41L127.572 200.039L122.173 233.141H113.344L118.743 200.039L119.334 196.41L119.884 193.032H128.713Z" fill="#EBEBEB"/>
<path d="M127.433 193.032C126.968 196.385 126.467 199.732 125.962 203.079L124.405 213.112L122.774 223.133L121.931 228.14L121.055 233.141L121.773 228.114L122.525 223.094L124.082 213.06L125.714 203.039C126.272 199.701 126.834 196.364 127.433 193.032Z" fill="#C7C7C7"/>
<path d="M128.163 196.409L127.571 200.039H118.742L119.334 196.409H128.163Z" fill="#C7C7C7"/>
<path d="M172.289 193.032L172.839 196.41L173.43 200.039L178.829 233.141H187.658L182.259 200.039L181.667 196.41L181.118 193.032H172.289Z" fill="#EBEBEB"/>
<path d="M173.594 193.032C174.059 196.385 174.559 199.732 175.064 203.079L176.621 213.112L178.252 223.133L179.095 228.14L179.971 233.141L179.253 228.114L178.501 223.094L176.944 213.06L175.312 203.039C174.755 199.701 174.192 196.364 173.594 193.032Z" fill="#C7C7C7"/>
<path d="M172.836 196.409H181.664L182.257 200.039H173.428L172.836 196.409Z" fill="#C7C7C7"/>
<path d="M128.387 183.719H121.387L122.257 177.194H127.517L128.387 183.719Z" fill="#C7C7C7"/>
<path d="M131.319 173.667C131.945 170.119 129.576 166.734 126.028 166.108C122.48 165.482 119.096 167.851 118.47 171.399C117.844 174.947 120.212 178.331 123.761 178.958C127.309 179.584 130.693 177.215 131.319 173.667Z" fill="#DBDBDB"/>
<path d="M129.724 173.673C130.356 171.008 128.707 168.335 126.042 167.704C123.377 167.072 120.705 168.721 120.073 171.386C119.442 174.051 121.09 176.723 123.755 177.355C126.42 177.986 129.093 176.338 129.724 173.673Z" fill="white"/>
<path d="M129.037 172.243C128.949 171.032 128.334 169.917 127.417 169.2C126.499 168.48 125.284 168.147 124.083 168.326C122.921 168.499 121.864 169.189 121.216 170.191C120.558 171.192 120.336 172.504 120.693 173.767C120.979 174.804 121.702 175.7 122.629 176.219C123.554 176.746 124.661 176.908 125.664 176.686C126.675 176.474 127.585 175.908 128.211 175.127C128.842 174.351 129.219 173.372 129.259 172.364C129.262 172.316 129.244 172.276 129.22 172.275C129.196 172.275 129.175 172.311 129.172 172.36C129.156 172.77 129.066 173.171 128.941 173.556C128.806 173.939 128.617 174.298 128.392 174.632C128.159 174.961 127.886 175.259 127.58 175.525C127.269 175.784 126.923 176.006 126.55 176.19C125.499 176.695 124.245 176.731 123.165 176.271C122.087 175.82 121.219 174.886 120.869 173.752C120.493 172.552 120.679 171.27 121.303 170.281C121.923 169.293 122.959 168.609 124.094 168.444C125.661 168.219 127.243 168.794 128.202 170.08C128.434 170.397 128.615 170.745 128.756 171.111C128.89 171.48 128.972 171.866 129.016 172.263C129.019 172.274 129.025 172.278 129.031 172.275C129.037 172.27 129.039 172.257 129.037 172.243Z" fill="#EBEBEB"/>
<path d="M128.455 172.249C128.368 171.207 127.834 170.263 127.05 169.651C126.263 169.04 125.234 168.754 124.201 168.895C123.206 169.034 122.29 169.617 121.72 170.477C121.144 171.334 120.939 172.473 121.239 173.575C121.479 174.479 122.11 175.267 122.92 175.718C123.727 176.176 124.694 176.314 125.567 176.114C126.445 175.924 127.232 175.427 127.771 174.747C128.315 174.07 128.639 173.227 128.678 172.352C128.68 172.311 128.663 172.276 128.638 172.275C128.615 172.275 128.593 172.307 128.591 172.349C128.517 173.779 127.609 175.034 126.326 175.655C125.423 176.098 124.333 176.137 123.398 175.741C122.463 175.353 121.708 174.537 121.414 173.555C121.097 172.515 121.267 171.406 121.811 170.563C122.352 169.718 123.248 169.142 124.215 169.014C125.553 168.84 126.886 169.313 127.719 170.405C127.918 170.674 128.075 170.97 128.2 171.281C128.317 171.596 128.391 171.925 128.435 172.267C128.438 172.276 128.444 172.28 128.45 172.276C128.455 172.271 128.458 172.26 128.455 172.249Z" fill="#EBEBEB"/>
<path d="M127.874 172.252C127.786 171.38 127.335 170.607 126.683 170.101C126.028 169.599 125.184 169.358 124.32 169.462C123.492 169.566 122.715 170.043 122.225 170.761C121.729 171.474 121.543 172.44 121.785 173.38C121.979 174.153 122.517 174.832 123.21 175.215C123.9 175.605 124.726 175.718 125.47 175.54C126.215 175.372 126.879 174.946 127.332 174.366C127.788 173.789 128.06 173.08 128.097 172.34C128.099 172.305 128.082 172.275 128.057 172.275C128.034 172.275 128.012 172.301 128.01 172.337C127.939 173.541 127.173 174.583 126.102 175.119C125.348 175.5 124.42 175.542 123.631 175.208C122.839 174.883 122.197 174.186 121.958 173.355C121.699 172.474 121.854 171.54 122.318 170.843C122.781 170.142 123.537 169.674 124.336 169.581C124.896 169.521 125.437 169.583 125.935 169.771C126.432 169.961 126.887 170.282 127.236 170.727C127.403 170.948 127.535 171.192 127.643 171.448C127.744 171.708 127.809 171.981 127.853 172.267C127.856 172.274 127.863 172.279 127.868 172.275C127.875 172.272 127.876 172.262 127.874 172.252Z" fill="#EBEBEB"/>
<path d="M127.296 172.257C127.208 171.554 126.839 170.952 126.32 170.551C125.797 170.157 125.138 169.963 124.443 170.031C123.782 170.098 123.145 170.47 122.735 171.046C122.32 171.615 122.151 172.408 122.337 173.187C122.484 173.828 122.93 174.398 123.506 174.714C124.079 175.034 124.764 175.123 125.378 174.968C125.99 174.822 126.53 174.466 126.897 173.986C127.266 173.508 127.485 172.935 127.52 172.328C127.522 172.299 127.505 172.275 127.481 172.274C127.457 172.274 127.436 172.296 127.433 172.325C127.365 173.304 126.742 174.132 125.882 174.582C125.278 174.901 124.514 174.946 123.868 174.676C123.219 174.414 122.692 173.836 122.508 173.155C122.308 172.435 122.447 171.675 122.831 171.123C123.214 170.565 123.83 170.204 124.462 170.147C124.906 170.112 125.33 170.163 125.721 170.308C126.111 170.454 126.474 170.701 126.758 171.048C126.893 171.222 127.001 171.413 127.092 171.615C127.176 171.82 127.233 172.037 127.277 172.267C127.28 172.273 127.287 172.278 127.293 172.274C127.296 172.272 127.299 172.264 127.296 172.257Z" fill="#EBEBEB"/>
<path d="M179.464 183.721H172.465L173.335 177.196H178.594L179.464 183.721Z" fill="#C7C7C7"/>
<path d="M182.422 173.516C182.966 169.954 180.519 166.626 176.957 166.082C173.395 165.538 170.067 167.985 169.524 171.547C168.98 175.109 171.427 178.437 174.989 178.981C178.55 179.524 181.879 177.078 182.422 173.516Z" fill="#DBDBDB"/>
<path d="M180.877 173.284C181.29 170.577 179.43 168.047 176.722 167.634C174.015 167.221 171.485 169.081 171.072 171.788C170.659 174.496 172.519 177.026 175.227 177.439C177.934 177.852 180.464 175.992 180.877 173.284Z" fill="white"/>
<path d="M180.107 172.247C180.019 171.036 179.404 169.92 178.488 169.203C177.57 168.483 176.355 168.151 175.153 168.33C173.991 168.503 172.935 169.192 172.286 170.194C171.628 171.195 171.406 172.508 171.763 173.771C172.05 174.807 172.773 175.704 173.699 176.223C174.624 176.75 175.731 176.912 176.734 176.689C177.745 176.478 178.656 175.911 179.281 175.131C179.912 174.355 180.289 173.376 180.33 172.368C180.332 172.32 180.315 172.28 180.29 172.278C180.267 172.278 180.245 172.315 180.243 172.364C180.226 172.773 180.136 173.175 180.011 173.56C179.876 173.943 179.688 174.302 179.463 174.636C179.23 174.965 178.956 175.263 178.65 175.528C178.339 175.788 177.993 176.01 177.621 176.194C176.569 176.698 175.315 176.734 174.235 176.275C173.158 175.824 172.288 174.889 171.939 173.756C171.564 172.556 171.749 171.273 172.373 170.284C172.993 169.296 174.029 168.613 175.164 168.448C176.731 168.223 178.313 168.798 179.272 170.083C179.504 170.401 179.685 170.749 179.826 171.115C179.961 171.484 180.042 171.87 180.086 172.267C180.089 172.278 180.096 172.282 180.101 172.278C180.107 172.273 180.109 172.261 180.107 172.247Z" fill="#EBEBEB"/>
<path d="M179.526 172.252C179.438 171.211 178.904 170.266 178.12 169.655C177.334 169.044 176.305 168.757 175.272 168.899C174.277 169.038 173.36 169.621 172.791 170.481C172.214 171.337 172.009 172.477 172.309 173.578C172.549 174.483 173.18 175.271 173.99 175.722C174.798 176.179 175.764 176.317 176.637 176.118C177.515 175.927 178.302 175.431 178.842 174.751C179.385 174.074 179.709 173.23 179.748 172.356C179.751 172.315 179.733 172.28 179.709 172.279C179.685 172.279 179.664 172.311 179.661 172.353C179.587 173.782 178.679 175.038 177.396 175.659C176.494 176.102 175.403 176.141 174.468 175.744C173.533 175.357 172.779 174.541 172.484 173.559C172.167 172.519 172.337 171.41 172.881 170.567C173.422 169.722 174.318 169.146 175.285 169.018C176.623 168.844 177.957 169.317 178.789 170.409C178.988 170.678 179.145 170.974 179.269 171.285C179.387 171.6 179.461 171.929 179.505 172.27C179.508 172.28 179.514 172.284 179.52 172.28C179.526 172.275 179.528 172.264 179.526 172.252Z" fill="#EBEBEB"/>
<path d="M178.944 172.256C178.857 171.384 178.405 170.611 177.753 170.105C177.099 169.602 176.254 169.362 175.39 169.466C174.562 169.569 173.785 170.046 173.295 170.765C172.8 171.477 172.613 172.443 172.856 173.384C173.05 174.156 173.588 174.836 174.281 175.219C174.971 175.608 175.797 175.722 176.541 175.544C177.286 175.376 177.949 174.95 178.403 174.37C178.859 173.793 179.131 173.084 179.168 172.344C179.17 172.309 179.153 172.279 179.128 172.278C179.105 172.278 179.083 172.305 179.081 172.341C179.01 173.545 178.245 174.587 177.173 175.122C176.419 175.503 175.492 175.545 174.702 175.212C173.91 174.887 173.269 174.19 173.029 173.358C172.771 172.478 172.926 171.544 173.389 170.847C173.852 170.145 174.608 169.677 175.407 169.584C175.967 169.525 176.508 169.587 177.006 169.775C177.503 169.965 177.958 170.286 178.307 170.73C178.474 170.952 178.606 171.195 178.714 171.452C178.815 171.711 178.881 171.985 178.924 172.271C178.927 172.278 178.934 172.283 178.94 172.279C178.944 172.275 178.947 172.266 178.944 172.256Z" fill="#EBEBEB"/>
<path d="M178.367 172.26C178.279 171.558 177.91 170.956 177.39 170.555C176.867 170.161 176.209 169.967 175.514 170.034C174.853 170.102 174.215 170.474 173.805 171.05C173.39 171.618 173.221 172.412 173.407 173.191C173.554 173.832 174.001 174.402 174.577 174.717C175.149 175.038 175.835 175.127 176.448 174.972C177.06 174.826 177.601 174.47 177.968 173.99C178.337 173.512 178.556 172.938 178.591 172.332C178.592 172.303 178.576 172.279 178.551 172.278C178.528 172.278 178.506 172.299 178.504 172.329C178.436 173.308 177.812 174.136 176.953 174.586C176.348 174.905 175.584 174.95 174.938 174.68C174.29 174.417 173.762 173.84 173.578 173.159C173.378 172.439 173.517 171.678 173.901 171.126C174.284 170.568 174.901 170.208 175.532 170.151C175.976 170.116 176.401 170.167 176.791 170.312C177.181 170.458 177.545 170.705 177.828 171.052C177.964 171.226 178.071 171.417 178.162 171.619C178.247 171.824 178.304 172.041 178.348 172.271C178.351 172.277 178.357 172.281 178.363 172.278C178.367 172.276 178.369 172.268 178.367 172.26Z" fill="#EBEBEB"/>
<path d="M194.487 180.396H106.52V197.221H194.487V180.396Z" fill="#DBDBDB"/>
<path d="M124.596 180.397L118.212 197.222H106.852L113.236 180.397H124.596Z" fill="#EBEBEB"/>
<path d="M147.881 180.397L141.497 197.222H130.133L136.517 180.397H147.881Z" fill="#EBEBEB"/>
<path d="M171.166 180.397L164.782 197.222H153.422L159.806 180.397H171.166Z" fill="#EBEBEB"/>
<path d="M194.455 180.397L188.071 197.222H176.707L183.091 180.397H194.455Z" fill="#EBEBEB"/>
<path d="M192.706 212.776H108.301V223.424H192.706V212.776Z" fill="#DBDBDB"/>
<path d="M125.647 212.777L119.521 223.425H108.621L114.746 212.777H125.647Z" fill="#EBEBEB"/>
<path d="M147.991 212.777L141.865 223.425H130.961L137.087 212.777H147.991Z" fill="#EBEBEB"/>
<path d="M170.334 212.777L164.209 223.425H153.309L159.435 212.777H170.334Z" fill="#EBEBEB"/>
<path d="M192.679 212.777L186.553 223.425H175.648L181.774 212.777H192.679Z" fill="#EBEBEB"/>
<path d="M281.182 100.267H213.273C213.273 100.267 220.007 81.8767 230.369 81.8767C240.732 81.8767 243.978 94.5709 243.978 94.5709C243.978 94.5709 250.97 87.6739 256.712 87.6739C262.455 87.6739 267.449 96.7879 267.449 96.7879C267.449 96.7879 275.564 91.8865 281.182 100.267Z" fill="#EBEBEB"/>
<path d="M99.1844 57.1349H67.4492C67.4492 57.1349 74.5406 46.8611 80.1272 46.8611C85.7144 46.8611 87.365 53.7107 87.365 53.7107C87.365 53.7107 91.3076 50.5145 94.961 51.0851C98.6138 51.6557 99.1844 57.1349 99.1844 57.1349Z" fill="#EBEBEB"/>
<path d="M270.372 131.108H238.637C238.637 131.108 245.728 120.834 251.315 120.834C256.901 120.834 258.553 127.684 258.553 127.684C258.553 127.684 262.495 124.488 266.149 125.058C269.801 125.628 270.372 131.108 270.372 131.108Z" fill="#EBEBEB"/>
<path d="M81.6392 82.8785H19.8242C19.8242 82.8785 28.2896 63.9797 37.3448 62.7983C46.4006 61.6169 50.7314 76.8413 50.7314 76.8413C50.7314 76.8413 56.5718 71.4605 61.1654 71.4605C65.759 71.4605 69.3026 78.5477 69.3026 78.5477C69.3026 78.5477 78.4892 73.6913 81.6392 82.8785Z" fill="#EBEBEB"/>
<path d="M22.0469 233.291L53.8601 233.145L85.6739 233.092L149.301 232.992L212.928 233.092L244.742 233.145L276.555 233.291L244.742 233.438L212.928 233.491L149.301 233.59L85.6739 233.49L53.8601 233.437L22.0469 233.291Z" fill="#263238"/>
<path d="M150.495 280.579C220.113 280.579 276.549 274.001 276.549 265.885C276.549 257.77 220.113 251.191 150.495 251.191C80.8777 251.191 24.4414 257.77 24.4414 265.885C24.4414 274.001 80.8777 280.579 150.495 280.579Z" fill="#EBEBEB"/>
<path d="M166.978 268.619C168.224 269.041 203.95 269.166 205.316 268.31C205.836 267.988 206.158 262.786 206.368 256.489C206.413 255.129 206.452 253.725 206.483 252.298L209.38 233.243L185.497 233.09L183.242 252.149L183.334 256.341C183.334 256.341 169.634 262.412 168.237 263.511C166.848 264.611 165.731 268.197 166.978 268.619Z" fill="#EB9481"/>
<path d="M166.978 268.618C168.224 269.04 203.95 269.165 205.316 268.309C205.948 267.914 206.291 260.317 206.483 252.298L183.243 252.149L183.334 256.341C183.334 256.341 169.634 262.411 168.238 263.511C166.848 264.61 165.731 268.196 166.978 268.618Z" fill="white"/>
<path d="M166.978 268.62C168.224 269.042 203.95 269.167 205.316 268.311C205.836 267.989 206.158 262.787 206.368 256.49L183.334 256.342C183.334 256.342 169.634 262.413 168.238 263.512C166.848 264.612 165.731 268.198 166.978 268.62Z" fill="#FDB514"/>
<path d="M167.494 267.194C173.483 267.068 197.652 267.125 203.582 267.455C203.63 267.458 203.63 267.491 203.582 267.493C197.648 267.748 173.48 267.495 167.493 267.292C167.366 267.287 167.367 267.196 167.494 267.194Z" fill="#263238"/>
<path d="M170.536 262.236C171.957 262.184 173.342 262.863 174.114 263.711C174.855 264.527 175.487 265.671 175.441 266.913C175.44 266.949 175.374 266.95 175.369 266.913C175.035 264.568 172.91 262.502 170.536 262.311C170.488 262.307 170.488 262.238 170.536 262.236Z" fill="#263238"/>
<path d="M181.009 256.93C183.406 256.905 186.182 257.761 187.665 259.727C187.722 259.803 187.613 259.883 187.542 259.847C185.379 258.722 183.322 257.882 180.967 257.225C180.801 257.179 180.837 256.932 181.009 256.93Z" fill="#263238"/>
<path d="M179.157 257.645C181.554 257.62 184.33 258.476 185.813 260.442C185.871 260.518 185.761 260.598 185.691 260.561C183.528 259.437 181.471 258.597 179.115 257.94C178.949 257.893 178.986 257.647 179.157 257.645Z" fill="#263238"/>
<path d="M177.306 258.36C179.703 258.335 182.479 259.191 183.962 261.156C184.019 261.233 183.91 261.313 183.839 261.276C181.676 260.152 179.619 259.312 177.264 258.655C177.098 258.609 177.134 258.362 177.306 258.36Z" fill="#263238"/>
<path d="M175.45 259.075C177.847 259.049 180.623 259.906 182.106 261.871C182.164 261.947 182.054 262.028 181.984 261.991C179.821 260.867 177.764 260.027 175.408 259.37C175.242 259.323 175.279 259.076 175.45 259.075Z" fill="#263238"/>
<path d="M202.075 261.76C204.764 261.777 204.742 265.957 202.048 265.94C199.359 265.922 199.381 261.743 202.075 261.76Z" fill="#263238"/>
<path d="M178.619 254.04C179.907 255.713 181.874 256.771 183.576 257.957C183.753 258.08 183.956 257.937 184.008 257.765C184.048 257.768 184.086 257.748 184.083 257.697C183.957 255.63 183.132 253.255 181.927 251.559C181.182 250.512 179.657 249.523 178.44 250.525C177.289 251.473 177.867 253.062 178.619 254.04ZM178.515 252.054C178.762 249.447 181.108 251.458 181.626 252.252C181.959 252.762 182.236 253.322 182.496 253.872C183.04 255.024 183.411 256.232 183.834 257.428C183.034 256.794 182.186 256.234 181.363 255.631C180.382 254.91 178.378 253.491 178.515 252.054Z" fill="#263238"/>
<path d="M192.601 256.199C192.418 254.633 190.634 254.288 189.372 254.527C187.327 254.914 185.086 256.054 183.562 257.455C183.525 257.489 183.539 257.531 183.569 257.557C183.487 257.716 183.534 257.96 183.747 257.994C185.797 258.319 187.947 258.921 190.036 258.608C191.255 258.424 192.774 257.68 192.601 256.199ZM186.955 257.851C185.943 257.716 184.944 257.531 183.928 257.434C185.062 256.865 186.167 256.252 187.358 255.799C187.926 255.582 188.514 255.371 189.108 255.234C190.032 255.021 193.117 255.198 191.488 257.248C190.59 258.379 188.161 258.013 186.955 257.851Z" fill="#263238"/>
<path d="M244.477 145.159C244.477 145.159 216.742 192.342 215.999 195.655C214.858 200.745 208.809 251.017 208.809 251.017L179.949 250.497C179.949 250.497 184.923 206.174 189.634 191.572C193.027 181.054 217.504 146.17 217.504 146.17L244.477 145.159Z" fill="#37474F"/>
<path d="M182.575 246.072C186.72 246.042 201.406 245.876 206.923 246.391C206.965 246.395 206.964 246.465 206.922 246.471C205.023 246.743 186.716 246.319 182.574 246.186C182.496 246.184 182.497 246.073 182.575 246.072Z" fill="#263238"/>
<path d="M239.747 149.489C237.929 152.339 236.012 155.13 234.153 157.956C232.294 160.784 230.442 163.615 228.614 166.461C224.96 172.151 221.401 177.9 217.908 183.686C216.27 186.399 214.71 189.137 213.585 192.096C212.47 195.028 211.712 198.078 211.151 201.153C210.585 204.25 210.212 207.377 209.861 210.503C209.486 213.832 209.117 217.161 208.745 220.49C207.985 227.302 207.225 234.113 206.464 240.925C206.37 241.761 206.279 242.596 206.196 243.432C206.184 243.555 206.403 243.579 206.418 243.456C207.267 236.688 207.973 229.899 208.744 223.122C209.128 219.748 209.512 216.374 209.896 213C210.253 209.862 210.593 206.721 211.08 203.601C211.558 200.535 212.179 197.482 213.113 194.515C214.088 191.415 215.468 188.504 217.103 185.685C220.447 179.917 223.986 174.248 227.526 168.593C231.098 162.889 234.698 157.202 238.433 151.598C238.894 150.906 239.359 150.218 239.837 149.538C239.873 149.484 239.781 149.434 239.747 149.489Z" fill="#263238"/>
<path d="M219.96 272.585C221.276 272.672 256.721 263.326 257.825 262.152C257.862 262.112 257.891 262.03 257.909 261.91C258.05 260.75 256.235 256.396 254.965 250.825C254.886 250.468 254.219 248.778 253.284 246.494C250.713 240.22 246.123 229.448 246.123 229.448L222.977 235.384L231.503 252.515L232.655 256.544C232.655 256.544 220.952 265.906 219.883 267.324C218.82 268.74 218.65 272.492 219.96 272.585Z" fill="#EB9481"/>
<path d="M219.96 272.585C221.276 272.672 256.721 263.326 257.825 262.153C257.862 262.113 257.891 262.03 257.909 261.91C258.05 260.751 256.235 256.396 254.965 250.825C254.886 250.469 254.219 248.779 253.284 246.495L231.503 252.516L232.655 256.545C232.655 256.545 220.952 265.907 219.883 267.325C218.82 268.741 218.65 272.493 219.96 272.585Z" fill="white"/>
<path d="M219.964 272.583C221.276 272.674 256.723 263.327 257.825 262.151C258.246 261.707 257.327 256.912 254.968 250.825L232.656 256.546C232.656 256.546 220.952 265.904 219.882 267.323C218.818 268.741 218.651 272.492 219.964 272.583Z" fill="#FDB514"/>
<path d="M220.1 271.07C225.86 269.424 249.247 263.326 255.066 262.137C255.113 262.127 255.122 262.159 255.076 262.173C249.402 263.929 225.966 269.837 220.125 271.165C220.002 271.193 219.978 271.105 220.1 271.07Z" fill="#263238"/>
<path d="M221.785 265.5C223.145 265.087 224.658 265.391 225.62 266.015C226.544 266.615 227.448 267.561 227.719 268.774C227.727 268.809 227.663 268.826 227.649 268.792C226.729 266.609 224.149 265.152 221.803 265.572C221.757 265.581 221.739 265.514 221.785 265.5Z" fill="#263238"/>
<path d="M230.556 257.705C232.868 257.071 235.771 257.192 237.705 258.715C237.78 258.774 237.694 258.88 237.616 258.862C235.238 258.325 233.035 258.037 230.59 258.001C230.418 257.999 230.391 257.75 230.556 257.705Z" fill="#263238"/>
<path d="M228.946 258.868C231.258 258.234 234.161 258.354 236.095 259.878C236.17 259.937 236.085 260.043 236.007 260.025C233.629 259.488 231.426 259.2 228.981 259.164C228.808 259.161 228.781 258.914 228.946 258.868Z" fill="#263238"/>
<path d="M227.337 260.031C229.649 259.396 232.552 259.517 234.486 261.041C234.561 261.1 234.475 261.205 234.397 261.188C232.02 260.651 229.816 260.362 227.371 260.327C227.199 260.324 227.172 260.076 227.337 260.031Z" fill="#263238"/>
<path d="M225.728 261.195C228.04 260.561 230.942 260.682 232.876 262.206C232.951 262.265 232.866 262.371 232.788 262.353C230.41 261.816 228.207 261.528 225.762 261.492C225.589 261.489 225.562 261.241 225.728 261.195Z" fill="#263238"/>
<path d="M252.161 257.013C254.766 256.345 255.808 260.393 253.199 261.062C250.594 261.73 249.551 257.683 252.161 257.013Z" fill="#263238"/>
<path d="M227.51 255.517C229.182 256.808 231.353 257.33 233.301 258.044C233.503 258.118 233.664 257.927 233.67 257.748C233.709 257.741 233.74 257.711 233.725 257.663C233.076 255.697 231.675 253.61 230.077 252.277C229.09 251.453 227.364 250.886 226.442 252.164C225.571 253.374 226.534 254.764 227.51 255.517ZM226.904 253.623C226.48 251.039 229.26 252.387 229.963 253.022C230.415 253.431 230.826 253.902 231.217 254.368C232.036 255.344 232.702 256.418 233.416 257.467C232.481 257.057 231.519 256.732 230.569 256.357C229.437 255.911 227.138 255.048 226.904 253.623Z" fill="#263238"/>
<path d="M241.581 254.044C241.007 252.577 239.193 252.697 238.033 253.25C236.154 254.144 234.278 255.817 233.16 257.56C233.133 257.602 233.157 257.64 233.193 257.656C233.154 257.831 233.262 258.055 233.477 258.034C235.541 257.827 237.774 257.861 239.714 257.027C240.846 256.539 242.125 255.433 241.581 254.044ZM236.543 257.079C235.529 257.206 234.516 257.282 233.508 257.446C234.461 256.608 235.373 255.733 236.409 254.991C236.904 254.637 237.419 254.283 237.958 254C238.797 253.559 241.826 252.945 240.772 255.342C240.191 256.665 237.75 256.929 236.543 257.079Z" fill="#263238"/>
<path d="M229.911 251.412L255.839 244.608C255.839 244.608 231.015 195.752 231.217 192.377C231.396 189.388 249.402 163.17 250.398 158.262C252.028 150.229 248.115 143.053 244.321 138.608L217.503 146.169C217.503 146.169 219.639 150.807 223.561 153.738C223.561 153.738 206.707 181.879 206.275 191.139C205.841 200.45 229.911 251.412 229.911 251.412Z" fill="#37474F"/>
<path d="M229.412 246.586C233.173 245.509 232.079 245.765 235.852 244.729C237.699 244.223 249.836 240.905 251.641 240.735C251.681 240.731 251.698 240.796 251.661 240.812C250.007 241.555 237.815 244.66 235.958 245.131C232.166 246.094 233.244 245.776 229.441 246.695C229.37 246.713 229.341 246.606 229.412 246.586Z" fill="#263238"/>
<path d="M219.445 152.658C222.022 153.566 224.502 154.834 226.871 156.16C226.964 156.212 226.899 156.351 226.798 156.307C224.295 155.216 221.741 154.169 219.304 152.946C219.112 152.85 219.247 152.588 219.445 152.658Z" fill="#263238"/>
<path d="M222.596 151.996C222.791 152.465 222.946 152.952 223.075 153.442C223.176 153.822 223.315 154.233 223.263 154.627C223.253 154.703 223.148 154.708 223.106 154.656C222.848 154.328 222.745 153.883 222.605 153.498C222.442 153.05 222.269 152.605 222.119 152.154C222.02 151.854 222.476 151.707 222.596 151.996Z" fill="#263238"/>
<path d="M222.593 149.565C222.487 149.154 222.38 148.743 222.265 148.334C222.146 147.911 221.999 147.489 221.913 147.059C221.899 146.991 221.791 147.022 221.809 147.091C221.914 147.502 221.962 147.934 222.035 148.353C222.108 148.773 222.189 149.193 222.271 149.611C222.425 150.391 222.635 151.173 222.864 151.937C222.449 151.878 222.023 151.805 221.669 151.569C221.285 151.312 221.091 150.844 220.94 150.423C220.772 149.957 220.622 149.483 220.447 149.019C220.253 148.506 220.032 147.995 219.93 147.453C219.917 147.385 219.811 147.416 219.826 147.485C220.071 148.608 220.311 149.729 220.78 150.795C220.964 151.213 221.102 151.642 221.515 151.849C221.957 152.072 222.467 152.104 222.954 152.132C223.011 152.156 223.093 152.128 223.082 152.053C222.955 151.222 222.803 150.378 222.593 149.565Z" fill="#263238"/>
<path d="M223.042 154.658C222.021 156.499 220.854 158.267 219.765 160.068C218.7 161.828 217.686 163.617 216.693 165.418C214.686 169.057 212.828 172.787 211.131 176.58C210.292 178.458 209.497 180.355 208.753 182.273C208.007 184.195 207.27 186.139 206.805 188.152C206.339 190.171 206.226 192.212 206.543 194.262C206.864 196.343 207.492 198.363 208.124 200.366C209.564 204.939 211.159 209.471 213.186 213.818C213.254 213.962 213.495 213.852 213.441 213.702C212.027 209.706 210.557 205.724 209.285 201.678C208.05 197.753 206.588 193.686 207.268 189.518C207.596 187.506 208.265 185.571 208.972 183.666C209.694 181.722 210.474 179.801 211.299 177.899C212.927 174.151 214.757 170.508 216.624 166.877C217.67 164.842 218.77 162.836 219.827 160.807C220.892 158.763 221.933 156.677 223.131 154.707C223.166 154.651 223.074 154.6 223.042 154.658Z" fill="#263238"/>
<path d="M242.568 150.721C242.083 150.639 241.373 150.809 239.271 150.664C238.69 150.624 238.113 150.512 237.545 150.383C236.978 150.254 236.401 150.107 235.942 149.732C235.168 149.1 234.582 148.085 234.114 147.215C233.599 146.259 233.077 145.17 232.834 144.108C232.819 144.042 232.724 144.074 232.735 144.138C232.846 144.753 232.907 145.367 233.07 145.975C233.222 146.547 233.443 147.103 233.683 147.643C234.132 148.652 234.657 149.733 235.561 150.414C236.509 151.129 237.832 151.262 238.981 151.343C239.646 151.389 242.253 151.319 242.603 150.947C242.665 150.88 242.661 150.737 242.568 150.721Z" fill="#263238"/>
<path d="M249.402 239.011C246.133 232.359 242.946 225.668 239.837 218.94C236.719 212.195 233.679 205.414 230.697 198.608C229.984 196.98 229.13 195.335 228.76 193.586C228.358 191.684 228.944 189.967 229.746 188.26C231.219 185.128 232.938 182.117 234.755 179.174C236.577 176.222 238.503 173.336 240.404 170.435C242.29 167.557 244.273 164.682 245.819 161.602C247.295 158.66 248.115 155.519 247.692 152.218C247.274 148.943 245.855 145.869 244.332 142.975C243.931 142.212 243.519 141.454 243.116 140.691C243.086 140.633 242.996 140.687 243.029 140.745C244.726 143.776 246.352 146.963 247.139 150.368C247.528 152.051 247.697 153.791 247.515 155.513C247.331 157.259 246.783 158.945 246.059 160.538C244.649 163.635 242.684 166.487 240.829 169.329C238.933 172.234 236.999 175.116 235.154 178.054C233.297 181.009 231.528 184.025 229.99 187.161C229.305 188.557 228.555 190.013 228.388 191.582C228.205 193.3 228.825 194.947 229.488 196.499C232.371 203.258 235.405 209.957 238.491 216.627C241.588 223.322 244.769 229.978 248.016 236.601C248.426 237.436 248.837 238.271 249.248 239.105C249.3 239.209 249.452 239.114 249.402 239.011Z" fill="#263238"/>
<path d="M216.957 88.5571C217.534 85.8157 220.603 79.6075 226.622 80.8231C235.213 82.5571 236.458 99.1123 240.733 104.271C248.48 113.618 248.734 122.871 242.384 124.351C235.269 126.009 228.344 118.374 228.604 101.852C228.767 91.5205 225.853 86.9413 223.792 87.2497C221.732 87.5581 220.607 90.1627 220.607 90.1627L216.957 88.5571Z" fill="#263238"/>
<path d="M217.242 87.526C217.663 86.2552 218.241 85.0336 218.963 83.8882C219.691 82.7506 220.613 81.703 221.773 80.9362C222.92 80.1568 224.338 79.7344 225.744 79.7854C227.131 79.8316 228.516 80.1988 229.734 80.8912C230.949 81.5902 231.957 82.5922 232.753 83.7058C233.545 84.8278 234.169 86.0434 234.68 87.2956C235.67 89.8138 236.266 92.4436 236.668 95.086C235.978 92.503 235.194 89.9476 234.138 87.5266C233.576 86.3338 232.96 85.168 232.177 84.13C231.406 83.089 230.47 82.1716 229.359 81.5464C228.26 80.9056 226.992 80.5648 225.715 80.4988C224.449 80.416 223.186 80.7706 222.088 81.4324C220.99 82.0984 220.046 83.0386 219.265 84.0988C218.86 84.6202 218.506 85.1818 218.166 85.7524C217.839 86.3308 217.531 86.9224 217.242 87.526Z" fill="#263238"/>
<path d="M228.553 96.1571C228.642 97.7963 228.548 99.4385 228.516 101.075C228.46 102.712 228.413 104.346 228.412 105.977C228.421 107.607 228.46 109.235 228.625 110.848C228.783 112.46 229.038 114.063 229.502 115.598C229.953 117.134 230.617 118.612 231.593 119.857C232.575 121.083 233.833 122.155 235.192 122.974C236.563 123.791 238.114 124.316 239.72 124.425C240.521 124.484 241.334 124.446 242.13 124.295C242.529 124.222 242.922 124.12 243.307 123.988C243.69 123.857 244.076 123.71 244.411 123.474C243.768 123.991 242.968 124.276 242.173 124.491C241.372 124.701 240.539 124.799 239.704 124.795C238.869 124.783 238.035 124.657 237.225 124.441C236.416 124.217 235.638 123.887 234.9 123.487C234.163 123.087 233.469 122.608 232.824 122.074L232.348 121.665L231.892 121.235C231.589 120.947 231.295 120.632 231.031 120.302C229.964 118.976 229.259 117.411 228.777 115.815C227.845 112.594 227.72 109.247 227.823 105.968C227.875 104.323 228.003 102.686 228.147 101.054C228.304 99.4205 228.471 97.7939 228.553 96.1571Z" fill="#263238"/>
<path d="M216.466 88.6024C216.371 87.8392 216.83 86.8012 217.313 86.6176C217.795 86.434 221.618 87.664 222.023 88.5766C222.427 89.4892 220.873 90.4756 220.873 90.4756L216.466 88.6024Z" fill="#FDB514"/>
<path d="M221.051 115.629C218.69 118.994 201.635 132.918 192.339 133.434C188.148 133.666 171.711 131.878 168.052 130.371C163.558 128.52 172.439 117.394 175.26 117.866C178.78 118.454 191.249 119.779 193.73 119.845C197.711 119.95 209.916 113.245 218.159 111.502C222.401 110.605 222.869 113.038 221.051 115.629Z" fill="#EB9481"/>
<path d="M220.866 116.266C218.262 120.806 209.069 128.59 209.069 128.59L207.501 125.702L202.312 116.158C202.312 116.158 211.026 112.685 216.804 110.999C217.585 110.77 218.276 110.617 218.883 110.545C222.615 110.067 223.111 112.361 220.866 116.266Z" fill="#DBDBDB"/>
<path d="M220.864 116.264C218.263 120.803 209.067 128.594 209.067 128.594L207.497 125.704L206.427 123.733L202.309 116.16C202.309 116.16 211.025 112.685 216.805 110.997C217.587 110.774 218.276 110.616 218.881 110.544C218.959 110.537 219.032 110.524 219.104 110.524C222.637 110.162 223.064 112.442 220.864 116.264Z" fill="#DBDBDB"/>
<path d="M209.994 113.81C210.111 114.23 210.138 114.649 210.144 115.069C210.138 115.488 210.111 115.907 209.994 116.327C209.876 115.907 209.849 115.488 209.844 115.069C209.85 114.649 209.877 114.23 209.994 113.81Z" fill="white"/>
<path d="M208.79 118.903C208.371 119.02 207.952 119.047 207.532 119.053C207.113 119.048 206.693 119.021 206.273 118.903C206.693 118.786 207.112 118.759 207.532 118.753C207.951 118.759 208.371 118.786 208.79 118.903Z" fill="white"/>
<path d="M221.532 111.86C221.113 111.977 220.693 112.004 220.274 112.01C219.854 112.005 219.435 111.978 219.016 111.86C219.435 111.743 219.854 111.716 220.274 111.71C220.693 111.716 221.113 111.743 221.532 111.86Z" fill="white"/>
<path d="M214.586 116.977C214.965 117.191 215.281 117.468 215.582 117.761C215.875 118.061 216.153 118.377 216.366 118.757C215.986 118.543 215.67 118.266 215.37 117.973C215.077 117.672 214.8 117.356 214.586 116.977Z" fill="white"/>
<path d="M209.742 122.981C210.121 123.196 210.437 123.473 210.738 123.766C211.031 124.066 211.309 124.382 211.522 124.762C211.142 124.548 210.826 124.271 210.526 123.977C210.234 123.677 209.956 123.361 209.742 122.981Z" fill="white"/>
<path d="M210.67 126.465C209.796 124.705 205.958 117.626 205.027 116.15C204.962 116.048 204.882 116.062 204.935 116.177C207.428 121.512 209.654 124.811 210.599 126.496C210.623 126.537 210.692 126.51 210.67 126.465Z" fill="#263238"/>
<path d="M220.867 116.265C218.266 120.804 209.07 128.594 209.07 128.594L207.5 125.704L206.43 123.733C211.415 118.813 217.425 112.758 219.107 110.524C222.64 110.163 223.067 112.442 220.867 116.265Z" fill="#A6A6A6"/>
<path d="M212.359 137.184L213.721 152.178C213.721 152.178 215.573 152.146 219.198 151.631C222.49 151.156 227.242 150.287 233.402 148.674C238.037 147.454 243.476 145.815 249.688 143.608C249.688 143.608 235.633 118.251 225.931 111.253C225.71 111.091 225.49 110.942 225.271 110.806C225.228 110.77 225.186 110.749 225.143 110.72C220.732 107.929 216.775 110.11 214.532 113.231C213.977 114.007 208.577 126.286 208.846 130.398C209.092 134.025 212.359 137.184 212.359 137.184Z" fill="#DBDBDB"/>
<path d="M220.162 121.129C220.279 121.548 220.306 121.968 220.312 122.388C220.306 122.807 220.279 123.227 220.162 123.647C220.044 123.227 220.017 122.808 220.012 122.388C220.018 121.968 220.045 121.548 220.162 121.129Z" fill="white"/>
<path d="M223.584 135.581C223.701 136 223.728 136.419 223.734 136.839C223.728 137.259 223.701 137.678 223.584 138.098C223.466 137.679 223.439 137.259 223.434 136.839C223.44 136.419 223.467 136 223.584 135.581Z" fill="white"/>
<path d="M234.064 126.641C234.181 127.061 234.208 127.48 234.214 127.9C234.209 128.32 234.182 128.739 234.064 129.158C233.946 128.739 233.919 128.32 233.914 127.9C233.92 127.48 233.947 127.061 234.064 126.641Z" fill="white"/>
<path d="M214.857 133.668C214.974 134.087 215.001 134.507 215.007 134.927C215.002 135.346 214.975 135.766 214.857 136.185C214.739 135.766 214.712 135.346 214.707 134.927C214.714 134.507 214.741 134.087 214.857 133.668Z" fill="white"/>
<path d="M228.063 124.019C227.644 124.136 227.224 124.163 226.805 124.169C226.386 124.163 225.966 124.136 225.547 124.019C225.966 123.901 226.386 123.874 226.805 123.869C227.224 123.875 227.644 123.902 228.063 124.019Z" fill="white"/>
<path d="M236.989 135.206C236.57 135.323 236.15 135.35 235.731 135.356C235.311 135.35 234.892 135.323 234.473 135.206C234.892 135.088 235.311 135.061 235.731 135.056C236.15 135.062 236.57 135.089 236.989 135.206Z" fill="white"/>
<path d="M223.42 144.077C223.001 144.194 222.581 144.221 222.161 144.227C221.742 144.221 221.322 144.194 220.902 144.077C221.322 143.959 221.741 143.932 222.161 143.927C222.581 143.933 223.001 143.96 223.42 144.077Z" fill="white"/>
<path d="M239.22 142.368C238.801 142.485 238.381 142.512 237.962 142.518C237.543 142.513 237.123 142.486 236.703 142.368C237.123 142.25 237.542 142.223 237.962 142.218C238.381 142.224 238.801 142.251 239.22 142.368Z" fill="white"/>
<path d="M221.528 111.862C221.109 111.979 220.689 112.006 220.27 112.012C219.851 112.006 219.431 111.979 219.012 111.862C219.431 111.744 219.851 111.717 220.27 111.712C220.689 111.718 221.109 111.745 221.528 111.862Z" fill="white"/>
<path d="M225.914 113.495C226.293 113.71 226.609 113.987 226.91 114.28C227.203 114.58 227.481 114.896 227.694 115.276C227.314 115.062 226.998 114.785 226.698 114.491C226.406 114.19 226.128 113.875 225.914 113.495Z" fill="white"/>
<path d="M239.023 127.527C239.403 127.742 239.718 128.019 240.019 128.312C240.312 128.612 240.59 128.928 240.803 129.308C240.423 129.094 240.108 128.817 239.807 128.523C239.515 128.222 239.238 127.907 239.023 127.527Z" fill="white"/>
<path d="M218.059 129.027C218.438 129.242 218.753 129.519 219.055 129.812C219.347 130.112 219.625 130.428 219.838 130.808C219.458 130.594 219.143 130.317 218.842 130.024C218.55 129.722 218.273 129.407 218.059 129.027Z" fill="white"/>
<path d="M230.086 139.167C230.465 139.381 230.781 139.658 231.082 139.951C231.375 140.251 231.653 140.567 231.866 140.947C231.486 140.733 231.17 140.456 230.87 140.162C230.577 139.862 230.3 139.546 230.086 139.167Z" fill="white"/>
<path d="M214.582 116.978C214.961 117.192 215.277 117.47 215.578 117.762C215.871 118.063 216.149 118.379 216.362 118.758C215.982 118.545 215.666 118.268 215.366 117.974C215.073 117.674 214.796 117.357 214.582 116.978Z" fill="white"/>
<path d="M213.52 126.64C213.734 126.261 214.011 125.946 214.304 125.644C214.604 125.352 214.92 125.074 215.3 124.86C215.086 125.24 214.809 125.556 214.516 125.856C214.215 126.148 213.899 126.426 213.52 126.64Z" fill="white"/>
<path d="M241.988 137.36C242.202 136.981 242.48 136.665 242.772 136.364C243.072 136.071 243.388 135.794 243.768 135.581C243.554 135.96 243.277 136.276 242.984 136.577C242.684 136.869 242.367 137.147 241.988 137.36Z" fill="white"/>
<path d="M215.07 141.656C215.285 141.277 215.562 140.961 215.854 140.66C216.155 140.367 216.47 140.09 216.85 139.877C216.636 140.256 216.359 140.572 216.066 140.873C215.765 141.165 215.45 141.442 215.07 141.656Z" fill="white"/>
<path d="M231.141 120.976C231.355 120.596 231.632 120.281 231.924 119.98C232.225 119.687 232.54 119.409 232.92 119.195C232.707 119.575 232.429 119.891 232.137 120.191C231.835 120.484 231.52 120.761 231.141 120.976Z" fill="white"/>
<path d="M227.156 147.914C227.37 147.535 227.648 147.219 227.94 146.918C228.24 146.625 228.556 146.347 228.936 146.134C228.722 146.514 228.445 146.83 228.152 147.13C227.851 147.423 227.535 147.7 227.156 147.914Z" fill="white"/>
<path d="M227.172 131.698C227.386 131.318 227.663 131.003 227.955 130.702C228.256 130.409 228.572 130.131 228.951 129.918C228.738 130.298 228.46 130.613 228.168 130.914C227.867 131.206 227.551 131.484 227.172 131.698Z" fill="white"/>
<path d="M222.387 110.471C222.303 111.05 219.912 114.967 217.308 115.069C216.46 115.101 216.08 110.479 216.08 110.479L215.974 110.144L214.492 105.456L219.796 101.369L220.567 100.822C220.567 100.822 220.888 102.131 221.27 103.766C221.288 103.841 221.307 103.917 221.325 103.999C221.349 104.09 221.373 104.177 221.392 104.264C221.452 104.507 221.513 104.756 221.568 105.005C221.611 105.195 221.653 105.379 221.691 105.579C221.734 105.779 221.771 105.974 221.815 106.175C222.194 108.157 222.419 110.225 222.387 110.471Z" fill="#EB9481"/>
<path d="M221.27 103.766C220.229 107.688 217.324 109.501 215.974 110.144L214.492 105.456L219.796 101.369L220.567 100.822C220.567 100.822 220.888 102.131 221.27 103.766Z" fill="#263238"/>
<path d="M207.914 98.38C207.873 107.008 213.036 108.007 214.896 108.014C216.585 108.02 222.337 107.826 223.269 99.2494C224.202 90.6718 220.204 87.9256 216.341 87.7066C212.48 87.4882 207.956 89.752 207.914 98.38Z" fill="#EB9481"/>
<path d="M222.803 99.8519C221.39 99.9965 220.992 97.0379 220.992 97.0379C220.992 97.0379 218.117 97.1177 217.065 93.0065C217.065 93.0065 217.175 94.9295 218.423 96.3941C218.423 96.3941 213.339 95.9819 211.1 91.7921C211.1 91.7921 212.004 93.9323 212.822 94.6811C212.822 94.6811 210.681 94.1405 209.601 92.4395C209.601 92.4395 208.775 94.9103 208.108 95.6033C208.108 95.6033 207.123 91.2545 208.928 88.9937C212.731 84.2285 218.979 88.3703 218.979 88.3703C218.979 88.3703 222.473 88.8977 223.718 91.5131C225.642 95.5517 222.803 99.8519 222.803 99.8519Z" fill="#263238"/>
<path d="M221.898 99.9038C221.898 99.9038 223.555 97.0658 224.828 97.6352C226.1 98.2046 225.008 102.211 223.622 102.861C222.236 103.51 221.609 102.238 221.609 102.238L221.898 99.9038Z" fill="#EB9481"/>
<path d="M224.487 98.7765C224.509 98.7723 224.517 98.8047 224.497 98.8143C223.528 99.3027 223.077 100.275 222.786 101.269C223.054 100.874 223.443 100.638 223.969 100.951C223.996 100.968 223.975 101.011 223.946 101.007C223.528 100.953 223.238 101.049 222.987 101.4C222.81 101.649 222.7 101.955 222.581 102.235C222.541 102.329 222.376 102.294 222.402 102.187C222.403 102.18 222.406 102.171 222.408 102.163C222.278 100.888 223.125 99.0177 224.487 98.7765Z" fill="#263238"/>
<path d="M209.002 96.6533C209.204 96.6215 209.386 96.5585 209.584 96.5069C209.806 96.4481 209.99 96.4241 210.149 96.2441C210.234 96.1475 210.22 95.9585 210.134 95.8673C209.933 95.6537 209.642 95.6579 209.372 95.7179C209.078 95.7827 208.868 95.9081 208.681 96.1433C208.5 96.3713 208.734 96.6953 209.002 96.6533Z" fill="#263238"/>
<path d="M214.63 97.3241C214.425 97.3085 214.239 97.2599 214.038 97.2233C213.811 97.1819 213.626 97.1723 213.454 97.0055C213.362 96.9161 213.361 96.7265 213.44 96.6287C213.623 96.4001 213.913 96.3815 214.188 96.4199C214.486 96.4619 214.705 96.5705 214.91 96.7901C215.108 97.0037 214.9 97.3451 214.63 97.3241Z" fill="#263238"/>
<path d="M213.48 99.0893C213.484 99.0665 213.526 99.1163 213.526 99.1409C213.516 99.7331 213.605 100.412 214.143 100.601C214.16 100.607 214.159 100.636 214.139 100.634C213.484 100.552 213.376 99.6485 213.48 99.0893Z" fill="#263238"/>
<path d="M213.998 98.463C214.948 98.376 215.052 100.283 214.172 100.364C213.306 100.443 213.201 98.5356 213.998 98.463Z" fill="#263238"/>
<path d="M214.381 98.5428C214.553 98.6418 214.727 98.823 214.929 98.832C215.162 98.8422 215.327 98.6328 215.468 98.4324C215.483 98.4114 215.5 98.4276 215.502 98.4528C215.527 98.8182 215.407 99.2004 215.018 99.2766C214.663 99.3462 214.389 99.0366 214.278 98.6736C214.258 98.607 214.311 98.5032 214.381 98.5428Z" fill="#263238"/>
<path d="M210.194 99.1167C210.188 99.0945 210.15 99.1473 210.152 99.1719C210.208 99.7611 210.173 100.446 209.651 100.675C209.635 100.683 209.638 100.712 209.658 100.708C210.304 100.575 210.341 99.6663 210.194 99.1167Z" fill="#263238"/>
<path d="M209.628 98.5325C208.673 98.5199 208.719 100.429 209.602 100.441C210.473 100.453 210.428 98.5433 209.628 98.5325Z" fill="#263238"/>
<path d="M209.235 98.6697C209.086 98.7747 208.941 98.9619 208.761 98.9781C208.553 98.9967 208.393 98.7939 208.255 98.5989C208.241 98.5785 208.227 98.5953 208.227 98.6205C208.225 98.9859 208.354 99.3633 208.707 99.4251C209.028 99.4815 209.256 99.1629 209.335 98.7975C209.348 98.7291 209.294 98.6277 209.235 98.6697Z" fill="#263238"/>
<path d="M214.234 103.914C214.107 104.066 213.985 104.27 213.773 104.31C213.57 104.348 213.321 104.279 213.125 104.225C213.106 104.22 213.089 104.241 213.103 104.258C213.279 104.469 213.614 104.578 213.882 104.503C214.144 104.43 214.253 104.186 214.293 103.936C214.299 103.9 214.252 103.892 214.234 103.914Z" fill="#263238"/>
<path d="M211.183 101.733C211.183 101.733 211.099 102.621 211.117 103.037C211.118 103.076 212.299 102.925 213.538 103.285C213.724 103.339 213.715 103.184 213.504 103.07C213.082 102.841 212.542 102.616 211.459 102.66C211.425 102.546 211.614 101.295 211.548 101.293C211.319 101.283 210.878 101.457 210.611 101.548C210.733 99.6924 211.151 97.872 211.244 96.0228C211.247 95.9568 211.151 95.9412 211.135 96.0006C210.562 97.878 210.375 100.01 210.2 101.922C210.176 102.161 211.019 101.811 211.183 101.733Z" fill="#263238"/>
<path d="M212.078 103.033C212.078 103.033 212.662 103.785 213.293 103.85C214.018 103.924 214.071 103.272 213.257 102.944C212.831 102.773 212.078 103.033 212.078 103.033Z" fill="#263238"/>
<path d="M213.292 103.848C213.022 103.823 212.762 103.672 212.551 103.501C212.687 103.269 213.019 103.006 213.813 103.382C213.941 103.656 213.75 103.897 213.292 103.848Z" fill="#FF99BA"/>
<path d="M221.122 109.435C222.176 109.426 223.954 109.699 226.351 111.525C226.351 111.525 221.35 115.546 216.694 115.551C215.03 115.553 214.531 113.23 214.531 113.23C214.531 113.23 216.77 109.47 221.122 109.435Z" fill="#EB9481"/>
<path d="M300.174 282.183H280.572C266.328 282.183 257.619 272.339 256.052 254.463C255.279 245.654 254.806 234.984 254.305 223.688C252.767 188.994 250.661 141.48 237.16 141.48H221.637V137.88H237.16C254.105 137.88 256.035 181.421 257.901 223.528C258.401 234.785 258.872 245.416 259.638 254.148C260.616 265.295 265.041 278.583 280.573 278.583H300.174V282.183H300.174Z" fill="#FDB514"/>
<path opacity="0.2" d="M233.033 137.88L232.265 141.48H221.633V137.88H233.033Z" fill="black"/>
<path d="M192.381 118.137H186.105V161.993H192.381V118.137Z" fill="#FDB514"/>
<path d="M186.102 121.376H162.242V158.302H186.102V121.376Z" fill="#FDB514"/>
<path opacity="0.2" d="M186.099 121.379V158.304H180.173L177.516 121.379H186.099Z" fill="black"/>
<path d="M162.245 133.521H143.937C142.631 133.521 141.57 132.461 141.57 131.154V130.37C141.57 129.063 142.63 128.003 143.937 128.003H162.245V133.521Z" fill="#DBDBDB"/>
<path d="M162.24 128.005H155.812V133.519H162.24V128.005Z" fill="#A6A6A6"/>
<path d="M162.245 151.671H143.937C142.631 151.671 141.57 150.611 141.57 149.304V148.52C141.57 147.213 142.63 146.153 143.937 146.153H162.245V151.671Z" fill="#DBDBDB"/>
<path d="M162.24 146.156H155.812V151.67H162.24V146.156Z" fill="#A6A6A6"/>
<path d="M229.47 136.318H210.828V143.681H229.47V136.318Z" fill="#FDB514"/>
<path d="M229.473 136.32H210.828V143.68H229.473V136.32Z" fill="#FDB514"/>
<path opacity="0.2" d="M217.374 136.32L216.763 143.68H210.828V136.32H217.374Z" fill="black"/>
<path d="M207.134 156.913H192.383V122.769H207.134C209.173 122.769 210.825 124.421 210.825 126.46V153.223C210.825 155.261 209.173 156.913 207.134 156.913Z" fill="#FDB514"/>
<path opacity="0.2" d="M200.234 122.771L197.577 156.916H192.387V122.771H200.234Z" fill="black"/>
<g opacity="0.2">
<path d="M198.856 129.673H197.68V150.013H198.856V129.673Z" fill="black"/>
<path d="M202.192 129.673H201.016V150.013H202.192V129.673Z" fill="black"/>
<path d="M205.528 129.673H204.352V150.013H205.528V129.673Z" fill="black"/>
</g>
<path d="M227.731 115.723C229.796 121.512 226.841 142.741 223.345 147.217C218.144 153.873 207.88 160.001 203.954 161.914C202.243 162.747 194.552 150.458 196.23 149.307C199.823 146.842 211.295 140.954 212.269 139.786C213.242 138.616 218.471 127.38 220.566 121.06C223.376 112.58 226.687 112.794 227.731 115.723Z" fill="#EB9481"/>
<path d="M203.945 161.951C198.5 165.057 187.67 164.601 186.193 164.15C184.933 163.77 184.287 163.562 184.287 163.562C182.014 162.924 181.401 161.665 181.401 161.665C181.401 161.665 178.556 161.701 178.248 159.985C177.897 158.062 181.962 158.388 184.307 157.2C189.679 154.478 196.554 149.107 198.026 148.168L203.945 161.951Z" fill="#EB9481"/>
<path d="M191.94 158.305C190.342 159.074 188.794 159.872 187.101 160.421C185.244 161.023 183.355 161.291 181.44 161.613C181.38 161.623 181.387 161.707 181.448 161.707C185.008 161.674 189.051 160.404 192.012 158.441C192.083 158.393 192.019 158.266 191.94 158.305Z" fill="#263238"/>
<path d="M194.053 161.307C192.458 161.97 189.646 163.116 184.28 163.504C184.263 163.505 184.259 163.535 184.279 163.536C187.796 163.748 191.011 163.076 194.114 161.47C194.211 161.42 194.159 161.264 194.053 161.307Z" fill="#263238"/>
<path d="M190.573 153.51C191.132 152.878 190.804 152.58 189.329 152.848C187.836 153.116 182.241 155.43 181.6 153.404C180.952 151.372 188.923 148.228 191.415 147.97C193.906 147.706 198.16 148.167 198.16 148.167C196.732 149.091 193.35 151.662 190.573 153.51Z" fill="#EB9481"/>
<path d="M221.941 117.178C225.572 109.54 228.883 111.563 229.2 119.115C229.496 126.179 228.503 134.826 228.503 134.826L215.344 131.052C215.344 131.052 219.618 122.066 221.941 117.178Z" fill="#DBDBDB"/>
<path d="M225.219 112.729C225.598 112.943 225.914 113.22 226.215 113.513C226.508 113.813 226.785 114.129 226.998 114.509C226.619 114.295 226.303 114.018 226.002 113.725C225.71 113.423 225.433 113.108 225.219 112.729Z" fill="white"/>
<path d="M220.158 121.131C220.275 121.55 220.302 121.97 220.308 122.39C220.302 122.809 220.275 123.228 220.158 123.648C220.04 123.229 220.013 122.81 220.008 122.39C220.014 121.97 220.041 121.55 220.158 121.131Z" fill="white"/>
<path d="M228.059 124.021C227.64 124.138 227.221 124.165 226.801 124.171C226.382 124.165 225.962 124.138 225.543 124.021C225.962 123.903 226.382 123.876 226.801 123.871C227.221 123.877 227.64 123.904 228.059 124.021Z" fill="white"/>
<path d="M218.055 129.029C218.434 129.243 218.749 129.521 219.051 129.814C219.343 130.114 219.621 130.43 219.834 130.81C219.454 130.596 219.139 130.319 218.838 130.026C218.546 129.724 218.269 129.408 218.055 129.029Z" fill="white"/>
<path d="M227.168 131.697C227.382 131.318 227.659 131.002 227.952 130.701C228.252 130.408 228.568 130.13 228.948 129.917C228.734 130.297 228.456 130.613 228.164 130.913C227.863 131.206 227.547 131.483 227.168 131.697Z" fill="white"/>
<path d="M220.686 119.506C220.194 120.506 219.676 121.494 219.161 122.483C219.253 122.012 219.323 121.541 219.374 121.062C219.377 121.04 219.345 121.036 219.341 121.057C219.266 121.43 219.176 121.8 219.108 122.174C219.075 122.354 219.041 122.534 219.006 122.713C218.998 122.751 218.99 122.789 218.982 122.828C218.582 123.599 218.183 124.372 217.805 125.154C217.352 126.087 216.924 127.031 216.492 127.973C216.045 128.947 215.657 130.066 215.173 131.021C215.131 131.104 216.339 131.365 216.455 131.405C216.573 131.446 216.628 131.329 216.507 131.314C216.396 131.3 215.406 130.906 215.393 130.897C215.823 129.947 216.359 129.046 216.819 128.11C217.277 127.179 217.738 126.25 218.176 125.309C219.066 123.399 219.847 121.439 220.726 119.522C220.736 119.497 220.698 119.482 220.686 119.506Z" fill="#263238"/>
<path d="M229.75 124.053C229.628 124.445 229.491 124.835 229.392 125.232C229.351 125.397 229.311 125.561 229.27 125.726C229.319 124.362 229.361 122.999 229.403 121.636C229.403 121.62 229.379 121.616 229.377 121.632C229.191 123.861 228.998 126.089 228.854 128.321C228.715 130.448 228.479 132.619 228.558 134.751C228.381 134.725 227.369 134.498 227.352 134.564C227.335 134.631 228.701 135.006 228.709 134.953C229.043 132.798 229.067 130.411 229.171 128.234C229.2 127.622 229.22 127.008 229.244 126.395C229.319 126.015 229.425 125.643 229.527 125.27C229.635 124.874 229.707 124.466 229.791 124.065C229.796 124.041 229.757 124.03 229.75 124.053Z" fill="#263238"/>
<path d="M227.958 132.828C226.107 132.169 218.429 129.744 216.732 129.33C216.615 129.302 216.567 129.368 216.686 129.413C222.184 131.518 226.079 132.344 227.928 132.899C227.975 132.912 228.006 132.845 227.958 132.828Z" fill="#263238"/>
<path d="M163.455 130.765C165.273 131.32 164.886 128.861 164.886 128.861C164.886 128.861 166.295 132.267 168.39 132.115C170.409 131.962 169.837 129.008 169.8 128.796C169.876 128.975 171.252 132.071 173.341 131.701C175.512 131.314 174.43 128.447 174.359 128.262C174.484 128.409 176.171 130.324 177.694 129.682C180.312 128.578 176.133 123.562 176.438 121.282L180.115 121.39C180.235 121.374 180.36 121.358 180.475 121.336L180.616 119.458C179.566 119.088 178.38 118.398 177.222 117.75C175.834 116.972 174.496 116.265 173.5 116.243C171.862 116.211 171.427 117.614 171.427 117.614C171.427 117.614 170.349 115.911 168.696 116.151C167.847 116.276 167.292 117.745 167.292 117.745C167.292 117.745 166.372 116.417 164.914 116.722C163.75 116.961 163.375 118.398 163.375 118.398C163.375 118.398 161.901 117.532 160.791 118.164C158.548 119.432 159.565 129.574 163.455 130.765Z" fill="#EB9481"/>
<path d="M176.906 121.096L180.111 121.39C180.23 121.374 180.356 121.358 180.47 121.336C184.518 120.601 187.037 115.971 184.104 115.639C181.874 115.384 179.463 118.338 177.216 117.745V117.75L176.906 121.096Z" fill="#EB9481"/>
<path d="M163.283 118.616C163.282 118.582 163.234 118.577 163.23 118.612C162.75 122.029 163.271 125.929 164.896 128.996C164.95 129.097 165.136 129.053 165.099 128.932C164.028 125.45 163.354 122.275 163.283 118.616Z" fill="#263238"/>
<path d="M167.27 117.696C167.27 117.656 167.204 117.657 167.198 117.699C166.724 121.222 167.431 125.6 169.721 128.914C169.799 129.027 169.984 129.051 169.903 128.913C168.547 126.594 167.318 120.99 167.27 117.696Z" fill="#263238"/>
<path d="M174.602 128.438C172.529 125.175 171.711 121.576 171.401 117.758C171.397 117.709 171.327 117.719 171.32 117.762C170.962 119.671 171.413 122.083 171.923 123.931C172.411 125.701 173.207 127.199 174.488 128.51C174.537 128.561 174.646 128.507 174.602 128.438Z" fill="#263238"/>
<path d="M123.928 265.228C122.682 265.642 87.1214 265.538 85.7666 264.679C85.2554 264.358 84.9668 259.172 84.7982 252.905C84.7598 251.55 84.7328 250.157 84.7112 248.732C84.6842 247.051 84.662 245.348 84.6512 243.694C84.608 236.267 84.7112 229.727 84.7112 229.727H107.862L107.851 243.694L107.845 248.732L107.726 252.905C107.726 252.905 121.323 259.037 122.704 260.141C124.08 261.241 125.169 264.82 123.928 265.228Z" fill="#AD6359"/>
<path d="M123.925 265.228C122.679 265.642 87.1186 265.539 85.7638 264.679C85.2526 264.358 84.964 259.173 84.7954 252.905C84.757 251.55 84.73 250.158 84.7084 248.732C84.6814 247.051 84.6592 245.348 84.6484 243.694H107.847L107.842 248.732L107.723 252.905C107.723 252.905 121.319 259.037 122.701 260.141C124.077 261.241 125.166 264.82 123.925 265.228Z" fill="white"/>
<path d="M124.034 265.28C123.223 265.547 108.076 265.601 97.0474 265.373C94.4956 265.318 92.1616 265.248 90.2794 265.166C87.6844 265.046 85.9432 264.905 85.66 264.725C85.0342 264.323 84.7348 256.717 84.5938 248.692H107.858L107.738 252.886C107.738 252.886 121.411 259.051 122.804 260.161C124.186 261.27 125.28 264.861 124.034 265.28Z" fill="#FDB514"/>
<path d="M123.526 263.846C117.532 263.682 93.341 263.583 87.4034 263.877C87.3554 263.879 87.3548 263.912 87.4034 263.914C93.341 264.207 117.532 264.109 123.526 263.945C123.652 263.941 123.652 263.85 123.526 263.846Z" fill="#263238"/>
<path d="M108.592 251.557C106.234 251.11 103.348 251.463 101.54 253.139C101.47 253.204 101.564 253.302 101.64 253.279C103.969 252.552 106.144 252.088 108.581 251.855C108.753 251.838 108.76 251.588 108.592 251.557Z" fill="#263238"/>
<path d="M110.29 252.588C107.933 252.141 105.047 252.495 103.24 254.17C103.169 254.235 103.263 254.333 103.339 254.31C105.668 253.583 107.843 253.118 110.28 252.886C110.452 252.87 110.459 252.62 110.29 252.588Z" fill="#263238"/>
<path d="M111.989 253.619C109.632 253.172 106.746 253.526 104.939 255.201C104.869 255.266 104.962 255.365 105.038 255.341C107.368 254.614 109.542 254.149 111.979 253.917C112.151 253.9 112.159 253.651 111.989 253.619Z" fill="#263238"/>
<path d="M113.689 254.65C111.332 254.203 108.446 254.557 106.638 256.232C106.568 256.297 106.661 256.396 106.738 256.372C109.067 255.646 111.242 255.181 113.678 254.948C113.851 254.932 113.858 254.682 113.689 254.65Z" fill="#263238"/>
<path d="M112.963 246.113C112.039 244.834 110.312 245.403 109.325 246.228C107.726 247.563 106.325 249.652 105.676 251.62C105.66 251.669 105.692 251.698 105.731 251.706C105.738 251.885 105.898 252.075 106.1 252.001C108.05 251.286 110.224 250.762 111.895 249.469C112.872 248.715 113.836 247.323 112.963 246.113ZM108.835 250.312C107.884 250.687 106.921 251.013 105.985 251.424C106.699 250.374 107.365 249.298 108.185 248.321C108.576 247.855 108.987 247.383 109.439 246.974C110.142 246.337 112.925 244.987 112.501 247.573C112.268 249 109.967 249.864 108.835 250.312Z" fill="#263238"/>
<path d="M99.6834 250.986C101.626 251.821 103.861 251.785 105.927 251.991C106.141 252.013 106.249 251.788 106.211 251.613C106.247 251.596 106.271 251.559 106.243 251.517C105.124 249.773 103.246 248.099 101.364 247.205C100.202 246.653 98.3874 246.533 97.8126 248.003C97.269 249.392 98.5494 250.499 99.6834 250.986ZM98.6232 249.301C97.5678 246.902 100.599 247.515 101.439 247.956C101.979 248.24 102.494 248.594 102.989 248.948C104.027 249.689 104.94 250.565 105.894 251.403C104.885 251.239 103.871 251.163 102.857 251.037C101.649 250.887 99.2052 250.624 98.6232 249.301Z" fill="#263238"/>
<path d="M111.153 247.06L82.4594 247.576C82.4594 247.576 78.554 222.19 75.9824 206.389C75.0128 200.455 74.243 195.875 73.9334 194.493C73.1906 191.2 58.6484 138.914 58.6484 138.914L79.5098 138.887L86.633 138.88C86.633 138.88 86.1794 147.62 86.4476 148.541C90.1676 161.192 97.7726 183.635 100.144 191.453C103.789 203.488 111.153 247.06 111.153 247.06Z" fill="#A6A6A6"/>
<path d="M108.547 242.66C104.426 242.63 89.8247 242.465 84.3395 242.977C84.2975 242.981 84.2987 243.05 84.3407 243.056C86.2283 243.328 104.43 242.905 108.548 242.773C108.626 242.771 108.624 242.66 108.547 242.66Z" fill="#263238"/>
<path d="M82.9291 221.024C81.9373 214.459 80.8375 207.908 79.6123 201.382C79.0093 198.169 78.3542 194.965 77.516 191.804C76.6682 188.605 75.6086 185.469 74.5304 182.342C72.3878 176.124 70.3261 169.882 68.4097 163.591C66.4945 157.305 64.6885 150.982 63.0181 144.626C62.8063 143.82 62.5922 143.016 62.3618 142.215C62.3426 142.148 62.2453 142.18 62.2591 142.246C62.9119 145.45 63.7556 148.623 64.5704 151.789C65.3858 154.958 66.2497 158.113 67.1563 161.256C68.9779 167.572 70.9496 173.845 73.0856 180.062C74.1506 183.16 75.2528 186.248 76.1948 189.387C77.1356 192.521 77.8724 195.707 78.5258 198.911C79.8512 205.411 80.9762 211.957 82.025 218.507C83.0792 225.091 83.9606 231.695 84.8384 238.304C84.9499 239.141 85.0591 239.979 85.1665 240.817C85.1971 241.054 85.5685 241.051 85.5427 240.808C84.8341 234.195 83.9227 227.601 82.9291 221.024Z" fill="#263238"/>
<path d="M79.5098 138.886L75.9824 206.387C75.0128 200.453 74.243 195.874 73.9334 194.492C73.1906 191.198 58.6484 138.913 58.6484 138.913L79.5098 138.886Z" fill="#263238"/>
<path d="M88.3343 270.89C87.0881 271.303 51.5279 271.2 50.1731 270.34C49.6619 270.019 49.3733 264.834 49.2047 258.567C49.1663 257.212 49.1393 255.819 49.1177 254.394C49.0907 252.712 49.0685 251.01 49.0577 249.355C49.0139 241.929 49.1177 235.389 49.1177 235.389H72.2681L72.2573 249.355L72.2519 254.394L72.1319 258.567C72.1319 258.567 85.7285 264.699 87.1103 265.803C88.4867 266.902 89.5745 270.482 88.3343 270.89Z" fill="#AD6359"/>
<path d="M88.3391 270.89C87.0929 271.304 51.5327 271.2 50.1779 270.341C49.6667 270.02 49.3781 264.834 49.2095 258.567C49.1711 257.212 49.1441 255.819 49.1225 254.394C49.0955 252.713 49.0733 251.01 49.0625 249.356H72.2615L72.2561 254.394L72.1361 258.567C72.1361 258.567 85.7327 264.699 87.1145 265.803C88.4915 266.902 89.5793 270.482 88.3391 270.89Z" fill="white"/>
<path d="M88.4443 270.945C87.6337 271.211 72.4867 271.266 61.4581 271.037C58.9063 270.983 56.5723 270.912 54.6895 270.83C52.0945 270.711 50.3533 270.569 50.0701 270.39C49.4443 269.987 49.1455 262.381 49.0039 254.356H72.2683L72.1483 258.551C72.1483 258.551 85.8211 264.715 87.2137 265.825C88.5961 266.935 89.6899 270.526 88.4443 270.945Z" fill="#FDB514"/>
<path d="M87.936 269.512C81.942 269.348 57.7512 269.249 51.8136 269.542C51.7656 269.545 51.765 269.578 51.8136 269.58C57.7512 269.873 81.942 269.775 87.936 269.611C88.062 269.607 88.0626 269.516 87.936 269.512Z" fill="#263238"/>
<path d="M73.0018 257.223C70.6444 256.776 67.7584 257.129 65.9506 258.805C65.8804 258.87 65.974 258.969 66.0502 258.945C68.3794 258.218 70.5543 257.753 72.9909 257.521C73.1631 257.504 73.1704 257.254 73.0018 257.223Z" fill="#263238"/>
<path d="M74.7004 258.254C72.343 257.807 69.457 258.161 67.6498 259.836C67.5796 259.901 67.6732 259.999 67.7494 259.976C70.0786 259.249 72.253 258.784 74.6902 258.552C74.8618 258.535 74.869 258.286 74.7004 258.254Z" fill="#263238"/>
<path d="M76.4035 259.285C74.0461 258.838 71.1601 259.191 69.3529 260.867C69.2827 260.932 69.3763 261.03 69.4525 261.007C71.7817 260.28 73.9567 259.815 76.3933 259.583C76.5649 259.567 76.5721 259.317 76.4035 259.285Z" fill="#263238"/>
<path d="M78.0994 260.316C75.742 259.869 72.856 260.223 71.0482 261.898C70.978 261.963 71.0716 262.062 71.1478 262.038C73.477 261.312 75.652 260.847 78.0886 260.614C78.2608 260.598 78.2686 260.348 78.0994 260.316Z" fill="#263238"/>
<path d="M77.3727 251.782C76.4493 250.503 74.7219 251.072 73.7349 251.896C72.1365 253.232 70.7349 255.321 70.0863 257.289C70.0701 257.338 70.1025 257.367 70.1415 257.374C70.1481 257.554 70.3083 257.744 70.5105 257.67C72.4605 256.954 74.6337 256.431 76.3059 255.138C77.2821 254.383 78.2463 252.992 77.3727 251.782ZM73.2453 255.981C72.2949 256.356 71.3319 256.682 70.3953 257.092C71.1099 256.042 71.7753 254.967 72.5955 253.99C72.9867 253.524 73.3977 253.052 73.8495 252.643C74.5527 252.006 77.3349 250.655 76.9119 253.242C76.6785 254.668 74.3781 255.533 73.2453 255.981Z" fill="#263238"/>
<path d="M64.0935 256.655C66.0357 257.49 68.2707 257.454 70.3371 257.66C70.5513 257.682 70.6593 257.457 70.6209 257.282C70.6569 257.265 70.6809 257.228 70.6533 257.186C69.5343 255.441 67.6557 253.768 65.7741 252.874C64.6125 252.322 62.7969 252.202 62.2227 253.671C61.6791 255.062 62.9601 256.169 64.0935 256.655ZM63.0333 254.97C61.9779 252.571 65.0091 253.185 65.8491 253.626C66.3885 253.909 66.9045 254.263 67.3995 254.617C68.4375 255.359 69.3501 256.234 70.3041 257.072C69.2949 256.908 68.2809 256.833 67.2669 256.707C66.0591 256.556 63.6153 256.293 63.0333 254.97Z" fill="#263238"/>
<path d="M75.5202 252.379H47.4336C47.4336 252.379 53.5314 165.337 52.5462 160.456C50.9328 152.468 52.0116 143.296 55.7874 138.88H80.7672C80.7672 138.88 81.2622 145.891 78.684 150.077C78.684 150.077 76.341 151.558 75.2022 152.212L75.5202 252.379Z" fill="#A6A6A6"/>
<path d="M72.8869 247.844C68.9983 247.742 70.1155 247.716 66.2257 247.658C64.3219 247.629 51.8137 247.454 50.0335 247.739C49.9945 247.746 49.9939 247.812 50.0329 247.818C51.8101 248.123 64.3195 248.08 66.2233 248.072C70.1137 248.055 68.9965 248.018 72.8863 247.957C72.9595 247.956 72.9601 247.845 72.8869 247.844Z" fill="#263238"/>
<path d="M80.2368 148.952C77.7708 150.092 75.435 151.579 73.2138 153.112C73.1268 153.172 73.2036 153.305 73.2996 153.251C75.6756 151.937 78.105 150.662 80.4042 149.224C80.5842 149.111 80.4258 148.864 80.2368 148.952Z" fill="#263238"/>
<path d="M77.0547 148.593C76.9059 149.076 76.7985 149.573 76.7157 150.069C76.6515 150.455 76.5519 150.875 76.6407 151.26C76.6581 151.334 76.7625 151.33 76.7985 151.274C77.0235 150.925 77.0835 150.475 77.1867 150.08C77.3061 149.622 77.4357 149.166 77.5413 148.705C77.6115 148.399 77.1465 148.296 77.0547 148.593Z" fill="#263238"/>
<path d="M76.8336 146.186C76.9002 145.769 76.9674 145.352 77.043 144.937C77.121 144.507 77.2278 144.076 77.2722 143.641C77.2794 143.573 77.3898 143.593 77.3784 143.663C77.313 144.08 77.3052 144.511 77.2722 144.933C77.2386 145.357 77.1984 145.779 77.1558 146.201C77.0766 146.988 76.9422 147.781 76.7862 148.559C77.1918 148.462 77.6064 148.35 77.9346 148.082C78.291 147.792 78.4386 147.311 78.5496 146.881C78.6726 146.403 78.7758 145.92 78.906 145.445C79.05 144.919 79.2216 144.392 79.2714 143.846C79.2774 143.777 79.3866 143.798 79.3782 143.868C79.2402 145.003 79.1076 146.134 78.7428 147.233C78.5994 147.664 78.5028 148.102 78.1146 148.346C77.6976 148.608 77.1954 148.688 76.716 148.76C76.6614 148.789 76.578 148.769 76.5822 148.694C76.6296 147.86 76.7016 147.01 76.8336 146.186Z" fill="#263238"/>
<path d="M56.5978 160.137C56.419 158.301 56.1202 156.479 55.9198 154.646C55.5172 150.958 55.7944 147.272 56.5846 143.652C56.5996 143.584 56.4934 143.558 56.4802 143.626C55.8706 146.821 55.3384 150.012 55.4986 153.278C55.657 156.513 56.2306 159.707 56.2828 162.952C56.3356 166.239 56.077 169.523 55.8664 172.8C55.6546 176.097 55.4422 179.395 55.2304 182.693C54.3778 195.946 53.5918 209.204 52.7848 222.459C52.5598 226.16 52.3504 229.86 52.1362 233.561C51.9184 237.327 51.6556 241.095 51.5158 244.864C51.5038 245.19 51.9886 245.166 52.015 244.852C52.5784 238.203 52.9048 231.525 53.329 224.865C53.749 218.273 54.1348 211.677 54.5374 205.083C54.94 198.489 55.3354 191.895 55.7272 185.301C55.9228 182.004 56.1094 178.707 56.299 175.41C56.488 172.127 56.731 168.84 56.7796 165.551C56.8084 163.745 56.773 161.935 56.5978 160.137Z" fill="#263238"/>
<path d="M65.4404 143.422C65.4224 143.381 65.3672 143.368 65.342 143.412C65.1362 143.767 65.1728 144.353 65.1056 144.758C65.0246 145.251 64.9214 145.736 64.7642 146.209C64.445 147.172 64.0154 148.028 63.2648 148.73C61.6922 150.202 59.5874 150.746 57.557 151.243C57.4814 151.262 57.509 151.364 57.5774 151.369C58.7714 151.454 59.9858 151.199 61.115 150.815C62.1122 150.477 63.0734 150.011 63.848 149.286C64.6178 148.565 65.0966 147.639 65.3234 146.614C65.4392 146.09 65.4722 145.533 65.492 144.997C65.5016 144.737 65.504 144.476 65.5034 144.215C65.5034 143.96 65.546 143.657 65.4404 143.422Z" fill="#263238"/>
<path d="M77.2058 109.731C77.723 113.809 85.7156 128.975 94.2218 135.697C97.3418 138.162 113.883 139.622 118.02 139.304C122.866 138.933 123.592 127.403 120.878 126.503C117.491 125.381 101.807 123.998 98.726 122.882C94.9808 121.525 88.166 112.819 81.6896 107.431C78.3566 104.658 76.8074 106.59 77.2058 109.731Z" fill="#AD6359"/>
<path d="M118.016 139.306C119.547 139.265 126.552 138.46 128.451 137.8C130.35 137.14 135.677 134.845 135.319 133.339C134.961 131.833 133.348 132.381 133.348 132.381C133.348 132.381 135.444 131.056 134.946 129.573C134.448 128.091 131.966 129.024 131.966 129.024C131.966 129.024 134.019 127.506 133.416 126.063C132.813 124.619 130.475 125.976 130.475 125.976C130.475 125.976 132.417 124.676 131.42 123.696C130.221 122.517 126.911 125.319 124.76 125.89C124.272 126.019 114.672 127.815 114.672 127.815L118.016 139.306Z" fill="#AD6359"/>
<path d="M130.68 125.866C128.242 127.921 126.819 128.398 123.71 128.827C123.649 128.835 123.648 128.928 123.712 128.925C126.795 128.782 128.666 128.44 130.786 125.979C130.89 125.858 130.797 125.768 130.68 125.866Z" fill="#263238"/>
<path d="M132.159 128.859C129.44 130.772 127.901 131.304 124.677 131.992C124.632 132.002 124.643 132.081 124.691 132.075C127.91 131.663 129.768 131.28 132.234 129.012C132.345 128.909 132.284 128.772 132.159 128.859Z" fill="#263238"/>
<path d="M133.183 132.412C130.417 134.074 128.755 134.729 125.54 134.996C125.464 135.002 125.466 135.114 125.543 135.115C128.848 135.161 130.928 134.36 133.225 132.502C133.382 132.375 133.357 132.308 133.183 132.412Z" fill="#263238"/>
<path d="M112.43 126.553C112.43 126.553 115.8 124.406 117.488 123.789C119.177 123.173 126.315 123.191 126.399 124.733C126.507 126.723 122.384 127.525 120.313 127.653C120.313 127.653 120.567 132.258 117.732 133.474C114.897 134.69 112.43 126.553 112.43 126.553Z" fill="#AD6359"/>
<path d="M126.249 125.289C125.038 127.175 122.309 127.168 120.31 127.444C120.158 127.465 120.121 127.594 120.16 127.707C120.138 129.645 119.542 132.371 117.85 133.52C117.801 133.554 117.842 133.629 117.896 133.602C119.878 132.616 120.681 129.985 120.57 127.861C122.625 127.612 125.362 127.498 126.268 125.299C126.273 125.287 126.257 125.277 126.249 125.289Z" fill="#263238"/>
<path d="M103.727 139.078C103.727 139.078 95.2545 136.763 94.2237 135.953C93.0993 135.071 92.0271 134.116 91.0071 133.108C83.3019 125.529 78.6429 115.21 77.3805 111.579C76.0539 107.746 77.2779 104.076 80.8479 106.548C81.1113 106.733 81.3849 106.95 81.6753 107.2C85.8789 110.861 97.1043 121.99 98.4639 122.563C99.8193 123.128 106.43 123.994 106.43 123.994L103.727 139.078Z" fill="#455A64"/>
<path d="M91.0071 133.108C83.3019 125.529 78.6429 115.21 77.3805 111.579C76.0539 107.746 77.2779 104.076 80.8479 106.548L91.0071 133.108Z" fill="#263238"/>
<path d="M103.692 123.751C103.263 124.887 103 126.105 102.711 127.282C102.42 128.47 102.125 129.657 101.866 130.852C101.357 133.205 100.881 135.593 100.641 137.989C100.635 138.051 100.732 138.069 100.749 138.009C101.397 135.657 101.877 133.25 102.372 130.863C102.616 129.685 102.84 128.503 103.085 127.326C103.328 126.15 103.626 124.957 103.755 123.763C103.759 123.724 103.704 123.718 103.692 123.751Z" fill="#263238"/>
<path d="M85.4268 118.04C85.6296 118.931 85.785 119.852 85.9014 120.776C85.905 120.74 85.9098 120.706 85.9134 120.67C85.9602 120.159 85.9986 119.638 86.0856 119.132C86.0904 119.105 86.1336 119.1 86.136 119.131C86.1768 119.642 86.1378 120.178 86.0766 120.688C86.0472 120.931 86.016 121.175 85.9794 121.418C86.0226 121.832 86.058 122.245 86.0826 122.654C86.1294 123.433 86.28 126.761 86.265 127.335C86.262 127.456 86.1222 127.466 86.0964 127.339C85.9782 126.751 85.68 123.322 85.5984 122.55C85.4412 121.067 85.362 119.532 85.3674 118.04C85.368 118.006 85.4196 118.009 85.4268 118.04Z" fill="#263238"/>
<path d="M86.383 142.961C85.198 144.042 83.719 145.622 75.2926 146.207C74.7652 146.241 74.2288 146.253 73.6846 146.24C65.5726 146.013 54.1906 139.62 53.5156 139.135C53.5156 139.135 62.257 115.485 73.8178 106.403C75.4696 105.105 79.0102 105.749 81.2236 107.084C82.0144 107.561 84.6328 111.941 85.1566 115.922C85.6744 119.898 87.58 141.883 86.383 142.961Z" fill="#455A64"/>
<path d="M79.806 112.988C77.766 113.151 74.8488 109.625 73.8882 106.982C73.8234 106.801 74.3502 105.078 74.8908 102.955C75.2136 101.665 75.543 100.221 75.7488 98.8828C75.7896 98.6074 76.6482 99.256 76.6482 99.256L78.3168 99.9406L83.8344 102.212C83.8344 102.212 82.578 104.892 82.2342 107.229C82.2078 107.424 82.1988 107.609 82.2078 107.787C82.2066 107.813 82.2096 107.845 82.206 107.88C82.2156 108.95 81.7776 112.829 79.806 112.988Z" fill="#AD6359"/>
<path d="M82.2069 107.787C82.2057 107.813 82.2087 107.844 82.2051 107.88C81.9363 107.877 81.6477 107.848 81.3351 107.793C75.6993 106.799 76.0959 99.5002 76.0959 99.5002L78.3159 99.94L83.8335 102.211C83.8335 102.211 82.5771 104.891 82.2333 107.228C82.2069 107.424 82.1985 107.608 82.2069 107.787Z" fill="#263238"/>
<path d="M75.1712 90.1005C74.0996 93.0627 75.245 101.836 77.2862 103.883C80.2454 106.851 85.3112 107.379 87.8882 103.771C90.3866 100.275 88.6916 88.8675 86.3912 86.9847C83.0024 84.2103 76.7546 85.7253 75.1712 90.1005Z" fill="#AD6359"/>
<path d="M83.1655 96.1714C83.1583 96.1498 83.1229 96.205 83.1265 96.2296C83.2195 96.8182 83.2267 97.5088 82.7161 97.7722C82.7005 97.7806 82.7059 97.81 82.7251 97.8046C83.3671 97.6306 83.3479 96.7144 83.1655 96.1714Z" fill="#263238"/>
<path d="M82.5598 95.6208C81.5998 95.6682 81.7648 97.5847 82.6546 97.5409C83.53 97.4977 83.365 95.5812 82.5598 95.6208Z" fill="#263238"/>
<path d="M86.7978 95.7786C86.8002 95.7558 86.8464 95.8026 86.8482 95.8272C86.8806 96.4224 87.018 97.0986 87.5718 97.2498C87.5892 97.2546 87.5898 97.2846 87.57 97.2834C86.9064 97.2474 86.733 96.3474 86.7978 95.7786Z" fill="#263238"/>
<path d="M87.2739 95.1134C88.2225 94.9586 88.4619 96.8678 87.5835 97.0106C86.7183 97.1522 86.4783 95.243 87.2739 95.1134Z" fill="#263238"/>
<path d="M81.8116 94.226C82.0672 94.1378 82.288 94.0136 82.5316 93.9008C82.8064 93.773 83.0386 93.6992 83.2024 93.4292C83.29 93.284 83.2276 93.0428 83.095 92.9444C82.7854 92.7146 82.4098 92.7878 82.0732 92.9282C81.7072 93.0806 81.4642 93.2918 81.2776 93.6404C81.0958 93.977 81.475 94.3424 81.8116 94.226Z" fill="#263238"/>
<path d="M87.8798 94.4637C87.6104 94.4433 87.3656 94.3797 87.101 94.3317C86.8028 94.2777 86.5598 94.2657 86.3324 94.0455C86.2106 93.9273 86.21 93.6783 86.3132 93.5493C86.5538 93.2487 86.936 93.2241 87.2978 93.2739C87.6902 93.3285 87.9788 93.4707 88.2482 93.7605C88.5092 94.0419 88.235 94.4907 87.8798 94.4637Z" fill="#263238"/>
<path d="M83.1196 101.532C83.2738 101.659 83.4322 101.838 83.6494 101.838C83.8576 101.837 84.0916 101.723 84.2746 101.633C84.2926 101.624 84.3136 101.643 84.3028 101.661C84.1684 101.902 83.8564 102.073 83.5768 102.048C83.3038 102.024 83.1514 101.803 83.0644 101.563C83.053 101.53 83.0968 101.514 83.1196 101.532Z" fill="#263238"/>
<path d="M85.9706 99.0023C85.9706 99.0023 86.0864 99.8867 86.0834 100.304C86.0828 100.343 84.8972 100.234 83.6726 100.637C83.489 100.698 83.492 100.544 83.6984 100.421C84.1118 100.177 84.6434 99.9329 85.7276 99.9383C85.7576 99.8231 85.5242 98.5799 85.5902 98.5751C85.8182 98.5571 86.2658 98.7155 86.5352 98.7965C86.3474 96.9467 85.8644 95.1425 85.7054 93.2975C85.7012 93.2315 85.7954 93.2123 85.8146 93.2711C86.4542 95.1263 86.717 97.2503 86.96 99.1553C86.993 99.3935 86.1368 99.0743 85.9706 99.0023Z" fill="#263238"/>
<path d="M75.806 97.4141C77.3168 97.3055 77.126 93.6125 77.126 93.6125C77.126 93.6125 79.4276 93.1703 80.5172 89.9921C80.5172 89.9921 83.507 91.8191 85.9904 91.3361C89.8826 90.5795 89.7152 85.5131 88.2434 84.4985C86.1572 83.0603 82.4972 85.2365 82.4972 85.2365C82.4972 85.2365 76.901 83.7509 75.2864 87.5435C75.2864 87.5435 72.8006 87.6827 72.6626 90.4319C72.5246 93.1811 74.6798 97.4951 75.806 97.4141Z" fill="#263238"/>
<path d="M76.5892 94.0561C77.6944 93.8239 78.7432 93.2989 79.4842 92.4283C80.2486 91.5295 80.68 90.1585 80.3308 89.0041C80.3116 88.9411 80.416 88.9159 80.431 88.9813C80.7238 90.2665 80.6638 91.5919 79.8568 92.6893C79.1176 93.6949 77.8582 94.3285 76.6006 94.1677C76.54 94.1599 76.5232 94.0699 76.5892 94.0561Z" fill="#263238"/>
<path d="M72.4468 88.8265C73.2022 87.8437 74.374 87.6769 75.5332 87.7033C75.5998 87.7045 75.5944 87.8125 75.529 87.8059C74.3866 87.6895 73.2472 88.4647 72.664 89.4061C72.0922 90.3289 72.2386 91.4797 72.4864 92.4877C72.9622 94.4221 74.1244 96.1579 75.7798 97.2745C75.8074 97.2931 75.7804 97.3351 75.7522 97.3177C73.8748 96.1561 72.4918 94.2523 72.0574 92.0779C71.8462 91.0165 71.7502 89.7331 72.4468 88.8265Z" fill="#263238"/>
<path d="M82.3483 85.4228C82.8655 84.617 83.5609 84.0308 84.4705 83.7548C85.5175 83.4374 86.7289 83.5646 87.7111 84.0446C88.5439 84.4514 89.0161 85.2938 89.0881 86.2196C89.1703 87.2756 88.6885 88.2752 88.1023 89.1104C88.0855 89.1344 88.0489 89.111 88.0645 89.0852C88.5367 88.2962 88.8985 87.4046 88.8295 86.4608C88.7617 85.5254 88.2571 84.7466 87.4099 84.3824C85.8019 83.6906 83.4613 83.8364 82.4335 85.4774C82.3981 85.5338 82.3129 85.4786 82.3483 85.4228Z" fill="#263238"/>
<path d="M76.6694 97.2775C76.6694 97.2775 74.7896 94.4035 73.4912 95.0653C72.1928 95.7271 73.5458 99.8509 75.0272 100.455C76.5086 101.059 77.0948 99.6991 77.0948 99.6991L76.6694 97.2775Z" fill="#AD6359"/>
<path d="M73.9125 96.2391C73.8885 96.2361 73.8825 96.2697 73.9035 96.2787C74.9409 96.7371 75.4641 97.7283 75.8205 98.7507C75.5199 98.3523 75.1011 98.1261 74.5689 98.4819C74.5407 98.5005 74.5659 98.5443 74.5959 98.5389C75.0291 98.4597 75.3375 98.5443 75.6177 98.8977C75.8157 99.1479 75.9471 99.4611 76.0857 99.7473C76.1319 99.8427 76.3029 99.7977 76.2705 99.6885C76.2681 99.6807 76.2651 99.6723 76.2627 99.6639C76.3305 98.3253 75.3471 96.4185 73.9125 96.2391Z" fill="#263238"/>
<path d="M20.1014 282.192H0.5V278.592H20.1014C35.6324 278.592 40.058 265.304 41.036 254.158C41.8022 245.425 42.2738 234.793 42.7724 223.536C44.639 181.429 46.5698 137.889 63.5138 137.889H79.037V141.489H63.5138C50.0132 141.489 47.9066 189.003 46.3688 223.696C45.8684 234.992 45.395 245.662 44.6222 254.472C43.0544 272.348 34.346 282.192 20.1014 282.192Z" fill="#FDB514"/>
<path opacity="0.2" d="M79.0387 137.889V141.489H66.6547L65.8867 137.889H79.0387Z" fill="black"/>
<path d="M132.91 162.944H139.52V116.753H132.91V162.944Z" fill="#FDB514"/>
<path d="M132.912 118.949H107.781V160.278H132.912V118.949Z" fill="#FDB514"/>
<path opacity="0.2" d="M132.907 118.952V160.281H126.666L123.867 118.952H132.907Z" fill="black"/>
<path d="M69.7141 143.374H88.3555V136.011H69.7141V143.374Z" fill="#FDB514"/>
<path d="M88.3553 136.01H69.7109V143.37H88.3553V136.01Z" fill="#FDB514"/>
<path opacity="0.2" d="M81.8125 143.37L82.4239 136.01H88.3579V143.37H81.8125Z" fill="black"/>
<path d="M92.05 121.87H107.784V157.832H92.05C90.0118 157.832 88.3594 156.18 88.3594 154.141V125.56C88.36 123.522 90.0118 121.87 92.05 121.87Z" fill="#FDB514"/>
<path opacity="0.2" d="M99.5156 157.83L102.315 121.867H107.781V157.83H99.5156Z" fill="black"/>
<g opacity="0.2">
<path d="M100.964 150.563H102.203V129.14H100.964V150.563Z" fill="black"/>
<path d="M97.4485 150.563H98.6875V129.14H97.4485V150.563Z" fill="black"/>
<path d="M93.9368 150.563H95.1758V129.14H93.9368V150.563Z" fill="black"/>
</g>
<path d="M68.5664 114.692C67.9364 123.355 67.2854 141.005 71.1122 146.182C76.1336 152.975 90.2984 157.096 94.4876 158.33C96.3128 158.867 100.604 146.945 99.5342 145.214C98.4644 143.484 83.8316 139.796 82.6778 138.805C81.524 137.813 77.9024 123.732 76.145 116.57C73.928 107.537 68.8154 111.273 68.5664 114.692Z" fill="#AD6359"/>
<path d="M110.375 149.798C112.689 150.352 116.193 149.166 116.306 150.932C116.407 152.505 113.899 153.091 113.899 153.091C113.899 153.091 116.937 153.344 116.564 155.068C116.191 156.793 113.312 156.872 113.312 156.872C113.312 156.872 116.093 157.252 115.598 158.945C115.102 160.638 112.426 160.869 112.426 160.869C112.426 160.869 113.132 161.395 112.245 162.434C110.975 163.919 106.754 163.745 104.572 163.13C102.39 162.516 94.8539 158.654 93.7109 158.041L97.5329 144.001C97.5329 144.001 101.918 143.303 104.184 143.22C106.451 143.137 113.993 144.938 113.673 146.84C113.353 148.742 108.047 147.379 106.676 147.33C105.304 147.281 105.059 147.59 105.66 148.093C106.055 148.422 109.351 149.554 110.375 149.798Z" fill="#AD6359"/>
<path d="M113.766 153.061C110.216 153.629 108.564 153.264 105.309 151.871C105.246 151.844 105.191 151.932 105.255 151.967C108.318 153.621 110.324 154.379 113.803 153.232C113.973 153.176 113.935 153.034 113.766 153.061Z" fill="#263238"/>
<path d="M113.457 156.813C109.717 157.081 107.922 156.7 104.406 155.492C104.357 155.475 104.322 155.558 104.372 155.579C107.721 157.053 109.74 157.763 113.441 157.004C113.608 156.969 113.628 156.8 113.457 156.813Z" fill="#263238"/>
<path d="M112.382 160.843C108.743 160.842 106.756 160.509 103.493 158.898C103.417 158.86 103.354 158.969 103.427 159.015C106.595 160.981 109.07 161.415 112.37 160.954C112.595 160.923 112.611 160.843 112.382 160.843Z" fill="#263238"/>
<path d="M83.442 155.518C83.442 155.518 72 149.773 70.2678 145.367C68.1066 139.87 67.224 123.844 68.064 115.622C68.904 107.4 74.628 108.396 76.4952 115.692C78.3096 122.781 82.3596 136.95 82.7748 137.613C83.313 138.472 89.8374 140.084 89.8374 140.084" fill="#455A64"/>
<path d="M82.2978 135.781C82.0998 135.1 81.7548 133.571 81.5544 132.914C81.1518 131.59 80.7528 130.266 80.3388 128.945C79.9242 127.624 79.5162 126.299 79.074 124.987C78.9996 124.765 78.9288 124.537 78.8556 124.313C78.8916 124.172 78.726 122.43 78.7392 122.003C78.741 121.935 78.6318 121.933 78.6366 121.997C78.6696 122.423 78.6246 122.851 78.597 123.276C78.5916 123.355 78.597 123.435 78.5964 123.514C78.321 122.652 78.0468 121.789 77.7588 120.954C77.7366 120.89 77.64 120.914 77.6586 120.976C78.1998 122.774 78.4626 123.91 78.8502 125.366C79.227 126.781 79.653 128.181 80.0688 129.584C80.4852 130.988 80.9298 132.385 81.3678 133.783C81.5514 134.368 81.9732 135.709 82.2342 136.232C82.4904 136.745 82.5042 136.49 82.2978 135.781Z" fill="#263238"/>
<path d="M69.3929 140.619C69.1565 139.135 68.9261 137.651 68.7437 136.159C68.3795 133.178 68.1587 130.201 68.0153 127.202C67.9337 125.49 67.8071 123.781 67.7111 122.071C67.7063 121.986 67.5803 121.989 67.5797 122.074C67.5731 123.596 67.5287 125.118 67.5695 126.641C67.5755 126.862 67.5857 127.082 67.5923 127.303C67.5665 127.2 67.5443 127.097 67.5179 126.994C67.2977 126.122 66.9851 125.27 66.7907 124.391C66.7781 124.333 66.6863 124.36 66.7007 124.418C66.9215 125.295 67.0307 126.197 67.2401 127.078C67.3445 127.517 67.4519 127.954 67.5743 128.388C67.5923 128.452 67.6157 128.514 67.6355 128.578C67.6709 129.454 67.7129 130.33 67.7687 131.206C67.9589 134.215 68.2559 137.202 68.8073 140.171C69.3659 143.176 69.8669 144.236 70.3733 145.864C70.3913 145.922 70.4789 145.895 70.4633 145.837C70.0763 144.385 69.6293 142.103 69.3929 140.619Z" fill="#263238"/>
<path d="M87.6624 140.078C87.0078 141.127 86.502 142.293 85.9788 143.412C85.4514 144.541 84.9192 145.669 84.4224 146.812C83.4444 149.062 82.494 151.354 81.7758 153.702C81.7572 153.762 81.8514 153.799 81.8796 153.742C82.9956 151.521 83.9544 149.211 84.9258 146.923C85.4046 145.794 85.8642 144.658 86.3424 143.529C86.82 142.402 87.3552 141.269 87.7224 140.101C87.7344 140.065 87.681 140.048 87.6624 140.078Z" fill="#263238"/>
<path d="M150.593 109.026C150.427 109.026 150.293 108.891 150.293 108.726V100.284C150.293 100.119 150.427 99.9844 150.593 99.9844C150.759 99.9844 150.893 100.119 150.893 100.284V108.726C150.893 108.892 150.759 109.026 150.593 109.026Z" fill="#263238"/>
<path d="M135.315 113.067C135.211 113.067 135.11 113.014 135.054 112.917L130.833 105.606C130.75 105.463 130.8 105.279 130.943 105.196C131.086 105.113 131.269 105.162 131.353 105.306L135.574 112.617C135.657 112.761 135.607 112.944 135.464 113.027C135.417 113.055 135.366 113.067 135.315 113.067Z" fill="#263238"/>
<path d="M130.924 173.263C130.873 173.263 130.822 173.25 130.775 173.223C130.632 173.14 130.582 172.957 130.665 172.813L134.886 165.502C134.969 165.358 135.153 165.309 135.296 165.392C135.439 165.475 135.489 165.658 135.406 165.802L131.185 173.113C131.129 173.209 131.028 173.263 130.924 173.263Z" fill="#263238"/>
<path d="M150.402 178.532C150.236 178.532 150.102 178.398 150.102 178.232V169.79C150.102 169.624 150.236 169.49 150.402 169.49C150.567 169.49 150.702 169.624 150.702 169.79V178.232C150.702 178.398 150.568 178.532 150.402 178.532Z" fill="#263238"/>
<path d="M169.904 173.359C169.8 173.359 169.699 173.305 169.644 173.209L165.423 165.898C165.34 165.754 165.389 165.571 165.533 165.488C165.676 165.404 165.86 165.454 165.943 165.598L170.163 172.909C170.247 173.052 170.198 173.236 170.054 173.318C170.006 173.345 169.955 173.359 169.904 173.359Z" fill="#263238"/>
<path d="M165.847 113.167C165.796 113.167 165.744 113.154 165.697 113.126C165.553 113.044 165.504 112.86 165.587 112.717L169.808 105.406C169.891 105.262 170.074 105.214 170.218 105.296C170.361 105.379 170.41 105.562 170.328 105.706L166.107 113.017C166.051 113.113 165.95 113.167 165.847 113.167Z" fill="#263238"/>
</g>
<defs>
<clipPath id="clip0_2747_23666">
<rect width="300" height="300" fill="white" transform="translate(0.5)"/>
</clipPath>
</defs>
</svg>
