<svg width="16" height="16" viewBox="0 0 16 16" fill="none" xmlns="http://www.w3.org/2000/svg">
<path fill-rule="evenodd" clip-rule="evenodd" d="M2 0H5.33333C5.86377 0 6.37247 0.210714 6.74755 0.585786C7.12262 0.960859 7.33333 1.46957 7.33333 2V5.33333C7.33333 5.86377 7.12262 6.37247 6.74755 6.74755C6.37247 7.12262 5.86377 7.33333 5.33333 7.33333H2C1.46957 7.33333 0.960859 7.12262 0.585786 6.74755C0.210714 6.37247 0 5.86377 0 5.33333L0 2C0 1.46957 0.210714 0.960859 0.585786 0.585786C0.960859 0.210714 1.46957 0 2 0ZM2 1.33333C1.82319 1.33333 1.65362 1.40357 1.5286 1.5286C1.40357 1.65362 1.33333 1.82319 1.33333 2V5.33333C1.33333 5.73333 1.6 6 2 6H5.33333C5.73333 6 6 5.73333 6 5.33333V2C6 1.6 5.73333 1.33333 5.33333 1.33333H2Z" fill="#FDB514"/>
<path fill-rule="evenodd" clip-rule="evenodd" d="M14.0052 7.33333H10.6719C10.1414 7.33333 9.63273 7.12262 9.25766 6.74755C8.88259 6.37247 8.67188 5.86377 8.67188 5.33333V2C8.67188 1.46957 8.88259 0.960859 9.25766 0.585786C9.63273 0.210714 10.1414 0 10.6719 0L14.0052 0C14.5356 0 15.0443 0.210714 15.4194 0.585786C15.7945 0.960859 16.0052 1.46957 16.0052 2V5.33333C16.0052 5.86377 15.7945 6.37247 15.4194 6.74755C15.0443 7.12262 14.5356 7.33333 14.0052 7.33333ZM14.0052 6C14.4052 6 14.6719 5.73333 14.6719 5.33333V2C14.6719 1.6 14.4052 1.33333 14.0052 1.33333H10.6719C10.4951 1.33333 10.3255 1.40357 10.2005 1.5286C10.0754 1.65362 10.0052 1.82319 10.0052 2V5.33333C10.0052 5.73333 10.2719 6 10.6719 6H14.0052Z" fill="#FDB514"/>
<path fill-rule="evenodd" clip-rule="evenodd" d="M5.33333 8.67188H2C1.46957 8.67188 0.960859 8.88259 0.585786 9.25766C0.210714 9.63273 0 10.1414 0 10.6719L0 14.0052C0 14.5356 0.210714 15.0443 0.585786 15.4194C0.960859 15.7945 1.46957 16.0052 2 16.0052H5.33333C5.86377 16.0052 6.37247 15.7945 6.74755 15.4194C7.12262 15.0443 7.33333 14.5356 7.33333 14.0052V10.6719C7.33333 10.1414 7.12262 9.63273 6.74755 9.25766C6.37247 8.88259 5.86377 8.67188 5.33333 8.67188ZM1.33333 10.6719C1.33333 10.2719 1.6 10.0052 2 10.0052H5.33333C5.73333 10.0052 6 10.2719 6 10.6719V14.0052C6 14.4052 5.73333 14.6719 5.33333 14.6719H2C1.82319 14.6719 1.65362 14.6016 1.5286 14.4766C1.40357 14.3516 1.33333 14.182 1.33333 14.0052V10.6719Z" fill="#FDB514"/>
<path fill-rule="evenodd" clip-rule="evenodd" d="M14.0052 16.0052H10.6719C10.1414 16.0052 9.63273 15.7945 9.25766 15.4194C8.88259 15.0443 8.67188 14.5356 8.67188 14.0052V10.6719C8.67188 10.1414 8.88259 9.63273 9.25766 9.25766C9.63273 8.88259 10.1414 8.67188 10.6719 8.67188H14.0052C14.5356 8.67188 15.0443 8.88259 15.4194 9.25766C15.7945 9.63273 16.0052 10.1414 16.0052 10.6719V14.0052C16.0052 14.5356 15.7945 15.0443 15.4194 15.4194C15.0443 15.7945 14.5356 16.0052 14.0052 16.0052ZM14.0052 14.6719C14.4052 14.6719 14.6719 14.4052 14.6719 14.0052V10.6719C14.6719 10.2719 14.4052 10.0052 14.0052 10.0052H10.6719C10.4951 10.0052 10.3255 10.0754 10.2005 10.2005C10.0754 10.3255 10.0052 10.4951 10.0052 10.6719V14.0052C10.0052 14.4052 10.2719 14.6719 10.6719 14.6719H14.0052Z" fill="#FDB514"/>
</svg>
