<svg width="16" height="17" viewBox="0 0 16 17" fill="none" xmlns="http://www.w3.org/2000/svg">
<path fill-rule="evenodd" clip-rule="evenodd" d="M2 0.5H5.33333C5.86377 0.5 6.37247 0.710714 6.74755 1.08579C7.12262 1.46086 7.33333 1.96957 7.33333 2.5V5.83333C7.33333 6.36377 7.12262 6.87247 6.74755 7.24755C6.37247 7.62262 5.86377 7.83333 5.33333 7.83333H2C1.46957 7.83333 0.960859 7.62262 0.585786 7.24755C0.210714 6.87247 0 6.36377 0 5.83333L0 2.5C0 1.96957 0.210714 1.46086 0.585786 1.08579C0.960859 0.710714 1.46957 0.5 2 0.5ZM2 1.83333C1.82319 1.83333 1.65362 1.90357 1.5286 2.0286C1.40357 2.15362 1.33333 2.32319 1.33333 2.5V5.83333C1.33333 6.23333 1.6 6.5 2 6.5H5.33333C5.73333 6.5 6 6.23333 6 5.83333V2.5C6 2.1 5.73333 1.83333 5.33333 1.83333H2Z" fill="white"/>
<path fill-rule="evenodd" clip-rule="evenodd" d="M14.0013 7.83333H10.668C10.1375 7.83333 9.62883 7.62262 9.25375 7.24755C8.87868 6.87247 8.66797 6.36377 8.66797 5.83333V2.5C8.66797 1.96957 8.87868 1.46086 9.25375 1.08579C9.62883 0.710714 10.1375 0.5 10.668 0.5L14.0013 0.5C14.5317 0.5 15.0404 0.710714 15.4155 1.08579C15.7906 1.46086 16.0013 1.96957 16.0013 2.5V5.83333C16.0013 6.36377 15.7906 6.87247 15.4155 7.24755C15.0404 7.62262 14.5317 7.83333 14.0013 7.83333ZM14.0013 6.5C14.4013 6.5 14.668 6.23333 14.668 5.83333V2.5C14.668 2.1 14.4013 1.83333 14.0013 1.83333H10.668C10.4912 1.83333 10.3216 1.90357 10.1966 2.0286C10.0715 2.15362 10.0013 2.32319 10.0013 2.5V5.83333C10.0013 6.23333 10.268 6.5 10.668 6.5H14.0013Z" fill="white"/>
<path fill-rule="evenodd" clip-rule="evenodd" d="M5.33333 9.1665H2C1.46957 9.1665 0.960859 9.37722 0.585786 9.75229C0.210714 10.1274 0 10.6361 0 11.1665L0 14.4998C0 15.0303 0.210714 15.539 0.585786 15.9141C0.960859 16.2891 1.46957 16.4998 2 16.4998H5.33333C5.86377 16.4998 6.37247 16.2891 6.74755 15.9141C7.12262 15.539 7.33333 15.0303 7.33333 14.4998V11.1665C7.33333 10.6361 7.12262 10.1274 6.74755 9.75229C6.37247 9.37722 5.86377 9.1665 5.33333 9.1665ZM1.33333 11.1665C1.33333 10.7665 1.6 10.4998 2 10.4998H5.33333C5.73333 10.4998 6 10.7665 6 11.1665V14.4998C6 14.8998 5.73333 15.1665 5.33333 15.1665H2C1.82319 15.1665 1.65362 15.0963 1.5286 14.9712C1.40357 14.8462 1.33333 14.6766 1.33333 14.4998V11.1665Z" fill="white"/>
<path fill-rule="evenodd" clip-rule="evenodd" d="M14.0013 16.5003H10.668C10.1375 16.5003 9.62883 16.2896 9.25375 15.9145C8.87868 15.5395 8.66797 15.0308 8.66797 14.5003V11.167C8.66797 10.6366 8.87868 10.1279 9.25375 9.75278C9.62883 9.37771 10.1375 9.16699 10.668 9.16699H14.0013C14.5317 9.16699 15.0404 9.37771 15.4155 9.75278C15.7906 10.1279 16.0013 10.6366 16.0013 11.167V14.5003C16.0013 15.0308 15.7906 15.5395 15.4155 15.9145C15.0404 16.2896 14.5317 16.5003 14.0013 16.5003ZM14.0013 15.167C14.4013 15.167 14.668 14.9003 14.668 14.5003V11.167C14.668 10.767 14.4013 10.5003 14.0013 10.5003H10.668C10.4912 10.5003 10.3216 10.5706 10.1966 10.6956C10.0715 10.8206 10.0013 10.9902 10.0013 11.167V14.5003C10.0013 14.9003 10.268 15.167 10.668 15.167H14.0013Z" fill="white"/>
</svg>
