<svg width="13" height="12" viewBox="0 0 13 12" fill="none" xmlns="http://www.w3.org/2000/svg">
<path d="M2.14417 6.62474L6.45188 10.9325C6.57581 11.0564 6.63697 11.2014 6.63536 11.3675C6.63376 11.5337 6.56832 11.6814 6.43904 11.8106C6.30978 11.9314 6.16342 11.9939 5.99996 11.9981C5.8365 12.0024 5.69014 11.9399 5.56088 11.8106L0.277233 6.52699C0.199247 6.44901 0.144226 6.36674 0.11217 6.2802C0.0801147 6.19367 0.0640869 6.10019 0.0640869 5.99976C0.0640869 5.89933 0.0801147 5.80585 0.11217 5.71933C0.144226 5.63278 0.199247 5.55052 0.277233 5.47253L5.56088 0.188889C5.67625 0.0734996 5.81914 0.0144719 5.98954 0.0118052C6.15995 0.00913853 6.30978 0.0681663 6.43904 0.188889C6.56832 0.318152 6.63296 0.466652 6.63296 0.634388C6.63296 0.802124 6.56832 0.950625 6.43904 1.07989L2.14417 5.37478H11.6249C11.8023 5.37478 11.9508 5.43461 12.0704 5.55426C12.1901 5.67392 12.2499 5.82242 12.2499 5.99976C12.2499 6.17711 12.1901 6.32561 12.0704 6.44526C11.9508 6.56492 11.8023 6.62474 11.6249 6.62474H2.14417Z" fill="white"/>
</svg>
