<svg width="13" height="12" viewBox="0 0 13 12" fill="none" xmlns="http://www.w3.org/2000/svg">
<path d="M2.14454 6.62523L6.45224 10.9329C6.57617 11.0569 6.63733 11.2019 6.63572 11.368C6.63413 11.5342 6.56869 11.6819 6.43941 11.8111C6.31015 11.9318 6.16379 11.9943 6.00033 11.9986C5.83687 12.0029 5.69051 11.9404 5.56124 11.8111L0.277599 6.52748C0.199613 6.44949 0.144592 6.36723 0.112536 6.28069C0.0804809 6.19416 0.0644531 6.10068 0.0644531 6.00025C0.0644531 5.89982 0.0804809 5.80634 0.112536 5.71981C0.144592 5.63327 0.199613 5.55101 0.277599 5.47302L5.56124 0.189377C5.67662 0.0739879 5.81951 0.0149601 5.98991 0.0122935C6.16031 0.00962681 6.31015 0.0686546 6.43941 0.189377C6.56869 0.318641 6.63333 0.46714 6.63333 0.634876C6.63333 0.802612 6.56869 0.951113 6.43941 1.08038L2.14454 5.37527H11.6253C11.8027 5.37527 11.9512 5.4351 12.0708 5.55475C12.1905 5.6744 12.2503 5.8229 12.2503 6.00025C12.2503 6.1776 12.1905 6.3261 12.0708 6.44575C11.9512 6.5654 11.8027 6.62523 11.6253 6.62523H2.14454Z" fill="#202020"/>
</svg>
