<svg width="22" height="22" viewBox="0 0 22 22" fill="none" xmlns="http://www.w3.org/2000/svg">
<path fill-rule="evenodd" clip-rule="evenodd" d="M7.87036 0.880405C4.39954 1.66508 1.67615 4.33246 0.840587 7.76562C0.383698 9.6429 0.387872 11.6183 0.844762 13.4955C1.69339 16.9824 4.18968 19.8842 7.53842 21.2364L7.68439 21.2953C9.13352 21.8805 10.7936 21.1758 11.3882 19.74C11.5518 19.3448 11.9415 19.0827 12.3721 19.0827H13.6832C17.2492 19.0827 20.3513 16.6597 21.1883 13.2206C21.6039 11.5127 21.6039 9.73127 21.1883 8.02344L21.0785 7.57249C20.2717 4.25764 17.6422 1.68218 14.291 0.924547L13.8202 0.818114C11.9527 0.395915 10.0134 0.395915 8.14589 0.818114L7.87036 0.880405ZM6.91894 6.7626C6.47003 6.7626 6.10611 7.12366 6.10611 7.56904C6.10611 8.01442 6.47003 8.37548 6.91894 8.37548H14.3698C14.8187 8.37548 15.1826 8.01442 15.1826 7.56904C15.1826 7.12366 14.8187 6.7626 14.3698 6.7626H6.91894ZM8.27364 10.7948C7.82473 10.7948 7.46082 11.1558 7.46082 11.6012C7.46082 12.0466 7.82473 12.4077 8.27364 12.4077H13.0151C13.464 12.4077 13.8279 12.0466 13.8279 11.6012C13.8279 11.1558 13.464 10.7948 13.0151 10.7948H8.27364Z" fill="#202022"/>
</svg>
