<svg width="22" height="22" viewBox="0 0 22 22" fill="none" xmlns="http://www.w3.org/2000/svg">
<path fill-rule="evenodd" clip-rule="evenodd" d="M7.87036 0.87894C4.39954 1.66361 1.67615 4.331 0.840587 7.76416C0.383698 9.64143 0.387872 11.6168 0.844762 13.4941C1.69339 16.9809 4.18968 19.8828 7.53842 21.2349L7.68439 21.2939C9.13352 21.879 10.7936 21.1743 11.3882 19.7385C11.5518 19.3434 11.9415 19.0812 12.3721 19.0812H13.6832C17.2492 19.0812 20.3513 16.6582 21.1883 13.2191C21.6039 11.5113 21.6039 9.72981 21.1883 8.02198L21.0785 7.57102C20.2717 4.25618 17.6422 1.68071 14.291 0.923082L13.8202 0.816649C11.9527 0.39445 10.0134 0.39445 8.14589 0.816649L7.87036 0.87894ZM6.91894 6.76114C6.47003 6.76114 6.10611 7.12219 6.10611 7.56758C6.10611 8.01296 6.47003 8.37401 6.91894 8.37401H14.3698C14.8187 8.37401 15.1826 8.01296 15.1826 7.56758C15.1826 7.12219 14.8187 6.76114 14.3698 6.76114H6.91894ZM8.27364 10.7933C7.82473 10.7933 7.46082 11.1544 7.46082 11.5998C7.46082 12.0452 7.82473 12.4062 8.27364 12.4062H13.0151C13.464 12.4062 13.8279 12.0452 13.8279 11.5998C13.8279 11.1544 13.464 10.7933 13.0151 10.7933H8.27364Z" fill="white"/>
</svg>
