<svg width="12" height="12" viewBox="0 0 12 12" fill="none" xmlns="http://www.w3.org/2000/svg">
<path d="M5.99974 6.87793L1.77216 11.1055C1.65679 11.2209 1.51176 11.2799 1.33708 11.2826C1.16241 11.2853 1.01472 11.2262 0.893995 11.1055C0.773259 10.9848 0.712891 10.8384 0.712891 10.6664C0.712891 10.4944 0.773259 10.3481 0.893995 10.2273L5.12156 5.99974L0.893995 1.77216C0.778606 1.65679 0.719578 1.51176 0.716911 1.33708C0.714231 1.16241 0.773259 1.01472 0.893995 0.893995C1.01472 0.773259 1.16108 0.712891 1.33308 0.712891C1.50508 0.712891 1.65144 0.773259 1.77216 0.893995L5.99974 5.12156L10.2273 0.893995C10.3427 0.778606 10.4877 0.719578 10.6624 0.716911C10.8371 0.714231 10.9848 0.773259 11.1055 0.893995C11.2262 1.01472 11.2866 1.16108 11.2866 1.33308C11.2866 1.50508 11.2262 1.65144 11.1055 1.77216L6.87793 5.99974L11.1055 10.2273C11.2209 10.3427 11.2799 10.4877 11.2826 10.6624C11.2853 10.8371 11.2262 10.9848 11.1055 11.1055C10.9848 11.2262 10.8384 11.2866 10.6664 11.2866C10.4944 11.2866 10.3481 11.2262 10.2273 11.1055L5.99974 6.87793Z" fill="white"/>
</svg>
