<svg width="22" height="22" viewBox="0 0 22 22" fill="none" xmlns="http://www.w3.org/2000/svg">
<path d="M10.2508 21.2002V19.4694C8.16742 19.2553 6.41357 18.4361 4.98921 17.0118C3.56486 15.5874 2.74563 13.8336 2.53153 11.7502H0.800781V10.2503H2.53153C2.74563 8.16694 3.56486 6.41308 4.98921 4.98872C6.41357 3.56437 8.16742 2.74514 10.2508 2.53104V0.800293H11.7507V2.53104C13.834 2.74514 15.5879 3.56437 17.0123 4.98872C18.4366 6.41308 19.2558 8.16694 19.4699 10.2503H21.2007V11.7502H19.4699C19.2558 13.8336 18.4366 15.5874 17.0123 17.0118C15.5879 18.4361 13.834 19.2553 11.7507 19.4694V21.2002H10.2508ZM11.0007 18.0002C12.9341 18.0002 14.5841 17.3169 15.9507 15.9502C17.3174 14.5836 18.0007 12.9336 18.0007 11.0002C18.0007 9.06691 17.3174 7.41691 15.9507 6.05024C14.5841 4.68358 12.9341 4.00024 11.0007 4.00024C9.0674 4.00024 7.4174 4.68358 6.05073 6.05024C4.68406 7.41691 4.00073 9.06691 4.00073 11.0002C4.00073 12.9336 4.68406 14.5836 6.05073 15.9502C7.4174 17.3169 9.0674 18.0002 11.0007 18.0002ZM11.0007 14.5002C10.0382 14.5002 9.2143 14.1575 8.52888 13.4721C7.84347 12.7867 7.50076 11.9627 7.50076 11.0002C7.50076 10.0378 7.84347 9.21381 8.52888 8.52839C9.2143 7.84298 10.0382 7.50027 11.0007 7.50027C11.9632 7.50027 12.7872 7.84298 13.4726 8.52839C14.158 9.21381 14.5007 10.0378 14.5007 11.0002C14.5007 11.9627 14.158 12.7867 13.4726 13.4721C12.7872 14.1575 11.9632 14.5002 11.0007 14.5002Z" fill="#202020"/>
</svg>
