<svg width="20" height="20" viewBox="0 0 20 20" fill="none" xmlns="http://www.w3.org/2000/svg">
<path d="M10.0016 19.5C8.68772 19.5 7.45268 19.2506 6.29655 18.752C5.1404 18.2533 4.13472 17.5765 3.2795 16.7217C2.42427 15.8669 1.74721 14.8616 1.24833 13.706C0.749442 12.5504 0.5 11.3156 0.5 10.0017C0.5 8.68772 0.749334 7.45268 1.248 6.29655C1.74667 5.1404 2.42342 4.13472 3.27825 3.2795C4.1331 2.42427 5.13834 1.74721 6.29398 1.24833C7.44959 0.749443 8.68437 0.5 9.9983 0.5C11.3122 0.5 12.5473 0.749334 13.7034 1.248C14.8596 1.74667 15.8652 2.42342 16.7205 3.27825C17.5757 4.1331 18.2527 5.13834 18.7516 6.29398C19.2505 7.44959 19.5 8.68437 19.5 9.9983C19.5 11.3122 19.2506 12.5473 18.752 13.7034C18.2533 14.8596 17.5765 15.8652 16.7217 16.7205C15.8669 17.5757 14.8616 18.2527 13.706 18.7516C12.5504 19.2505 11.3156 19.5 10.0016 19.5ZM9.99998 18C12.2333 18 14.125 17.225 15.675 15.675C17.225 14.125 18 12.2333 18 9.99998C18 7.76664 17.225 5.87498 15.675 4.32498C14.125 2.77498 12.2333 1.99998 9.99998 1.99998C7.76664 1.99998 5.87498 2.77498 4.32498 4.32498C2.77498 5.87498 1.99998 7.76664 1.99998 9.99998C1.99998 12.2333 2.77498 14.125 4.32498 15.675C5.87498 17.225 7.76664 18 9.99998 18ZM9.97498 16.8077C10.157 16.8077 10.3163 16.7394 10.4529 16.6029C10.5894 16.4663 10.6577 16.307 10.6577 16.125V15.5961C11.4333 15.491 12.1355 15.1996 12.7644 14.7221C13.3932 14.2445 13.7077 13.5205 13.7077 12.55C13.7077 11.85 13.5012 11.2308 13.0884 10.6923C12.6756 10.1538 11.8692 9.66794 10.6692 9.2346C9.6179 8.87562 8.91982 8.56472 8.57495 8.3019C8.23008 8.03908 8.05765 7.67178 8.05765 7.19998C8.05765 6.72818 8.23426 6.34484 8.58748 6.04998C8.94068 5.75509 9.42817 5.60765 10.05 5.60765C10.4218 5.60765 10.7471 5.6772 11.026 5.8163C11.3048 5.95542 11.5404 6.141 11.7327 6.37305C11.8545 6.52177 11.9955 6.62561 12.1558 6.68458C12.316 6.74354 12.4678 6.74098 12.6111 6.67688C12.8065 6.59996 12.9401 6.46855 13.0117 6.28265C13.0834 6.09677 13.0654 5.92626 12.9577 5.77113C12.691 5.39421 12.3602 5.08043 11.9654 4.8298C11.5705 4.57915 11.1512 4.43716 10.7077 4.40383V3.87498C10.7077 3.69293 10.6394 3.53363 10.5029 3.3971C10.3663 3.26057 10.207 3.1923 10.025 3.1923C9.84293 3.1923 9.68363 3.26057 9.5471 3.3971C9.41057 3.53363 9.3423 3.69293 9.3423 3.87498V4.40383C8.48973 4.56793 7.83493 4.91376 7.37788 5.44133C6.92083 5.96889 6.6923 6.55511 6.6923 7.19998C6.6923 7.95126 6.91987 8.55574 7.375 9.01343C7.83012 9.47113 8.57178 9.88459 9.6 10.2538C10.6628 10.6436 11.3888 10.9932 11.7779 11.3029C12.167 11.6125 12.3615 12.0282 12.3615 12.55C12.3615 13.1769 12.1352 13.6324 11.6827 13.9163C11.2301 14.2003 10.7192 14.3423 10.15 14.3423C9.67498 14.3423 9.24564 14.2237 8.86198 13.9865C8.47833 13.7493 8.15701 13.4064 7.89803 12.9577C7.79676 12.782 7.66023 12.6638 7.48843 12.6029C7.31664 12.542 7.14846 12.5439 6.98388 12.6087C6.80664 12.6735 6.67688 12.7965 6.59458 12.9779C6.51229 13.1593 6.51153 13.3327 6.5923 13.4981C6.87178 14.0583 7.23653 14.5064 7.68653 14.8423C8.13653 15.1782 8.67178 15.4128 9.2923 15.5461V16.125C9.2923 16.307 9.36057 16.4663 9.4971 16.6029C9.63363 16.7394 9.79293 16.8077 9.97498 16.8077Z" fill="#202022"/>
</svg>
