<svg width="14" height="10" viewBox="0 0 14 10" fill="none" xmlns="http://www.w3.org/2000/svg">
<path d="M6.99929 7.38458C7.75468 7.38458 8.39626 7.12019 8.92404 6.59142C9.45182 6.06263 9.71571 5.42053 9.71571 4.66513C9.71571 3.90974 9.45132 3.26816 8.92254 2.74038C8.39375 2.21261 7.75166 1.94872 6.99625 1.94872C6.24087 1.94872 5.59928 2.21311 5.0715 2.74188C4.54373 3.27067 4.27984 3.91277 4.27984 4.66817C4.27984 5.42356 4.54423 6.06514 5.073 6.59292C5.60179 7.12069 6.24389 7.38458 6.99929 7.38458ZM6.99777 6.46665C6.49777 6.46665 6.07277 6.29165 5.72277 5.94165C5.37277 5.59165 5.19777 5.16665 5.19777 4.66665C5.19777 4.16665 5.37277 3.74165 5.72277 3.39165C6.07277 3.04165 6.49777 2.86665 6.99777 2.86665C7.49777 2.86665 7.92277 3.04165 8.27277 3.39165C8.62277 3.74165 8.79777 4.16665 8.79777 4.66665C8.79777 5.16665 8.62277 5.59165 8.27277 5.94165C7.92277 6.29165 7.49777 6.46665 6.99777 6.46665ZM6.99869 9.3333C5.46561 9.3333 4.06873 8.91044 2.80804 8.06472C1.54736 7.21899 0.61916 6.08631 0.0234375 4.66665C0.61916 3.24699 1.54706 2.11431 2.80714 1.26858C4.0672 0.422862 5.46378 0 6.99685 0C8.52993 0 9.92682 0.422862 11.1875 1.26858C12.4482 2.11431 13.3764 3.24699 13.9721 4.66665C13.3764 6.08631 12.4485 7.21899 11.1884 8.06472C9.92834 8.91044 8.53177 9.3333 6.99869 9.3333ZM6.99777 8.33332C8.25333 8.33332 9.40611 8.00276 10.4561 7.34165C11.5061 6.68054 12.3089 5.78887 12.8644 4.66665C12.3089 3.54443 11.5061 2.65276 10.4561 1.99165C9.40611 1.33054 8.25333 0.999984 6.99777 0.999984C5.74222 0.999984 4.58944 1.33054 3.53944 1.99165C2.48944 2.65276 1.68666 3.54443 1.1311 4.66665C1.68666 5.78887 2.48944 6.68054 3.53944 7.34165C4.58944 8.00276 5.74222 8.33332 6.99777 8.33332Z" fill="white"/>
</svg>
