<svg width="18" height="12" viewBox="0 0 18 12" fill="none" xmlns="http://www.w3.org/2000/svg">
<path d="M9.00106 9.48073C9.9453 9.48073 10.7473 9.15024 11.407 8.48927C12.0667 7.82828 12.3966 7.02567 12.3966 6.08142C12.3966 5.13718 12.0661 4.3352 11.4051 3.67548C10.7441 3.01576 9.94152 2.6859 8.99727 2.6859C8.05303 2.6859 7.25106 3.01638 6.59133 3.67735C5.93161 4.33834 5.60175 5.14096 5.60175 6.08521C5.60175 7.02944 5.93224 7.83142 6.59321 8.49115C7.2542 9.15087 8.05681 9.48073 9.00106 9.48073ZM8.99917 8.33331C8.37417 8.33331 7.84292 8.11456 7.40542 7.67706C6.96792 7.23956 6.74917 6.70831 6.74917 6.08331C6.74917 5.45831 6.96792 4.92706 7.40542 4.48956C7.84292 4.05206 8.37417 3.83331 8.99917 3.83331C9.62417 3.83331 10.1554 4.05206 10.5929 4.48956C11.0304 4.92706 11.2492 5.45831 11.2492 6.08331C11.2492 6.70831 11.0304 7.23956 10.5929 7.67706C10.1554 8.11456 9.62417 8.33331 8.99917 8.33331ZM9.00031 11.9166C7.08397 11.9166 5.33786 11.388 3.762 10.3309C2.18615 9.27374 1.0259 7.85788 0.28125 6.08331C1.0259 4.30874 2.18578 2.89288 3.76088 1.83573C5.33596 0.778577 7.08167 0.25 8.99802 0.25C10.9144 0.25 12.6605 0.778577 14.2363 1.83573C15.8122 2.89288 16.9724 4.30874 17.7171 6.08331C16.9724 7.85788 15.8126 9.27374 14.2375 10.3309C12.6624 11.388 10.9167 11.9166 9.00031 11.9166ZM8.99917 10.6666C10.5686 10.6666 12.0096 10.2535 13.3221 9.42706C14.6346 8.60067 15.6381 7.48609 16.3325 6.08331C15.6381 4.68053 14.6346 3.56595 13.3221 2.73956C12.0096 1.91317 10.5686 1.49998 8.99917 1.49998C7.42972 1.49998 5.98875 1.91317 4.67625 2.73956C3.36375 3.56595 2.36028 4.68053 1.66583 6.08331C2.36028 7.48609 3.36375 8.60067 4.67625 9.42706C5.98875 10.2535 7.42972 10.6666 8.99917 10.6666Z" fill="#202020"/>
</svg>
