<svg width="14" height="12" viewBox="0 0 14 12" fill="none" xmlns="http://www.w3.org/2000/svg">
<path d="M7.00129 11.5508L6.2654 10.8893C5.16028 9.88676 4.24639 9.02522 3.52374 8.30471C2.80109 7.5842 2.22845 6.94296 1.8058 6.38099C1.38315 5.81903 1.08785 5.30642 0.919902 4.84318C0.751946 4.37993 0.667969 3.90985 0.667969 3.43293C0.667969 2.48678 0.986985 1.69469 1.62502 1.05666C2.26305 0.418627 3.05514 0.0996094 4.00129 0.0996094C4.58334 0.0996094 5.13334 0.235727 5.65129 0.50796C6.16923 0.780182 6.61923 1.17057 7.00129 1.67911C7.38334 1.17057 7.83334 0.780182 8.35129 0.50796C8.86923 0.235727 9.41923 0.0996094 10.0013 0.0996094C10.9474 0.0996094 11.7395 0.418627 12.3776 1.05666C13.0156 1.69469 13.3346 2.48678 13.3346 3.43293C13.3346 3.90985 13.2506 4.37993 13.0827 4.84318C12.9147 5.30642 12.6194 5.81903 12.1968 6.38099C11.7741 6.94296 11.2025 7.5842 10.482 8.30471C9.76153 9.02522 8.84657 9.88676 7.73717 10.8893L7.00129 11.5508ZM7.00129 10.1996C8.06795 9.23976 8.94573 8.41711 9.63462 7.73164C10.3235 7.04618 10.868 6.45067 11.268 5.94511C11.668 5.43955 11.9457 4.99062 12.1013 4.59831C12.2568 4.206 12.3346 3.81754 12.3346 3.43293C12.3346 2.76626 12.1124 2.2107 11.668 1.76626C11.2235 1.32182 10.668 1.09959 10.0013 1.09959C9.47479 1.09959 8.98825 1.24895 8.54167 1.54768C8.09509 1.84639 7.74146 2.26199 7.48077 2.79448H6.5218C6.25685 2.25772 5.90215 1.84105 5.4577 1.54446C5.01326 1.24788 4.52779 1.09959 4.00129 1.09959C3.3389 1.09959 2.78441 1.32182 2.33782 1.76626C1.89124 2.2107 1.66795 2.76626 1.66795 3.43293C1.66795 3.81754 1.74573 4.206 1.90129 4.59831C2.05684 4.99062 2.33462 5.43955 2.73462 5.94511C3.13462 6.45067 3.67906 7.04511 4.36795 7.72844C5.05684 8.41178 5.93462 9.23549 7.00129 10.1996Z" fill="white"/>
</svg>
