<svg width="20" height="18" viewBox="0 0 20 18" fill="none" xmlns="http://www.w3.org/2000/svg">
<path d="M10.0007 17.3272L8.89688 16.335C7.2392 14.8311 5.86837 13.5388 4.78438 12.458C3.70042 11.3773 2.84145 10.4154 2.20748 9.57247C1.5735 8.72952 1.13055 7.96061 0.878632 7.26574C0.626699 6.57087 0.500732 5.86575 0.500732 5.15037C0.500732 3.73115 0.979257 2.54302 1.93631 1.58597C2.89336 0.628916 4.08149 0.150391 5.50071 0.150391C6.37379 0.150391 7.19879 0.354567 7.97571 0.762917C8.75262 1.17125 9.42762 1.75682 10.0007 2.51964C10.5738 1.75682 11.2488 1.17125 12.0257 0.762917C12.8026 0.354567 13.6276 0.150391 14.5007 0.150391C15.9199 0.150391 17.1081 0.628916 18.0651 1.58597C19.0222 2.54302 19.5007 3.73115 19.5007 5.15037C19.5007 5.86575 19.3747 6.57087 19.1228 7.26574C18.8709 7.96061 18.4279 8.72952 17.7939 9.57247C17.16 10.4154 16.3026 11.3773 15.2218 12.458C14.1411 13.5388 12.7686 14.8311 11.1045 16.335L10.0007 17.3272ZM10.0007 15.3004C11.6007 13.8606 12.9174 12.6266 13.9507 11.5984C14.984 10.5702 15.8007 9.67697 16.4007 8.91864C17.0007 8.16031 17.4174 7.48691 17.6507 6.89844C17.884 6.30997 18.0007 5.72728 18.0007 5.15037C18.0007 4.15037 17.6674 3.31703 17.0007 2.65037C16.334 1.9837 15.5007 1.65037 14.5007 1.65037C13.711 1.65037 12.9811 1.87441 12.3113 2.32249C11.6414 2.77056 11.111 3.39396 10.7199 4.19269H9.28148C8.88405 3.38756 8.352 2.76255 7.68533 2.31767C7.01867 1.8728 6.29046 1.65037 5.50071 1.65037C4.50712 1.65037 3.67539 1.9837 3.00551 2.65037C2.33564 3.31703 2.00071 4.15037 2.00071 5.15037C2.00071 5.72728 2.11737 6.30997 2.35071 6.89844C2.58404 7.48691 3.00071 8.16031 3.60071 8.91864C4.20071 9.67697 5.01737 10.5686 6.05071 11.5936C7.08404 12.6186 8.40071 13.8542 10.0007 15.3004Z" fill="#202020"/>
</svg>
