<svg width="16" height="16" viewBox="0 0 16 16" fill="none" xmlns="http://www.w3.org/2000/svg">
<path d="M7.9848 15.0831C6.18031 15.0831 4.60766 14.4891 3.26686 13.3011C1.92605 12.113 1.15416 10.6237 0.951172 8.83315H2.22678C2.43725 10.2722 3.08495 11.4654 4.16988 12.4125C5.25482 13.3596 6.52646 13.8332 7.9848 13.8332C9.6098 13.8332 10.9883 13.2672 12.1202 12.1352C13.2522 11.0033 13.8181 9.62482 13.8181 7.99982C13.8181 6.37482 13.2522 4.99635 12.1202 3.8644C10.9883 2.73246 9.6098 2.16648 7.9848 2.16648C7.07455 2.16648 6.22145 2.36867 5.42551 2.77305C4.62957 3.17742 3.94421 3.73377 3.36942 4.44211H5.5489V5.69209H1.31819V1.46136H2.56815V3.43573C3.24443 2.63766 4.05425 2.01828 4.99763 1.57757C5.941 1.13686 6.93673 0.916504 7.9848 0.916504C8.9677 0.916504 9.88864 1.10241 10.7476 1.47421C11.6066 1.846 12.3555 2.35134 12.9944 2.99021C13.6333 3.6291 14.1386 4.37803 14.5104 5.237C14.8822 6.09598 15.0681 7.01691 15.0681 7.99982C15.0681 8.98272 14.8822 9.90366 14.5104 10.7626C14.1386 11.6216 13.6333 12.3705 12.9944 13.0094C12.3555 13.6483 11.6066 14.1536 10.7476 14.5254C9.88864 14.8972 8.9677 15.0831 7.9848 15.0831ZM10.4864 11.3556L7.38384 8.25303V3.83315H8.63382V7.74661L11.3646 10.4774L10.4864 11.3556Z" fill="#808080"/>
</svg>
