<svg width="20" height="17" viewBox="0 0 20 17" fill="none" xmlns="http://www.w3.org/2000/svg">
<path d="M9.99035 16.7095C9.77625 16.7095 9.56119 16.671 9.34518 16.5941C9.12914 16.5171 8.93908 16.3966 8.77498 16.2325L7.33848 14.9268C5.56539 13.3101 3.98238 11.722 2.58943 10.1624C1.19648 8.60274 0.5 6.93191 0.5 5.14988C0.5 3.73066 0.978525 2.54253 1.93558 1.58548C2.89263 0.628428 4.08076 0.149902 5.49998 0.149902C6.30638 0.149902 7.10285 0.335803 7.8894 0.707603C8.67593 1.0794 9.37946 1.68325 9.99998 2.51915C10.6205 1.68325 11.324 1.0794 12.1105 0.707603C12.8971 0.335803 13.6936 0.149902 14.5 0.149902C15.9192 0.149902 17.1073 0.628428 18.0644 1.58548C19.0214 2.54253 19.5 3.73066 19.5 5.14988C19.5 6.95114 18.7916 8.64056 17.375 10.2181C15.9583 11.7957 14.3788 13.3704 12.6365 14.9422L11.2154 16.2325C11.0513 16.3966 10.8596 16.5171 10.6404 16.5941C10.4211 16.671 10.2045 16.7095 9.99035 16.7095ZM9.28075 4.03835C8.73973 3.21399 8.17018 2.60982 7.5721 2.22585C6.97402 1.84187 6.28331 1.64988 5.49998 1.64988C4.49998 1.64988 3.66664 1.98321 2.99998 2.64988C2.33331 3.31654 1.99998 4.14988 1.99998 5.14988C1.99998 5.95244 2.25863 6.79155 2.77593 7.66718C3.29323 8.54281 3.94257 9.41331 4.72398 10.2787C5.50539 11.1441 6.35187 11.9896 7.2634 12.8152C8.17493 13.6409 9.01981 14.4082 9.79803 15.1172C9.85573 15.1685 9.92304 15.1941 9.99998 15.1941C10.0769 15.1941 10.1442 15.1685 10.2019 15.1172C10.9801 14.4082 11.825 13.6409 12.7366 12.8152C13.6481 11.9896 14.4946 11.1441 15.276 10.2787C16.0574 9.41331 16.7067 8.54281 17.224 7.66718C17.7413 6.79155 18 5.95244 18 5.14988C18 4.14988 17.6666 3.31654 17 2.64988C16.3333 1.98321 15.5 1.64988 14.5 1.64988C13.7166 1.64988 13.0259 1.84187 12.4279 2.22585C11.8298 2.60982 11.2602 3.21399 10.7192 4.03835C10.6346 4.16655 10.5282 4.26271 10.4 4.32683C10.2718 4.39093 10.1384 4.42298 9.99998 4.42298C9.86153 4.42298 9.72819 4.39093 9.59998 4.32683C9.47178 4.26271 9.36537 4.16655 9.28075 4.03835Z" fill="white"/>
</svg>
