<svg width="14" height="16" viewBox="0 0 14 16" fill="none" xmlns="http://www.w3.org/2000/svg">
<path d="M6.99939 14.7619C8.62973 13.3025 9.87732 11.9026 10.7422 10.5623C11.607 9.22206 12.0395 8.04818 12.0395 7.04069C12.0395 5.52147 11.5568 4.27254 10.5915 3.2939C9.62626 2.31526 8.42888 1.82594 6.99939 1.82594C5.56991 1.82594 4.37252 2.31526 3.40725 3.2939C2.44197 4.27254 1.95933 5.52147 1.95933 7.04069C1.95933 8.04818 2.39175 9.22206 3.2566 10.5623C4.12146 11.9026 5.36906 13.3025 6.99939 14.7619ZM6.99939 15.9509C6.837 15.9509 6.67461 15.9229 6.51223 15.8668C6.34984 15.8107 6.20293 15.7239 6.07152 15.6064C5.32367 14.9173 4.62389 14.2076 3.97218 13.4774C3.32048 12.7472 2.75397 12.0172 2.27266 11.2875C1.79136 10.5578 1.41048 9.83451 1.13004 9.11763C0.84958 8.40074 0.709351 7.70843 0.709351 7.04069C0.709351 5.11764 1.33141 3.56076 2.57554 2.37005C3.81965 1.17934 5.29427 0.583984 6.99939 0.583984C8.70452 0.583984 10.1791 1.17934 11.4232 2.37005C12.6674 3.56076 13.2894 5.11764 13.2894 7.04069C13.2894 7.70843 13.1492 8.39941 12.8687 9.11363C12.5883 9.82784 12.2088 10.5511 11.7301 11.2835C11.2515 12.0159 10.6863 12.7458 10.0346 13.4734C9.38291 14.201 8.68313 14.9093 7.93527 15.5984C7.80578 15.7159 7.65864 15.804 7.49383 15.8628C7.32901 15.9215 7.1642 15.9509 6.99939 15.9509ZM7.00081 8.38844C7.41546 8.38844 7.76995 8.2408 8.06429 7.94553C8.35862 7.65025 8.50579 7.29528 8.50579 6.88063C8.50579 6.46598 8.35815 6.11148 8.06287 5.81715C7.76759 5.52282 7.41263 5.37565 6.99798 5.37565C6.58332 5.37565 6.22883 5.52329 5.9345 5.81857C5.64016 6.11385 5.493 6.46881 5.493 6.88346C5.493 7.29812 5.64064 7.65261 5.93591 7.94694C6.23119 8.24128 6.58616 8.38844 7.00081 8.38844Z" fill="white"/>
</svg>
