<svg width="18" height="18" viewBox="0 0 18 18" fill="none" xmlns="http://www.w3.org/2000/svg">
<path d="M8.37498 17.4999V16.0576C6.63887 15.8792 5.17733 15.1965 3.99035 14.0096C2.8034 12.8226 2.12071 11.361 1.94229 9.62494H0.5V8.37498H1.94229C2.12071 6.63887 2.8034 5.17733 3.99035 3.99035C5.17733 2.8034 6.63887 2.12071 8.37498 1.94229V0.5H9.62494V1.94229C11.361 2.12071 12.8226 2.8034 14.0096 3.99035C15.1965 5.17733 15.8792 6.63887 16.0576 8.37498H17.4999V9.62494H16.0576C15.8792 11.361 15.1965 12.8226 14.0096 14.0096C12.8226 15.1965 11.361 15.8792 9.62494 16.0576V17.4999H8.37498ZM8.99996 14.8333C10.6111 14.8333 11.9861 14.2638 13.125 13.125C14.2638 11.9861 14.8333 10.6111 14.8333 8.99996C14.8333 7.38885 14.2638 6.01385 13.125 4.87496C11.9861 3.73607 10.6111 3.16663 8.99996 3.16663C7.38885 3.16663 6.01385 3.73607 4.87496 4.87496C3.73607 6.01385 3.16663 7.38885 3.16663 8.99996C3.16663 10.6111 3.73607 11.9861 4.87496 13.125C6.01385 14.2638 7.38885 14.8333 8.99996 14.8333ZM8.99996 11.9166C8.19789 11.9166 7.51126 11.631 6.94008 11.0598C6.3689 10.4887 6.08331 9.80203 6.08331 8.99996C6.08331 8.19789 6.3689 7.51126 6.94008 6.94008C7.51126 6.3689 8.19789 6.08331 8.99996 6.08331C9.80203 6.08331 10.4887 6.3689 11.0598 6.94008C11.631 7.51126 11.9166 8.19789 11.9166 8.99996C11.9166 9.80203 11.631 10.4887 11.0598 11.0598C10.4887 11.631 9.80203 11.9166 8.99996 11.9166Z" fill="#6D3EC1"/>
</svg>
