<svg width="16" height="19" viewBox="0 0 16 19" fill="none" xmlns="http://www.w3.org/2000/svg">
<path d="M7.99922 17.5135C9.95562 15.7622 11.4527 14.0824 12.4906 12.474C13.5284 10.8657 14.0473 9.45703 14.0473 8.24805C14.0473 6.42498 13.4681 4.92627 12.3098 3.7519C11.1515 2.57753 9.71461 1.99035 7.99922 1.99035C6.28384 1.99035 4.84698 2.57753 3.68865 3.7519C2.53031 4.92627 1.95115 6.42498 1.95115 8.24805C1.95115 9.45703 2.47006 10.8657 3.50787 12.474C4.54571 14.0824 6.04282 15.7622 7.99922 17.5135ZM7.99922 18.9403C7.80436 18.9403 7.60949 18.9067 7.41462 18.8394C7.21976 18.7721 7.04347 18.6679 6.88577 18.5269C5.98836 17.7 5.14862 16.8484 4.36657 15.9721C3.58452 15.0958 2.90471 14.2199 2.32715 13.3442C1.74958 12.4686 1.29253 11.6006 0.955997 10.7404C0.619447 9.88011 0.451172 9.04933 0.451172 8.24805C0.451172 5.94038 1.19765 4.07213 2.6906 2.64328C4.18353 1.21443 5.95307 0.5 7.99922 0.5C10.0454 0.5 11.8149 1.21443 13.3078 2.64328C14.8008 4.07213 15.5473 5.94038 15.5473 8.24805C15.5473 9.04933 15.379 9.87851 15.0424 10.7356C14.7059 11.5926 14.2505 12.4606 13.6761 13.3394C13.1017 14.2183 12.4235 15.0942 11.6415 15.9673C10.8594 16.8404 10.0197 17.6903 9.12227 18.5173C8.96689 18.6583 8.79031 18.7641 8.59255 18.8346C8.39476 18.9051 8.19699 18.9403 7.99922 18.9403ZM8.00092 9.86535C8.4985 9.86535 8.9239 9.68818 9.2771 9.33385C9.6303 8.97952 9.8069 8.55356 9.8069 8.05598C9.8069 7.55839 9.62973 7.133 9.2754 6.7798C8.92106 6.4266 8.4951 6.25 7.99752 6.25C7.49994 6.25 7.07455 6.42717 6.72135 6.7815C6.36815 7.13583 6.19155 7.56179 6.19155 8.05938C6.19155 8.55696 6.36871 8.98235 6.72305 9.33555C7.07738 9.68875 7.50334 9.86535 8.00092 9.86535Z" fill="#57585A"/>
</svg>
