<svg width="102" height="33" viewBox="0 0 102 33" fill="none" xmlns="http://www.w3.org/2000/svg">
<mask id="mask0_1669_68804" style="mask-type:luminance" maskUnits="userSpaceOnUse" x="0" y="0" width="102" height="33">
<path d="M0.953125 0.917969H101.035V32.918H0.953125V0.917969Z" fill="white"/>
</mask>
<g mask="url(#mask0_1669_68804)">
<path d="M101.1 31.0869C101.1 32.0942 100.484 32.9181 99.7326 32.9181H2.31253C1.56059 32.9181 0.945312 32.0942 0.945312 31.0869V2.74919C0.945312 1.74178 1.56059 0.917969 2.31253 0.917969H99.7324C100.484 0.917969 101.1 1.74178 101.1 2.74919L101.1 31.0869Z" fill="#231F20"/>
</g>
<path d="M90.5547 21.0195C90.5581 21.0736 90.5604 21.1292 90.5604 21.1854L90.5607 21.1752C90.5609 21.1226 90.5573 21.0714 90.5547 21.0195Z" fill="#204595"/>
<path d="M26.1843 27.4419C24.547 29.1041 22.1233 29.4842 18.5531 29.4842H13.4765C6.36932 29.4842 4.10938 27.7185 4.10938 21.6258V18.3017H10.9217C10.9217 18.6134 10.8889 18.925 10.8889 19.2021C10.8889 22.2481 11.6095 23.218 14.4593 23.218H17.7345C20.3546 23.218 20.813 22.1794 20.813 19.6523V4.0383H28.0842V22.1103C28.0841 24.2912 27.3305 26.2651 26.1843 27.4419ZM55.5504 12.8663C55.5504 10.8588 54.3379 10.0278 51.7182 10.0278H45.888C41.1719 10.0278 40.0255 10.6852 40.0255 14.9784V18.4754C40.0255 22.4222 41.6303 23.218 45.888 23.218H50.1133C54.1417 23.218 55.7465 22.7681 55.7465 19.7557V19.4787H63.1157C63.1485 20.137 63.1813 20.7255 63.1813 21.3142C63.1813 24.4296 62.4932 26.5071 60.7902 27.823C58.9889 29.2419 56.1394 29.5192 51.98 29.5192H43.8576C40.0908 29.5192 37.438 29.3463 35.3747 27.6494C33.3766 25.9882 32.6232 23.703 32.6232 20.2753V13.4205C32.6232 5.87313 35.7345 3.72656 43.8576 3.72656H51.98C56.1398 3.72656 58.9562 3.93444 60.6923 5.35368C62.2315 6.60047 62.8864 8.67731 62.8864 11.6892C62.8864 12.1392 62.8864 12.6241 62.8536 13.1088H55.5506V12.8663H55.5504ZM67.8603 29.2076V4.0383H89.313C94.6518 4.0383 97.2393 6.32351 97.2393 11.0664C97.2393 13.7669 96.1259 15.4281 93.7351 16.3983C96.7477 16.9172 98.0586 18.7865 98.0586 22.3874C98.0586 27.2345 95.7002 29.2076 90.4268 29.2076H67.8603ZM89.7716 11.7584C89.7716 10.5125 89.0182 9.68209 87.9048 9.68209H75.1314V13.8359H87.9048C89.1168 13.8359 89.7716 13.1089 89.7716 11.7584ZM90.5575 21.1756C90.5575 19.8254 89.7716 18.9598 88.5598 18.9598H75.1314V23.4954H88.5598C89.8369 23.4954 90.5575 22.6642 90.5575 21.1756Z" fill="white"/>
<path d="M4.10938 3.86328H14.0097V13.8973H4.10938V3.86328Z" fill="#FCAF26"/>
<path d="M11.3525 8.96348C11.3525 8.96348 11.5154 8.95725 11.5612 8.95397C11.6076 8.95068 11.6944 8.94625 11.7473 9.05356C11.7611 9.08129 11.8431 9.3479 11.8536 9.37908C11.8638 9.41091 11.8879 9.55497 11.7801 9.58056C11.7601 9.58499 11.5686 9.62486 11.5686 9.62486L11.3525 8.96348ZM10.9848 7.73835C10.9848 7.73835 11.1957 7.75475 11.2478 7.75918C11.2997 7.76411 11.3363 7.78905 11.3571 7.83728C11.3704 7.86715 11.4493 8.11227 11.4585 8.13885C11.4675 8.16543 11.5076 8.31244 11.3906 8.31589C11.3727 8.31638 11.1628 8.31589 11.1628 8.31589L10.9848 7.73835ZM10.2414 7.03693C10.2414 7.03693 11.1274 7.17098 11.2099 7.18526C11.5791 7.2476 11.7397 7.5623 11.7848 7.70964C11.8003 7.75787 11.9027 8.10046 11.9158 8.1377C12.0165 8.42631 11.7611 8.57528 11.7611 8.57528C11.7611 8.57528 12.0528 8.63156 12.1515 8.87948C12.1515 8.87948 12.3365 9.45012 12.3548 9.50771C12.3726 9.56596 12.5045 10.0214 12.0551 10.1889C11.995 10.2113 11.2718 10.415 11.2718 10.415L10.2414 7.03693ZM6.65625 6.46875L8.1083 6.69878L8.34276 7.53457L8.00411 7.50421C8.00411 7.50421 8.83842 10.3309 8.86763 10.4186C8.97214 10.7371 9.0358 11.0671 8.57886 11.2259C8.51963 11.2466 8.09386 11.3763 8.04218 11.3893C7.77851 11.4546 7.44298 11.4558 7.31303 11.0224L6.78226 9.27456L7.43445 9.22616C7.43445 9.22616 7.70418 10.1232 7.72502 10.1896C7.78458 10.3773 7.82166 10.4493 8.00706 10.4039C8.14341 10.3704 8.13767 10.3123 8.10173 10.1886C8.08664 10.1361 7.30139 7.44581 7.30139 7.44581L6.92992 7.41627L6.65625 6.46875Z" fill="#231F20"/>
<path d="M6.65625 6.46875L8.1083 6.69878L8.34276 7.53457L8.00411 7.50421C8.00411 7.50421 8.83842 10.3309 8.86763 10.4186C8.97214 10.7371 9.0358 11.0671 8.57886 11.2259C8.51963 11.2466 8.09386 11.3763 8.04218 11.3893C7.77851 11.4546 7.44298 11.4558 7.31303 11.0224L6.78226 9.27456L7.43445 9.22616C7.43445 9.22616 7.70418 10.1232 7.72502 10.1896C7.78458 10.3773 7.82166 10.4493 8.00706 10.4039C8.14341 10.3704 8.13767 10.3123 8.10173 10.1886C8.08664 10.1361 7.30139 7.44581 7.30139 7.44581L6.92992 7.41627L6.65625 6.46875Z" stroke="#231F20" stroke-width="0.0147666" stroke-miterlimit="3.864"/>
<path d="M8.81272 6.79267C8.87589 6.80334 9.34301 6.8816 9.42144 6.89522C9.50052 6.909 9.93498 6.98398 10.0505 7.40729C10.0785 7.51148 10.3081 8.25588 10.3081 8.25588L9.75647 8.2503C9.75647 8.2503 9.65393 7.89032 9.63194 7.82847C9.57878 7.67637 9.57566 7.63732 9.40979 7.61124C9.24227 7.59105 9.25096 7.66505 9.2887 7.79008C9.30757 7.85472 9.80947 9.61014 9.83195 9.68528C9.89085 9.88512 9.90562 9.96404 10.0823 9.92778C10.2357 9.89021 10.2065 9.80358 10.1673 9.65657C10.1111 9.4645 10.0542 9.27264 9.99651 9.081L10.5444 9.03818C10.5444 9.03818 10.8233 9.97077 10.838 10.0143C10.8528 10.0577 10.9695 10.4356 10.6379 10.598C10.5951 10.6189 10.5951 10.6221 10.5512 10.6376C10.5074 10.6528 10.0638 10.7846 10.0216 10.7967C9.97945 10.8082 9.5568 10.9454 9.4198 10.5053C9.40618 10.4628 8.51296 7.36956 8.46555 7.21762C8.38515 6.96069 8.47063 6.74132 8.81272 6.79267Z" fill="#231F20"/>
<path d="M8.81272 6.79267C8.87589 6.80334 9.34301 6.8816 9.42144 6.89522C9.50052 6.909 9.93498 6.98398 10.0505 7.40729C10.0785 7.51148 10.3081 8.25588 10.3081 8.25588L9.75647 8.2503C9.75647 8.2503 9.65393 7.89032 9.63194 7.82847C9.57878 7.67637 9.57566 7.63732 9.40979 7.61124C9.24227 7.59105 9.25096 7.66505 9.2887 7.79008C9.30757 7.85472 9.80947 9.61014 9.83195 9.68528C9.89085 9.88512 9.90562 9.96404 10.0823 9.92778C10.2357 9.89021 10.2065 9.80358 10.1673 9.65657C10.1111 9.4645 10.0542 9.27264 9.99651 9.081L10.5444 9.03818C10.5444 9.03818 10.8233 9.97077 10.838 10.0143C10.8528 10.0577 10.9695 10.4356 10.6379 10.598C10.5951 10.6189 10.5951 10.6221 10.5512 10.6376C10.5074 10.6528 10.0638 10.7846 10.0216 10.7967C9.97945 10.8082 9.5568 10.9454 9.4198 10.5053C9.40618 10.4628 8.51296 7.36956 8.46555 7.21762C8.38515 6.96069 8.47063 6.74132 8.81272 6.79267Z" stroke="#231F20" stroke-width="0.0147666" stroke-miterlimit="3.864"/>
<path d="M6.04411 5.98729C6.3168 6.03438 11.0516 6.849 11.2618 6.88624C11.4721 6.92349 11.8259 6.97632 11.974 7.4413C12.0029 7.53204 12.6453 9.56408 12.6714 9.65186C12.6971 9.73997 12.8838 10.2038 12.3563 10.3771C12.2777 10.4032 7.8266 11.8711 7.71864 11.9052C7.61085 11.9402 7.18984 12.1259 7.01707 11.4839C7.01707 11.4839 5.65821 6.93038 5.5957 6.72447C5.54435 6.55777 5.50825 6.42372 5.50038 6.31954C5.47347 5.94611 5.69267 5.9338 5.87266 5.95972C5.93993 5.9694 6.00047 5.98007 6.04411 5.98729ZM5.9204 5.73314C6.04001 5.75184 11.2093 6.65392 11.3412 6.67623C11.4744 6.69969 11.9831 6.75712 12.1865 7.37108C12.2259 7.48921 12.8691 9.53455 12.8999 9.63677C13.0131 10.015 12.9647 10.4102 12.4935 10.5766C12.3378 10.6312 7.90208 12.1202 7.84728 12.1387C7.72537 12.1797 7.07384 12.4852 6.83675 11.689C6.83675 11.689 5.40078 6.91512 5.35829 6.77074C5.29184 6.54694 5.25033 6.35727 5.25 6.21732C5.24984 5.59679 5.8049 5.7205 5.9204 5.73314Z" fill="#231F20"/>
</svg>
