<svg width="23" height="18" viewBox="0 0 23 18" fill="none" xmlns="http://www.w3.org/2000/svg">
<path d="M2.525 17.7499C1.93568 17.7499 1.43685 17.5458 1.02852 17.1374C0.620182 16.7291 0.416016 16.2303 0.416016 15.641V2.35898C0.416016 1.76966 0.620182 1.27083 1.02852 0.8625C1.43685 0.454167 1.93568 0.25 2.525 0.25H20.4736C21.063 0.25 21.5618 0.454167 21.9701 0.8625C22.3785 1.27083 22.5826 1.76966 22.5826 2.35898V15.641C22.5826 16.2303 22.3785 16.7291 21.9701 17.1374C21.5618 17.5458 21.063 17.7499 20.4736 17.7499H2.525ZM11.4993 9.45763C11.5965 9.45763 11.693 9.44304 11.7887 9.41388C11.8845 9.38471 11.9772 9.3447 12.0669 9.29385L20.4109 3.95183C20.544 3.86958 20.6382 3.76302 20.6936 3.63214C20.7489 3.50126 20.7653 3.36328 20.7429 3.2182C20.728 2.94898 20.5963 2.74893 20.3481 2.61807C20.0998 2.48719 19.8492 2.49878 19.5965 2.65284L11.4993 7.8333L3.40219 2.65284C3.14941 2.49878 2.90075 2.48644 2.65622 2.61583C2.41167 2.74519 2.27817 2.94224 2.25573 3.20698C2.23329 3.36403 2.24974 3.50986 2.30508 3.64448C2.36042 3.77909 2.45465 3.88154 2.58777 3.95183L10.9317 9.29385C11.0214 9.3447 11.1142 9.38471 11.2099 9.41388C11.3056 9.44304 11.4021 9.45763 11.4993 9.45763Z" fill="#1A1A1A"/>
</svg>
