<svg width="22" height="18" viewBox="0 0 22 18" fill="none" xmlns="http://www.w3.org/2000/svg">
<path d="M2.09313 17.6848C1.50824 17.6848 1.01316 17.4822 0.607896 17.0769C0.202632 16.6717 0 16.1766 0 15.5917V2.40954C0 1.82465 0.202632 1.32957 0.607896 0.924303C1.01316 0.519038 1.50824 0.316406 2.09313 0.316406H19.9069C20.4918 0.316406 20.9868 0.519038 21.3921 0.924303C21.7974 1.32957 22 1.82465 22 2.40954V15.5917C22 16.1766 21.7974 16.6717 21.3921 17.0769C20.9868 17.4822 20.4918 17.6848 19.9069 17.6848H2.09313ZM11 9.64631L1.73682 3.72323V15.5917C1.73682 15.6956 1.77022 15.781 1.83703 15.8478C1.90384 15.9146 1.98921 15.948 2.09313 15.948H19.9069C20.0108 15.948 20.0962 15.9146 20.163 15.8478C20.2298 15.781 20.2632 15.6956 20.2632 15.5917V3.72323L11 9.64631ZM11 7.84271L20.085 2.05322H1.91496L11 7.84271ZM1.73682 3.72323V2.05322V15.5917C1.73682 15.6956 1.77022 15.781 1.83703 15.8478C1.90384 15.9146 1.98921 15.948 2.09313 15.948H1.73682V3.72323Z" fill="#202020"/>
</svg>
