<svg width="126" height="28" viewBox="0 0 126 28" fill="none" xmlns="http://www.w3.org/2000/svg">
<g clip-path="url(#clip0_160_19815)">
<path fill-rule="evenodd" clip-rule="evenodd" d="M7 0C3.13401 0 0 3.13401 0 7V21C0 24.866 3.13401 28 7 28H21C24.866 28 28 24.866 28 21V7C28 3.13401 24.866 0 21 0H7ZM21.5756 16.0051C21.5766 15.589 21.5776 15.1728 21.5776 14.7566L21.5759 14.7549C21.5759 14.3262 21.5749 13.8976 21.5739 13.4689C21.5714 12.4279 21.5689 11.3868 21.581 10.3458C21.5912 9.51083 20.9074 8.74262 20.0383 8.7871C19.6861 8.80487 19.3332 8.80049 18.9805 8.79612C18.8239 8.79418 18.6673 8.79223 18.5109 8.79223C18.232 8.79223 18.2286 8.79223 18.232 8.51506C18.2473 7.44572 17.9377 6.48589 17.2625 5.65437C16.628 4.87247 15.8065 4.38656 14.8336 4.1744C14.1924 4.03411 13.5478 4.05806 12.9099 4.23942C11.6649 4.59187 10.7532 5.34982 10.1783 6.50813C9.86028 7.1446 9.72591 7.82897 9.76163 8.54415C9.77183 8.77684 9.75142 8.79223 9.52181 8.79223C9.41023 8.79223 9.29865 8.79217 9.18707 8.7921C8.74077 8.79182 8.29446 8.79155 7.84815 8.79566C7.72909 8.79566 7.60322 8.8025 7.49097 8.84014C6.79701 9.07283 6.41942 9.60151 6.41942 10.3389C6.41787 11.6696 6.41808 13.0002 6.41829 14.3309C6.41855 15.9276 6.4188 17.5244 6.41602 19.1212C6.41602 19.7371 6.66604 20.1974 7.18141 20.5225C7.96318 21.0117 8.74415 21.5017 9.52507 21.9917C10.7269 22.7458 11.9286 23.4998 13.1328 24.2506C13.6838 24.5945 14.2519 24.5808 14.803 24.242C15.3023 23.9354 15.7989 23.6247 16.2955 23.314C16.6633 23.0839 17.0311 22.8538 17.4002 22.6252C18.5075 21.9391 19.6165 21.2547 20.7271 20.5755C21.3037 20.223 21.5912 19.7303 21.5827 19.0374C21.5706 18.0266 21.5731 17.0159 21.5756 16.0051ZM17.0822 8.79223H13.9917V8.79052H10.9556C10.841 8.79052 10.7844 8.79052 10.7553 8.76223C10.7248 8.73258 10.7244 8.67187 10.7192 8.54757C10.6699 7.39439 11.0951 6.4568 11.9881 5.73991C12.4762 5.34811 13.0392 5.11884 13.6668 5.07265C15.1024 4.96828 16.1722 5.55513 16.8883 6.80241C17.2131 7.36873 17.2659 7.99836 17.288 8.63312C17.2931 8.78026 17.1978 8.79223 17.0822 8.79223ZM13.8029 18.9313C13.592 19.1434 13.3692 19.3197 13.0902 19.3008H13.0885C12.8266 19.3008 12.6293 19.2307 12.4728 19.075C12.3567 18.9588 12.2405 18.8426 12.1243 18.7264C11.5425 18.1447 10.9603 17.5626 10.3875 16.9722C10.0865 16.6609 10.1069 16.1014 10.4029 15.7883C10.7209 15.4529 11.2431 15.3965 11.5799 15.701C11.8952 15.9849 12.1922 16.2909 12.4886 16.5961C12.5423 16.6514 12.5959 16.7067 12.6497 16.7618C13.0324 17.1536 13.0766 17.1536 13.4559 16.7704C13.8071 16.4152 14.1601 16.0621 14.5129 15.7089C15.1564 15.065 15.7997 14.4212 16.4324 13.7659C16.8781 13.304 17.5907 13.4101 17.8527 13.8361C18.0721 14.192 18.0398 14.6471 17.7353 14.9602C17.415 15.2884 17.0914 15.614 16.7679 15.9395C16.6293 16.079 16.4908 16.2184 16.3525 16.358C15.5021 17.2152 14.6516 18.0724 13.8029 18.9313Z" fill="white"/>
<g clip-path="url(#clip1_160_19815)">
<path d="M43.6276 15.7044L43.1503 20.7108L33.582 21.455C33.6274 18.8319 33.678 16.2236 33.734 13.6299C33.79 11.0362 33.8599 8.42799 33.9437 5.80518H39.8531C39.6786 7.45135 39.5119 9.09564 39.3531 10.738C39.1943 12.3804 39.0803 14.036 39.0112 15.7048C39.3673 15.7199 39.7195 15.7274 40.0678 15.7274H41.1248C41.5491 15.7274 41.9658 15.7235 42.3749 15.7158C42.784 15.708 43.2015 15.7042 43.6276 15.7044Z" fill="white"/>
<path d="M56.845 13.0185C56.8448 13.6743 56.7992 14.3293 56.7086 14.9789C55.4132 15.0615 54.1253 15.1949 52.8448 15.3789C51.5644 15.5628 50.2841 15.7452 49.0039 15.9259C49.1801 16.4379 49.5019 16.8883 49.9306 17.2227C50.3622 17.5495 50.8932 17.7204 51.436 17.7071C51.7741 17.7012 52.1094 17.6443 52.4303 17.5382C52.7978 17.4223 53.1566 17.281 53.504 17.1152C53.8602 16.9461 54.2011 16.7638 54.5269 16.5682C54.8526 16.3727 55.1329 16.1962 55.3677 16.0386L54.8221 21.1573C54.5249 21.384 54.203 21.5769 53.8623 21.7322C53.5162 21.8908 53.1568 22.0192 52.7882 22.116C52.4187 22.2131 52.0427 22.2847 51.6632 22.3301C51.2937 22.3746 50.9218 22.3972 50.5495 22.3976C49.8519 22.4054 49.1574 22.3026 48.4925 22.093C47.8886 21.8988 47.3192 21.6117 46.8051 21.2421C46.3024 20.8785 45.8564 20.4434 45.4814 19.9509C45.1002 19.4507 44.7834 18.9053 44.5383 18.3273C44.284 17.7284 44.093 17.1049 43.9684 16.4668C43.8396 15.8131 43.775 15.1485 43.7754 14.4824C43.7757 13.779 43.8403 13.077 43.9684 12.3852C44.0948 11.6946 44.291 11.0184 44.5539 10.3668C44.8096 9.73037 45.1412 9.12667 45.5418 8.5686C45.9341 8.02228 46.4033 7.53452 46.9351 7.12021C47.4773 6.70024 48.086 6.37246 48.7364 6.15022C49.4516 5.91007 50.2026 5.79191 50.9576 5.80075C51.5842 5.79337 52.2079 5.88655 52.8046 6.07671C53.3397 6.24987 53.8426 6.50892 54.2932 6.84352C54.7304 7.17273 55.1137 7.56691 55.4296 8.01216C55.7558 8.47155 56.0229 8.96949 56.2249 9.49448C56.4368 10.0452 56.5928 10.6155 56.6907 11.1969C56.7937 11.7988 56.8453 12.4081 56.845 13.0185ZM52.2996 12.4319C52.2988 12.2142 52.2759 11.9971 52.2312 11.7839C52.1898 11.5726 52.115 11.369 52.0097 11.1807C51.9108 11.0041 51.773 10.8519 51.6066 10.7355C51.4218 10.6137 51.2032 10.5525 50.9816 10.5606C50.6955 10.5554 50.4151 10.6403 50.1806 10.803C49.9459 10.9681 49.7436 11.1744 49.5837 11.4118C49.4154 11.6594 49.278 11.9264 49.1745 12.2069C49.0771 12.4642 48.9973 12.7278 48.9359 12.9959L52.3 12.6804L52.2996 12.4319Z" fill="white"/>
<path d="M61.4801 19.808C61.4827 20.1263 61.4169 20.4414 61.287 20.7324C61.1626 21.0118 60.9873 21.266 60.7699 21.4822C60.5528 21.6975 60.2963 21.8697 60.0142 21.9896C59.7236 22.1141 59.4101 22.1774 59.0936 22.1755C58.7733 22.1782 58.4559 22.1149 58.1616 21.9896C57.5922 21.7476 57.1386 21.2974 56.8948 20.7324C56.7684 20.4405 56.7045 20.1257 56.7071 19.808C56.7079 19.1768 56.959 18.5712 57.4062 18.1222C57.6239 17.9064 57.88 17.7324 58.1616 17.6091C58.4549 17.4801 58.7727 17.4148 59.0936 17.4176C59.4107 17.4156 59.7246 17.4809 60.0142 17.6091C60.2958 17.7324 60.5521 17.9064 60.7699 18.1222C60.9891 18.3413 61.1645 18.5995 61.287 18.8833C61.4154 19.1749 61.4811 19.4898 61.4801 19.808Z" fill="white"/>
<path d="M75.9606 14.17C75.9626 14.8367 75.8825 15.5011 75.722 16.1484C75.568 16.77 75.3371 17.3704 75.0347 17.9357C74.7374 18.4886 74.3708 19.0019 73.9434 19.4633C73.5187 19.9229 73.033 20.323 72.4996 20.6527C71.3762 21.3458 70.0781 21.7094 68.7552 21.7015C68.0965 21.7046 67.4406 21.6173 66.8061 21.4421C66.1996 21.2738 65.6172 21.0295 65.0731 20.7149C64.5379 20.4053 64.0468 20.0261 63.6129 19.5873C63.1786 19.1493 62.8042 18.6565 62.4993 18.1216C62.1892 17.5764 61.9488 16.995 61.7835 16.3908C61.6112 15.7625 61.5251 15.1141 61.5274 14.4629C61.5265 13.1735 61.8447 11.9036 62.4541 10.7647C62.751 10.2113 63.1153 9.69628 63.5389 9.23112C63.959 8.76877 64.4386 8.3632 64.9652 8.02478C65.4957 7.68468 66.0711 7.419 66.675 7.23535C67.3049 7.04527 67.96 6.95035 68.6184 6.95376C69.643 6.94125 70.6614 7.11315 71.6242 7.46117C72.493 7.77135 73.2835 8.26527 73.9408 8.90866C74.5981 9.55206 75.1066 10.3296 75.431 11.1873C75.7947 12.1397 75.9744 13.1516 75.9606 14.17ZM70.9149 14.4633C70.9154 14.1439 70.8675 13.8261 70.7728 13.5209C70.684 13.2281 70.5435 12.9532 70.3578 12.7092C70.1759 12.4723 69.9455 12.2763 69.6819 12.1339C69.397 11.9836 69.0782 11.9079 68.7556 11.9141C68.4272 11.9084 68.1015 11.9738 67.8011 12.1056C67.5267 12.229 67.2809 12.4075 67.0792 12.6297C66.8754 12.8563 66.7189 13.1207 66.6187 13.4078C66.5116 13.7105 66.4577 14.0293 66.4595 14.3502C66.4603 14.6707 66.5063 14.9894 66.5963 15.2972C66.6826 15.6036 66.8209 15.8933 67.0052 16.1537C67.1833 16.406 67.4139 16.6175 67.6815 16.7739C67.9665 16.936 68.2907 17.0179 68.6192 17.0106C68.9512 17.016 69.2799 16.9446 69.5793 16.8021C69.858 16.6671 70.1042 16.4743 70.3012 16.2367C70.5021 15.994 70.6566 15.717 70.7572 15.4194C70.8627 15.1115 70.916 14.7885 70.9149 14.4633Z" fill="white"/>
<path d="M87.5056 6.09717C87.4603 6.80389 87.4187 7.50308 87.381 8.19473C87.3432 8.88637 87.294 9.58542 87.2332 10.2919L82.415 10.5399V11.9608H86.5968L86.3688 15.4558L82.3914 15.5689L82.4142 21.793L76.6641 21.9061L77.0277 6.0983L87.5056 6.09717Z" fill="white"/>
<path d="M98.8556 6.09717C98.81 6.80389 98.7683 7.50308 98.7306 8.19473C98.6928 8.88637 98.6436 9.58542 98.5828 10.2919L93.7646 10.5399V11.9608H97.9464L97.7184 15.4558L93.7411 15.5689L93.7639 21.793L88.0137 21.9061L88.3773 6.0983L98.8556 6.09717Z" fill="white"/>
<path d="M111.928 13.0189C111.928 13.6747 111.882 14.3296 111.791 14.9792C110.496 15.0619 109.208 15.1952 107.928 15.3792C106.647 15.5632 105.367 15.7455 104.087 15.9262C104.263 16.4384 104.585 16.8889 105.013 17.2231C105.445 17.55 105.976 17.7208 106.519 17.7075C106.857 17.7016 107.192 17.6446 107.513 17.5386C107.881 17.4226 108.239 17.2813 108.587 17.1156C108.941 16.9465 109.282 16.7641 109.61 16.5686C109.937 16.3731 110.217 16.1965 110.45 16.0389L109.905 21.1577C109.608 21.3844 109.286 21.5772 108.945 21.7325C108.599 21.8911 108.24 22.0195 107.871 22.1163C107.501 22.2134 107.126 22.285 106.746 22.3304C106.376 22.375 106.005 22.3975 105.632 22.3979C104.935 22.4058 104.24 22.3029 103.575 22.0933C102.971 21.8992 102.402 21.6121 101.888 21.2425C101.385 20.879 100.939 20.4439 100.564 19.9513C100.183 19.4511 99.8656 18.9057 99.6204 18.3276C99.3658 17.7288 99.1748 17.1053 99.0504 16.4672C98.9216 15.8134 98.857 15.1489 98.8574 14.4827C98.8577 13.7793 98.9223 13.0774 99.0504 12.3856C99.1767 11.695 99.3727 11.0188 99.6356 10.3672C99.8912 9.73074 100.223 9.12704 100.623 8.56897C101.015 8.02235 101.484 7.53444 102.016 7.1202C102.558 6.70031 103.166 6.37254 103.817 6.15022C104.532 5.91011 105.283 5.79195 106.038 5.80075C106.665 5.7934 107.288 5.88659 107.885 6.0767C108.42 6.24987 108.923 6.50889 109.374 6.84349C109.811 7.1727 110.194 7.56691 110.51 8.01216C110.836 8.47153 111.103 8.96945 111.305 9.49445C111.517 10.0451 111.673 10.6155 111.771 11.1969C111.875 11.7988 111.927 12.4083 111.928 13.0189ZM107.382 12.4323C107.382 12.2146 107.359 11.9975 107.314 11.7843C107.273 11.5729 107.198 11.3693 107.092 11.1811C106.993 11.0044 106.856 10.8521 106.689 10.7359C106.504 10.6141 106.286 10.553 106.064 10.561C105.778 10.5558 105.497 10.6406 105.263 10.8034C105.028 10.9685 104.826 11.1748 104.666 11.4122C104.498 11.6597 104.36 11.9267 104.257 12.2073C104.159 12.4645 104.08 12.7282 104.018 12.9963L107.382 12.6807V12.4323Z" fill="white"/>
<path d="M125.978 11.2604C125.984 11.7962 125.933 12.331 125.826 12.8562C125.731 13.315 125.568 13.7575 125.343 14.1696C125.116 14.5778 124.828 14.9502 124.491 15.2746C124.106 15.6411 123.683 15.9662 123.229 16.2446L125.934 21.0251L120.82 22.0177L119.07 17.2142L117.661 17.2594L117.456 21.9499H112.57C112.608 20.2361 112.644 18.5297 112.678 16.8308C112.713 15.1318 112.752 13.4256 112.797 11.7121C112.812 10.8478 112.827 9.99087 112.843 9.1414C112.858 8.29192 112.888 7.43502 112.934 6.57072C113.941 6.19639 114.987 5.93355 116.053 5.78698C116.572 5.71585 117.099 5.66709 117.633 5.6407C118.167 5.61432 118.714 5.60111 119.275 5.60111C120.123 5.59886 120.967 5.71848 121.78 5.95623C122.555 6.17674 123.281 6.53798 123.923 7.02159C124.545 7.49689 125.055 8.10167 125.416 8.79343C125.805 9.55766 125.997 10.4049 125.978 11.2604ZM120.887 11.6212C120.89 11.3271 120.845 11.0345 120.756 10.7541C120.676 10.5029 120.544 10.2707 120.369 10.0722C120.194 9.87607 119.976 9.72148 119.733 9.61979C119.45 9.50542 119.146 9.44987 118.841 9.45656C118.693 9.45639 118.545 9.4657 118.398 9.48445C118.256 9.50288 118.115 9.53121 117.977 9.56926L117.795 13.7632H118.068C118.403 13.7621 118.737 13.7204 119.063 13.6392C119.386 13.5639 119.694 13.4352 119.975 13.2584C120.241 13.0877 120.466 12.8607 120.634 12.5935C120.809 12.3 120.897 11.963 120.887 11.622V11.6212Z" fill="white"/>
</g>
</g>
<defs>
<clipPath id="clip0_160_19815">
<rect width="126" height="28" fill="white"/>
</clipPath>
<clipPath id="clip1_160_19815">
<rect width="92.4" height="16.8" fill="white" transform="translate(33.5996 5.6001)"/>
</clipPath>
</defs>
</svg>
