<svg width="16" height="26" viewBox="0 0 16 26" fill="none" xmlns="http://www.w3.org/2000/svg">
<path d="M5.37496 15.7371C5.17404 15.7371 5.0079 15.6715 4.87653 15.5402C4.74515 15.4089 4.67945 15.2429 4.67945 15.0422C4.67945 14.8414 4.74515 14.6752 4.87653 14.5436C5.0079 14.4119 5.17404 14.3461 5.37496 14.3461H10.625C10.8259 14.3461 10.992 14.4118 11.1234 14.5431C11.2548 14.6743 11.3205 14.8404 11.3205 15.0411C11.3205 15.2419 11.2548 15.4081 11.1234 15.5397C10.992 15.6713 10.8259 15.7371 10.625 15.7371H5.37496ZM4.20829 12.2371C4.00737 12.2371 3.84123 12.1715 3.70986 12.0402C3.57848 11.9089 3.51278 11.7429 3.51278 11.5422C3.51278 11.3414 3.57848 11.1752 3.70986 11.0436C3.84123 10.9119 4.00737 10.8461 4.20829 10.8461H11.7916C11.9925 10.8461 12.1587 10.9118 12.2901 11.0431C12.4214 11.1743 12.4871 11.3403 12.4871 11.5411C12.4871 11.7419 12.4214 11.9081 12.2901 12.0397C12.1587 12.1713 11.9925 12.2371 11.7916 12.2371H4.20829ZM2.52564 25.2499C1.93632 25.2499 1.43749 25.0457 1.02916 24.6374C0.620823 24.2291 0.416656 23.7303 0.416656 23.141V2.85898C0.416656 2.26966 0.620823 1.77083 1.02916 1.3625C1.43749 0.954167 1.93632 0.75 2.52564 0.75H13.4743C14.0636 0.75 14.5624 0.954167 14.9708 1.3625C15.3791 1.77083 15.5833 2.26966 15.5833 2.85898V23.141C15.5833 23.7303 15.3791 24.2291 14.9708 24.6374C14.5624 25.0458 14.0636 25.2499 13.4743 25.2499L2.52564 25.2499ZM2.16663 20.2917H13.8333V5.70828H2.16663V20.2917Z" fill="white"/>
</svg>
