<svg width="16" height="26" viewBox="0 0 16 26" fill="none" xmlns="http://www.w3.org/2000/svg">
<path d="M5.37432 15.7371C5.1734 15.7371 5.00726 15.6715 4.87589 15.5402C4.7445 15.4089 4.67881 15.2429 4.67881 15.0422C4.67881 14.8414 4.7445 14.6752 4.87589 14.5436C5.00726 14.4119 5.1734 14.3461 5.37432 14.3461H10.6243C10.8252 14.3461 10.9914 14.4118 11.1227 14.5431C11.2541 14.6743 11.3198 14.8404 11.3198 15.0411C11.3198 15.2419 11.2541 15.4081 11.1227 15.5397C10.9914 15.6713 10.8252 15.7371 10.6243 15.7371H5.37432ZM4.20765 12.2371C4.00673 12.2371 3.84059 12.1715 3.70922 12.0402C3.57784 11.9089 3.51214 11.7429 3.51214 11.5422C3.51214 11.3414 3.57784 11.1752 3.70922 11.0436C3.84059 10.9119 4.00673 10.8461 4.20765 10.8461H11.791C11.9919 10.8461 12.158 10.9118 12.2894 11.0431C12.4208 11.1743 12.4865 11.3403 12.4865 11.5411C12.4865 11.7419 12.4208 11.9081 12.2894 12.0397C12.158 12.1713 11.9919 12.2371 11.791 12.2371H4.20765ZM2.525 25.2499C1.93568 25.2499 1.43685 25.0457 1.02852 24.6374C0.620182 24.2291 0.416016 23.7303 0.416016 23.141V2.85898C0.416016 2.26966 0.620182 1.77083 1.02852 1.3625C1.43685 0.954167 1.93568 0.75 2.525 0.75H13.4736C14.063 0.75 14.5618 0.954167 14.9701 1.3625C15.3785 1.77083 15.5826 2.26966 15.5826 2.85898V23.141C15.5826 23.7303 15.3785 24.2291 14.9701 24.6374C14.5618 25.0458 14.063 25.2499 13.4736 25.2499L2.525 25.2499ZM2.16599 20.2917H13.8327V5.70828H2.16599V20.2917Z" fill="#1A1A1A"/>
</svg>
