<svg width="18" height="20" viewBox="0 0 18 20" fill="none" xmlns="http://www.w3.org/2000/svg">
<path d="M2.3077 19.4999C1.80898 19.4999 1.38302 19.3233 1.02982 18.9701C0.676608 18.6169 0.5 18.1909 0.5 17.6922V6.30765C0.5 5.80893 0.676608 5.38297 1.02982 5.02977C1.38302 4.67656 1.80898 4.49995 2.3077 4.49995H4.5C4.5 3.25125 4.93782 2.18908 5.81345 1.31345C6.6891 0.437817 7.75128 0 8.99998 0C10.2487 0 11.3109 0.437817 12.1865 1.31345C13.0621 2.18908 13.5 3.25125 13.5 4.49995H15.6923C16.191 4.49995 16.6169 4.67656 16.9701 5.02977C17.3233 5.38297 17.5 5.80893 17.5 6.30765V17.6922C17.5 18.1909 17.3233 18.6169 16.9701 18.9701C16.6169 19.3233 16.191 19.4999 15.6923 19.4999H2.3077ZM2.3077 17.9999H15.6923C15.7692 17.9999 15.8397 17.9679 15.9038 17.9038C15.9679 17.8397 16 17.7691 16 17.6922V6.30765C16 6.23072 15.9679 6.16019 15.9038 6.09608C15.8397 6.03198 15.7692 5.99993 15.6923 5.99993H2.3077C2.23077 5.99993 2.16024 6.03198 2.09612 6.09608C2.03202 6.16019 1.99997 6.23072 1.99997 6.30765V17.6922C1.99997 17.7691 2.03202 17.8397 2.09612 17.9038C2.16024 17.9679 2.23077 17.9999 2.3077 17.9999ZM5.99998 4.49995H12C12 3.66662 11.7083 2.95828 11.125 2.37495C10.5416 1.79162 9.83331 1.49995 8.99998 1.49995C8.16664 1.49995 7.45831 1.79162 6.87498 2.37495C6.29164 2.95828 5.99998 3.66662 5.99998 4.49995ZM8.9846 11.4999C10.1154 11.4999 11.131 11.1172 12.0317 10.3518C12.9323 9.58644 13.3775 8.71785 13.3672 7.74605C13.3672 7.53965 13.298 7.3637 13.1596 7.2182C13.0211 7.07268 12.8455 6.99993 12.6327 6.99993C12.457 6.99993 12.3 7.0605 12.1615 7.18165C12.0231 7.3028 11.925 7.47171 11.8673 7.68838C11.7224 8.36658 11.3769 8.92138 10.8308 9.3528C10.2846 9.78422 9.66922 9.99993 8.9846 9.99993C8.29997 9.99993 7.68202 9.78422 7.13075 9.3528C6.57947 8.92138 6.23652 8.36658 6.1019 7.68838C6.0442 7.46146 5.95125 7.28998 5.82305 7.17395C5.69485 7.05793 5.54293 6.99993 5.3673 6.99993C5.15448 6.99993 4.97628 7.07268 4.8327 7.2182C4.68912 7.3637 4.61733 7.53965 4.61733 7.74605C4.61733 8.71785 5.06251 9.58644 5.95288 10.3518C6.84326 11.1172 7.85383 11.4999 8.9846 11.4999Z" fill="white"/>
</svg>
