<svg width="18" height="13" viewBox="0 0 18 13" fill="none" xmlns="http://www.w3.org/2000/svg">
<path d="M8.86141 9.76701C9.80565 9.76701 10.6076 9.43653 11.2674 8.77556C11.9271 8.11457 12.2569 7.31195 12.2569 6.3677C12.2569 5.42347 11.9264 4.62149 11.2655 3.96177C10.6045 3.30204 9.80187 2.97218 8.85762 2.97218C7.91339 2.97218 7.11141 3.30267 6.45169 3.96364C5.79196 4.62463 5.4621 5.42724 5.4621 6.37149C5.4621 7.31573 5.79259 8.11771 6.45356 8.77743C7.11455 9.43715 7.91716 9.76701 8.86141 9.76701ZM8.85952 8.6196C8.23452 8.6196 7.70327 8.40085 7.26577 7.96335C6.82827 7.52585 6.60952 6.9946 6.60952 6.3696C6.60952 5.7446 6.82827 5.21335 7.26577 4.77585C7.70327 4.33835 8.23452 4.1196 8.85952 4.1196C9.48452 4.1196 10.0158 4.33835 10.4533 4.77585C10.8908 5.21335 11.1095 5.7446 11.1095 6.3696C11.1095 6.9946 10.8908 7.52585 10.4533 7.96335C10.0158 8.40085 9.48452 8.6196 8.85952 8.6196ZM8.86066 12.2029C6.94432 12.2029 5.19821 11.6743 3.62235 10.6172C2.0465 9.56003 0.886254 8.14417 0.141602 6.3696C0.886254 4.59503 2.04613 3.17917 3.62123 2.12202C5.19631 1.06486 6.94203 0.536285 8.85837 0.536285C10.7747 0.536285 12.5208 1.06486 14.0967 2.12202C15.6725 3.17917 16.8328 4.59503 17.5774 6.3696C16.8328 8.14417 15.6729 9.56003 14.0978 10.6172C12.5227 11.6743 10.777 12.2029 8.86066 12.2029ZM8.85952 10.9529C10.429 10.9529 11.8699 10.5397 13.1824 9.71335C14.4949 8.88696 15.4984 7.77238 16.1929 6.3696C15.4984 4.96682 14.4949 3.85224 13.1824 3.02585C11.8699 2.19946 10.429 1.78627 8.85952 1.78627C7.29007 1.78627 5.8491 2.19946 4.5366 3.02585C3.2241 3.85224 2.22063 4.96682 1.52618 6.3696C2.22063 7.77238 3.2241 8.88696 4.5366 9.71335C5.8491 10.5397 7.29007 10.9529 8.85952 10.9529Z" fill="#202020"/>
</svg>
