<svg width="224" height="223" viewBox="0 0 224 223" fill="none" xmlns="http://www.w3.org/2000/svg">
<path d="M5.22266 203.888L4.99966 203.502L121.058 136.495L121.169 136.56L217.188 191.997L216.965 192.382L121.058 137.01L5.22266 203.888Z" fill="#E0E0E0"/>
<path d="M209.371 116.782L208.29 117.154L168.428 94.14L169.509 93.7676L209.371 116.782Z" fill="#FAFAFA"/>
<path d="M169.509 93.7672L208.29 116.155L208.289 49.2951L169.508 26.9131L169.509 93.7672Z" fill="white"/>
<path d="M166.388 94.8108L210.329 120.18V48.6248L166.388 23.2559L166.388 94.8108ZM168.428 26.282L208.289 49.2956L208.289 117.154L168.428 94.14V26.282Z" fill="#F0F0F0"/>
<path d="M168.428 94.1397L169.509 93.7673L169.508 26.9132L168.428 26.2812L168.428 94.1397Z" fill="#E0E0E0"/>
<path d="M208.29 96.1704V97.1663L168.428 74.1522L169.509 73.7803L208.29 96.1704Z" fill="#FAFAFA"/>
<path d="M208.29 66.4443V67.4397L168.428 44.4261L169.509 44.0537L208.29 66.4443Z" fill="#FAFAFA"/>
<path d="M166.388 23.2557L167.486 22.8984L211.426 48.2674L210.329 48.6242L166.388 23.2557Z" fill="#FAFAFA"/>
<path d="M211.426 48.2676L210.329 48.6244V120.179L211.426 119.822V48.2676Z" fill="#E0E0E0"/>
<path d="M190.514 39.0332L189.417 38.3994V106.261L190.514 105.903V39.0332Z" fill="#E0E0E0"/>
<path d="M187.377 37.2266L189.417 38.4V106.261L187.377 105.081L187.377 37.2266Z" fill="#F0F0F0"/>
<path d="M166.388 43.249V45.0955L210.329 70.4639V68.618L166.388 43.249Z" fill="#F0F0F0"/>
<path d="M166.388 72.9717V74.8181L210.329 100.187V98.3406L166.388 72.9717Z" fill="#F0F0F0"/>
<path d="M189.417 56.5428L190.514 56.1807L208.29 66.4436V67.439L189.417 56.5428Z" fill="#FAFAFA"/>
<path d="M189.417 86.2606L190.514 85.8984L208.29 96.1613V97.1568L189.417 86.2606Z" fill="#FAFAFA"/>
<path d="M157.958 81.4528L157.049 81.9916L138.456 71.2086L139.364 70.6689L157.958 81.4528Z" fill="#FAFAFA"/>
<path d="M139.365 70.6715L157.052 80.9273L157.087 62.3848L139.4 52.1357L139.365 70.6715Z" fill="white"/>
<path d="M136.742 72.194L158.755 84.9608L158.801 61.3986L136.788 48.6318L136.742 72.194ZM138.495 51.6L157.088 62.3829L157.05 81.9926L138.457 71.2092L138.495 51.6Z" fill="#F0F0F0"/>
<path d="M138.456 71.2093L139.364 70.6697L139.4 52.1339L138.495 51.5996L138.456 71.2093Z" fill="#E0E0E0"/>
<path d="M136.788 48.6309L137.711 48.1055L159.723 60.8722L158.801 61.3976L136.788 48.6309Z" fill="#FAFAFA"/>
<path d="M159.723 60.8721L158.801 61.3975L158.755 84.9596L159.677 84.4342L159.723 60.8721Z" fill="#E0E0E0"/>
<path d="M140.057 70.1181L156.362 79.5751L156.372 74.8622L152.309 65.4298L149.761 67.7806L150.668 71.7326L145.055 59.667L140.065 65.4057L140.057 70.1181Z" fill="#F0F0F0"/>
<path d="M149.929 60.8739C150.595 61.2601 151.133 62.1976 151.132 62.9674C151.131 63.7372 150.589 64.0485 149.923 63.6623C149.257 63.276 148.719 62.3385 148.72 61.5687C148.721 60.7989 149.263 60.4876 149.929 60.8739Z" fill="#F0F0F0"/>
<path d="M157.958 49.8098L157.049 50.349L138.456 39.5656L139.364 39.0264L157.958 49.8098Z" fill="#FAFAFA"/>
<path d="M139.364 39.0235L157.051 49.2788L157.087 30.7364L139.4 20.4873L139.364 39.0235Z" fill="white"/>
<path d="M136.742 40.55L158.755 53.3168L158.801 29.7546L136.788 16.9883L136.742 40.55ZM138.495 19.9564L157.087 30.7394L157.05 50.3491L138.457 39.5657L138.495 19.9564Z" fill="#F0F0F0"/>
<path d="M138.456 39.5653L139.364 39.0261L139.4 20.4899L138.495 19.9561L138.456 39.5653Z" fill="#E0E0E0"/>
<path d="M136.788 16.9883L137.71 16.4629L159.723 29.2292L158.801 29.7546L136.788 16.9883Z" fill="#FAFAFA"/>
<path d="M159.723 29.2295L158.801 29.7549L158.755 53.3171L159.677 52.7917L159.723 29.2295Z" fill="#E0E0E0"/>
<path d="M140.056 38.4722L156.362 47.9291L156.372 43.2167L152.309 33.7838L149.761 36.1351L150.668 40.0871L145.055 28.0215L140.065 33.7602L140.056 38.4722Z" fill="#F0F0F0"/>
<path d="M149.929 29.2275C150.595 29.6137 151.133 30.5512 151.132 31.321C151.131 32.0908 150.589 32.4021 149.923 32.0159C149.257 31.6296 148.719 30.6921 148.72 29.9223C148.721 29.1521 149.262 28.8412 149.929 29.2275Z" fill="#F0F0F0"/>
<path d="M71.2521 168.267L18.683 198.585L20.6918 139.906L71.2521 168.267Z" fill="#E0E0E0"/>
<g opacity="0.15">
<path d="M71.2521 168.271L18.683 198.59L18.7222 138.016L71.2521 168.271Z" fill="black"/>
</g>
<path d="M16.2929 53.7705V197.24L68.8625 166.928V23.4541L16.2929 53.7705ZM39.3547 104.049L24.052 112.855V55.3369L39.3547 46.531V104.049ZM61.4526 91.2617L46.2026 100.076L46.1981 42.5581L61.4522 33.7433L61.4526 91.2617Z" fill="#FDB514"/>
<path opacity="0.4" d="M16.2929 53.7705V197.24L68.8625 166.928V23.4541L16.2929 53.7705ZM39.3547 104.049L24.052 112.855V55.3369L39.3547 46.531V104.049ZM61.4526 91.2617L46.2026 100.076L46.1981 42.5581L61.4522 33.7433L61.4526 91.2617Z" fill="white"/>
<path opacity="0.4" d="M39.3533 104.05L41.0067 105.004L24.0524 114.765V112.855L39.3533 104.05Z" fill="white"/>
<path opacity="0.4" d="M61.4545 91.2627L63.1083 92.2171L46.2067 101.984L44.5529 101.029L61.4545 91.2627Z" fill="white"/>
<path opacity="0.7" d="M61.4544 91.2628V33.7208L63.1127 32.7637L63.1082 92.2173L61.4544 91.2628Z" fill="#FDB514"/>
<path d="M41.0067 105.004L46.2066 101.984V42.5547L41.0067 45.5741V105.004Z" fill="#FDB514"/>
<path opacity="0.4" d="M41.0067 105.004L46.2066 101.984V42.5547L41.0067 45.5741V105.004Z" fill="white"/>
<path opacity="0.7" d="M41.0067 105.003L39.3534 104.048V46.5277L41.0067 45.5732V105.003Z" fill="#FDB514"/>
<path opacity="0.4" d="M41.0066 112.944L24.0515 122.705L24.0524 183.976L41.0066 174.216V112.944Z" fill="white"/>
<path d="M39.8422 116.802L26.7271 124.345L26.7276 179.245L39.8422 171.702V116.802Z" fill="#FDB514"/>
<path opacity="0.4" d="M39.8422 116.802L26.7271 124.345L26.7276 179.245L39.8422 171.702V116.802Z" fill="white"/>
<path opacity="0.7" d="M24.0515 122.704L26.7271 124.345L26.7275 179.245L24.0524 183.976L24.0515 122.704Z" fill="#FDB514"/>
<path opacity="0.7" d="M41.0067 112.944L39.8422 116.802V171.702L41.0067 174.216V112.944Z" fill="#FDB514"/>
<path d="M41.0067 174.216L39.8422 171.702L26.7275 179.245L24.0524 183.976L41.0067 174.216Z" fill="#FDB514"/>
<path opacity="0.4" d="M63.1136 100.157L46.207 109.926L46.2079 171.197L63.1136 161.429V100.157Z" fill="white"/>
<path d="M61.9486 104.015L48.8826 111.567L48.883 166.466L61.9486 158.915V104.015Z" fill="#FDB514"/>
<path opacity="0.4" d="M61.9486 104.015L48.8826 111.567L48.883 166.466L61.9486 158.915V104.015Z" fill="white"/>
<path opacity="0.7" d="M46.207 109.926L48.8826 111.567L48.883 166.466L46.2079 171.197L46.207 109.926Z" fill="#FDB514"/>
<path opacity="0.7" d="M63.1135 100.157L61.9486 104.015V158.915L63.1135 161.429V100.157Z" fill="#FDB514"/>
<path d="M63.1136 161.428L61.9486 158.914L48.8831 166.466L46.2079 171.197L63.1136 161.428Z" fill="#FDB514"/>
<path d="M19.2646 117.759L20.112 118.248L20.1124 132.314L19.265 131.824L19.2646 117.759Z" fill="#E0E0E0"/>
<path d="M20.112 118.248L24.6804 115.61V129.676L20.1124 132.313L20.112 118.248Z" fill="#FAFAFA"/>
<path opacity="0.05" d="M24.6804 119.481L22.6805 120.636L22.681 122.922C22.681 123.132 22.9084 123.264 23.0899 123.159L24.6799 122.241L24.6804 119.481Z" fill="black"/>
<path d="M24.6804 115.611L23.8325 115.122L19.2646 117.759L20.112 118.248L24.6804 115.611Z" fill="#EBEBEB"/>
<path d="M21.863 120.164L23.9583 121.374L24.7972 119.921L22.7019 118.711C22.5944 118.649 22.4464 118.658 22.2827 118.753C21.9553 118.942 21.6895 119.402 21.6895 119.78C21.6895 119.969 21.756 120.102 21.863 120.164Z" fill="#E0E0E0"/>
<path opacity="0.1" d="M22.6805 120.636L23.4423 121.076L23.4418 120.075L24.2531 119.607L23.4913 119.167L22.6805 119.635V120.636Z" fill="black"/>
<path d="M23.6952 120.235L23.6956 122.432L32.0724 117.598V115.4L23.6952 120.235Z" fill="#FAFAFA"/>
<path d="M23.6951 120.234L22.9338 119.794V121.992L23.6956 122.432L23.6951 120.234Z" fill="#E0E0E0"/>
<path d="M32.0724 115.399L31.3111 114.959L22.9338 119.794L23.6952 120.234L32.0724 115.399Z" fill="#EBEBEB"/>
<path d="M21.6266 126.36C21.6266 125.869 21.9713 125.272 22.3959 125.027C22.821 124.782 23.1657 124.981 23.1657 125.471C23.1657 125.836 22.974 126.26 22.7014 126.554V127.99C22.7014 128.156 22.585 128.358 22.441 128.441L22.3509 128.493C22.2073 128.576 22.0904 128.508 22.0904 128.342V126.908C21.8179 126.929 21.6266 126.726 21.6266 126.36Z" fill="#455A64"/>
<path d="M13.8872 195.85L16.2947 197.239L16.2934 53.7701L13.8863 52.3799L13.8872 195.85Z" fill="#263238"/>
<path d="M66.4554 22.0635L13.8863 52.3812L16.2934 53.7714L68.8625 23.4532L66.4554 22.0635Z" fill="#37474F"/>
<path d="M68.8633 166.926L71.2521 168.268V22.0713L68.8633 23.4499V166.926Z" fill="#E0E0E0"/>
<path d="M71.2521 168.27L75.2206 165.978V14.5869L14.7069 49.4873L14.7078 200.866L18.683 198.588V52.3908L71.2512 22.073L71.2521 168.27Z" fill="#F0F0F0"/>
<path d="M75.2206 14.5861L14.7069 49.4865L12.3578 48.123L72.8733 13.2227L75.2206 14.5861Z" fill="#FAFAFA"/>
<path d="M14.7065 200.865L14.7069 49.4865L12.3578 48.123L12.3583 199.509L14.7065 200.865Z" fill="#E0E0E0"/>
<path d="M154.984 123.889C154.984 122.871 155.656 121.854 157.001 121.077L160.966 118.788C163.655 117.235 168.016 117.235 170.705 118.788L206.648 139.54C207.994 140.317 208.666 141.336 208.664 142.355L208.664 189.827C208.667 190.847 207.995 191.867 206.647 192.645L202.683 194.934C199.994 196.487 195.634 196.487 192.944 194.934L157 174.182C155.655 173.406 154.983 172.388 154.983 171.371V123.889H154.984Z" fill="#FDB514"/>
<path opacity="0.4" d="M154.984 123.889C154.984 122.871 155.656 121.854 157.001 121.077L160.966 118.788C163.655 117.235 168.016 117.235 170.705 118.788L206.648 139.54C207.994 140.317 208.666 141.336 208.664 142.355L208.664 189.827C208.667 190.847 207.995 191.867 206.647 192.645L202.683 194.934C199.994 196.487 195.634 196.487 192.944 194.934L157 174.182C155.655 173.406 154.983 172.388 154.983 171.371V123.889H154.984Z" fill="white"/>
<path opacity="0.4" d="M202.684 147.452L206.648 145.163C209.338 143.61 209.338 141.092 206.648 139.54L170.706 118.788C168.016 117.235 163.656 117.235 160.966 118.788L157.001 121.077C154.311 122.63 154.311 125.147 157.001 126.7L192.944 147.452C195.634 149.005 199.995 149.005 202.684 147.452Z" fill="white"/>
<path opacity="0.3" d="M197.809 148.615V196.097C199.575 196.097 201.341 195.715 202.679 194.939L206.649 192.645C207.998 191.869 208.673 190.845 208.662 189.822V142.351C208.662 143.374 207.998 144.386 206.649 145.162L202.679 147.456C201.341 148.232 199.575 148.615 197.809 148.615Z" fill="#FDB514"/>
<path d="M171.653 172.102L180.235 177.057L178.905 161.532C179.932 160.989 180.586 159.654 180.586 157.736C180.586 154.318 178.507 150.347 175.943 148.866C173.38 147.387 171.302 148.958 171.302 152.376C171.302 154.294 171.956 156.385 172.982 158.113L171.653 172.102Z" fill="#455A64"/>
<path d="M171.653 172.101L179.426 167.613L180.235 177.056L171.653 172.101Z" fill="#37474F"/>
<path d="M175.944 148.865C177.621 149.834 179.087 151.87 179.902 154.119L172.983 158.114L172.983 158.112C171.956 156.384 171.303 154.293 171.303 152.375C171.302 148.957 173.38 147.386 175.944 148.865Z" fill="#37474F"/>
<path d="M164.697 124.949C164.697 124.947 164.696 124.945 164.696 124.943H164.697V105.959C164.697 100.08 166.919 95.4249 170.793 93.1882C174.491 91.0532 179.064 91.3427 183.671 94.0021C192.133 98.8876 198.762 110.809 198.762 121.142V140.229H198.763C198.763 140.803 198.38 141.376 197.623 141.813C196.107 142.688 193.649 142.688 192.134 141.813C191.376 141.376 190.993 140.802 190.993 140.229H190.994V121.142C190.994 113.585 185.862 104.237 179.788 100.73C177.716 99.5343 175.855 99.2373 174.678 99.9157C173.293 100.715 172.466 102.975 172.466 105.959V124.943H172.466C172.466 124.943 172.466 124.944 172.466 124.945V124.956H172.464C172.458 125.525 172.078 126.093 171.326 126.527C169.811 127.402 167.353 127.402 165.837 126.527C165.085 126.093 164.705 125.525 164.699 124.956H164.698V124.949H164.697Z" fill="#455A64"/>
<path d="M149.079 189.102V190.304C149.074 191.717 150.004 193.13 151.871 194.208C154.682 195.831 158.811 196.227 162.268 195.4L165.479 197.253L167.947 196.696L169.63 197.668L169.722 199.703L170.629 200.227L172.907 200.427L174.545 201.34V202.487L176.599 203.674H181.824L183.697 202.593V201.38L166.986 192.945C167.756 192.128 168.142 191.223 168.143 190.318V189.103C167.892 187.93 166.915 187.325 165.354 186.424C161.631 184.274 155.594 184.274 151.871 186.424C150.197 187.39 149.248 187.839 149.079 189.102ZM154.197 187.698C155.252 187.089 156.962 187.089 158.016 187.698C159.071 188.307 159.071 189.295 158.016 189.904C156.962 190.513 155.252 190.513 154.197 189.904C153.142 189.295 153.142 188.307 154.197 187.698Z" fill="#E0E0E0"/>
<path d="M151.872 192.994C154.683 194.617 158.811 195.013 162.269 194.185L165.48 196.039L167.947 195.482L169.631 196.454L169.723 198.489L170.63 199.013L172.908 199.213L174.685 200.204L174.545 201.274L176.6 202.46H181.825L183.698 201.379L166.987 191.731C168.955 189.643 168.415 186.976 165.355 185.21C161.632 183.06 155.595 183.06 151.872 185.21C148.148 187.359 148.148 190.844 151.872 192.994ZM154.197 186.484C155.252 185.875 156.962 185.875 158.017 186.484C159.071 187.093 159.071 188.08 158.017 188.689C156.962 189.298 155.252 189.298 154.197 188.689C153.142 188.08 153.142 187.093 154.197 186.484Z" fill="#F0F0F0"/>
<g opacity="0.1">
<path d="M152.42 192.044C150.993 191.22 150.175 190.148 150.175 189.101C150.175 188.054 150.993 186.982 152.42 186.158C154.056 185.213 156.256 184.693 158.613 184.693C160.97 184.693 163.17 185.213 164.807 186.158C166.234 186.982 167.051 188.055 167.051 189.101C167.051 190.147 166.233 191.221 164.807 192.044C163.17 192.989 160.97 193.509 158.613 193.509C156.257 193.509 154.057 192.989 152.42 192.044ZM152.591 186.455C151.273 187.215 150.518 188.18 150.518 189.101C150.518 190.022 151.273 190.986 152.591 191.747C154.177 192.662 156.315 193.166 158.613 193.166C160.91 193.166 163.049 192.662 164.635 191.747C165.953 190.986 166.708 190.021 166.708 189.101C166.708 188.18 165.953 187.215 164.635 186.455C163.05 185.539 160.911 185.035 158.613 185.035C156.315 185.035 154.176 185.54 152.591 186.455Z" fill="black"/>
</g>
<path opacity="0.1" d="M155.182 194.236V195.449C157.459 195.956 160.007 195.939 162.269 195.398V194.186C160.008 194.727 157.459 194.743 155.182 194.236Z" fill="black"/>
<path opacity="0.1" d="M165.479 196.04V197.253L167.947 196.696V195.482L165.479 196.04Z" fill="black"/>
<path opacity="0.1" d="M169.63 196.453V197.667L169.722 199.702V198.488L169.63 196.453Z" fill="black"/>
<path opacity="0.1" d="M170.629 199.012V200.225L172.908 200.426V199.212L170.629 199.012Z" fill="black"/>
<path opacity="0.1" d="M181.824 202.459H176.599V203.673H181.824V202.459Z" fill="black"/>
<path opacity="0.15" d="M183.698 201.379V202.592L181.824 203.673V202.46L182.645 201.986V202.51L183.098 202.248V201.719L183.698 201.379Z" fill="black"/>
<path d="M183.098 201.717L182.646 201.984V202.508L183.098 202.246V201.717Z" fill="#FDB514"/>
<path opacity="0.15" d="M183.098 201.718V202.248L165.961 192.352L166.414 192.085L183.098 201.718Z" fill="black"/>
<path opacity="0.15" d="M166.414 192.085V192.614L165.961 192.352L166.414 192.085Z" fill="black"/>
<path d="M71.3706 183.657L71.1311 183.795L70.9059 183.657L70.9072 183.395L70.3185 183.049L53.6073 192.697C49.9907 191.561 45.3719 191.873 42.3128 193.639C40.436 194.722 39.5092 196.145 39.5249 197.565C39.5271 197.752 39.5244 198.525 39.5249 198.726C39.5275 200.132 40.4548 201.537 42.3128 202.61C46.0365 204.76 52.0731 204.76 55.7963 202.61C57.6623 201.532 58.5905 200.12 58.5847 198.708C58.5838 198.513 58.5842 197.73 58.5833 197.531C58.582 197.126 58.503 196.722 58.3492 196.324L61.0707 194.753V193.567L60.6826 192.995L61.7883 192.357L65.313 192.304L66.2202 191.78L66.5667 190.465L68.2834 189.44L70.1356 189.52L72.1903 188.333V187.147V185.317V184.13L71.3706 183.657ZM44.5209 200.081C44.2605 199.931 44.0651 199.757 43.9331 199.571C44.0651 199.386 44.26 199.212 44.5209 199.062C45.5757 198.453 47.2857 198.453 48.3405 199.062C48.6014 199.212 48.7963 199.386 48.9283 199.571C48.7963 199.756 48.6014 199.93 48.3405 200.081C47.2857 200.69 45.5753 200.69 44.5209 200.081Z" fill="#E0E0E0"/>
<path opacity="0.1" d="M58.5688 197.853V198.896C58.4965 200.242 57.5795 201.581 55.7937 202.613C54.6292 203.288 53.2297 203.747 51.7516 204V202.806C53.2297 202.558 54.6234 202.1 55.7937 201.424C57.5131 200.429 58.4421 199.156 58.5688 197.853Z" fill="black"/>
<path opacity="0.15" d="M54.404 193.131L54.2216 193.028L70.9073 183.396" fill="black"/>
<path opacity="0.15" d="M61.788 192.356V191.17L60.1044 192.142L60.6824 192.995L61.788 192.356Z" fill="black"/>
<path opacity="0.1" d="M65.3128 191.118V192.304L61.788 192.357V191.171L65.3128 191.118Z" fill="black"/>
<path opacity="0.1" d="M66.5669 189.279V190.466L66.2199 191.781V190.595L66.5669 189.279Z" fill="black"/>
<path opacity="0.15" d="M68.2836 189.439V188.253L66.5669 189.278V190.465L68.2836 189.439Z" fill="black"/>
<path opacity="0.1" d="M68.2835 188.253L70.1358 188.333V189.519L68.2835 189.439V188.253Z" fill="black"/>
<path d="M55.796 201.424C58.6071 199.801 59.2926 197.417 57.8592 195.421L61.0699 193.567L60.1039 192.143L61.7875 191.17L65.3123 191.117L66.2194 190.594L66.566 189.279L68.2826 188.253L70.1349 188.333L72.1896 187.147V184.13L71.3694 183.657L71.1299 183.795L70.9047 183.657L70.906 183.395L70.3173 183.049L53.6061 192.697C49.9899 191.561 45.3707 191.873 42.3116 193.639C38.5884 195.789 38.5884 199.274 42.3116 201.424C46.0357 203.574 52.0728 203.574 55.796 201.424ZM44.5206 200.081C43.4658 199.472 43.4658 198.485 44.5206 197.876C45.5754 197.266 47.2854 197.266 48.3402 197.876C49.395 198.485 49.395 199.472 48.3402 200.081C47.2854 200.69 45.5754 200.69 44.5206 200.081Z" fill="#F0F0F0"/>
<g opacity="0.1">
<path d="M49.0543 201.941C46.6976 201.941 44.4984 201.42 42.8607 200.475C41.4339 199.652 40.6164 198.579 40.6164 197.532C40.6164 196.486 41.4344 195.413 42.8607 194.59C44.4979 193.645 46.6976 193.124 49.0543 193.124C51.4109 193.124 53.6102 193.645 55.2479 194.59C56.6746 195.413 57.4921 196.485 57.4921 197.532C57.4921 198.58 56.6742 199.652 55.2479 200.475C53.6106 201.42 51.4109 201.941 49.0543 201.941ZM49.0543 193.467C46.7569 193.467 44.6179 193.971 43.0319 194.887C41.7144 195.647 40.9589 196.612 40.9589 197.532C40.9589 198.454 41.7144 199.418 43.0319 200.178C44.6175 201.094 46.7565 201.598 49.0543 201.598C51.3516 201.598 53.4906 201.094 55.0766 200.178C56.3941 199.418 57.1496 198.453 57.1496 197.532C57.1496 196.611 56.3941 195.647 55.0766 194.887C53.4911 193.971 51.3521 193.467 49.0543 193.467Z" fill="black"/>
</g>
<path opacity="0.15" d="M70.9073 183.395L70.9056 183.656L71.1308 183.795L54.6841 193.289L54.2216 193.027L70.9073 183.395Z" fill="black"/>
<path opacity="0.15" d="M70.9073 183.395L70.9055 183.656L54.404 193.13" fill="black"/>
<path d="M133.354 149.069C129.229 149.772 125.328 156.803 124.575 163.922C124.13 168.14 124.563 172.684 125.104 175.732L126.016 176.396L126.53 176.768L128.32 178.06L129.421 178.86C129.34 175.346 129.68 172.484 130.31 170.079L130.311 170.074C130.765 168.323 131.369 166.816 132.073 165.472C133.571 162.596 135.798 159.79 136.757 157.804C139.155 152.856 137.198 148.412 133.354 149.069Z" fill="#FDB514"/>
<path opacity="0.65" d="M133.354 149.069C129.229 149.772 125.328 156.803 124.575 163.922C124.13 168.14 124.563 172.684 125.104 175.732L126.016 176.396L126.53 176.768L128.32 178.06L129.421 178.86C129.34 175.346 129.68 172.484 130.31 170.079L130.311 170.074C130.765 168.323 131.369 166.816 132.073 165.472C133.571 162.596 135.798 159.79 136.757 157.804C139.155 152.856 137.198 148.412 133.354 149.069Z" fill="white"/>
<path d="M134.387 151.924C129.921 156.005 125.907 165.822 126.529 176.768L126.016 176.396C125.506 165.448 129.563 155.649 134.053 151.553C134.156 151.461 134.313 151.468 134.405 151.571C134.498 151.671 134.491 151.831 134.387 151.924Z" fill="white"/>
<path d="M137.022 162.348C134.419 163.336 132.55 165.283 130.31 170.075L130.31 170.08C129.307 172.276 128.53 174.891 128.319 178.061L129.42 178.861L129.934 179.233L130.401 179.568L131.051 180.051C131.576 178.491 132.439 177.155 133.801 175.593C137.412 171.453 142.002 168.665 142.583 166.165C143.279 163.156 141.223 160.755 137.022 162.348Z" fill="#FDB514"/>
<path opacity="0.3" d="M137.022 162.348C134.419 163.336 132.55 165.283 130.31 170.075L130.31 170.08C129.307 172.276 128.53 174.891 128.319 178.061L129.42 178.861L129.934 179.233L130.401 179.568L131.051 180.051C131.576 178.491 132.439 177.155 133.801 175.593C137.412 171.453 142.002 168.665 142.583 166.165C143.279 163.156 141.223 160.755 137.022 162.348Z" fill="white"/>
<path d="M138.077 165.981C138.2 165.917 138.248 165.765 138.184 165.642C138.116 165.523 137.973 165.472 137.845 165.54C135.013 167.032 130.609 171.285 129.138 178.656L129.421 178.861L129.599 178.99C131.029 171.616 135.488 167.344 138.077 165.981Z" fill="white"/>
<path d="M111.289 209.517C128.43 209.517 142.327 201.494 142.327 191.598C142.327 181.701 128.43 173.678 111.289 173.678C94.1468 173.678 80.2506 181.701 80.2506 191.598C80.2506 201.494 94.1468 209.517 111.289 209.517Z" fill="#E0E0E0"/>
<path d="M92.0219 180.582C92.5026 173.966 91.7596 168.894 92.3104 158.563C92.3595 155.915 92.4554 153.078 92.6329 150.558C93.2301 142.078 94.5377 139.179 94.6586 137.543C94.6586 137.543 94.8825 124.35 95.4369 105.796C95.6973 97.068 98.2266 94.425 100.247 89.792H124.269C126.952 101.224 127.717 126.153 127.636 137.935C127.596 143.942 125.171 176.074 125.122 176.813C124.95 179.435 125.179 180.47 126.207 181.573C128.359 183.882 131.479 186.081 134.176 188.094C133.785 189.126 130.542 189.088 128.936 188.302C126.371 187.048 123.825 185.134 122.95 184.486C120.734 182.845 117.902 181.529 117.865 179.033C117.859 178.722 117.775 178.637 117.791 178.587C117.748 177.13 114.351 155.635 114.068 150.647C113.825 146.359 114.347 139.081 114.347 139.081L111.58 120.914C111.58 120.914 109.875 131.651 108.149 138.983C106.744 144.951 104.427 155.135 102.846 162.479C101.328 170.94 99.0972 176.963 98.7119 181.198C98.5954 182.209 97.4501 192.135 96.9774 194.409C96.5046 196.682 91.5491 196.742 91.2315 192.832C91.0201 190.23 91.9313 181.827 92.0219 180.582Z" fill="#FFBDA7"/>
<path d="M111.58 120.914L113.603 107.809C113.603 107.809 121.424 106.881 124.268 104.148C124.268 104.148 120.682 109.209 115.375 110.034L113.145 120.897L114.324 138.925L111.58 120.914Z" fill="#F28F8F"/>
<path d="M138.765 190.732C138.902 190.73 139.125 192.239 138.387 192.89C137.535 193.64 135.024 194.885 131.685 194.49C128.345 194.094 126.528 193.081 125.182 191.979C123.835 190.876 121.948 189.321 120.436 189.005C119.032 188.711 117.503 188.092 117.05 187.663C116.596 187.235 116.638 185.309 116.638 185.309L138.765 190.732Z" fill="#263238"/>
<path d="M117.721 177.882C117.721 177.882 117.47 177.893 117.388 178.339C117.291 178.871 117.197 180.416 116.985 181.289C116.692 182.503 116.514 184.987 116.708 185.971C116.902 186.956 119.194 187.617 120.66 188.158C122.157 188.71 123.894 189.861 125.421 191.094C127.002 192.369 130.313 193.63 132.487 193.639C135.806 193.651 137.945 192.728 138.596 191.529C139.401 190.045 138.748 189.197 134.916 187.471C134.191 187.144 131.639 185.671 130.769 185.136C129.85 184.571 128.968 183.941 128.154 183.232C127.742 182.874 127.348 182.495 126.978 182.093C126.652 181.739 126.194 181.312 125.999 180.87C125.954 180.77 125.923 180.652 125.884 180.548C125.769 180.248 125.689 179.971 125.625 179.657C125.561 179.341 125.517 178.879 125.213 178.693C124.865 178.478 124.24 178.512 123.848 178.546C123.356 178.589 122.861 178.657 122.38 178.77C121.82 178.902 121.172 178.958 120.845 179.489C120.594 179.896 120.56 180.407 120.545 180.874C120.538 181.097 120.545 181.321 120.546 181.543C120.546 181.638 120.589 181.809 120.455 181.771C120.328 181.735 120.182 181.403 120.133 181.291C120.025 181.043 119.954 180.776 119.836 180.533C119.701 180.254 119.548 179.968 119.353 179.731C119.17 179.509 118.971 179.297 118.743 179.122C118.534 178.964 118.27 178.886 118.085 178.706C117.85 178.477 117.744 178.07 117.721 177.882Z" fill="#37474F"/>
<path d="M135.534 187.755C130.733 188.138 129.253 191.12 129.068 192.958C130.263 193.367 131.493 193.634 132.487 193.639C135.806 193.651 138.082 192.728 138.732 191.528C139.492 190.128 138.954 189.011 135.534 187.755Z" fill="#FAFAFA"/>
<path d="M128.333 187.88C128.281 187.881 128.228 187.864 128.184 187.828C128.083 187.748 128.067 187.6 128.147 187.499C128.807 186.673 130.724 185.568 132.473 185.739C132.602 185.752 132.697 185.867 132.684 185.995C132.671 186.124 132.56 186.218 132.428 186.206C130.796 186.051 129.037 187.137 128.514 187.792C128.468 187.849 128.401 187.879 128.333 187.88Z" fill="#F0F0F0"/>
<path d="M126.251 186.697C126.199 186.698 126.146 186.681 126.102 186.646C126.001 186.565 125.985 186.418 126.066 186.316C126.726 185.489 128.644 184.382 130.391 184.556C130.52 184.569 130.615 184.684 130.602 184.813C130.59 184.941 130.48 185.036 130.346 185.024C128.714 184.866 126.955 185.954 126.432 186.609C126.387 186.667 126.319 186.697 126.251 186.697Z" fill="#F0F0F0"/>
<path d="M124.319 185.341C124.267 185.341 124.215 185.324 124.17 185.289C124.069 185.208 124.053 185.06 124.133 184.959C124.794 184.132 126.718 183.027 128.459 183.2C128.588 183.212 128.683 183.327 128.67 183.456C128.657 183.585 128.547 183.678 128.414 183.667C126.784 183.511 125.023 184.597 124.5 185.252C124.455 185.31 124.388 185.34 124.319 185.341Z" fill="#F0F0F0"/>
<path d="M122.427 183.984C122.376 183.985 122.324 183.969 122.28 183.935C122.178 183.855 122.159 183.708 122.239 183.606C123.146 182.434 125.218 181.646 126.963 181.819C127.093 181.831 127.187 181.946 127.174 182.075C127.162 182.203 127.051 182.294 126.918 182.285C125.346 182.132 123.415 182.855 122.609 183.893C122.564 183.953 122.495 183.983 122.427 183.984Z" fill="#F0F0F0"/>
<path d="M98.5339 196.179C98.4019 198.445 98.05 199.947 97.2459 201.276C96.4422 202.604 94.9253 203.022 93.3893 202.633C91.8533 202.244 89.886 201.204 89.4453 199.249C89.0051 197.294 88.7482 195.955 89.0974 193.854L98.5339 196.179Z" fill="#263238"/>
<path d="M92.0758 179.771C91.443 179.82 91.2561 182.863 90.8913 185.909C90.5001 189.174 89.5252 190.524 89.1759 193.202C88.7768 196.26 89.283 197.627 90.3547 199.477C91.426 201.326 95.2201 203.14 97.0902 200.492C98.6142 198.332 98.6775 195.938 98.5384 192.883C98.3948 189.726 98.6133 187.54 98.7422 185.144C98.8653 182.854 99.3724 180.544 98.8225 180.29C98.7801 180.626 98.7391 181.053 98.694 181.383C98.6387 181.79 98.6374 182.216 98.4898 182.604C98.4251 182.775 98.2842 182.953 98.2266 182.676C98.1878 182.488 98.2061 182.294 98.2271 182.107C98.3198 181.263 97.8948 181.195 97.6656 181.129C97.1683 180.987 95.2036 180.745 94.7295 180.713C94.2461 180.68 92.5767 180.607 92.3599 180.882C92.2132 181.069 92.1922 181.381 92.1472 181.767C92.0932 182.227 91.9866 182.564 91.9733 182.42C91.9429 182.09 92.0072 181.233 92.0152 181.026C92.0232 180.828 92.0553 180.558 92.058 180.358C92.0611 180.162 92.0629 179.966 92.0758 179.771Z" fill="#37474F"/>
<path d="M89.0007 194.974C88.8914 196.873 89.3455 198.174 90.1844 199.622C91.2561 201.472 95.3558 203.292 97.2254 200.643C98.1558 199.325 98.4051 197.767 98.5331 196.177C97.4123 194.136 90.7682 193.237 89.0007 194.974Z" fill="#FAFAFA"/>
<path d="M97.1518 192.854C97.1255 192.852 97.0992 192.844 97.0738 192.833C97.0483 192.821 94.1199 191.61 91.2691 192.269C91.1429 192.296 91.0171 192.22 90.9872 192.093C90.9582 191.967 91.0372 191.841 91.1634 191.812C94.1783 191.116 97.1643 192.357 97.2762 192.409C97.3931 192.466 97.4426 192.605 97.3868 192.723C97.3436 192.814 97.2477 192.864 97.1518 192.854Z" fill="#F0F0F0"/>
<path d="M91.4109 189.989C91.3221 189.98 91.2423 189.92 91.2115 189.831C91.1705 189.708 91.236 189.574 91.3582 189.532C94.1957 188.571 97.3449 190.014 97.4635 190.076C97.5786 190.136 97.6228 190.278 97.5621 190.393C97.5014 190.507 97.3583 190.549 97.2454 190.491C97.2187 190.478 94.1498 189.079 91.5094 189.977C91.4773 189.989 91.4439 189.992 91.4109 189.989Z" fill="#F0F0F0"/>
<path d="M91.5112 187.838C91.4242 187.829 91.3457 187.771 91.3141 187.684C91.2704 187.561 91.3333 187.427 91.4555 187.384C94.5761 186.266 97.5652 187.842 97.6763 187.91C97.7873 187.977 97.8226 188.122 97.7548 188.232C97.6874 188.343 97.5402 188.378 97.4323 188.311C97.4078 188.296 94.5186 186.786 91.6142 187.826C91.5795 187.838 91.5447 187.842 91.5112 187.838Z" fill="#F0F0F0"/>
<path d="M91.666 185.722C91.5803 185.713 91.5023 185.657 91.4697 185.571C91.4242 185.45 91.4853 185.314 91.6066 185.269C94.5311 184.174 97.7485 185.79 97.8694 185.86C97.9818 185.924 98.0201 186.068 97.9555 186.181C97.8917 186.294 97.7481 186.334 97.6352 186.267C97.6071 186.251 94.4869 184.691 91.7717 185.708C91.7369 185.721 91.7012 185.725 91.666 185.722Z" fill="#EBEBEB"/>
<path d="M97.142 89.8682C95.1532 95.5524 93.5775 99.1481 93.6944 114.581C93.8201 131.242 94.1176 134.483 94.057 136.344C93.9968 138.204 92.9139 141.53 91.963 150.695C91.0121 159.861 92.1369 170.782 92.1369 170.782C92.1369 170.782 92.7926 172.257 96.2972 172.571C99.5303 172.861 101.131 171.647 101.131 171.647C101.131 171.647 105.565 153.799 106.791 148.279C108.017 142.758 111.58 124.606 111.58 124.606L113.694 139.328C113.694 139.328 112.708 144.386 113.694 152.424C114.68 160.461 116.418 168.694 116.418 168.694C116.418 168.694 118.616 169.547 121.382 169.505C124.149 169.464 125.74 168.367 125.74 168.367C125.74 168.367 128.487 144.453 128.487 135.342C128.487 126.232 127.717 103.457 124.85 89.969L97.142 89.8682Z" fill="#37474F"/>
<path d="M114.466 107.088L111.58 124.606L113.694 139.328L112.796 124.409L115.375 110.035C117.572 109.508 122.571 106.873 123.944 103.111C120.558 106.653 114.466 107.088 114.466 107.088ZM100.164 154.239C99.3108 158.984 98.5192 163.739 97.7891 168.504C98.8902 163.808 99.9303 159.102 100.908 154.385C101.9 149.666 102.834 144.955 103.761 140.207C104.627 135.447 105.213 130.65 105.678 125.851C106.153 121.051 106.5 116.242 106.791 111.429C106.127 116.205 105.529 120.989 104.928 125.766C104.31 130.541 103.684 135.312 102.806 140.032C101.903 144.745 101.003 149.497 100.164 154.239ZM125.076 130.274C125.172 132.364 125.296 134.465 125.261 136.531C125.219 138.606 125.091 140.709 124.986 142.8L124.669 149.085C124.455 153.277 124.286 157.472 124.17 161.672C124.663 157.5 125.084 153.321 125.425 149.136C125.768 144.947 126.09 140.773 126.232 136.547C126.218 132.299 125.859 128.127 125.483 123.937C125.095 119.754 124.591 115.58 123.944 111.428L124.731 123.995C124.846 126.089 124.981 128.181 125.076 130.274Z" fill="#263238"/>
<path d="M118.616 62.1641C124.242 62.4905 125.95 65.9774 128.622 69.4401C130.748 72.195 135.101 78.5117 135.101 78.5117C135.101 78.5117 143.841 74.3234 145.272 72.9524C146.254 72.0126 145.953 71.6005 147.567 70.0195C148.704 68.9062 150.013 68.2265 150.662 67.223C151.177 66.4278 152.417 67.2774 151.672 68.9036C151.414 69.4646 150.8 70.2242 150.8 70.2242C150.8 70.2242 151.989 69.7247 152.58 69.0904C153.842 67.7346 154.222 66.2592 155.998 65.6741C156.749 65.4266 157.008 65.9283 156.842 66.5781C157.11 66.6134 157.74 66.971 157.547 67.7953C158.018 67.8309 158.232 68.7096 158.115 68.999C158.408 69.2804 158.982 70.1626 157.681 72.3605C157.105 73.3337 155.716 75.0106 155.302 75.3295C155.183 75.4205 153.519 76.2942 151.427 77.151C149.451 77.96 148.885 78.3271 147.274 79.4216C145.413 80.686 140.811 84.3802 136.599 86.9978C133.093 89.1761 131.586 87.2293 129.105 84.2241C127.467 82.239 122.138 75.6993 122.138 75.6993C119.8 71.5622 117.851 65.1545 118.616 62.1641Z" fill="#FFBDA7"/>
<path d="M152.621 72.8357C150.204 72.4584 147.933 73.9463 147.56 75.9171C147.346 74.8632 147.747 73.8379 148.706 73.1033C149.534 72.4691 151.276 72.2408 152.621 72.8357Z" fill="#F0997A"/>
<path d="M104.966 37.3773C102.794 36.2828 100.104 36.3328 98.2707 37.2769C95.3945 38.7586 94.8477 40.3673 94.5649 43.7515C94.1403 48.8328 93.7791 50.3666 93.1672 51.5177C92.5026 52.7683 91.5076 53.3454 90.6339 53.6322C91.1887 53.9921 92.3024 54.361 93.5137 53.778C92.9794 56.2177 92.248 58.2666 92.8576 60.8565C93.2684 62.6017 94.16 64.582 95.4886 65.8423C96.6201 66.9159 98.2516 67.2557 99.6194 67.869C98.7114 65.8713 98.2306 63.9901 98.8916 61.7606C99.6208 59.3013 101.293 57.2172 102.05 54.7387C103.096 51.3103 104.293 47.7606 104.613 44.1766C104.884 41.1455 104.97 39.453 104.966 37.3773Z" fill="#263238"/>
<path d="M105.438 37.1566C105.12 36.633 103.136 36.3663 101.603 37.4237C100.07 38.4817 98.8278 40.2933 99.9334 41.7522C100.971 43.1209 107.554 39.1761 105.438 37.1566Z" fill="#FDB514"/>
<path d="M94.1555 100.361C95.3561 91.6205 96.9282 88.4222 97.2048 87.3701C97.9027 84.7164 96.2182 79.9937 95.7454 77.2629C94.7161 71.3164 96.8096 64.2174 98.1721 63.0105C98.1721 63.0105 99.7398 62.5832 101.06 62.3147C102.105 62.102 102.88 61.8121 104.288 61.5922C108.042 61.0053 111.305 61.0445 112.482 61.2907C113.415 61.4856 118.614 62.1636 118.617 62.1658C118.617 62.1658 120.775 63.8481 122.84 67.3465C124.416 70.0167 125.743 71.7677 125.848 78.0438C125.973 85.4274 126.232 92.5736 126.483 100.235C120.46 104.131 102.148 104.776 94.1555 100.361Z" fill="#455A64"/>
<path d="M120.147 36.983C119.33 36.549 117.767 36.3113 116.238 36.607C113.717 35.2351 110.385 34.823 107.085 35.4826C104.618 35.9759 101.453 37.4669 101.192 41.0055C97.9438 42.1075 96.4716 46.5252 98.6012 51.1542C100.147 54.513 103.115 56.1356 104.492 58.1876L114.952 50.2408C116.16 51.6243 117.785 51.519 119.948 48.2708C123.944 42.2694 122.033 37.9847 120.147 36.983Z" fill="#37474F"/>
<path d="M101.202 46.942C103.283 45.9751 104.118 48.1516 104.118 48.1516C105.505 48.9727 106.47 47.4304 106.417 45.5915C106.373 44.0564 106.794 41.5749 108.378 40.9393C109.556 40.467 110.063 40.744 112.729 41.2676C114.012 41.5196 114.401 41.2841 116.142 40.5027C117.664 39.8198 119.42 41.3523 119.622 43.3821C119.761 44.7954 119.611 45.9974 119.719 46.8885C119.828 47.7796 120.035 49.0222 120.038 49.8664C120.055 55.9793 118.816 57.1131 117.664 58.0559C116.753 58.8021 115.321 59.2967 113.274 59.1754L113.294 61.7269C113.294 61.7269 115.563 66.0353 115.875 69.907C111.34 68.5289 107.003 64.6143 104.125 61.9945L103.982 53.4135C103.47 54.0776 101.856 54.3617 100.701 52.9519C99.2042 51.1255 99.2069 47.8688 101.202 46.942Z" fill="#FFBDA7"/>
<path d="M113.274 59.1757C111.28 59.0173 109.389 58.6208 107.986 57.7797C106.979 57.1754 106.102 56.1781 105.855 55.5537C105.855 55.5537 105.927 57.0937 107.832 58.4692C109.576 59.7292 113.274 60.0057 113.274 60.0057V59.1757Z" fill="#F0997A"/>
<path d="M113.3 46.1484L113.878 51.7993L116.881 50.3404L113.3 46.1484Z" fill="#F0997A"/>
<path d="M111.302 52.8096L114.194 53.5339C114.008 54.3559 113.211 54.8598 112.412 54.66C111.613 54.4602 111.116 53.6315 111.302 52.8096Z" fill="#B16668"/>
<path d="M112.249 53.5659C111.942 53.4205 111.608 53.4049 111.303 53.4874C111.424 54.0453 111.837 54.5163 112.412 54.6604C112.618 54.7121 112.824 54.7148 113.02 54.6791C112.978 54.2135 112.704 53.7809 112.249 53.5659Z" fill="#F28F8F"/>
<path d="M118.49 47.2719C118.681 47.7487 118.35 47.924 117.891 48.1068C117.432 48.2901 117.018 48.411 116.827 47.9342C116.635 47.4575 116.852 46.9232 117.312 46.7403C117.771 46.5574 118.298 46.7956 118.49 47.2719Z" fill="#263238"/>
<path d="M116.878 46.9383C117.076 46.8076 117.311 46.7269 117.539 46.664C117.762 46.6024 118 46.5717 118.229 46.5944C118.615 46.6328 118.825 46.7148 118.946 46.7679C118.961 46.775 118.98 46.8263 118.951 46.8245C118.76 46.812 118.592 46.7884 118.317 46.7924C118.085 46.7955 117.767 46.8575 117.545 46.9227C117.196 47.0257 117.062 47.0779 116.681 47.2924C116.592 47.3423 116.419 47.448 116.403 47.4623C116.378 47.4837 116.352 47.4146 116.365 47.3923C116.469 47.2027 116.702 47.0547 116.878 46.9383Z" fill="#263238"/>
<path d="M116.881 44.4771L118.988 45.064C119.136 44.4637 118.784 43.8456 118.202 43.6837C117.621 43.5218 117.03 43.8768 116.881 44.4771Z" fill="#263238"/>
<path d="M109.601 47.7219C109.473 48.2192 109.824 48.3507 110.303 48.472C110.782 48.5938 111.207 48.6598 111.335 48.1621C111.463 47.6648 111.178 47.1626 110.699 47.0413C110.22 46.92 109.728 47.2246 109.601 47.7219Z" fill="#263238"/>
<path d="M111.155 47.1814C110.942 47.0775 110.698 47.028 110.464 46.9954C110.235 46.9633 109.995 46.9638 109.77 47.0164C109.392 47.1047 109.195 47.2131 109.083 47.2813C109.068 47.2902 109.056 47.3438 109.084 47.3384C109.272 47.301 109.436 47.2559 109.708 47.2242C109.939 47.1975 110.262 47.2171 110.491 47.2532C110.85 47.3099 110.99 47.3442 111.396 47.5074C111.491 47.5458 111.675 47.6279 111.694 47.6395C111.721 47.6573 111.737 47.5855 111.722 47.565C111.595 47.3906 111.345 47.2742 111.155 47.1814Z" fill="#263238"/>
<path d="M110.331 44.8419L108.41 45.886C108.131 45.3343 108.335 44.6528 108.865 44.3647C109.396 44.0766 110.052 44.2897 110.331 44.8419Z" fill="#263238"/>
<path d="M150.653 64.944C142.789 61.5 130.808 62.834 123.893 67.9228C120.995 70.0552 119.189 71.4726 118.95 73.856L119.218 76.2671C119.422 78.0631 120.388 79.7744 122.096 81.2248L90.7935 101.657L91.0616 104.065L95.0176 105.796L105.388 104.642L109.204 101.833L108.95 99.5567L111.998 97.382L116.475 96.4816L118.16 95.2417L117.892 91.1822L121.019 88.8808L126.039 89.4428L132.002 85.0541C139.047 85.9332 147.153 84.2353 152.374 80.393C155.84 77.8414 157.376 74.8309 157.054 72.0283L156.788 69.6426C156.173 67.1736 154.189 66.4925 150.653 64.944ZM146.806 72.3646C144.847 73.806 141.453 74.1842 139.226 73.2084C136.998 72.233 136.78 70.2733 138.739 68.8318C140.697 67.3903 144.091 67.0121 146.319 67.988C148.547 68.9638 148.765 70.9231 146.806 72.3646Z" fill="#FDB514"/>
<path opacity="0.2" d="M150.653 64.944C142.789 61.5 130.808 62.834 123.893 67.9228C120.995 70.0552 119.189 71.4726 118.95 73.856L119.218 76.2671C119.422 78.0631 120.388 79.7744 122.096 81.2248L90.7935 101.657L91.0616 104.065L95.0176 105.796L105.388 104.642L109.204 101.833L108.95 99.5567L111.998 97.382L116.475 96.4816L118.16 95.2417L117.892 91.1822L121.019 88.8808L126.039 89.4428L132.002 85.0541C139.047 85.9332 147.153 84.2353 152.374 80.393C155.84 77.8414 157.376 74.8309 157.054 72.0283L156.788 69.6426C156.173 67.1736 154.189 66.4925 150.653 64.944ZM146.806 72.3646C144.847 73.806 141.453 74.1842 139.226 73.2084C136.998 72.233 136.78 70.2733 138.739 68.8318C140.697 67.3903 144.091 67.0121 146.319 67.988C148.547 68.9638 148.765 70.9231 146.806 72.3646Z" fill="black"/>
<path d="M150.385 62.5368C142.521 59.0928 130.54 60.4268 123.625 65.5156C117.943 69.6969 117.46 75.1091 121.828 78.818L90.7931 101.659L94.7491 103.389L105.119 102.235L108.935 99.4268L108.423 97.335L111.729 94.9757L116.207 94.0752L117.891 92.8353L117.624 88.7758L120.751 86.4745L125.771 87.0364L131.734 82.6478C138.779 83.5269 146.885 81.8289 152.106 77.9867C159.02 72.8978 158.25 65.9808 150.385 62.5368ZM146.538 69.9573C144.579 71.3988 141.185 71.7766 138.958 70.8012C136.73 69.8253 136.511 67.866 138.47 66.4241C140.429 64.9826 143.823 64.6044 146.051 65.5803C148.279 66.5561 148.497 68.5159 146.538 69.9573Z" fill="#FDB514"/>
<path opacity="0.3" d="M150.385 62.5368C142.521 59.0928 130.54 60.4268 123.625 65.5156C117.943 69.6969 117.46 75.1091 121.828 78.818L90.7931 101.659L94.7491 103.389L105.119 102.235L108.935 99.4268L108.423 97.335L111.729 94.9757L116.207 94.0752L117.891 92.8353L117.624 88.7758L120.751 86.4745L125.771 87.0364L131.734 82.6478C138.779 83.5269 146.885 81.8289 152.106 77.9867C159.02 72.8978 158.25 65.9808 150.385 62.5368ZM146.538 69.9573C144.579 71.3988 141.185 71.7766 138.958 70.8012C136.73 69.8253 136.511 67.866 138.47 66.4241C140.429 64.9826 143.823 64.6044 146.051 65.5803C148.279 66.5561 148.497 68.5159 146.538 69.9573Z" fill="white"/>
<g opacity="0.2">
<path d="M119.082 74.55L137.435 69.5945C136.82 68.6102 137.146 67.3993 138.471 66.4243C140.429 64.9828 143.823 64.6046 146.051 65.5805C146.803 65.9096 147.32 66.3521 147.608 66.8476L154.307 65.0386C153.298 64.0904 151.992 63.2399 150.385 62.5365C150.157 62.4366 149.914 62.3546 149.679 62.2627L119.486 70.4151C118.906 71.8053 118.778 73.2075 119.082 74.55Z" fill="white"/>
<path d="M156.123 73.3886C157.262 70.9391 157.007 68.4281 155.414 66.2744L147.792 68.3323C147.63 68.8947 147.218 69.4571 146.539 69.9575C144.58 71.399 141.186 71.7767 138.958 70.8013C138.919 70.7844 138.886 70.7647 138.848 70.7469L119.566 75.9531C120.052 76.9762 120.8 77.9453 121.828 78.8177L113.608 84.8673L156.123 73.3886Z" fill="white"/>
</g>
<path d="M138.839 80.5008C134.162 81.0212 129.681 80.4744 126.223 78.9612C123.21 77.6415 121.35 75.6929 121.118 73.6159C120.887 71.5393 122.274 69.2294 124.922 67.2791C127.963 65.0415 132.214 63.5229 136.891 63.0024C141.568 62.4819 146.048 63.0287 149.507 64.5424C152.519 65.8621 154.381 67.8107 154.612 69.8873C154.843 71.9643 153.456 74.2742 150.807 76.2245C147.767 78.4612 143.516 79.9798 138.839 80.5008ZM136.967 63.6825C132.407 64.1901 128.274 65.6632 125.328 67.8295C122.881 69.6308 121.596 71.7123 121.799 73.5396C122.002 75.3673 123.715 77.1147 126.498 78.3341C129.847 79.8001 134.203 80.3273 138.763 79.8197C143.323 79.3122 147.457 77.8395 150.402 75.6728C152.849 73.8714 154.135 71.7899 153.932 69.9622C153.728 68.135 152.016 66.3875 149.232 65.1682C145.883 63.7031 141.526 63.175 136.967 63.6825Z" fill="#FDB514"/>
<path opacity="0.1" d="M145.809 81.1836L146.077 83.5907C141.669 85.1004 136.608 85.6298 132.001 85.0558L131.733 82.6487C136.34 83.2227 141.401 82.6933 145.809 81.1836Z" fill="black"/>
<path opacity="0.1" d="M125.77 87.0361L126.038 89.4445L121.019 88.8826L120.75 86.4746L125.77 87.0361Z" fill="black"/>
<path opacity="0.1" d="M117.624 88.7773L117.892 91.1857L118.159 95.2448L117.891 92.8368L117.624 88.7773Z" fill="black"/>
<path opacity="0.1" d="M116.207 94.0762L116.475 96.4841L111.997 97.3846L111.729 94.9767L116.207 94.0762Z" fill="black"/>
<path opacity="0.1" d="M105.119 102.243L94.7487 103.397L95.0167 105.806L105.387 104.652L105.119 102.243Z" fill="black"/>
<path opacity="0.15" d="M90.7931 101.658L91.0611 104.066L95.0172 105.797L94.7491 103.389L93.0155 102.63L93.131 103.669L92.1744 103.25L92.0575 102.201L90.7931 101.658Z" fill="black"/>
<path d="M92.0575 102.2L93.0155 102.63L93.131 103.669L92.1744 103.25L92.0575 102.2Z" fill="#FDB514"/>
<path opacity="0.3" d="M92.0575 102.2L93.0155 102.63L93.131 103.669L92.1744 103.25L92.0575 102.2Z" fill="white"/>
<path d="M92.0575 102.201L92.1744 103.251L124.001 79.8255L123.042 79.3955L92.0575 102.201Z" fill="#FDB514"/>
<path opacity="0.15" d="M123.042 79.3955L123.159 80.4458L124.001 79.8255L123.042 79.3955Z" fill="black"/>
<path d="M90.3944 68.0657C93.0347 63.632 95.5234 63.6463 98.1722 63.0107C100.522 66.2184 100.976 72.6131 96.2366 79.4797L91.1722 87.7887C91.1722 87.7887 98.7944 91.2305 101.383 90.5441C102.401 90.3804 102.993 90.0486 103.58 89.8011C105.14 89.1441 105.744 89.1107 107.224 88.5505C108.382 88.1121 108.869 87.5305 109.09 87.7432C109.374 88.0166 109.689 88.8043 108.991 89.6414C108.639 90.0624 108.315 90.3144 107.485 90.884C107.485 90.884 109.357 90.8487 111.676 90.3162C113.545 89.8867 114.486 89.3354 115.006 90.0624C115.336 90.5222 114.925 91.0432 114.748 91.4678C114.542 91.9637 114.68 92.5899 114.391 93.0439C114.226 93.3035 113.917 93.4574 113.783 93.7343C113.624 94.0626 113.755 94.464 113.645 94.8114C113.566 95.0603 113.373 95.2543 113.184 95.4354C112.587 96.0049 111.878 96.8314 111.133 97.2029C110.682 97.4272 110.032 97.5155 109.534 97.6105C108.016 97.9 106.448 97.9379 104.905 97.9379C102.029 97.9374 100.439 97.4183 97.6588 97.057C92.458 96.3809 86.2832 94.7494 83.8369 93.8044C81.0882 92.7424 81.0061 90.6792 81.2452 88.2976C81.6622 84.14 88.308 71.5695 90.3944 68.0657Z" fill="#FFBDA7"/>
<path d="M144.457 27.0607L132.351 34.0637C132.112 34.2016 131.919 34.5365 131.919 35.1841V49.6024C131.919 49.8905 132.114 50.2161 132.354 50.3517L134.073 51.3289C134.313 51.4644 134.701 51.4622 134.939 51.3248L147.045 44.3217C147.284 44.1839 147.478 43.849 147.478 43.5734V28.7782C147.478 28.5026 147.283 28.1694 147.043 28.0338L145.324 27.0562C145.083 26.9211 144.696 26.9228 144.457 27.0607Z" fill="#37474F"/>
<path d="M134.939 51.3251C134.709 51.4585 134.289 51.4634 134.072 51.33L132.354 50.3511C132.114 50.2173 131.919 49.9002 131.919 49.6027V35.1839C131.919 34.6684 132.019 34.4998 132.071 34.3789L134.635 35.8547C134.585 35.9497 134.506 36.0706 134.507 36.2798V51.0754C134.507 51.3336 134.685 51.4727 134.939 51.3251Z" fill="#263238"/>
<path d="M130.734 45.784C130.463 45.6221 128.393 44.4563 128.328 44.4183C128.128 44.2966 128.056 44.0009 128.242 43.8015L131.918 39.5859L134.507 41.0702L130.661 45.1779C130.481 45.3697 130.553 45.652 130.734 45.784Z" fill="#37474F"/>
<path d="M147.045 28.5277L134.939 35.5308C134.701 35.6686 134.507 36.0036 134.507 36.2792V41.0706L130.66 45.1769C130.411 45.4441 130.594 45.8107 130.907 45.8392L134.507 45.5761V51.0744C134.507 51.35 134.701 51.4615 134.939 51.3237L147.045 44.3206C147.284 44.1828 147.478 43.8478 147.478 43.5722V28.7775C147.477 28.5019 147.284 28.3899 147.045 28.5277Z" fill="#455A64"/>
<path d="M144.799 32.6609C144.252 32.4317 143.62 32.689 143.391 33.2354L139.326 42.9073L138.358 41.9658C137.935 41.5533 137.253 41.5627 136.837 41.9881C136.425 42.4127 136.435 43.0951 136.859 43.5086L138.958 45.5486C139.159 45.7444 139.425 45.8523 139.707 45.8523C139.778 45.8523 139.849 45.8456 139.921 45.8313C140.271 45.76 140.561 45.5214 140.698 45.1944L145.374 34.0699C145.603 33.5222 145.346 32.8906 144.799 32.6609Z" fill="#FAFAFA"/>
</svg>
