<svg width="22" height="17" viewBox="0 0 22 17" fill="none" xmlns="http://www.w3.org/2000/svg">
<path d="M14.7736 8.93693L13.6506 7.97432C13.8006 7.26442 13.5643 6.62623 12.9419 6.05976C12.3195 5.49328 11.5557 5.27432 10.6506 5.40289L9.52751 4.44028C9.75315 4.35346 9.98455 4.28835 10.2217 4.24495C10.4589 4.20154 10.7185 4.17983 11.0006 4.17983C12.1352 4.17983 13.0983 4.51912 13.89 5.19769C14.6816 5.87626 15.0775 6.7018 15.0775 7.67432C15.0775 7.91608 15.0521 8.14135 15.0015 8.35013C14.9509 8.55892 14.8749 8.75452 14.7736 8.93693ZM17.9544 11.604L16.8506 10.7172C17.4839 10.3029 18.0464 9.84932 18.5381 9.35646C19.0297 8.8636 19.4506 8.30289 19.8006 7.67432C18.9672 6.23146 17.7714 5.08503 16.2131 4.23503C14.6547 3.38503 12.9172 2.96003 11.0006 2.96003C10.5172 2.96003 10.0422 2.9886 9.57556 3.04575C9.1089 3.10289 8.65056 3.1886 8.20056 3.30289L7.03521 2.30402C7.66726 2.08863 8.31277 1.92984 8.97174 1.82764C9.6307 1.72544 10.307 1.67434 11.0006 1.67434C13.3441 1.67434 15.4576 2.22818 17.3409 3.33587C19.2242 4.44357 20.598 5.88972 21.4621 7.67432C21.0915 8.44025 20.613 9.15508 20.0265 9.8188C19.44 10.4825 18.7493 11.0776 17.9544 11.604ZM18.7621 16.5622L14.716 13.1204C14.2031 13.2831 13.6349 13.416 13.0112 13.5193C12.3874 13.6226 11.7172 13.6743 11.0006 13.6743C8.65058 13.6743 6.53713 13.1205 4.66021 12.0128C2.7833 10.9051 1.40958 9.45892 0.539062 7.67432C0.908296 6.91718 1.38522 6.21085 1.96984 5.55535C2.55445 4.89987 3.19805 4.33147 3.90061 3.85015L1.13136 1.45015L2.18521 0.546875L19.8159 15.6589L18.7621 16.5622ZM4.95444 4.75341C4.42624 5.11385 3.91245 5.5471 3.41309 6.05316C2.91372 6.5592 2.50955 7.09959 2.20056 7.67432C3.0339 9.11718 4.22973 10.2636 5.78806 11.1136C7.3464 11.9636 9.0839 12.3886 11.0006 12.3886C11.4557 12.3886 11.9089 12.3556 12.3602 12.2897C12.8115 12.2238 13.1942 12.1556 13.5083 12.0853L12.2429 10.9743C12.0724 11.0336 11.8749 11.0809 11.6506 11.116C11.4262 11.1512 11.2095 11.1688 11.0006 11.1688C9.86596 11.1688 8.90283 10.8295 8.11116 10.1509C7.3195 9.47237 6.92366 8.64683 6.92366 7.67432C6.92366 7.50069 6.94418 7.3191 6.98521 7.12954C7.02625 6.93997 7.08137 6.76661 7.15059 6.60947L4.95444 4.75341Z" fill="white"/>
</svg>
