<svg width="18" height="15" viewBox="0 0 18 15" fill="none" xmlns="http://www.w3.org/2000/svg">
<path d="M11.9975 7.87345L10.9783 6.85424C11.0232 6.32111 10.8595 5.86224 10.4871 5.47763C10.1148 5.09302 9.66743 4.93384 9.145 5.00007L8.12579 3.98086C8.26571 3.93278 8.40966 3.89939 8.55765 3.8807C8.70563 3.862 8.85281 3.85265 8.99917 3.85265C9.87522 3.85265 10.6188 4.15821 11.2299 4.76932C11.841 5.38043 12.1466 6.12402 12.1466 7.00007C12.1466 7.14643 12.1386 7.29413 12.1225 7.44318C12.1065 7.5922 12.0648 7.73563 11.9975 7.87345ZM14.7524 10.6122L13.9575 9.8334C14.4575 9.44452 14.9124 9.01743 15.3221 8.55215C15.7318 8.08688 16.0756 7.56952 16.3533 7.00007C15.6728 5.59729 14.6693 4.4966 13.3429 3.69799C12.0165 2.89938 10.5686 2.50007 8.99917 2.50007C8.63954 2.50007 8.28922 2.52264 7.94821 2.56778C7.60718 2.61292 7.26306 2.68063 6.91583 2.7709L6.02804 1.88311C6.50239 1.70149 6.98747 1.57836 7.48329 1.51372C7.97911 1.44908 8.4844 1.41676 8.99917 1.41676C10.7481 1.41676 12.3651 1.85773 13.8501 2.73968C15.3351 3.62162 16.468 4.84336 17.2485 6.40488C17.3024 6.50894 17.3383 6.60784 17.3565 6.70159C17.3747 6.79534 17.3838 6.89484 17.3838 7.00007C17.3838 7.10531 17.3733 7.2048 17.3525 7.29855C17.3317 7.3923 17.3004 7.49206 17.2588 7.59782C16.9639 8.19718 16.6006 8.74499 16.169 9.24124C15.7374 9.7375 15.2652 10.1945 14.7524 10.6122ZM8.99917 12.5834C7.28657 12.5834 5.70645 12.1355 4.25881 11.2396C2.81116 10.3438 1.66269 9.14938 0.813396 7.65636C0.744951 7.55324 0.701653 7.44647 0.6835 7.33607C0.665333 7.22567 0.65625 7.11349 0.65625 6.99953C0.65625 6.88557 0.666667 6.77224 0.6875 6.65953C0.708333 6.54682 0.753472 6.44025 0.822917 6.33982C1.17442 5.70414 1.57583 5.11293 2.02715 4.56617C2.47847 4.01944 2.99693 3.52893 3.58254 3.09463L1.86779 1.38788C1.7524 1.27784 1.69204 1.15498 1.68671 1.0193C1.68136 0.883619 1.73905 0.755418 1.85977 0.634696C1.98049 0.513973 2.1095 0.453613 2.24679 0.453613C2.38407 0.453613 2.51307 0.513973 2.63379 0.634696L15.3645 13.3654C15.4799 13.4808 15.5376 13.6063 15.5376 13.742C15.5376 13.8777 15.4799 14.0032 15.3645 14.1186C15.2438 14.2394 15.1148 14.2997 14.9775 14.2997C14.8402 14.2997 14.7112 14.2394 14.5905 14.1186L12.387 11.9199C11.8483 12.1518 11.2953 12.3203 10.728 12.4255C10.1607 12.5308 9.58439 12.5834 8.99917 12.5834ZM4.35656 3.88947C3.78498 4.29438 3.26281 4.75219 2.79004 5.26288C2.31728 5.77356 1.9356 6.35263 1.645 7.00007C2.32556 8.40285 3.32903 9.50354 4.65542 10.3022C5.98181 11.1008 7.42972 11.5001 8.99917 11.5001C9.44329 11.5001 9.87965 11.4691 10.3082 11.4071C10.7368 11.3452 11.1568 11.2431 11.5681 11.101L10.3261 9.87505C10.1156 9.97654 9.89848 10.0473 9.67465 10.0874C9.45083 10.1275 9.22567 10.1475 8.99917 10.1475C8.12311 10.1475 7.37953 9.84193 6.76842 9.23082C6.15731 8.61971 5.85175 7.87613 5.85175 7.00007C5.85175 6.77357 5.88006 6.54841 5.93669 6.32459C5.99331 6.10076 6.05581 5.88361 6.12419 5.67313L4.35656 3.88947Z" fill="#202020"/>
</svg>
