<svg width="200" height="179" viewBox="0 0 200 179" fill="none" xmlns="http://www.w3.org/2000/svg">
<path d="M35.3291 159.98C71.2977 178.466 129.614 178.467 165.582 159.981C201.551 141.494 201.551 111.523 165.582 93.0367C129.614 74.5503 71.2973 74.5503 35.3287 93.0363C-0.639575 111.522 -0.639579 141.494 35.3291 159.98Z" fill="#F5F5F5"/>
<path d="M162.669 110.458C162.712 107.986 165.298 101.526 167.919 98.362C170.539 95.198 174.612 92.922 177.459 93.9518C180.111 94.9108 179.761 98.4053 176.484 100.668C173.207 102.93 168.291 105.759 166.798 109.742L163.726 114.609L162.669 110.458Z" fill="#FDB514"/>
<path opacity="0.1" d="M162.669 110.458C162.712 107.986 165.298 101.526 167.919 98.362C170.539 95.198 174.612 92.922 177.459 93.9518C180.111 94.9108 179.761 98.4053 176.484 100.668C173.207 102.93 168.291 105.759 166.798 109.742L163.726 114.609L162.669 110.458Z" fill="black"/>
<path d="M163.127 112.463C163.206 112.458 163.275 112.402 163.292 112.321C165.094 103.914 172.038 97.1761 176.149 95.7325C176.243 95.6995 176.292 95.5965 176.259 95.5022C176.227 95.4088 176.126 95.357 176.029 95.3917C171.84 96.8626 164.768 103.711 162.939 112.246C162.918 112.343 162.98 112.439 163.077 112.46C163.094 112.463 163.111 112.464 163.127 112.463Z" fill="white"/>
<path d="M164.308 117.885C164.729 116.503 166.466 114.24 169.243 112.395C172.316 110.353 176.174 109.457 177.088 107.842C178.187 105.902 176.568 104.022 173.443 104.355C170.317 104.687 164.761 108.847 163.772 115.237L164.308 117.885Z" fill="#FDB514"/>
<path d="M163.721 116.42C163.789 116.415 163.852 116.372 163.878 116.303C166.591 109.121 172.149 106.681 174.709 106.394C174.808 106.382 174.879 106.293 174.868 106.194C174.857 106.094 174.772 106.023 174.669 106.034C171.838 106.352 166.309 108.845 163.54 116.175C163.505 116.268 163.552 116.373 163.645 116.408C163.671 116.418 163.696 116.421 163.721 116.42Z" fill="white"/>
<path d="M41.9744 133.825L44.9852 132.105C44.9852 132.105 46.4291 124.147 45.3492 117.307C43.8308 107.689 37.2822 104.372 34.9039 105.328C32.5256 106.283 31.9667 109.133 36.2619 114.69C38.7962 117.969 42.0556 124.899 41.9744 133.825Z" fill="#FDB514"/>
<g opacity="0.1">
<path d="M41.9744 133.825L44.9852 132.105C44.9852 132.105 46.4291 124.147 45.3492 117.307C43.8308 107.689 37.2822 104.372 34.9039 105.328C32.5256 106.283 31.9667 109.133 36.2619 114.69C38.7962 117.969 42.0556 124.899 41.9744 133.825Z" fill="black"/>
</g>
<path d="M43.0599 130.005C43.0499 130.005 43.0404 130.004 43.03 130.003C42.9127 129.987 42.8303 129.879 42.8467 129.761C44.0909 120.757 40.4699 110.892 36.4015 106.917C36.3167 106.834 36.3151 106.698 36.3983 106.613C36.4814 106.529 36.6171 106.527 36.7018 106.61C40.8442 110.658 44.5344 120.684 43.2719 129.82C43.2576 129.927 43.1653 130.005 43.0599 130.005Z" fill="white"/>
<path d="M33.6213 138.652C33.1456 138.925 32.1651 138.327 31.7896 138.076C31.1468 137.644 30.6257 137.033 30.2796 136.343C29.8771 135.538 29.7756 134.677 29.9017 133.787C29.967 133.326 30.0962 132.876 30.2247 132.428C30.3512 131.989 30.4773 131.549 30.6038 131.109C30.7283 130.675 30.8544 130.227 30.7971 129.779C30.6818 128.877 29.881 128.245 29.1531 127.7C28.3484 127.098 27.5099 126.302 27.5147 125.216C27.5182 124.379 27.9522 123.6 28.4713 122.943C28.9904 122.285 29.6066 121.704 30.076 121.01C30.4137 120.51 30.6774 119.923 30.6225 119.322C30.5883 118.949 30.4336 118.598 30.255 118.268C29.8715 117.561 29.3655 116.913 29.101 116.154C28.8365 115.394 28.8743 114.45 29.467 113.906C29.9534 113.46 30.6766 113.398 31.3353 113.441C31.9447 113.481 32.5402 113.756 33.0732 114.053C34.7972 115.012 35.7813 117.054 37.6107 117.791C38.3163 118.075 39.0892 118.138 39.8247 118.332C40.5602 118.527 41.31 118.902 41.6509 119.583C42.3223 120.924 41.0761 122.577 41.5483 124.001C41.9659 125.261 43.1903 125.743 43.8776 126.878C44.1784 127.375 44.2476 127.949 44.199 128.528C44.1167 129.507 43.9735 130.226 43.5037 131.315C43.1155 132.215 41.9739 133.826 41.9739 133.826C41.946 133.854 33.6941 138.61 33.6213 138.652Z" fill="#FDB514"/>
<path d="M38.5012 136.047C38.4984 136.047 38.4953 136.047 38.4953 136.047C38.3735 136.042 38.282 135.942 38.2864 135.823C38.6412 127.301 34.6257 117.892 31.7056 115.158C31.6193 115.078 31.6145 114.942 31.6956 114.855C31.7768 114.769 31.9124 114.764 31.9991 114.845C34.9781 117.633 39.0752 127.198 38.716 135.841C38.7108 135.957 38.6154 136.047 38.5012 136.047Z" fill="white"/>
<path d="M37.2285 125.979C37.2074 125.979 37.1859 125.976 37.1653 125.969C34.4274 125.123 31.0144 124.974 30.9806 124.972C30.8621 124.967 30.7702 124.867 30.7746 124.749C30.7797 124.631 30.8692 124.537 30.9981 124.543C31.0331 124.545 34.4998 124.696 37.2918 125.56C37.4051 125.594 37.4688 125.715 37.4334 125.828C37.4051 125.92 37.3204 125.979 37.2285 125.979Z" fill="white"/>
<path d="M34.6658 135.486L78.0776 160.548C79.0287 161.097 80.5713 161.097 81.5224 160.548L163.714 113.084C164.666 112.535 164.666 111.645 163.714 111.095L120.302 86.0331C119.351 85.4838 117.808 85.4838 116.857 86.0331L34.6658 133.497C33.7143 134.046 33.7143 134.937 34.6658 135.486Z" fill="#37474F"/>
<path d="M58.1483 147.127C59.4697 147.89 61.6117 147.89 62.9332 147.127C64.2546 146.364 64.2546 145.128 62.9332 144.365C61.6117 143.602 59.4697 143.602 58.1483 144.365C56.8269 145.128 56.8269 146.365 58.1483 147.127Z" fill="#263238"/>
<path d="M78.0862 160.547L34.6743 135.485C33.8238 134.994 33.7359 134.231 34.4066 133.682C33.5836 134.306 32.9519 135.487 32.9519 136.479V138.099C32.9519 139.197 33.7232 140.533 34.6743 141.082L78.0862 166.144C78.5615 166.418 79.1852 166.556 79.8085 166.556V160.959C79.1852 160.959 78.5615 160.822 78.0862 160.547Z" fill="#455A64"/>
<path d="M163.726 118.68C164.677 118.131 165.448 116.796 165.448 115.697V114.078C165.448 113.085 164.815 111.903 163.992 111.279C164.664 111.828 164.578 112.592 163.726 113.084L81.5339 160.547C81.0582 160.821 80.4348 160.959 79.8115 160.959V166.556C80.4348 166.556 81.0582 166.419 81.5339 166.144L163.726 118.68Z" fill="#263238"/>
<path d="M85.255 155.355L44.2767 131.696C43.7059 131.366 43.7059 130.832 44.2767 130.503L111.669 91.5696C112.24 91.2399 113.165 91.2399 113.736 91.5692L154.729 115.225C155.299 115.555 155.299 116.089 154.729 116.418L87.3215 155.355C86.7515 155.685 85.8258 155.685 85.255 155.355Z" fill="#FAFAFA"/>
<path d="M74.5825 123.518L98.8195 137.511L83.5226 146.343C83.0488 146.617 82.2739 146.617 81.8002 146.343L59.286 133.344C58.8122 133.07 58.8122 132.623 59.286 132.349L74.5825 123.518Z" fill="#E6E6E6"/>
<path d="M98.8231 137.509L95.9667 126.155C95.8986 125.886 95.7519 125.64 95.5367 125.464C95.5351 125.462 95.5335 125.461 95.5319 125.46C95.3139 125.277 95.0482 125.16 94.7642 125.138L74.5869 123.516L98.8231 137.509Z" fill="#E0E0E0"/>
<path d="M98.8235 137.509L77.1327 136.614C76.5957 136.595 76.1542 136.185 76.0905 135.652L74.5869 123.516L98.8235 137.509Z" fill="#E0E0E0"/>
<path d="M98.8274 137.509L77.1366 136.614C76.5996 136.595 76.1581 136.185 76.0944 135.652L74.5908 123.516L77.2679 135.441C77.3156 135.656 77.5026 135.815 77.7253 135.835L98.8274 137.509Z" fill="#FAFAFA"/>
<path d="M79.4404 136.576L82.672 146.838L83.5332 146.341L79.4404 136.576Z" fill="#FAFAFA"/>
<path d="M58.4248 132.847L59.2864 132.35L76.1987 134.713L58.4248 132.847Z" fill="#FAFAFA"/>
<path d="M88.3653 118.419L107.648 129.552C108.124 129.827 108.895 129.827 109.371 129.552L136.733 113.755C137.209 113.48 137.209 113.035 136.733 112.76L117.451 101.628C116.975 101.353 116.204 101.353 115.728 101.628L88.3657 117.425C87.8896 117.7 87.8896 118.145 88.3653 118.419Z" fill="#E6E6E6"/>
<path d="M103.698 116.95C103.225 116.141 103.167 115.333 103.526 114.526C103.885 113.719 104.664 112.97 105.861 112.279C107.229 111.49 108.651 110.988 110.128 110.775C111.605 110.562 113.077 110.614 114.545 110.931C116.011 111.248 117.429 111.8 118.796 112.59C120.074 113.327 120.944 114.087 121.408 114.868C121.873 115.649 121.93 116.411 121.581 117.154C121.231 117.897 120.498 118.592 119.38 119.237C118.193 119.923 117.022 120.304 115.87 120.382C114.717 120.46 113.722 120.257 112.884 119.773C112.474 119.536 112.242 119.282 112.187 119.008C112.132 118.734 112.229 118.473 112.479 118.226C111.83 118.277 111.191 118.234 110.562 118.096C109.934 117.958 109.35 117.733 108.811 117.422C107.893 116.881 107.413 116.304 107.374 115.693C107.334 115.082 107.773 114.512 108.691 113.982C109.829 113.325 111.052 113.011 112.359 113.04C113.667 113.068 114.909 113.423 116.087 114.103C116.596 114.397 117.007 114.735 117.322 115.119C117.637 115.502 117.809 115.863 117.839 116.203L114.246 118.278C113.956 118.445 113.799 118.594 113.774 118.723C113.749 118.853 113.852 118.983 114.081 119.116C114.47 119.341 114.997 119.386 115.66 119.25C116.324 119.115 117.06 118.814 117.868 118.347C118.767 117.828 119.335 117.275 119.575 116.687C119.815 116.099 119.752 115.516 119.388 114.937C119.024 114.358 118.402 113.815 117.524 113.307C115.917 112.38 114.243 111.883 112.501 111.817C110.76 111.751 109.056 112.198 107.389 113.161C106.41 113.726 105.782 114.322 105.503 114.95C105.223 115.578 105.265 116.193 105.63 116.795C105.994 117.398 106.625 117.958 107.523 118.477C108.013 118.759 108.544 118.997 109.118 119.19C109.692 119.383 110.228 119.502 110.728 119.548C110.807 119.56 110.862 119.574 110.892 119.591C110.922 119.609 110.922 119.643 110.892 119.695L110.368 120.43C110.328 120.476 110.304 120.502 110.294 120.508C110.244 120.536 110.164 120.542 110.054 120.525C109.445 120.45 108.804 120.299 108.13 120.071C107.457 119.843 106.83 119.563 106.251 119.228C105.023 118.519 104.173 117.76 103.698 116.95ZM111.992 117.296C112.615 117.351 113.147 117.251 113.586 116.998L115.668 115.796C115.508 115.462 115.159 115.14 114.619 114.828C113.941 114.436 113.212 114.235 112.434 114.223C111.655 114.212 110.927 114.401 110.248 114.794C109.669 115.128 109.387 115.457 109.402 115.783C109.417 116.108 109.729 116.447 110.338 116.798C110.817 117.076 111.368 117.242 111.992 117.296Z" fill="#FAFAFA"/>
<path d="M138.679 100.597C138.971 100.766 139.443 100.765 139.735 100.597C140.026 100.429 140.026 100.155 139.735 99.9875C139.443 99.8193 138.971 99.8193 138.679 99.9875C138.387 100.155 138.387 100.429 138.679 100.597Z" fill="#263238"/>
<path d="M140.354 105.386C140.937 105.723 141.883 105.723 142.466 105.386C143.049 105.049 143.049 104.503 142.466 104.167C141.883 103.83 140.937 103.83 140.354 104.167C139.771 104.503 139.771 105.049 140.354 105.386Z" fill="#263238"/>
<path d="M138.877 103.266C139.266 103.042 139.245 102.666 138.83 102.427L131.884 98.4163C131.47 98.1768 130.818 98.1649 130.43 98.3892C130.041 98.614 130.062 98.9899 130.476 99.2289L137.423 103.239C137.837 103.479 138.489 103.491 138.877 103.266Z" fill="#263238"/>
<path d="M48.8447 52.6714C48.8447 51.887 49.3956 50.9327 50.0751 50.5405L113.014 14.2024C113.694 13.8102 114.795 13.8102 115.475 14.2024L116.862 15.0031C117.541 15.3953 118.092 16.3496 118.092 17.134V65.378C118.092 66.1593 117.538 67.1183 116.862 67.5089L53.9224 103.847C53.2457 104.237 52.1383 104.237 51.4617 103.847L50.0751 103.046C49.3984 102.656 48.8447 101.697 48.8447 100.915V52.6714Z" fill="#FDB514"/>
<path opacity="0.4" d="M49.2158 51.4617L52.7079 53.4756L117.743 15.9238C117.521 15.5396 117.213 15.2022 116.875 15.0041L115.484 14.207C114.809 13.8112 113.704 13.8112 113.028 14.207L50.0889 50.5424C49.7457 50.7397 49.437 51.0774 49.2158 51.4617Z" fill="white"/>
<path opacity="0.1" d="M48.8545 52.6718V100.915C48.8545 101.701 49.4074 102.655 50.0884 103.045L51.4735 103.848C51.5781 103.906 51.6887 103.959 51.8112 103.999C51.9683 104.052 52.137 104.092 52.3175 104.116C52.6378 104.157 52.9751 104.145 53.2897 104.081C53.3713 104.063 53.4528 104.04 53.5284 104.017C53.5809 103.999 53.6274 103.982 53.674 103.959C53.4472 104.04 53.2491 104.029 53.0861 103.947C52.8534 103.825 52.7078 103.546 52.7078 103.138V54.895C52.7078 54.3886 52.9639 54.0043 53.3478 53.8472L52.7078 53.4749L49.2157 51.4609C48.9941 51.8452 48.8545 52.282 48.8545 52.6718Z" fill="black"/>
<path opacity="0.2" d="M52.7065 53.4765L81.854 64.366C83.9316 65.1401 86.2658 64.372 87.4762 62.5151L92.1568 55.3444L117.974 15.791L93.09 55.6137L118.102 65.4022C118.096 65.798 117.951 66.2403 117.718 66.6302L93.02 55.7255L87.5808 64.4301C86.3294 66.4265 83.8035 67.2061 81.6499 66.2519L77.7772 64.5426L53.0843 103.949C52.8516 103.827 52.7061 103.547 52.7061 103.14V102.337L77.6563 64.4893L52.7065 53.4765Z" fill="black"/>
<path d="M59.9289 42.2151L55.6282 39.7341C55.627 39.7333 55.6246 39.7321 55.623 39.7313L55.5836 39.7087L55.5796 39.715C53.6703 38.637 51.0501 38.7997 48.1523 40.4724C42.3169 43.842 37.585 52.0366 37.585 58.7757C37.585 62.1397 38.7652 64.5037 40.6705 65.61V65.6116L40.6793 65.6163C40.6793 65.6163 40.6805 65.6167 40.6805 65.6175L44.5938 67.8518L45.5286 66.2882C46.494 66.0662 47.4988 65.7217 48.5592 65.1092C54.3946 61.7396 59.1266 53.545 59.1278 46.8058C59.1278 45.805 58.993 44.9239 58.7965 44.1065L59.9289 42.2151Z" fill="#37474F"/>
<path d="M52.2312 42.8163C46.3946 46.1859 41.6631 54.3805 41.6631 61.1197C41.6631 67.8588 46.3943 70.5904 52.2304 67.2208C58.0666 63.8512 62.7982 55.6566 62.7986 48.9175C62.799 42.1783 58.0678 39.4468 52.2312 42.8163Z" fill="#455A64"/>
<path d="M48.9409 55.8206C48.8708 55.757 48.8434 55.6579 48.8585 55.5219C48.8736 55.3859 48.9261 55.2518 49.016 55.1189L52.2726 50.2756C52.353 50.1599 52.4353 50.0461 52.5209 49.9335C52.6052 49.8213 52.6983 49.7358 52.7981 49.6781L53.9688 49.0023C54.079 48.9391 54.1736 48.9303 54.254 48.9761C54.3339 49.0226 54.3737 49.1093 54.3737 49.2362V60.4301C54.3737 60.5574 54.3335 60.6902 54.254 60.8287C54.1736 60.9675 54.079 61.0681 53.9688 61.1318L52.7532 61.8334C52.643 61.8971 52.5479 61.9058 52.4676 61.8597C52.3876 61.8135 52.3478 61.7264 52.3478 61.5995V53.0394L50.2169 56.1933C50.1266 56.3258 50.0292 56.4141 49.9246 56.4571C49.8192 56.5004 49.7265 56.4937 49.6469 56.4356L48.9409 55.8206Z" fill="#FAFAFA"/>
<path d="M146.409 94.4027V93.6907H146.585C146.789 93.2762 147.173 92.8848 147.738 92.5586C149.511 91.5351 152.385 91.5351 154.158 92.5586C154.723 92.8852 155.107 93.2762 155.311 93.6907H155.485V94.3801C155.499 95.0614 155.058 95.7452 154.158 96.2651C152.385 97.2886 149.51 97.2886 147.737 96.2651C146.848 95.7508 146.405 95.0766 146.409 94.4027Z" fill="#263238"/>
<path d="M154.159 91.836C152.386 90.8125 149.512 90.8125 147.739 91.836C145.966 92.8595 145.966 94.519 147.739 95.5425C149.512 96.5659 152.386 96.5659 154.159 95.5425C155.932 94.519 155.932 92.8595 154.159 91.836Z" fill="#455A64"/>
<path d="M152.11 66.4141L152.109 93.377C152.109 93.5497 151.995 93.7223 151.767 93.854C151.311 94.1173 150.571 94.1173 150.115 93.854C149.887 93.7223 149.772 93.5497 149.772 93.377L149.773 66.4141H152.11Z" fill="#37474F"/>
<path d="M149.772 69.3633V70.2082L152.11 71.5542V70.7153L149.772 69.3633Z" fill="#263238"/>
<path d="M164.686 59.2885V59.2893L164.487 59.6883L162.348 63.9787L161.333 66.0157L157.896 72.9084L157.517 73.6682C157.495 73.6702 157.472 73.671 157.45 73.671C157.31 73.671 157.17 73.6399 157.065 73.5783L141.748 64.7253C141.535 64.6024 141.362 64.3033 141.362 64.0575V58.1497C141.362 55.1982 143.306 51.6834 145.704 50.2983C146.84 49.642 147.873 49.5883 148.647 50.0231L148.65 50.0167L164.686 59.2885Z" fill="#455A64"/>
<path d="M161.777 59.5977C160.808 59.9568 157.286 62.8658 157.286 67.4466C157.286 71.2971 157.291 73.2963 157.291 73.6559C157.338 73.6631 157.386 73.6682 157.434 73.6682C157.456 73.6682 157.478 73.6675 157.501 73.6655L157.879 72.9057L161.316 66.013L162.332 63.976L162.564 63.5094L161.777 59.5977Z" fill="#37474F"/>
<path d="M165.946 68.8307C165.946 68.8314 165.946 68.8326 165.945 68.8326C165.917 68.8836 165.863 68.9377 165.786 68.9866C165.773 68.9953 165.76 69.0033 165.746 69.0116L157.836 73.5789C157.747 73.6306 157.634 73.6609 157.517 73.6688C157.495 73.6708 157.472 73.6716 157.45 73.6716V67.4496C157.45 66.3879 157.703 65.255 158.138 64.1719L158.528 64.397L161.333 66.0164L165.687 68.5315C165.687 68.5315 165.787 68.5896 165.91 68.6596C165.976 68.6982 165.985 68.7614 165.946 68.8307Z" fill="#37474F"/>
<path d="M164.687 59.2888C163.919 58.8863 162.905 58.9567 161.793 59.5995C160.545 60.3175 159.42 61.6158 158.629 63.1095C158.447 63.4544 158.282 63.8096 158.138 64.1704C157.703 65.2535 157.45 66.3864 157.45 67.4481V73.6701C157.472 73.6701 157.495 73.6693 157.517 73.6673C157.633 73.6594 157.747 73.6291 157.836 73.5774L165.746 69.0101C165.76 69.0022 165.773 68.9942 165.786 68.9851C165.844 68.9449 165.898 68.8916 165.945 68.8311C165.946 68.8311 165.946 68.8303 165.946 68.8291C166.058 68.6875 166.132 68.503 166.132 68.3419V62.4349C166.132 60.8545 165.574 59.7546 164.687 59.2888ZM165.571 68.5972L158.011 72.9625C157.947 72.9994 157.895 72.9696 157.895 72.8956V67.4485C157.895 66.499 158.115 65.4452 158.528 64.3963C158.535 64.3768 158.543 64.3561 158.551 64.3366C158.706 63.9492 158.882 63.5741 159.078 63.2153C159.846 61.7956 160.896 60.6297 162.016 59.9857C162.591 59.6528 163.136 59.4841 163.635 59.4841C163.95 59.4841 164.236 59.5546 164.487 59.6882C165.244 60.0916 165.687 61.0697 165.687 62.4361V68.3972C165.687 68.4707 165.635 68.5602 165.571 68.5972Z" fill="#455A64"/>
<path d="M165.691 62.4343V68.5291L158.532 64.3946C158.539 64.3751 158.547 64.3544 158.555 64.3349C159.323 62.4172 160.617 60.7911 162.02 59.984C162.596 59.6511 163.14 59.4824 163.639 59.4824C164.905 59.4828 165.691 60.6137 165.691 62.4343Z" fill="#263238"/>
<path d="M152.579 65.4723L153.209 65.1087L153.209 65.1083L153.214 65.1055L153.214 65.1063C153.43 64.9846 153.726 65.0029 154.053 65.1918C154.712 65.5725 155.247 66.4981 155.247 67.2595C155.247 67.6394 155.114 67.9067 154.898 68.0316L154.897 68.0324L154.311 68.3681L154.205 68.1915C154.096 68.1664 153.983 68.1274 153.863 68.0582C153.204 67.6775 152.669 66.7519 152.669 65.9906C152.669 65.8776 152.684 65.7778 152.706 65.6855L152.579 65.4723Z" fill="#E0E0E0"/>
<path d="M153.449 65.54C154.109 65.9207 154.643 66.8463 154.643 67.6076C154.643 68.369 154.108 68.6777 153.449 68.297C152.79 67.9163 152.255 66.9907 152.255 66.2293C152.255 65.468 152.79 65.1593 153.449 65.54Z" fill="#FAFAFA"/>
<path d="M153.453 67.2454C153.261 67.2454 153.106 67.0903 153.106 66.8994V57.1136C153.106 56.9223 153.262 56.7676 153.453 56.7676C153.644 56.7676 153.799 56.9227 153.799 57.1136V66.8994C153.799 67.0907 153.643 67.2454 153.453 67.2454Z" fill="#EBEBEB"/>
<path d="M153.105 58.0801L149.637 56.0781L150.723 58.1669L149.637 59.0026L153.105 61.0046V58.0801Z" fill="#FDB514"/>
<mask id="mask0_102_41080" style="mask-type:luminance" maskUnits="userSpaceOnUse" x="157" y="59" width="9" height="15">
<path d="M165.674 62.4359C165.674 60.6153 164.887 59.4844 163.622 59.4844C163.123 59.4844 162.578 59.6526 162.002 59.986C160.6 60.7927 159.305 62.4192 158.538 64.3369C158.53 64.3564 158.522 64.377 158.515 64.3965L158.514 64.3973C158.101 65.4475 157.882 66.4976 157.882 67.4483V73.9619L165.674 69.465V62.4359Z" fill="white"/>
</mask>
<g mask="url(#mask0_102_41080)">
<path d="M163.856 64.4315C163.856 64.3336 163.787 64.2147 163.703 64.1662L155.86 59.6383C155.775 59.5893 155.638 59.5893 155.553 59.6383L155.381 59.7381C155.296 59.787 155.228 59.906 155.228 60.0038V66.0154C155.228 66.1129 155.296 66.2322 155.381 66.2808L163.223 70.8087C163.308 70.8572 163.446 70.8572 163.53 70.8087L163.703 70.7088C163.787 70.6603 163.856 70.5406 163.856 70.4435V64.4315Z" fill="#F0F0F0"/>
<path d="M163.821 64.2806L163.386 64.5316L155.282 59.8526C155.31 59.8048 155.348 59.7627 155.39 59.738L155.564 59.6386C155.648 59.5892 155.786 59.5892 155.87 59.6386L163.712 64.1661C163.755 64.1907 163.794 64.2329 163.821 64.2806Z" fill="#FAFAFA"/>
<path d="M163.868 64.4324V70.444C163.868 70.5419 163.799 70.6608 163.714 70.7093L163.541 70.8096C163.528 70.8167 163.514 70.8235 163.499 70.8283C163.48 70.8346 163.459 70.8398 163.436 70.8426C163.396 70.8478 163.354 70.8462 163.315 70.8382C163.304 70.8362 163.294 70.833 163.285 70.8303C163.279 70.8283 163.273 70.8259 163.267 70.8231C163.295 70.8334 163.32 70.8319 163.34 70.8215C163.369 70.8064 163.387 70.7714 163.387 70.7209V64.7093C163.387 64.646 163.355 64.5983 163.307 64.5788L163.387 64.5322L163.822 64.2812C163.851 64.3294 163.868 64.3839 163.868 64.4324Z" fill="#E0E0E0"/>
<path d="M163.388 64.5337L159.756 65.8905C159.497 65.9867 159.206 65.8913 159.055 65.6598L158.472 64.7664L155.255 59.8379L158.356 64.8002L155.239 66.0198C155.24 66.0691 155.258 66.124 155.287 66.1729L158.365 64.8141L159.042 65.8988C159.198 66.1474 159.513 66.2449 159.781 66.126L160.264 65.9132L163.341 70.8233C163.37 70.8082 163.388 70.7732 163.388 70.7227V70.6224L160.279 65.9064L163.388 64.5337Z" fill="#E0E0E0"/>
</g>
<path d="M170.9 63.4498L170.069 64.1419C169.894 64.4045 169.663 64.7068 169.357 65.0568L166.97 67.8134L166.127 68.788L160.701 71.9225L158.108 74.0745C158.1 74.0784 158.092 74.0784 158.084 74.0784C158.008 74.0904 157.921 74.0784 157.857 74.0426L157.614 73.9034C157.614 73.9034 157.61 73.9034 157.61 73.8994C157.523 73.8437 157.503 73.7363 157.571 73.6568C157.575 73.6568 157.575 73.6528 157.575 73.6528L159.468 71.465L159.472 71.4611C159.846 71.0315 160.252 70.5621 160.677 70.0728C162.459 68.0083 165.852 65.216 168.247 63.8317C169.369 63.1873 170.069 62.9645 170.319 63.1197L170.323 63.1157L170.892 63.4458C170.892 63.4498 170.896 63.4498 170.9 63.4498Z" fill="#455A64"/>
<path d="M169.923 65.3991L168.348 67.2169C168.34 67.2249 168.332 67.2408 168.316 67.2567L166.821 68.9791C166.749 69.0626 166.614 69.174 166.518 69.2297L158.181 74.0428C158.153 74.0587 158.121 74.0706 158.089 74.0746C158.081 74.0786 158.073 74.0786 158.065 74.0786C158.332 73.7683 159.565 72.3443 161.073 70.606H161.077C161.128 70.5423 161.188 70.4787 161.244 70.4111C163.026 68.3506 166.419 65.5582 168.813 64.1739C169.907 63.5414 170.607 63.3147 170.874 63.446C170.874 63.4499 170.878 63.4499 170.882 63.4499C171.184 63.617 170.886 64.2893 169.923 65.3991Z" fill="#37474F"/>
</svg>
