<svg width="18" height="17" viewBox="0 0 18 17" fill="none" xmlns="http://www.w3.org/2000/svg">
<path d="M16.9424 15.5575L13.0306 11.6466C14.1644 10.2854 14.7298 8.53953 14.6091 6.77214C14.4884 5.00475 13.691 3.35192 12.3828 2.15748C11.0745 0.96304 9.35615 0.318951 7.5851 0.359201C5.81406 0.399451 4.12671 1.12094 2.87407 2.37358C1.62143 3.62622 0.899939 5.31357 0.859689 7.08462C0.819439 8.85566 1.46353 10.574 2.65797 11.8823C3.85241 13.1906 5.50524 13.988 7.27263 14.1086C9.04002 14.2293 10.7859 13.6639 12.1471 12.5302L16.058 16.4419C16.1161 16.4999 16.185 16.546 16.2609 16.5774C16.3367 16.6089 16.4181 16.625 16.5002 16.625C16.5823 16.625 16.6636 16.6089 16.7395 16.5774C16.8154 16.546 16.8843 16.4999 16.9424 16.4419C17.0004 16.3838 17.0465 16.3149 17.0779 16.239C17.1094 16.1631 17.1255 16.0818 17.1255 15.9997C17.1255 15.9176 17.1094 15.8363 17.0779 15.7604C17.0465 15.6845 17.0004 15.6156 16.9424 15.5575ZM2.12518 7.24969C2.12518 6.13717 2.45508 5.04963 3.07316 4.12461C3.69124 3.19958 4.56975 2.47861 5.59758 2.05287C6.62542 1.62712 7.75642 1.51573 8.84756 1.73277C9.9387 1.94981 10.941 2.48554 11.7277 3.27221C12.5143 4.05888 13.0501 5.06116 13.2671 6.15231C13.4841 7.24345 13.3727 8.37445 12.947 9.40228C12.5213 10.4301 11.8003 11.3086 10.8753 11.9267C9.95023 12.5448 8.8627 12.8747 7.75018 12.8747C6.25884 12.873 4.82906 12.2799 3.77453 11.2253C2.72 10.1708 2.12683 8.74102 2.12518 7.24969Z" fill="white"/>
</svg>
