<svg width="2" height="10" viewBox="0 0 2 10" fill="none" xmlns="http://www.w3.org/2000/svg">
<path d="M0.999983 9.84556C0.724994 9.84556 0.489583 9.74764 0.29375 9.55182C0.0979167 9.35599 0 9.12058 0 8.84559C0 8.57059 0.0979167 8.33518 0.29375 8.13935C0.489583 7.94352 0.724994 7.8456 0.999983 7.8456C1.27497 7.8456 1.51038 7.94352 1.70622 8.13935C1.90205 8.33518 1.99997 8.57059 1.99997 8.84559C1.99997 9.12058 1.90205 9.35599 1.70622 9.55182C1.51038 9.74764 1.27497 9.84556 0.999983 9.84556ZM0.999983 5.99942C0.724994 5.99942 0.489583 5.9015 0.29375 5.70567C0.0979167 5.50984 0 5.27443 0 4.99944C0 4.72445 0.0979167 4.48904 0.29375 4.2932C0.489583 4.09737 0.724994 3.99945 0.999983 3.99945C1.27497 3.99945 1.51038 4.09737 1.70622 4.2932C1.90205 4.48904 1.99997 4.72445 1.99997 4.99944C1.99997 5.27443 1.90205 5.50984 1.70622 5.70567C1.51038 5.9015 1.27497 5.99942 0.999983 5.99942ZM0.999983 2.15327C0.724994 2.15327 0.489583 2.05535 0.29375 1.85952C0.0979167 1.6637 0 1.42829 0 1.15329C0 0.878299 0.0979167 0.642887 0.29375 0.447054C0.489583 0.251232 0.724994 0.15332 0.999983 0.15332C1.27497 0.15332 1.51038 0.251232 1.70622 0.447054C1.90205 0.642887 1.99997 0.878299 1.99997 1.15329C1.99997 1.42829 1.90205 1.6637 1.70622 1.85952C1.51038 2.05535 1.27497 2.15327 0.999983 2.15327Z" fill="white"/>
</svg>
