<svg width="18" height="20" viewBox="0 0 18 20" fill="none" xmlns="http://www.w3.org/2000/svg">
<path d="M7.8928 19.5C7.55176 19.5 7.25721 19.3868 7.00915 19.1605C6.76108 18.9342 6.61012 18.6557 6.55627 18.325L6.31205 16.4538C6.0441 16.3641 5.76942 16.2384 5.488 16.0769C5.20658 15.9153 4.95497 15.7422 4.73317 15.5576L3.00047 16.2942C2.68637 16.4326 2.37067 16.4461 2.05337 16.3346C1.73607 16.223 1.48961 16.0205 1.31397 15.7269L0.187048 13.773C0.0114145 13.4794 -0.0392271 13.1689 0.0351229 12.8413C0.10949 12.5138 0.279998 12.2436 0.546648 12.0308L2.04475 10.9058C2.02166 10.757 2.00531 10.6077 1.9957 10.4577C1.98608 10.3077 1.98127 10.1583 1.98127 10.0096C1.98127 9.86728 1.98608 9.72273 1.9957 9.57593C2.00531 9.42913 2.02166 9.26855 2.04475 9.0942L0.546648 7.96918C0.279998 7.75636 0.11109 7.48458 0.0399229 7.15383C-0.0312271 6.82306 0.0210228 6.51088 0.196673 6.2173L1.31397 4.2923C1.48961 4.00513 1.73607 3.80418 2.05337 3.68943C2.37067 3.57469 2.68637 3.58655 3.00047 3.725L4.72355 4.45195C4.96458 4.26092 5.22196 4.08623 5.49567 3.9279C5.76941 3.76955 6.03832 3.6423 6.30242 3.54615L6.55627 1.67498C6.61012 1.34423 6.76108 1.06571 7.00915 0.839426C7.25721 0.613142 7.55176 0.5 7.8928 0.5H10.1081C10.4492 0.5 10.7437 0.613142 10.9918 0.839426C11.2399 1.06571 11.3908 1.34423 11.4447 1.67498L11.6889 3.55578C11.9889 3.66474 12.2604 3.79198 12.5033 3.9375C12.7463 4.08302 12.9915 4.2545 13.2389 4.45195L15.0101 3.725C15.3242 3.58655 15.6399 3.57469 15.9572 3.68943C16.2745 3.80418 16.521 4.00513 16.6966 4.2923L17.8139 6.22693C17.9895 6.52051 18.0402 6.83108 17.9658 7.15863C17.8915 7.48618 17.7209 7.75636 17.4543 7.96918L15.9177 9.12303C15.9536 9.28458 15.9732 9.43554 15.9764 9.57593C15.9796 9.71631 15.9812 9.85766 15.9812 9.99998C15.9812 10.1359 15.978 10.274 15.9716 10.4144C15.9652 10.5548 15.9421 10.7154 15.9023 10.8962L17.4101 12.0308C17.6767 12.2436 17.8488 12.5138 17.9264 12.8413C18.004 13.1689 17.9549 13.4794 17.7793 13.773L16.6466 15.7173C16.471 16.0108 16.2229 16.2134 15.9024 16.325C15.5819 16.4365 15.2646 16.423 14.9505 16.2846L13.2389 15.548C12.9915 15.7455 12.7389 15.9201 12.4812 16.0721C12.2235 16.224 11.9594 16.348 11.6889 16.4442L11.4447 18.325C11.3908 18.6557 11.2399 18.9342 10.9918 19.1605C10.7437 19.3868 10.4492 19.5 10.1081 19.5H7.8928ZM8.00047 18H9.96585L10.3255 15.3211C10.8357 15.1878 11.3021 14.9984 11.7245 14.7529C12.1469 14.5074 12.5543 14.1917 12.9466 13.8058L15.4312 14.85L16.4158 13.15L14.2466 11.5154C14.33 11.2564 14.3867 11.0025 14.4168 10.7538C14.4469 10.5051 14.462 10.2538 14.462 9.99998C14.462 9.73973 14.4469 9.48844 14.4168 9.24613C14.3867 9.00383 14.33 8.75639 14.2466 8.50383L16.4351 6.84998L15.4505 5.14998L12.937 6.2096C12.6024 5.8519 12.2014 5.53588 11.7341 5.26153C11.2668 4.98716 10.794 4.79293 10.3158 4.67883L10.0005 1.99998H8.01585L7.6851 4.6692C7.17483 4.78972 6.70367 4.97433 6.27162 5.22305C5.83957 5.47177 5.4274 5.79228 5.0351 6.1846L2.55047 5.14998L1.56585 6.84998L3.72547 8.4596C3.64214 8.69677 3.58381 8.94356 3.55047 9.19998C3.51714 9.45639 3.50047 9.72627 3.50047 10.0096C3.50047 10.2699 3.51714 10.525 3.55047 10.775C3.58381 11.025 3.63893 11.2718 3.71585 11.5154L1.56585 13.15L2.55047 14.85L5.02547 13.8C5.40496 14.1897 5.81072 14.509 6.24277 14.7577C6.67482 15.0064 7.15239 15.1974 7.67547 15.3308L8.00047 18ZM9.012 13C9.84405 13 10.5521 12.708 11.136 12.124C11.72 11.54 12.012 10.832 12.012 9.99998C12.012 9.16794 11.72 8.45993 11.136 7.87595C10.5521 7.29198 9.84405 7 9.012 7C8.16971 7 7.45915 7.29198 6.8803 7.87595C6.30147 8.45993 6.01205 9.16794 6.01205 9.99998C6.01205 10.832 6.30147 11.54 6.8803 12.124C7.45915 12.708 8.16971 13 9.012 13Z" fill="white"/>
</svg>
