<svg width="16" height="17" viewBox="0 0 16 17" fill="none" xmlns="http://www.w3.org/2000/svg">
<path d="M13.0011 16.625C12.3648 16.625 11.8236 16.4022 11.3776 15.9566C10.9315 15.511 10.7085 14.9699 10.7085 14.3333C10.7085 14.2293 10.7168 14.1215 10.7333 14.0101C10.7499 13.8986 10.7747 13.7959 10.8079 13.7019L4.64437 10.0929C4.42429 10.3119 4.17375 10.4831 3.89277 10.6065C3.61178 10.7299 3.31424 10.7916 3.00014 10.7916C2.36357 10.7916 1.82249 10.5689 1.37689 10.1235C0.931295 9.67808 0.708496 9.13722 0.708496 8.50092C0.708496 7.86461 0.931295 7.32344 1.37689 6.8774C1.82249 6.43136 2.36357 6.20833 3.00014 6.20833C3.31424 6.20833 3.61178 6.27003 3.89277 6.39342C4.17375 6.51682 4.42429 6.68803 4.64437 6.90704L10.8079 3.29806C10.7747 3.20405 10.7499 3.10131 10.7333 2.98985C10.7168 2.87841 10.7085 2.77067 10.7085 2.66665C10.7085 2.03008 10.9312 1.48899 11.3766 1.0434C11.822 0.597799 12.3629 0.375 12.9992 0.375C13.6355 0.375 14.1767 0.597708 14.6227 1.04313C15.0688 1.48854 15.2918 2.0294 15.2918 2.66571C15.2918 3.30201 15.069 3.84319 14.6234 4.28923C14.1778 4.73527 13.6367 4.95829 13.0001 4.95829C12.686 4.95829 12.3885 4.8966 12.1075 4.77321C11.8265 4.64981 11.576 4.4786 11.3559 4.25958L5.19243 7.86856C5.22556 7.96258 5.2504 8.06513 5.26695 8.17621C5.28351 8.28728 5.29179 8.39465 5.29179 8.49831C5.29179 8.60199 5.28351 8.70992 5.26695 8.8221C5.2504 8.93429 5.22556 9.03738 5.19243 9.1314L11.3559 12.7404C11.576 12.5214 11.8265 12.3502 12.1075 12.2268C12.3885 12.1034 12.686 12.0417 13.0001 12.0417C13.6367 12.0417 14.1778 12.2644 14.6234 12.7098C15.069 13.1552 15.2918 13.6961 15.2918 14.3324C15.2918 14.9687 15.0691 15.5099 14.6237 15.9559C14.1782 16.4019 13.6374 16.625 13.0011 16.625Z" fill="#202020"/>
</svg>
