<svg width="400" height="267" viewBox="0 0 400 267" fill="none" xmlns="http://www.w3.org/2000/svg">
<path d="M322.156 37.1644L325.295 32.1025L323.745 31.142C323.289 30.8593 323.042 30.3441 323.088 29.8097C323.113 29.5143 323.123 29.2172 323.116 28.9191C323.105 28.3841 323.384 27.8865 323.855 27.6337L325.462 26.7719L322.646 21.5212L321.04 22.3831C320.569 22.6359 319.999 22.5932 319.561 22.2876C319.316 22.1175 319.063 21.9607 318.803 21.8183C318.333 21.5607 318.04 21.0695 318.057 20.534L318.115 18.7111L312.161 18.526L312.106 20.3553C312.09 20.8919 311.761 21.3585 311.276 21.5879C311.144 21.6503 311.013 21.7159 310.884 21.7852C310.755 21.8545 310.628 21.9271 310.503 22.0023C310.046 22.2785 309.478 22.2945 309.025 22.0135L307.463 21.046L304.323 26.1079L305.876 27.0716C306.332 27.3548 306.579 27.8705 306.532 28.4049C306.507 28.6993 306.497 28.9953 306.503 29.2919C306.514 29.8263 306.235 30.3233 305.764 30.5756L304.156 31.4375L306.972 36.6881L308.58 35.8263C309.051 35.5735 309.619 35.6161 310.058 35.9207C310.302 36.0897 310.554 36.2455 310.813 36.3868C311.284 36.6439 311.578 37.1351 311.561 37.6711L311.505 39.4977L317.458 39.6828L317.515 37.8551C317.532 37.3207 317.86 36.8556 318.343 36.6273C318.475 36.5649 318.607 36.4983 318.738 36.4284C318.867 36.3591 318.994 36.2865 319.119 36.2113C319.579 35.934 320.149 35.918 320.605 36.2012L322.156 37.1644ZM317.115 33.4055C314.741 34.6791 311.786 33.7868 310.513 31.4124C309.239 29.038 310.129 26.0791 312.503 24.8055C314.877 23.5319 317.838 24.4257 319.112 26.8001C320.386 29.1751 319.49 32.1319 317.115 33.4055Z" fill="#EBEBEB"/>
<path d="M67.729 177.487L65.6437 173.873L64.5375 174.512C64.2122 174.699 63.8122 174.682 63.4975 174.476C63.3237 174.363 63.1434 174.259 62.9573 174.164C62.6234 173.994 62.4085 173.657 62.4085 173.282V172.005H58.2346V173.282C58.2346 173.657 58.0197 173.994 57.6858 174.164C57.4997 174.258 57.3194 174.363 57.1455 174.476C56.8309 174.681 56.4309 174.7 56.1055 174.512L54.9994 173.873L52.9141 177.487L54.025 178.127C54.3509 178.314 54.5301 178.672 54.5109 179.047C54.5055 179.149 54.5029 179.251 54.5029 179.354C54.5029 179.457 54.5055 179.56 54.5109 179.661C54.5301 180.035 54.3519 180.391 54.0282 180.578L52.9141 181.222L54.9994 184.836L56.1087 184.197C56.4341 184.009 56.8346 184.028 57.1493 184.233C57.3226 184.346 57.5018 184.45 57.6874 184.545C58.0207 184.715 58.2351 185.052 58.2351 185.426V186.704H62.409V185.426C62.409 185.052 62.6234 184.715 62.9567 184.545C63.1418 184.45 63.3215 184.346 63.4943 184.233C63.809 184.028 64.209 184.009 64.5349 184.197L65.6442 184.836L67.7295 181.222L66.6202 180.582C66.2954 180.395 66.1173 180.039 66.1359 179.664C66.1413 179.562 66.1439 179.459 66.1439 179.355C66.1439 179.252 66.1413 179.149 66.1359 179.048C66.1167 178.672 66.2959 178.314 66.6218 178.127L67.729 177.487ZM63.7391 179.354C63.7391 181.242 62.2101 182.771 60.3226 182.771C58.4351 182.771 56.9029 181.242 56.9029 179.354C56.9029 177.466 58.4351 175.935 60.3226 175.935C62.2101 175.935 63.7391 177.467 63.7391 179.354Z" fill="#EBEBEB"/>
<path d="M50.7629 124.313C41.7859 124.313 34.5117 131.587 34.5117 140.564C34.5117 149.537 41.7859 156.815 50.7629 156.815C59.7363 156.815 67.0141 149.537 67.0141 140.564C67.0141 131.587 59.7368 124.313 50.7629 124.313ZM50.7629 148.152C46.5704 148.152 43.1715 144.756 43.1715 140.564C43.1715 136.371 46.5704 132.972 50.7629 132.972C54.9555 132.972 58.3544 136.371 58.3544 140.564C58.3544 144.756 54.9555 148.152 50.7629 148.152Z" fill="#EBEBEB"/>
<path d="M53.8863 124.986H47.6367L47.9823 120.563H53.5407L53.8863 124.986Z" fill="#EBEBEB"/>
<path d="M41.9943 127.092L37.5757 131.511L34.6914 128.139L38.6221 124.208L41.9943 127.092Z" fill="#EBEBEB"/>
<path d="M35.0724 136.992V143.242L30.6484 142.896V137.338L35.0724 136.992Z" fill="#EBEBEB"/>
<path d="M37.1767 148.888L41.5959 153.307L38.2236 156.19L34.293 152.26L37.1767 148.888Z" fill="#EBEBEB"/>
<path d="M47.0781 155.81H53.3277L52.9821 160.234H47.4237L47.0781 155.81Z" fill="#EBEBEB"/>
<path d="M58.9727 153.704L63.3919 149.285L66.2756 152.658L62.3455 156.588L58.9727 153.704Z" fill="#EBEBEB"/>
<path d="M65.8945 143.804V137.554L70.318 137.9V143.458L65.8945 143.804Z" fill="#EBEBEB"/>
<path d="M63.7903 131.909L59.3711 127.49L62.7434 124.606L66.674 128.536L63.7903 131.909Z" fill="#EBEBEB"/>
<path d="M349.79 44.1783C340.813 44.1783 333.539 51.4524 333.539 60.4295C333.539 69.4028 340.813 76.6807 349.79 76.6807C358.764 76.6807 366.041 69.4028 366.041 60.4295C366.041 51.4524 358.764 44.1783 349.79 44.1783ZM349.79 68.0172C345.598 68.0172 342.199 64.622 342.199 60.4295C342.199 56.2369 345.598 52.838 349.79 52.838C353.983 52.838 357.382 56.2369 357.382 60.4295C357.382 64.622 353.983 68.0172 349.79 68.0172Z" fill="#EBEBEB"/>
<path d="M352.921 44.8519H346.672L347.017 40.4285H352.576L352.921 44.8519Z" fill="#EBEBEB"/>
<path d="M341.033 46.9575L336.614 51.3767L333.73 48.0045L337.661 44.0738L341.033 46.9575Z" fill="#EBEBEB"/>
<path d="M334.099 56.8578V63.1074L329.676 62.7618V57.2034L334.099 56.8578Z" fill="#EBEBEB"/>
<path d="M336.204 68.7532L340.623 73.1724L337.251 76.0562L333.32 72.1255L336.204 68.7532Z" fill="#EBEBEB"/>
<path d="M346.113 75.6754H352.363L352.017 80.0994H346.459L346.113 75.6754Z" fill="#EBEBEB"/>
<path d="M358.004 73.5698L362.423 69.1506L365.307 72.5234L361.376 76.4536L358.004 73.5698Z" fill="#EBEBEB"/>
<path d="M364.926 63.6695V57.4199L369.35 57.7655V63.3239L364.926 63.6695Z" fill="#EBEBEB"/>
<path d="M362.818 51.7746L358.398 47.3554L361.771 44.4717L365.701 48.4018L362.818 51.7746Z" fill="#EBEBEB"/>
<path d="M307 155.829L306.477 159.051L305.912 162.512L300.763 194.079H292.344L297.493 162.512L298.057 159.051L298.581 155.829H307Z" fill="#EBEBEB"/>
<path d="M305.777 155.829C305.334 159.027 304.857 162.219 304.375 165.411L302.89 174.979L301.334 184.537L300.531 189.311L299.695 194.081L300.38 189.288L301.097 184.499L302.582 174.931L304.139 165.373C304.67 162.189 305.207 159.006 305.777 155.829Z" fill="#C7C7C7"/>
<path d="M306.48 159.051L305.915 162.512H297.496L298.06 159.051H306.48Z" fill="#C7C7C7"/>
<path d="M348.566 155.829L349.09 159.051L349.654 162.512L354.803 194.079H363.223L358.074 162.512L357.51 159.051L356.986 155.829H348.566Z" fill="#EBEBEB"/>
<path d="M349.812 155.829C350.256 159.027 350.733 162.219 351.215 165.411L352.699 174.979L354.255 184.537L355.058 189.311L355.894 194.081L355.209 189.288L354.492 184.499L353.007 174.931L351.45 165.373C350.919 162.189 350.383 159.006 349.812 155.829Z" fill="#C7C7C7"/>
<path d="M349.09 159.051H357.51L358.074 162.512H349.654L349.09 159.051Z" fill="#C7C7C7"/>
<path d="M306.684 146.949H300.008L300.838 140.726H305.854L306.684 146.949Z" fill="#C7C7C7"/>
<path d="M309.564 136.28C309.564 139.715 306.778 142.501 303.342 142.501C299.907 142.501 297.121 139.716 297.121 136.28C297.121 132.843 299.907 130.058 303.342 130.058C306.778 130.058 309.564 132.843 309.564 136.28Z" fill="#DBDBDB"/>
<path d="M308.08 136.28C308.08 138.891 305.962 141.009 303.351 141.009C300.739 141.009 298.621 138.891 298.621 136.28C298.621 133.667 300.738 131.55 303.351 131.55C305.962 131.55 308.08 133.667 308.08 136.28Z" fill="white"/>
<path d="M307.295 136.005C307.212 134.85 306.624 133.787 305.751 133.102C304.875 132.416 303.716 132.099 302.57 132.269C301.461 132.435 300.455 133.092 299.836 134.048C299.209 135.002 298.997 136.254 299.337 137.458C299.611 138.446 300.3 139.302 301.184 139.796C302.066 140.299 303.121 140.453 304.079 140.241C305.042 140.039 305.911 139.499 306.507 138.754C307.109 138.014 307.468 137.081 307.507 136.12C307.509 136.074 307.493 136.036 307.469 136.035C307.447 136.035 307.426 136.069 307.424 136.116C307.408 136.507 307.322 136.89 307.203 137.257C307.074 137.622 306.895 137.964 306.68 138.283C306.458 138.597 306.197 138.881 305.905 139.134C305.608 139.382 305.279 139.594 304.923 139.769C303.92 140.25 302.724 140.284 301.695 139.846C300.667 139.416 299.839 138.525 299.505 137.444C299.147 136.3 299.324 135.077 299.919 134.134C300.51 133.192 301.498 132.54 302.581 132.382C304.075 132.168 305.584 132.716 306.499 133.942C306.72 134.245 306.893 134.577 307.027 134.925C307.155 135.277 307.233 135.645 307.275 136.024C307.277 136.035 307.284 136.038 307.289 136.035C307.296 136.03 307.298 136.018 307.295 136.005Z" fill="#EBEBEB"/>
<path d="M306.74 136.01C306.656 135.016 306.147 134.116 305.399 133.532C304.649 132.949 303.668 132.676 302.683 132.811C301.734 132.944 300.86 133.5 300.317 134.32C299.767 135.137 299.572 136.224 299.857 137.274C300.086 138.137 300.688 138.888 301.46 139.318C302.23 139.755 303.152 139.886 303.985 139.696C304.822 139.515 305.573 139.042 306.087 138.393C306.605 137.747 306.915 136.942 306.952 136.109C306.954 136.07 306.938 136.037 306.914 136.036C306.892 136.036 306.871 136.066 306.869 136.106C306.798 137.469 305.932 138.666 304.709 139.259C303.848 139.681 302.807 139.718 301.916 139.34C301.024 138.97 300.304 138.192 300.024 137.255C299.722 136.263 299.884 135.206 300.403 134.402C300.919 133.596 301.773 133.047 302.696 132.924C303.972 132.758 305.244 133.21 306.038 134.25C306.228 134.507 306.378 134.789 306.496 135.086C306.608 135.386 306.678 135.7 306.72 136.026C306.723 136.035 306.729 136.038 306.734 136.035C306.74 136.032 306.742 136.02 306.74 136.01Z" fill="#EBEBEB"/>
<path d="M306.184 136.014C306.101 135.182 305.67 134.445 305.048 133.962C304.424 133.483 303.619 133.254 302.796 133.354C302.006 133.452 301.265 133.907 300.798 134.592C300.325 135.272 300.146 136.193 300.378 137.09C300.563 137.827 301.077 138.475 301.737 138.84C302.395 139.211 303.183 139.32 303.892 139.151C304.602 138.99 305.236 138.584 305.668 138.031C306.103 137.48 306.362 136.804 306.397 136.098C306.399 136.065 306.383 136.036 306.359 136.036C306.337 136.036 306.317 136.061 306.314 136.096C306.246 137.244 305.516 138.237 304.495 138.748C303.776 139.112 302.892 139.152 302.138 138.834C301.383 138.524 300.771 137.859 300.543 137.066C300.296 136.227 300.444 135.336 300.886 134.671C301.327 134.002 302.048 133.556 302.81 133.467C303.344 133.411 303.86 133.47 304.335 133.649C304.809 133.831 305.244 134.136 305.576 134.56C305.735 134.771 305.862 135.004 305.965 135.249C306.061 135.496 306.124 135.756 306.165 136.029C306.168 136.036 306.174 136.041 306.18 136.037C306.184 136.032 306.186 136.023 306.184 136.014Z" fill="#EBEBEB"/>
<path d="M305.63 136.018C305.546 135.348 305.194 134.773 304.698 134.391C304.2 134.016 303.571 133.83 302.909 133.895C302.279 133.96 301.671 134.314 301.279 134.864C300.883 135.406 300.722 136.162 300.9 136.906C301.04 137.517 301.466 138.06 302.015 138.361C302.561 138.667 303.215 138.752 303.8 138.604C304.383 138.465 304.899 138.125 305.249 137.667C305.601 137.212 305.81 136.665 305.843 136.087C305.845 136.059 305.829 136.036 305.805 136.035C305.783 136.035 305.762 136.056 305.76 136.084C305.695 137.018 305.101 137.808 304.281 138.236C303.705 138.54 302.975 138.584 302.36 138.325C301.741 138.075 301.238 137.524 301.063 136.875C300.872 136.188 301.005 135.463 301.37 134.937C301.736 134.405 302.324 134.061 302.926 134.006C303.35 133.973 303.754 134.022 304.127 134.16C304.499 134.299 304.846 134.534 305.115 134.866C305.245 135.032 305.347 135.214 305.434 135.406C305.515 135.602 305.569 135.809 305.611 136.028C305.614 136.034 305.62 136.038 305.626 136.035C305.63 136.033 305.632 136.025 305.63 136.018Z" fill="#EBEBEB"/>
<path d="M355.406 146.949H348.73L349.56 140.726H354.576L355.406 146.949Z" fill="#C7C7C7"/>
<path d="M358.286 136.28C358.286 139.715 355.501 142.501 352.065 142.501C348.629 142.501 345.844 139.716 345.844 136.28C345.844 132.843 348.629 130.058 352.065 130.058C355.501 130.058 358.286 132.843 358.286 136.28Z" fill="#DBDBDB"/>
<path d="M356.802 136.279C356.802 138.891 354.685 141.009 352.073 141.009C349.461 141.009 347.344 138.891 347.344 136.279C347.344 133.667 349.461 131.55 352.073 131.55C354.685 131.55 356.802 133.667 356.802 136.279Z" fill="white"/>
<path d="M356.025 136.005C355.942 134.85 355.354 133.787 354.48 133.102C353.605 132.416 352.446 132.099 351.3 132.269C350.192 132.435 349.185 133.092 348.566 134.048C347.94 135.002 347.727 136.254 348.068 137.458C348.341 138.446 349.03 139.302 349.914 139.796C350.796 140.299 351.852 140.453 352.809 140.241C353.773 140.039 354.641 139.499 355.238 138.754C355.84 138.014 356.199 137.081 356.238 136.12C356.24 136.074 356.224 136.036 356.2 136.035C356.178 136.035 356.157 136.069 356.155 136.116C356.139 136.507 356.053 136.89 355.934 137.257C355.805 137.622 355.626 137.964 355.411 138.283C355.189 138.597 354.928 138.881 354.636 139.134C354.339 139.382 354.01 139.594 353.654 139.769C352.651 140.25 351.455 140.284 350.426 139.846C349.398 139.416 348.57 138.525 348.236 137.444C347.878 136.3 348.055 135.077 348.65 134.134C349.241 133.192 350.23 132.54 351.312 132.382C352.806 132.168 354.315 132.716 355.23 133.942C355.451 134.245 355.624 134.577 355.758 134.925C355.886 135.277 355.964 135.645 356.006 136.024C356.009 136.035 356.015 136.038 356.02 136.035C356.025 136.03 356.027 136.018 356.025 136.005Z" fill="#EBEBEB"/>
<path d="M355.47 136.01C355.386 135.016 354.878 134.116 354.13 133.532C353.38 132.949 352.398 132.676 351.413 132.811C350.464 132.944 349.59 133.5 349.047 134.32C348.497 135.137 348.302 136.224 348.588 137.274C348.817 138.137 349.418 138.888 350.191 139.318C350.961 139.755 351.882 139.886 352.715 139.696C353.553 139.515 354.303 139.042 354.818 138.393C355.336 137.747 355.646 136.942 355.682 136.109C355.684 136.07 355.669 136.037 355.645 136.036C355.622 136.036 355.602 136.066 355.599 136.106C355.529 137.469 354.662 138.666 353.439 139.259C352.578 139.681 351.538 139.718 350.647 139.34C349.755 138.97 349.035 138.192 348.754 137.255C348.452 136.263 348.614 135.206 349.133 134.402C349.649 133.596 350.504 133.047 351.426 132.924C352.702 132.758 353.974 133.21 354.768 134.25C354.958 134.507 355.108 134.789 355.226 135.086C355.338 135.386 355.409 135.7 355.45 136.026C355.453 136.035 355.459 136.038 355.465 136.035C355.471 136.032 355.473 136.02 355.47 136.01Z" fill="#EBEBEB"/>
<path d="M354.915 136.014C354.831 135.182 354.4 134.445 353.779 133.962C353.155 133.483 352.35 133.254 351.526 133.354C350.736 133.452 349.995 133.907 349.528 134.592C349.055 135.272 348.877 136.193 349.109 137.09C349.293 137.827 349.807 138.475 350.468 138.84C351.125 139.211 351.913 139.32 352.622 139.151C353.333 138.99 353.966 138.584 354.398 138.031C354.833 137.48 355.093 136.804 355.127 136.098C355.129 136.065 355.113 136.036 355.089 136.036C355.067 136.036 355.047 136.061 355.044 136.096C354.976 137.244 354.246 138.237 353.225 138.748C352.507 139.112 351.622 139.152 350.868 138.834C350.113 138.524 349.501 137.859 349.273 137.066C349.027 136.227 349.174 135.336 349.616 134.671C350.057 134.002 350.779 133.556 351.541 133.467C352.075 133.411 352.591 133.47 353.066 133.649C353.54 133.831 353.974 134.136 354.306 134.56C354.465 134.771 354.592 135.004 354.695 135.249C354.791 135.496 354.854 135.756 354.895 136.029C354.898 136.036 354.904 136.041 354.91 136.037C354.916 136.032 354.918 136.023 354.915 136.014Z" fill="#EBEBEB"/>
<path d="M354.361 136.018C354.277 135.348 353.924 134.773 353.429 134.391C352.93 134.016 352.302 133.83 351.639 133.895C351.009 133.96 350.401 134.314 350.01 134.864C349.614 135.406 349.453 136.162 349.63 136.906C349.771 137.517 350.196 138.06 350.746 138.361C351.291 138.667 351.945 138.751 352.53 138.604C353.114 138.465 353.629 138.125 353.98 137.667C354.332 137.212 354.541 136.665 354.574 136.086C354.576 136.059 354.56 136.036 354.536 136.035C354.514 136.035 354.493 136.056 354.491 136.084C354.426 137.018 353.831 137.808 353.012 138.236C352.436 138.54 351.707 138.583 351.091 138.325C350.472 138.075 349.969 137.524 349.794 136.875C349.603 136.188 349.736 135.463 350.101 134.937C350.467 134.405 351.055 134.061 351.657 134.006C352.081 133.973 352.485 134.022 352.858 134.16C353.23 134.299 353.577 134.534 353.846 134.866C353.975 135.032 354.078 135.214 354.165 135.406C354.246 135.602 354.3 135.809 354.342 136.028C354.345 136.034 354.351 136.038 354.357 136.035C354.361 136.033 354.363 136.025 354.361 136.018Z" fill="#EBEBEB"/>
<path d="M369.731 143.777H285.84V159.823H369.731V143.777Z" fill="#DBDBDB"/>
<path d="M303.078 143.777L296.99 159.824H286.156L292.245 143.777H303.078Z" fill="#EBEBEB"/>
<path d="M325.285 143.777L319.197 159.824H308.359L314.447 143.777H325.285Z" fill="#EBEBEB"/>
<path d="M347.492 143.777L341.404 159.824H330.57L336.659 143.777H347.492Z" fill="#EBEBEB"/>
<path d="M369.703 143.777L363.615 159.824H352.777L358.865 143.777H369.703Z" fill="#EBEBEB"/>
<path d="M368.029 174.658H287.535V184.813H368.029V174.658Z" fill="#DBDBDB"/>
<path d="M304.081 174.658L298.239 184.813H287.844L293.686 174.658H304.081Z" fill="#EBEBEB"/>
<path d="M325.393 174.658L319.551 184.813H309.152L314.994 174.658H325.393Z" fill="#EBEBEB"/>
<path d="M346.702 174.658L340.86 184.813H330.465L336.306 174.658H346.702Z" fill="#EBEBEB"/>
<path d="M368.003 174.658L362.161 184.813H351.762L357.604 174.658H368.003Z" fill="#EBEBEB"/>
<path d="M262.719 244.069C316.375 244.069 359.871 241.133 359.871 237.511C359.871 233.89 316.375 230.954 262.719 230.954C209.063 230.954 165.566 233.89 165.566 237.511C165.566 241.133 209.063 244.069 262.719 244.069Z" fill="#EBEBEB"/>
<path d="M30.2695 194.072L72.7021 193.942L115.134 193.895L199.998 193.806L284.862 193.895L327.294 193.942L369.727 194.072L327.294 194.203L284.862 194.25L199.998 194.338L115.134 194.249L72.7021 194.202L30.2695 194.072Z" fill="#263238"/>
<path d="M302.421 58.6144H97.5898V195.632H302.421V58.6144Z" fill="#DBDBDB"/>
<path d="M300.928 60.2853H99.0742V193.959H300.928V60.2853Z" fill="#263238"/>
<path d="M329.097 205.906H70.9102V215.309H329.097V205.906Z" fill="#C7C7C7"/>
<path d="M70.9102 205.906L97.5886 195.631H302.419L329.098 205.906H70.9102Z" fill="#DBDBDB"/>
<path d="M99.9766 202.261L117.192 195.631H282.827L300.043 202.261H99.9766Z" fill="#263238"/>
<path d="M289.674 70.3936H110.332V183.852H289.674V70.3936Z" fill="white"/>
<path d="M289.674 70.3936H110.332V74.7595H289.674V70.3936Z" fill="#455A64"/>
<path d="M113.806 72.5765C113.806 73.1744 113.321 73.6592 112.723 73.6592C112.125 73.6592 111.641 73.1744 111.641 72.5765C111.641 71.9786 112.125 71.4938 112.723 71.4938C113.321 71.4938 113.806 71.9786 113.806 72.5765Z" fill="#FDB514"/>
<path d="M118.224 72.5765C118.224 73.1744 117.739 73.6592 117.141 73.6592C116.543 73.6592 116.059 73.1744 116.059 72.5765C116.059 71.9786 116.543 71.4938 117.141 71.4938C117.739 71.4938 118.224 71.9786 118.224 72.5765Z" fill="#EBEBEB"/>
<path d="M122.646 72.5765C122.646 73.1744 122.161 73.6592 121.563 73.6592C120.965 73.6592 120.48 73.1744 120.48 72.5765C120.48 71.9786 120.965 71.4938 121.563 71.4938C122.161 71.4938 122.646 71.9786 122.646 72.5765Z" fill="white"/>
<path d="M196.093 148.77H228.77V123.699H196.093V148.77Z" fill="#EBEBEB"/>
<path d="M199.352 129.182C198.956 131.271 200.754 133.069 202.844 132.673C204.011 132.452 204.953 131.51 205.174 130.343C205.57 128.253 203.772 126.455 201.682 126.852C200.515 127.073 199.573 128.014 199.352 129.182Z" fill="white"/>
<path d="M206.875 143.368H228.772L217.823 129.875L206.875 143.368Z" fill="#C7C7C7"/>
<path d="M196.086 143.38H215.504L205.795 134.594L196.086 143.38Z" fill="#DBDBDB"/>
<path d="M228.762 143.368H196.086V148.77H228.762V143.368Z" fill="#DBDBDB"/>
<path d="M143.72 123.699H119.176V125.764H143.72V123.699Z" fill="#DBDBDB"/>
<path d="M190.206 128.49H119.176V130.555H190.206V128.49Z" fill="#DBDBDB"/>
<path d="M190.206 133.034H119.176V135.099H190.206V133.034Z" fill="#DBDBDB"/>
<path d="M190.206 137.577H119.176V139.642H190.206V137.577Z" fill="#DBDBDB"/>
<path d="M190.206 142.12H119.176V144.185H190.206V142.12Z" fill="#DBDBDB"/>
<path d="M190.206 146.663H119.176V148.729H190.206V146.663Z" fill="#DBDBDB"/>
<path d="M202.869 83.1617H178.324V88.6865H202.869V83.1617Z" fill="#DBDBDB"/>
<path d="M228.75 92.4961H178.324V94.5612H228.75V92.4961Z" fill="#DBDBDB"/>
<path d="M228.75 97.039H178.324V99.1041H228.75V97.039Z" fill="#DBDBDB"/>
<path d="M228.75 101.582H178.324V103.648H228.75V101.582Z" fill="#DBDBDB"/>
<path d="M228.75 106.126H178.324V108.191H228.75V106.126Z" fill="#DBDBDB"/>
<path d="M228.75 112.169H178.324V114.234H228.75V112.169Z" fill="#DBDBDB"/>
<path d="M228.75 116.713H178.324V118.778H228.75V116.713Z" fill="#DBDBDB"/>
<path d="M280.814 83.1617H235.93V88.7857H280.814V83.1617Z" fill="#FDB514"/>
<path d="M280.68 88.8326H236.035V177.009H280.68V88.8326Z" fill="white"/>
<path d="M280.807 177.154H235.914V88.686H280.807V177.154ZM236.162 176.862H280.558V88.9788H236.162V176.862Z" fill="#DBDBDB"/>
<path d="M236.161 177.062L235.93 176.954L280.574 88.7782L280.805 88.8865L236.161 177.062Z" fill="#DBDBDB"/>
<path d="M280.574 177.062L235.93 88.8865L236.161 88.7782L280.805 176.954L280.574 177.062Z" fill="#DBDBDB"/>
<path d="M172.757 83.2593H119.266V118.68H172.757V83.2593Z" fill="white"/>
<path d="M119.186 118.778V118.688L119.176 83.1777H119.265L172.847 83.1617L172.858 118.762H172.768L119.186 118.778ZM119.355 83.3574L119.365 118.598L172.678 118.582L172.667 83.3414L119.355 83.3574Z" fill="#DBDBDB"/>
<path d="M119.348 83.3574C123.848 86.2075 128.318 89.1024 132.783 92.0048L146.146 100.763L159.445 109.617L166.072 114.077L172.67 118.582L165.938 114.281L159.235 109.935L145.872 101.177L132.574 92.3227C128.152 89.3536 123.735 86.3782 119.348 83.3574Z" fill="#DBDBDB"/>
<path d="M172.67 83.3574C168.283 86.3782 163.866 89.3536 159.445 92.3222L146.146 101.177L132.783 109.935L126.08 114.281L119.348 118.582L125.946 114.077L132.573 109.617L145.872 100.763L159.235 92.0048C163.7 89.1024 168.17 86.207 172.67 83.3574Z" fill="#DBDBDB"/>
<path d="M119.359 152.177V177.085H228.509V152.177H119.359Z" fill="white"/>
<path d="M228.687 152.108V177.154H119.176V152.108H228.687ZM228.325 177.016V152.246H119.537V177.016H228.325Z" fill="#DBDBDB"/>
<path d="M228.572 177.02L228.438 177.149L119.289 152.242L119.422 152.113L228.572 177.02Z" fill="#DBDBDB"/>
<path d="M228.572 152.242L119.422 177.149L119.289 177.02L228.438 152.113L228.572 152.242Z" fill="#DBDBDB"/>
<path d="M75.4026 61.552L64.0078 73.6343L65.185 74.7445L76.5798 62.6622L75.4026 61.552Z" fill="#263238"/>
<path d="M76.267 73.8832H64.5977V75.5013H76.267V73.8832Z" fill="#455A64"/>
<path d="M76.267 61.2922H64.5977V62.9104H76.267V61.2922Z" fill="#455A64"/>
<path d="M65.1853 61.5463L64.0078 62.6562L75.3992 74.7418L76.5768 73.6319L65.1853 61.5463Z" fill="#455A64"/>
<path d="M75.4026 74.1407L64.0078 86.2231L65.185 87.3333L76.5798 75.2509L75.4026 74.1407Z" fill="#263238"/>
<path d="M76.2709 86.474H64.6016V88.0921H76.2709V86.474Z" fill="#455A64"/>
<path d="M76.2709 73.8831H64.6016V75.5012H76.2709V73.8831Z" fill="#455A64"/>
<path d="M65.1853 74.1369L64.0078 75.2468L75.3992 87.3325L76.5768 86.2226L65.1853 74.1369Z" fill="#455A64"/>
<path d="M75.3987 86.7353L64.0039 98.8176L65.1811 99.9278L76.5758 87.8455L75.3987 86.7353Z" fill="#263238"/>
<path d="M76.2631 99.0657H64.5938V100.684H76.2631V99.0657Z" fill="#455A64"/>
<path d="M76.2631 86.4742H64.5938V88.0923H76.2631V86.4742Z" fill="#455A64"/>
<path d="M65.1853 86.7289L64.0078 87.8388L75.3992 99.9244L76.5768 98.8146L65.1853 86.7289Z" fill="#455A64"/>
<path d="M75.3987 99.3237L64.0039 111.406L65.1811 112.516L76.5758 100.434L75.3987 99.3237Z" fill="#263238"/>
<path d="M76.2631 111.657H64.5938V113.275H76.2631V111.657Z" fill="#455A64"/>
<path d="M76.2631 99.0656H64.5938V100.684H76.2631V99.0656Z" fill="#455A64"/>
<path d="M65.1853 99.3196L64.0078 100.43L75.3992 112.515L76.5768 111.405L65.1853 99.3196Z" fill="#455A64"/>
<path d="M75.3987 111.918L64.0039 124.001L65.1811 125.111L76.5758 113.029L75.3987 111.918Z" fill="#263238"/>
<path d="M76.2631 124.248H64.5938V125.866H76.2631V124.248Z" fill="#455A64"/>
<path d="M76.2631 111.657H64.5938V113.275H76.2631V111.657Z" fill="#455A64"/>
<path d="M65.1853 111.911L64.0078 113.021L75.3992 125.106L76.5768 123.996L65.1853 111.911Z" fill="#455A64"/>
<path d="M75.3987 124.51L64.0039 136.592L65.1811 137.702L76.5758 125.62L75.3987 124.51Z" fill="#263238"/>
<path d="M76.267 136.839H64.5977V138.458H76.267V136.839Z" fill="#455A64"/>
<path d="M76.267 124.248H64.5977V125.866H76.267V124.248Z" fill="#455A64"/>
<path d="M65.1853 124.502L64.0078 125.612L75.3992 137.698L76.5767 136.588L65.1853 124.502Z" fill="#455A64"/>
<path d="M75.3987 137.102L64.0039 149.184L65.1811 150.294L76.5758 138.212L75.3987 137.102Z" fill="#263238"/>
<path d="M76.267 149.43H64.5977V151.049H76.267V149.43Z" fill="#455A64"/>
<path d="M76.267 136.839H64.5977V138.458H76.267V136.839Z" fill="#455A64"/>
<path d="M65.1853 137.094L64.0078 138.203L75.3992 150.289L76.5768 149.179L65.1853 137.094Z" fill="#455A64"/>
<path d="M75.3987 149.689L64.0039 161.771L65.1811 162.882L76.5758 150.799L75.3987 149.689Z" fill="#263238"/>
<path d="M76.2631 162.022H64.5938V163.64H76.2631V162.022Z" fill="#455A64"/>
<path d="M76.2631 149.43H64.5938V151.049H76.2631V149.43Z" fill="#455A64"/>
<path d="M65.1853 149.685L64.0078 150.795L75.3992 162.88L76.5767 161.77L65.1853 149.685Z" fill="#455A64"/>
<path d="M75.4026 162.272L64.0078 174.355L65.185 175.465L76.5797 163.383L75.4026 162.272Z" fill="#263238"/>
<path d="M76.267 174.613H64.5977V176.231H76.267V174.613Z" fill="#455A64"/>
<path d="M76.267 162.022H64.5977V163.64H76.267V162.022Z" fill="#455A64"/>
<path d="M65.1853 162.275L64.0078 163.385L75.3992 175.471L76.5768 174.361L65.1853 162.275Z" fill="#455A64"/>
<path d="M75.4015 174.859L64.0117 186.947L65.189 188.056L76.5788 175.969L75.4015 174.859Z" fill="#263238"/>
<path d="M76.267 187.204H64.5977V188.822H76.267V187.204Z" fill="#455A64"/>
<path d="M76.267 174.613H64.5977V176.231H76.267V174.613Z" fill="#455A64"/>
<path d="M65.1849 174.871L64.0078 175.98L75.3992 188.066L76.5764 186.956L65.1849 174.871Z" fill="#455A64"/>
<path d="M75.4015 187.45L64.0117 199.537L65.189 200.647L76.5788 188.559L75.4015 187.45Z" fill="#263238"/>
<path d="M76.267 199.795H64.5977V201.413H76.267V199.795Z" fill="#455A64"/>
<path d="M76.267 187.204H64.5977V188.822H76.267V187.204Z" fill="#455A64"/>
<path d="M65.1849 187.459L64.0078 188.568L75.3992 200.654L76.5764 199.544L65.1849 187.459Z" fill="#455A64"/>
<path d="M78.6211 206.957V199.626H61.7886V206.957H78.6211Z" fill="#455A64"/>
<path d="M66 200.087L66 61.9511H61.7819L61.7819 200.087H66Z" fill="#455A64"/>
<path d="M78.6211 200.087L78.6211 61.9513H74.403L74.403 200.087H78.6211Z" fill="#455A64"/>
<path d="M189.485 60.9633L176.876 48.5398L70.4571 28.7078L38.1142 48.6321L37.2656 47.2539L70.1398 27.0027L177.659 47.0395L190.62 59.8107L189.485 60.9633Z" fill="#455A64"/>
<path d="M83.2903 50.2817L70.3277 32.2667L57.9218 50.2555L55.2578 48.4182L70.2717 26.6475L85.9175 48.3921L83.2903 50.2817Z" fill="#263238"/>
<path d="M165.012 49.9696L163.902 51.1471L175.988 62.5385L177.098 61.361L165.012 49.9696Z" fill="#263238"/>
<path d="M177.856 50.2822H176.238V61.9515H177.856V50.2822Z" fill="#455A64"/>
<path d="M165.267 50.2822H163.648V61.9515H165.267V50.2822Z" fill="#455A64"/>
<path d="M175.986 49.9709L163.902 61.364L165.012 62.5413L177.096 51.1482L175.986 49.9709Z" fill="#455A64"/>
<path d="M152.407 49.9698L151.297 51.1473L163.383 62.5388L164.492 61.3613L152.407 49.9698Z" fill="#263238"/>
<path d="M165.247 50.2822H163.629V61.9515H165.247V50.2822Z" fill="#455A64"/>
<path d="M152.665 50.2821H151.047V61.9514H152.665V50.2821Z" fill="#455A64"/>
<path d="M163.381 49.9746L151.297 61.3677L152.407 62.545L164.491 51.1519L163.381 49.9746Z" fill="#455A64"/>
<path d="M139.821 49.97L138.711 51.1475L150.797 62.539L151.906 61.3614L139.821 49.97Z" fill="#263238"/>
<path d="M152.665 50.2822H151.047V61.9515H152.665V50.2822Z" fill="#455A64"/>
<path d="M140.075 50.2822H138.457V61.9515H140.075V50.2822Z" fill="#455A64"/>
<path d="M150.795 49.9742L138.711 61.3673L139.821 62.5447L151.905 51.1516L150.795 49.9742Z" fill="#455A64"/>
<path d="M127.235 49.9699L126.125 51.1475L138.211 62.5389L139.321 61.3614L127.235 49.9699Z" fill="#263238"/>
<path d="M140.079 50.2821H138.461V61.9514H140.079V50.2821Z" fill="#455A64"/>
<path d="M127.489 50.2821H125.871V61.9514H127.489V50.2821Z" fill="#455A64"/>
<path d="M138.209 49.9741L126.125 61.3672L127.235 62.5445L139.319 51.1515L138.209 49.9741Z" fill="#455A64"/>
<path d="M114.649 49.9704L113.539 51.1479L125.625 62.5394L126.735 61.3619L114.649 49.9704Z" fill="#263238"/>
<path d="M127.493 50.2821H125.875V61.9514H127.493V50.2821Z" fill="#455A64"/>
<path d="M114.903 50.2821H113.285V61.9515H114.903V50.2821Z" fill="#455A64"/>
<path d="M125.621 49.9613L113.539 61.356L114.649 62.5332L126.732 51.1385L125.621 49.9613Z" fill="#455A64"/>
<path d="M102.051 49.9701L100.941 51.1476L113.027 62.5391L114.137 61.3616L102.051 49.9701Z" fill="#263238"/>
<path d="M114.892 50.2821H113.273V61.9514H114.892V50.2821Z" fill="#455A64"/>
<path d="M102.306 50.2821H100.688V61.9515H102.306V50.2821Z" fill="#455A64"/>
<path d="M113.025 49.9736L100.941 61.3666L102.051 62.544L114.135 51.1509L113.025 49.9736Z" fill="#455A64"/>
<path d="M89.4536 49.9703L88.3438 51.1478L100.429 62.5393L101.539 61.3617L89.4536 49.9703Z" fill="#263238"/>
<path d="M102.294 50.2822H100.676V61.9515H102.294V50.2822Z" fill="#455A64"/>
<path d="M89.708 50.2822H88.0898V61.9515H89.708V50.2822Z" fill="#455A64"/>
<path d="M100.428 49.9757L88.3438 61.3688L89.4538 62.5461L101.538 51.153L100.428 49.9757Z" fill="#455A64"/>
<path d="M76.8677 49.9703L75.7578 51.1478L87.8435 62.5393L88.9533 61.3617L76.8677 49.9703Z" fill="#263238"/>
<path d="M89.708 50.2822H88.0898V61.9516H89.708V50.2822Z" fill="#455A64"/>
<path d="M77.1181 50.2822H75.5V61.9516H77.1181V50.2822Z" fill="#455A64"/>
<path d="M87.8418 49.9731L75.7578 61.3661L76.8679 62.5435L88.9518 51.1504L87.8418 49.9731Z" fill="#455A64"/>
<path d="M64.2739 49.9702L63.1641 51.1477L75.2497 62.5391L76.3596 61.3616L64.2739 49.9702Z" fill="#263238"/>
<path d="M77.1181 50.2821H75.5V61.9514H77.1181V50.2821Z" fill="#455A64"/>
<path d="M64.5283 50.2821H62.9102V61.9515H64.5283V50.2821Z" fill="#455A64"/>
<path d="M75.248 49.9726L63.1641 61.3657L64.2741 62.543L76.3581 51.1499L75.248 49.9726Z" fill="#455A64"/>
<path d="M51.6802 49.9707L50.5703 51.1483L62.656 62.5397L63.7658 61.3622L51.6802 49.9707Z" fill="#263238"/>
<path d="M64.5205 50.2822H62.9023V61.9516H64.5205V50.2822Z" fill="#455A64"/>
<path d="M51.9345 50.2822H50.3164V61.9515H51.9345V50.2822Z" fill="#455A64"/>
<path d="M62.6543 49.9725L50.5703 61.3656L51.6804 62.543L63.7643 51.1499L62.6543 49.9725Z" fill="#455A64"/>
<path d="M39.0903 49.9706L37.9805 51.1481L50.0661 62.5395L51.176 61.362L39.0903 49.9706Z" fill="#263238"/>
<path d="M51.9306 50.2822H50.3125V61.9515H51.9306V50.2822Z" fill="#455A64"/>
<path d="M39.3447 50.2821H37.7266V61.9515H39.3447V50.2821Z" fill="#455A64"/>
<path d="M50.0645 49.9737L37.9805 61.3668L39.0905 62.5442L51.1745 51.1511L50.0645 49.9737Z" fill="#455A64"/>
<path d="M37.2508 47.2278H29.9297V64.0603H37.2508V47.2278Z" fill="#263238"/>
<path d="M44.5812 47.2277H37.25V64.0603H44.5812V47.2277Z" fill="#455A64"/>
<path d="M54.2646 64.0603H40.207V72.4555H54.2646V64.0603Z" fill="#455A64"/>
<path d="M190.62 59.8422H37.25V64.0603H190.62V59.8422Z" fill="#455A64"/>
<path d="M181.871 51.4464H37.25V47.2277H177.749L181.871 51.4464Z" fill="#455A64"/>
<path d="M180.606 50.2822H178.988V61.9515H180.606V50.2822Z" fill="#455A64"/>
<path d="M121.547 109.935L131.676 108.314L141.814 106.745L162.1 103.691L162.153 103.683L162.205 103.696L195.969 112.453L212.84 116.877L229.696 121.356L212.774 117.134L195.866 112.856L162.073 104.209L162.177 104.214L141.872 107.143L131.713 108.566L121.547 109.935Z" fill="#263238"/>
<path d="M155.938 65.7802H154.32V89.673H155.938V65.7802Z" fill="#263238"/>
<path d="M169.634 66.3137H168.016V90.2065H169.634V66.3137Z" fill="#263238"/>
<path d="M172.757 64.0603H151.418V67.4998H172.757V64.0603Z" fill="#455A64"/>
<path d="M162.903 93.6918L162.724 97.2822L162.206 96.6624C162.822 96.8214 163.326 97.0486 163.837 97.3638C164.335 97.6758 164.798 98.0928 165.118 98.624C165.78 99.6939 165.684 101.07 165.032 102.037C164.399 103.021 163.248 103.571 162.144 103.532C161.013 103.497 160.058 102.786 159.465 101.934C160.145 102.729 161.132 103.292 162.143 103.218C163.134 103.153 164.067 102.561 164.493 101.713C164.937 100.89 164.869 99.8342 164.332 99.1494C163.817 98.4544 162.845 98.0454 161.983 97.9024L161.492 97.8214L161.465 97.2827L161.286 93.6923H162.903V93.6918Z" fill="#263238"/>
<path d="M172.765 86.3302V92.1878L162.093 94.7201L151.43 92.1878V86.3302H172.765Z" fill="#455A64"/>
<path d="M156.322 89.7665C156.322 90.4507 155.767 91.0054 155.083 91.0054C154.398 91.0054 153.844 90.4507 153.844 89.7665C153.844 89.0822 154.398 88.5275 155.083 88.5275C155.767 88.5275 156.322 89.0822 156.322 89.7665Z" fill="#263238"/>
<path d="M170.349 89.7665C170.349 90.4507 169.794 91.0054 169.11 91.0054C168.426 91.0054 167.871 90.4507 167.871 89.7665C167.871 89.0822 168.426 88.5275 169.11 88.5275C169.794 88.5275 170.349 89.0822 170.349 89.7665Z" fill="#263238"/>
<path d="M118.212 134.338L227.039 146.038L229.693 121.352L120.866 109.652L118.212 134.338Z" fill="#FDB514"/>
<path d="M177.723 135.357L227.623 140.723L204.116 124.62L177.723 135.357Z" fill="#FDB514"/>
<path opacity="0.2" d="M177.723 135.357L227.623 140.723L204.116 124.62L177.723 135.357Z" fill="black"/>
<path d="M153.141 132.727L197.393 137.486L176.207 126.368L153.141 132.727Z" fill="#FDB514"/>
<path opacity="0.1" d="M153.141 132.727L197.393 137.486L176.207 126.368L153.141 132.727Z" fill="black"/>
<path d="M227.608 140.726L118.781 129.025L118.209 134.344L227.036 146.044L227.608 140.726Z" fill="#FDB514"/>
<path opacity="0.1" d="M227.608 140.726L118.781 129.025L118.209 134.344L227.036 146.044L227.608 140.726Z" fill="black"/>
<path opacity="0.6" d="M134.289 119.278C134.09 121.131 132.426 122.472 130.573 122.273C128.72 122.073 127.379 120.41 127.578 118.556C127.778 116.703 129.441 115.362 131.295 115.562C133.148 115.761 134.489 117.425 134.289 119.278Z" fill="white"/>
<path d="M73.0434 27.8555C73.0434 29.3637 71.821 30.5861 70.3127 30.5861C68.8044 30.5861 67.582 29.3637 67.582 27.8555C67.582 26.3472 68.8044 25.1248 70.3127 25.1248C71.821 25.1248 73.0434 26.3472 73.0434 27.8555Z" fill="#A6A6A6"/>
<path d="M71.5777 27.8554C71.5777 28.5599 71.0071 29.1306 70.3025 29.1306C69.5985 29.1306 69.0273 28.5599 69.0273 27.8554C69.0273 27.1514 69.598 26.5802 70.3025 26.5802C71.0071 26.5802 71.5777 27.1509 71.5777 27.8554Z" fill="#455A64"/>
<path d="M81.99 206.957H58.4258V212.526H81.99V206.957Z" fill="#263238"/>
<path d="M87.0873 212.526H53.3086V223.449H87.0873V212.526Z" fill="#455A64"/>
<path d="M83.9035 73.7984H58.6875V45.8853H75.1552C78.04 45.8853 80.479 48.0218 80.8592 50.8816L83.9035 73.7984Z" fill="#FDB514"/>
<path d="M77.0305 65.3167H65.2097C65.0721 65.3167 64.9505 65.3007 64.8295 65.2602C64.2791 65.0986 63.8828 64.5807 63.8828 63.9818V49.0703H72.2892C72.5724 49.0703 72.8556 49.0943 73.1308 49.1514C73.7783 49.2644 74.3767 49.5071 74.8945 49.8554C75.2668 50.106 75.5985 50.4058 75.8732 50.7455C76.4316 51.409 76.8119 52.226 76.9329 53.1407L78.3489 63.8042C78.4545 64.6047 77.8311 65.3167 77.0305 65.3167Z" fill="#263238"/>
<g opacity="0.4">
<path d="M75.7627 57.5332C75.7627 57.873 75.6331 58.2127 75.3744 58.4719L68.5296 65.3167H65.2123C65.0747 65.3167 64.9531 65.3007 64.832 65.2602L73.4971 56.5951C74.015 56.0772 74.8566 56.0772 75.3744 56.5951C75.6331 56.8538 75.7627 57.1935 75.7627 57.5332Z" fill="white"/>
<path d="M75.8732 50.745L63.8828 62.7354V60.8666L74.8945 49.8554C75.2668 50.106 75.598 50.4052 75.8732 50.745Z" fill="white"/>
<path d="M73.1326 49.1514L66.3203 55.9636C65.932 56.3519 65.3011 56.3519 64.9123 55.9636C64.7182 55.7695 64.6211 55.5188 64.6211 55.2596C64.6211 55.009 64.7182 54.7583 64.9123 54.5642L70.4062 49.0703H72.2915C72.5742 49.0703 72.8574 49.0948 73.1326 49.1514Z" fill="white"/>
</g>
<path d="M56.9121 190.044L56.4027 193.67L55.8534 197.565L50.8443 233.094H42.6523L47.6614 197.565L48.2107 193.67L48.7201 190.044H56.9121Z" fill="#FDB514"/>
<path opacity="0.1" d="M55.722 190.044C55.2906 193.643 54.8266 197.236 54.3572 200.828L52.913 211.598L51.3994 222.354L50.618 227.728L49.8047 233.096L50.4708 227.701L51.1684 222.312L52.6132 211.543L54.1274 200.787C54.6452 197.203 55.1674 193.62 55.722 190.044Z" fill="black"/>
<path opacity="0.1" d="M56.4015 193.67L55.8522 197.565H47.6602L48.2095 193.67H56.4015Z" fill="black"/>
<path d="M97.3477 190.044L97.8575 193.67L98.4069 197.565L103.416 233.094H111.608L106.599 197.565L106.05 193.67L105.54 190.044H97.3477Z" fill="#FDB514"/>
<path opacity="0.1" d="M98.5625 190.044C98.994 193.643 99.458 197.236 99.9273 200.828L101.372 211.598L102.885 222.354L103.666 227.728L104.48 233.096L103.814 227.701L103.116 222.312L101.671 211.543L100.157 200.787C99.6393 197.203 99.1172 193.62 98.5625 190.044Z" fill="black"/>
<path opacity="0.1" d="M97.8555 193.67H106.047L106.597 197.565H98.4048L97.8555 193.67Z" fill="black"/>
<path d="M56.616 182.591H50.1211L50.9286 176.537H55.8086L56.616 182.591Z" fill="#FDB514"/>
<path opacity="0.1" d="M56.616 182.591H50.1211L50.9286 176.537H55.8086L56.616 182.591Z" fill="black"/>
<path d="M59.4231 172.21C59.4231 175.553 56.7132 178.262 53.3697 178.262C50.0268 178.262 47.3164 175.553 47.3164 172.21C47.3164 168.867 50.0263 166.156 53.3697 166.156C56.7127 166.157 59.4231 168.867 59.4231 172.21Z" fill="#FDB514"/>
<path d="M57.9766 172.21C57.9766 174.751 55.9164 176.811 53.375 176.811C50.8337 176.811 48.7734 174.751 48.7734 172.21C48.7734 169.668 50.8337 167.608 53.375 167.608C55.9164 167.609 57.9766 169.668 57.9766 172.21Z" fill="white"/>
<path d="M57.2236 171.943C57.1425 170.819 56.5708 169.785 55.7212 169.119C54.8694 168.451 53.742 168.142 52.6268 168.308C51.5489 168.469 50.5686 169.109 49.9665 170.038C49.3564 170.967 49.1505 172.185 49.4812 173.357C49.7473 174.318 50.4182 175.15 51.278 175.632C52.1366 176.121 53.1633 176.271 54.0945 176.065C55.0326 175.868 55.8769 175.342 56.4577 174.618C57.0428 173.898 57.3926 172.99 57.4305 172.054C57.4326 172.01 57.4166 171.973 57.3937 171.972C57.3718 171.972 57.3521 172.006 57.3494 172.051C57.334 172.431 57.2508 172.804 57.1345 173.161C57.0092 173.516 56.8342 173.85 56.6257 174.159C56.4097 174.465 56.1558 174.741 55.8716 174.987C55.5825 175.228 55.262 175.434 54.9164 175.605C53.9404 176.073 52.7766 176.106 51.7756 175.68C50.7756 175.262 49.9692 174.395 49.6449 173.343C49.2966 172.229 49.4684 171.039 50.0476 170.122C50.6225 169.205 51.5841 168.571 52.6374 168.418C54.0913 168.209 55.559 168.742 56.4492 169.935C56.6641 170.229 56.8326 170.553 56.9633 170.892C57.0876 171.234 57.1638 171.592 57.2044 171.961C57.207 171.971 57.2129 171.974 57.2182 171.971C57.2236 171.968 57.2262 171.956 57.2236 171.943Z" fill="#FDB514"/>
<path d="M56.6824 171.947C56.6014 170.98 56.1059 170.105 55.3784 169.537C54.6488 168.97 53.6936 168.704 52.7352 168.836C51.812 168.964 50.9614 169.506 50.4334 170.303C49.8984 171.099 49.7086 172.156 49.987 173.178C50.2099 174.017 50.795 174.749 51.5464 175.167C52.2958 175.592 53.1923 175.72 54.003 175.534C54.8174 175.358 55.548 174.898 56.0488 174.266C56.5528 173.638 56.8536 172.856 56.8899 172.044C56.892 172.006 56.876 171.973 56.8531 171.972C56.8312 171.972 56.8115 172.002 56.8088 172.041C56.7406 173.367 55.8974 174.532 54.7075 175.108C53.8702 175.519 52.8579 175.555 51.9907 175.187C51.1235 174.827 50.4227 174.07 50.1496 173.159C49.8558 172.194 50.0131 171.165 50.5182 170.383C51.02 169.599 51.852 169.065 52.7491 168.945C53.9907 168.783 55.228 169.223 56.0003 170.236C56.1854 170.486 56.331 170.76 56.4462 171.049C56.5555 171.341 56.6238 171.646 56.6643 171.963C56.667 171.972 56.6734 171.975 56.6782 171.972C56.683 171.969 56.6846 171.958 56.6824 171.947Z" fill="#FDB514"/>
<path d="M56.1419 171.951C56.0603 171.142 55.6416 170.425 55.0368 169.955C54.4293 169.489 53.6464 169.266 52.8448 169.363C52.0763 169.459 51.3557 169.902 50.9008 170.568C50.4411 171.229 50.2672 172.126 50.4928 172.998C50.6725 173.715 51.1723 174.346 51.8149 174.701C52.4549 175.062 53.2213 175.167 53.9115 175.003C54.6027 174.846 55.2187 174.451 55.6395 173.913C56.0624 173.378 56.3147 172.72 56.3493 172.033C56.3509 172.001 56.3355 171.973 56.3125 171.972C56.2907 171.972 56.2709 171.997 56.2683 172.03C56.2027 173.148 55.4923 174.114 54.4981 174.611C53.7989 174.965 52.9381 175.004 52.2053 174.694C51.4704 174.392 50.8757 173.746 50.6533 172.974C50.4139 172.157 50.5568 171.291 50.9872 170.643C51.416 169.993 52.1179 169.558 52.8597 169.472C53.3792 169.417 53.8816 169.474 54.3435 169.649C54.8048 169.825 55.2272 170.123 55.5504 170.535C55.7056 170.741 55.8283 170.967 55.9285 171.205C56.0224 171.446 56.0832 171.7 56.1237 171.965C56.1264 171.972 56.1328 171.975 56.1381 171.972C56.1419 171.969 56.144 171.961 56.1419 171.951Z" fill="#FDB514"/>
<path d="M55.6022 171.956C55.5206 171.304 55.1777 170.745 54.6956 170.373C54.2108 170.008 53.5996 169.828 52.9542 169.891C52.3409 169.954 51.7494 170.298 51.3686 170.833C50.9836 171.361 50.8268 172.097 50.9996 172.82C51.1361 173.414 51.55 173.943 52.0844 174.236C52.615 174.533 53.2518 174.615 53.8204 174.472C54.3884 174.337 54.8902 174.006 55.2305 173.561C55.5729 173.117 55.7761 172.586 55.8086 172.022C55.8102 171.996 55.7948 171.973 55.7718 171.972C55.75 171.972 55.7302 171.993 55.7281 172.02C55.6652 172.928 55.087 173.697 54.2892 174.114C53.7286 174.41 53.0193 174.452 52.4204 174.201C51.8182 173.958 51.3292 173.421 51.158 172.79C50.9724 172.122 51.1014 171.417 51.4572 170.905C51.8129 170.387 52.3846 170.052 52.9708 169.999C53.383 169.967 53.7766 170.014 54.1388 170.148C54.5009 170.284 54.838 170.513 55.1009 170.836C55.2262 170.997 55.3265 171.174 55.4108 171.362C55.4892 171.552 55.542 171.754 55.5825 171.967C55.5852 171.972 55.5916 171.976 55.5969 171.973C55.6022 171.97 55.6044 171.963 55.6022 171.956Z" fill="#FDB514"/>
<path d="M104.007 182.591H97.5117L98.3192 176.537H103.2L104.007 182.591Z" fill="#FDB514"/>
<path opacity="0.1" d="M104.007 182.591H97.5117L98.3192 176.537H103.2L104.007 182.591Z" fill="black"/>
<path d="M106.825 172.21C106.825 175.553 104.116 178.262 100.772 178.262C97.4292 178.262 94.7188 175.553 94.7188 172.21C94.7188 168.867 97.4292 166.156 100.772 166.156C104.115 166.157 106.825 168.867 106.825 172.21Z" fill="#FDB514"/>
<path d="M105.383 172.21C105.383 174.751 103.323 176.811 100.781 176.811C98.24 176.811 96.1797 174.751 96.1797 172.21C96.1797 169.668 98.24 167.608 100.781 167.608C103.323 167.608 105.383 169.668 105.383 172.21Z" fill="white"/>
<path d="M104.623 171.943C104.541 170.819 103.97 169.784 103.12 169.119C102.268 168.451 101.14 168.142 100.025 168.308C98.9468 168.469 97.9671 169.109 97.3649 170.038C96.7548 170.967 96.5489 172.185 96.8796 173.357C97.1457 174.318 97.8167 175.15 98.6764 175.632C99.5351 176.12 100.562 176.271 101.493 176.064C102.431 175.868 103.275 175.342 103.856 174.618C104.441 173.898 104.791 172.99 104.828 172.054C104.831 172.01 104.815 171.973 104.792 171.972C104.77 171.972 104.75 172.006 104.747 172.051C104.732 172.431 104.649 172.804 104.532 173.16C104.407 173.516 104.233 173.85 104.024 174.159C103.807 174.464 103.554 174.741 103.269 174.987C102.98 175.228 102.66 175.434 102.314 175.605C101.338 176.073 100.175 176.106 99.1735 175.68C98.1735 175.262 97.3671 174.395 97.0428 173.343C96.6945 172.229 96.8668 171.039 97.4455 170.122C98.0204 169.205 98.982 168.571 100.035 168.418C101.489 168.208 102.957 168.742 103.847 169.935C104.062 170.229 104.231 170.552 104.361 170.892C104.486 171.234 104.562 171.592 104.602 171.96C104.605 171.971 104.611 171.974 104.616 171.971C104.623 171.968 104.625 171.956 104.623 171.943Z" fill="#FDB514"/>
<path d="M104.081 171.947C104 170.98 103.504 170.104 102.777 169.537C102.047 168.97 101.092 168.704 100.134 168.836C99.2105 168.964 98.3603 169.506 97.8318 170.303C97.2969 171.099 97.107 172.156 97.3854 173.178C97.6083 174.017 98.1934 174.749 98.9449 175.167C99.6942 175.592 100.591 175.719 101.401 175.534C102.216 175.358 102.946 174.898 103.447 174.266C103.951 173.638 104.252 172.855 104.288 172.044C104.29 172.006 104.274 171.973 104.251 171.972C104.229 171.972 104.209 172.002 104.207 172.041C104.138 173.367 103.295 174.532 102.105 175.108C101.268 175.519 100.255 175.555 99.3881 175.187C98.5203 174.827 97.8201 174.07 97.547 173.159C97.2531 172.194 97.4105 171.165 97.915 170.383C98.4169 169.599 99.2489 169.065 100.146 168.945C101.388 168.783 102.625 169.223 103.397 170.236C103.582 170.486 103.728 170.76 103.843 171.049C103.952 171.341 104.021 171.646 104.061 171.963C104.064 171.972 104.07 171.975 104.075 171.972C104.081 171.969 104.083 171.958 104.081 171.947Z" fill="#FDB514"/>
<path d="M103.54 171.951C103.458 171.142 103.039 170.425 102.435 169.955C101.827 169.489 101.044 169.266 100.243 169.363C99.4743 169.459 98.7538 169.902 98.2988 170.568C97.8391 171.229 97.6658 172.126 97.8914 172.998C98.0711 173.715 98.5708 174.346 99.2135 174.701C99.8535 175.062 100.62 175.167 101.31 175.003C102.001 174.846 102.617 174.451 103.038 173.913C103.461 173.378 103.714 172.72 103.748 172.033C103.749 172 103.734 171.973 103.711 171.972C103.689 171.972 103.669 171.997 103.667 172.03C103.601 173.148 102.89 174.114 101.897 174.611C101.197 174.965 100.337 175.004 99.6039 174.694C98.869 174.392 98.2743 173.746 98.0519 172.974C97.8119 172.157 97.9554 171.291 98.3858 170.643C98.8146 169.992 99.5164 169.558 100.258 169.472C100.778 169.417 101.28 169.474 101.742 169.649C102.203 169.825 102.626 170.123 102.949 170.535C103.104 170.741 103.227 170.967 103.327 171.205C103.421 171.446 103.482 171.7 103.522 171.965C103.524 171.972 103.531 171.975 103.536 171.972C103.54 171.969 103.542 171.96 103.54 171.951Z" fill="#FDB514"/>
<path d="M103.008 171.956C102.926 171.304 102.583 170.745 102.101 170.373C101.616 170.008 101.005 169.828 100.36 169.891C99.7472 169.954 99.1557 170.298 98.7749 170.833C98.3898 171.361 98.233 172.096 98.4058 172.82C98.5424 173.414 98.9562 173.943 99.4906 174.236C100.021 174.533 100.658 174.615 101.227 174.472C101.795 174.336 102.296 174.006 102.637 173.56C102.979 173.117 103.182 172.586 103.215 172.022C103.216 171.996 103.201 171.973 103.178 171.972C103.156 171.972 103.136 171.992 103.134 172.02C103.071 172.928 102.493 173.697 101.695 174.114C101.135 174.41 100.426 174.452 99.8266 174.201C99.2245 173.958 98.7354 173.421 98.5642 172.79C98.3786 172.122 98.5077 171.416 98.8634 170.904C99.2192 170.387 99.7909 170.052 100.377 169.999C100.789 169.967 101.183 170.014 101.545 170.148C101.907 170.284 102.244 170.513 102.507 170.836C102.632 170.997 102.733 171.174 102.817 171.362C102.895 171.552 102.948 171.754 102.989 171.967C102.991 171.972 102.998 171.976 103.003 171.973C103.008 171.97 103.01 171.963 103.008 171.956Z" fill="#FDB514"/>
<path d="M117.943 179.505H36.3203V195.117H117.943V179.505Z" fill="white" stroke="#263238" stroke-width="0.266667" stroke-miterlimit="10"/>
<path d="M53.1013 179.505L47.1775 195.117H36.6367L42.5605 179.505H53.1013Z" fill="#FDB514"/>
<path d="M74.7065 179.505L68.7828 195.117H58.2383L64.162 179.505H74.7065Z" fill="#FDB514"/>
<path d="M96.3161 179.505L90.3924 195.117H79.8516L85.7753 179.505H96.3161Z" fill="#FDB514"/>
<path d="M117.917 179.505L111.993 195.117H101.449L107.373 179.505H117.917Z" fill="#FDB514"/>
<path d="M116.291 214.199H37.9727V224.079H116.291V214.199Z" fill="white" stroke="#263238" stroke-width="0.266667" stroke-miterlimit="10"/>
<path d="M54.0635 214.199L48.3792 224.079H38.2656L43.9494 214.199H54.0635Z" fill="#FDB514"/>
<path d="M74.8016 214.199L69.1179 224.079H59L64.6843 214.199H74.8016Z" fill="#FDB514"/>
<path d="M95.5283 214.199L89.8441 224.079H79.7305L85.4142 214.199H95.5283Z" fill="#FDB514"/>
<path d="M116.263 214.199L110.578 224.079H100.461L106.145 214.199H116.263Z" fill="#FDB514"/>
<path d="M89.497 190.255C91.1251 183.432 86.9136 176.58 80.0904 174.952C73.2671 173.324 66.4159 177.536 64.7878 184.359C63.1597 191.182 67.3712 198.033 74.1944 199.661C81.0177 201.289 87.8689 197.078 89.497 190.255Z" fill="white" stroke="#263238" stroke-width="0.266667" stroke-miterlimit="10"/>
<path d="M87.6267 189.814C89.0055 184.028 85.4324 178.219 79.646 176.84C73.8596 175.461 68.0511 179.034 66.6723 184.821C65.2935 190.607 68.8666 196.416 74.653 197.795C80.4394 199.173 86.2479 195.6 87.6267 189.814Z" fill="#FDB514"/>
<path d="M83.8923 186.06H70.3867V188.563H83.8923V186.06Z" fill="white"/>
<path d="M254.863 234.402L257.564 215.828L258.348 216.18L259.598 216.749L265.016 219.195L269.874 221.389L273.071 222.833L277.925 225.027L280.59 226.231C282.686 227.367 282.231 230.498 279.898 230.99L278.774 231.145L278.77 231.144L277.001 231.385L271.723 232.102L268.247 232.576L262.965 233.297L260.758 233.597L254.863 234.402Z" fill="#FDB514"/>
<path opacity="0.1" d="M258.483 216.347C258.483 216.347 258.091 217.421 257.493 218.353C255.844 220.921 254.652 226.182 255.55 232.247C255.626 232.76 255.711 233.668 255.95 234.161L257.079 234.086C257.079 234.086 262.343 222.531 279.557 225.746L277.929 225.011L273.075 222.82L269.878 221.376L265.02 219.181L258.483 216.347Z" fill="black"/>
<path d="M271.727 232.103L273.074 222.833L277.929 225.028L277.004 231.386L271.727 232.103Z" fill="#EBEBEB"/>
<path d="M262.961 233.297L265.012 219.195L269.87 221.389L268.243 232.577L262.961 233.297Z" fill="#EBEBEB"/>
<path d="M207.475 233.939H189.395L189.622 233.144L189.99 231.873L191.571 226.37L192.99 221.435L193.923 218.187L195.342 213.256L196.12 210.549C196.912 208.393 199.96 208.393 200.752 210.549L201.055 211.599V211.603L201.53 213.256L202.945 218.187L203.879 221.435L205.297 226.37L205.89 228.433L207.475 233.939Z" fill="#FDB514"/>
<path d="M208.122 238.631H184.359L188.148 229.247H211.91L208.122 238.631Z" fill="#FDB514"/>
<path d="M202.944 218.188H193.922L195.341 213.256H201.529L202.944 218.188Z" fill="#EBEBEB"/>
<path d="M205.301 226.37H191.574L192.993 221.435H203.882L205.301 226.37Z" fill="#EBEBEB"/>
<path d="M189.137 232.681C190.603 233.366 192.154 233.789 193.719 234.076C195.286 234.352 196.875 234.463 198.464 234.437C199.257 234.384 200.054 234.379 200.841 234.255C201.236 234.204 201.635 234.178 202.027 234.107C202.418 234.03 202.81 233.96 203.204 233.891C203.401 233.854 203.599 233.827 203.794 233.782L204.376 233.636L205.546 233.354C206.321 233.144 207.083 232.886 207.87 232.68C207.142 233.027 206.405 233.373 205.65 233.675L204.497 234.07L203.916 234.263C203.721 234.322 203.522 234.363 203.324 234.414C202.929 234.513 202.532 234.61 202.134 234.7C201.736 234.789 201.328 234.833 200.925 234.902C200.119 235.048 199.297 235.06 198.481 235.124C196.842 235.139 195.198 234.992 193.607 234.598C192.024 234.207 190.466 233.618 189.137 232.681Z" fill="#263238"/>
<path opacity="0.1" d="M189.762 232.994C189.762 232.994 190.84 233.219 191.811 233.66C194.487 234.875 199.668 235.283 205.324 233.586C205.802 233.442 206.656 233.235 207.093 232.939L206.865 231.873C206.865 231.873 195.121 228.457 195.8 211.603L195.324 213.256L193.909 218.188L192.976 221.435L191.557 226.37L189.762 232.994Z" fill="black"/>
<path d="M249.941 234.366L253.491 209.954L262.566 215.248L259.017 239.66L249.941 234.366Z" fill="#FDB514"/>
<path d="M258.981 225.352C258.474 229.863 256.84 233.382 255.332 233.212C253.825 233.043 253.015 229.249 253.523 224.738C254.03 220.227 255.664 216.708 257.172 216.878C258.679 217.047 259.489 220.841 258.981 225.352Z" fill="#263238"/>
<path d="M299.693 238.598C300.755 238.929 330.888 238.283 332.023 237.533C332.451 237.253 332.614 232.855 332.658 227.541C332.67 226.392 332.671 225.212 332.667 224.003C332.664 222.578 332.655 221.135 332.639 219.733C332.559 213.439 332.369 207.899 332.369 207.899L312.751 208.262L312.979 220.097L313.063 224.366L313.23 227.9C313.23 227.9 301.805 233.309 300.651 234.267C299.501 235.221 298.635 238.271 299.693 238.598Z" fill="#D3766A"/>
<path d="M299.693 238.598C300.755 238.928 330.888 238.283 332.023 237.533C332.451 237.253 332.614 232.855 332.658 227.541C332.67 226.392 332.671 225.212 332.667 224.003C332.664 222.578 332.655 221.135 332.639 219.733L312.979 220.096L313.063 224.366L313.23 227.9C313.23 227.9 301.805 233.309 300.651 234.267C299.501 235.221 298.635 238.271 299.693 238.598Z" fill="white"/>
<path d="M299.609 238.645C300.3 238.858 313.137 238.667 322.479 238.3C324.641 238.214 326.617 238.117 328.211 238.018C330.409 237.876 331.882 237.729 332.118 237.572C332.642 237.221 332.777 230.771 332.771 223.969L313.056 224.333L313.224 227.886C313.224 227.886 301.734 233.324 300.571 234.286C299.417 235.249 298.547 238.309 299.609 238.645Z" fill="#FDB514"/>
<path d="M300.029 237.423C305.106 237.19 325.603 236.727 330.639 236.883C330.681 236.884 330.681 236.912 330.64 236.915C325.613 237.256 305.113 237.552 300.03 237.507C299.923 237.506 299.922 237.429 300.029 237.423Z" fill="#263238"/>
<path d="M312.496 226.774C314.487 226.358 316.938 226.613 318.496 228.004C318.556 228.058 318.479 228.143 318.414 228.124C316.428 227.545 314.579 227.186 312.51 227.027C312.364 227.015 312.354 226.804 312.496 226.774Z" fill="#263238"/>
<path d="M311.062 227.675C313.053 227.259 315.505 227.514 317.062 228.904C317.122 228.958 317.045 229.043 316.98 229.024C314.995 228.445 313.145 228.085 311.076 227.927C310.93 227.916 310.92 227.704 311.062 227.675Z" fill="#263238"/>
<path d="M309.644 228.575C311.635 228.159 314.087 228.414 315.644 229.805C315.705 229.859 315.627 229.943 315.562 229.925C313.577 229.346 311.727 228.986 309.658 228.827C309.512 228.816 309.502 228.605 309.644 228.575Z" fill="#263238"/>
<path d="M308.223 229.475C310.213 229.059 312.665 229.314 314.223 230.705C314.283 230.759 314.205 230.844 314.14 230.825C312.155 230.246 310.305 229.886 308.236 229.727C308.09 229.716 308.08 229.505 308.223 229.475Z" fill="#263238"/>
<path d="M309.66 225.059C311.097 226.128 312.947 226.537 314.611 227.113C314.783 227.173 314.916 227.009 314.919 226.856C314.951 226.85 314.979 226.824 314.964 226.783C314.384 225.125 313.164 223.377 311.788 222.271C310.939 221.588 309.466 221.132 308.703 222.231C307.982 223.27 308.821 224.434 309.66 225.059ZM309.117 223.461C308.718 221.276 311.097 222.377 311.703 222.906C312.092 223.245 312.448 223.638 312.787 224.027C313.496 224.843 314.077 225.743 314.7 226.622C313.9 226.289 313.078 226.027 312.267 225.724C311.3 225.363 309.337 224.666 309.117 223.461Z" fill="#263238"/>
<path d="M321.575 223.595C321.065 222.359 319.528 222.489 318.553 222.975C316.973 223.763 315.407 225.21 314.486 226.706C314.463 226.742 314.485 226.773 314.515 226.787C314.485 226.936 314.58 227.124 314.761 227.103C316.51 226.895 318.404 226.891 320.037 226.153C320.989 225.722 322.057 224.764 321.575 223.595ZM317.347 226.246C316.49 226.369 315.632 226.449 314.779 226.604C315.574 225.878 316.334 225.122 317.202 224.477C317.616 224.17 318.047 223.861 318.501 223.613C319.206 223.226 321.765 222.658 320.908 224.708C320.436 225.838 318.369 226.1 317.347 226.246Z" fill="#263238"/>
<path opacity="0.2" d="M315.035 238.536C317.572 238.471 320.138 238.388 322.483 238.297C324.644 238.215 326.62 238.119 328.215 238.018C330.411 237.876 331.885 237.73 332.12 237.571C332.58 237.265 332.743 232.281 332.767 226.478C328.295 229.468 319.506 235.475 315.035 238.536Z" fill="black"/>
<path d="M311.281 227.658L333.668 227.681C333.668 227.681 332.44 177.287 332.681 176.111C333.259 173.308 345.99 128.877 345.99 128.877L328.311 129.181L322.275 129.288C322.275 129.288 322.796 136.686 322.583 137.471C319.63 148.25 313.863 166.654 312.685 173.478C310.646 185.303 311.281 227.658 311.281 227.658Z" fill="#263238"/>
<path d="M311.998 223.916C315.49 223.826 327.861 223.458 332.517 223.805C332.552 223.808 332.552 223.867 332.517 223.873C330.922 224.132 315.491 224.06 311.999 224.012C311.933 224.012 311.933 223.918 311.998 223.916Z" fill="#37474F"/>
<path d="M330.92 174.998C331.588 172.274 336.574 155.303 338.1 149.941C339.624 144.585 341.055 139.198 342.371 133.787C342.538 133.1 342.707 132.416 342.889 131.733C342.905 131.676 342.988 131.701 342.977 131.758C342.474 134.483 341.809 137.185 341.168 139.881C340.527 142.579 339.845 145.265 339.126 147.944C337.681 153.324 336.109 158.671 334.396 163.973C333.542 166.616 332.134 172.042 331.385 174.717C330.637 177.387 331.86 221.275 331.782 221.987C331.76 222.188 331.467 222.192 331.463 221.985C331.367 216.813 330.26 177.69 330.92 174.998Z" fill="#37474F"/>
<path d="M328.305 129.179C328.305 129.179 332.628 176.338 332.676 176.109C333.234 173.396 345.201 131.615 345.953 129.003C345.978 128.919 345.987 128.878 345.987 128.878L328.305 129.179Z" fill="#37474F"/>
<path d="M322.912 241.181C323.974 241.511 354.106 240.866 355.241 240.116C355.669 239.836 355.832 235.438 355.877 230.124C355.888 228.975 355.889 227.795 355.886 226.587C355.882 225.162 355.874 223.718 355.857 222.316C355.778 216.022 355.587 210.482 355.587 210.482L335.97 210.845L336.198 222.68L336.282 226.95L336.449 230.484C336.449 230.484 325.023 235.893 323.87 236.851C322.72 237.804 321.854 240.854 322.912 241.181Z" fill="#D3766A"/>
<path d="M322.912 241.181C323.974 241.511 354.106 240.866 355.241 240.116C355.669 239.836 355.832 235.438 355.877 230.124C355.888 228.975 355.889 227.795 355.886 226.587C355.882 225.162 355.874 223.718 355.857 222.316L336.198 222.68L336.282 226.949L336.449 230.484C336.449 230.484 325.023 235.893 323.87 236.851C322.72 237.804 321.854 240.854 322.912 241.181Z" fill="white"/>
<path d="M322.828 241.228C323.519 241.441 336.355 241.25 345.697 240.883C347.859 240.797 349.835 240.7 351.429 240.601C353.627 240.459 355.1 240.312 355.337 240.155C355.86 239.804 355.995 233.354 355.989 226.551L336.274 226.916L336.442 230.469C336.442 230.469 324.952 235.908 323.789 236.87C322.636 237.832 321.765 240.892 322.828 241.228Z" fill="#FDB514"/>
<path d="M323.232 240.006C328.309 239.773 348.806 239.31 353.843 239.466C353.884 239.467 353.884 239.495 353.843 239.498C348.816 239.839 328.315 240.135 323.234 240.09C323.126 240.088 323.125 240.011 323.232 240.006Z" fill="#263238"/>
<path d="M335.7 229.357C337.69 228.941 340.142 229.195 341.7 230.587C341.76 230.64 341.682 230.725 341.617 230.707C339.632 230.127 337.782 229.768 335.713 229.609C335.567 229.598 335.557 229.387 335.7 229.357Z" fill="#263238"/>
<path d="M334.266 230.257C336.257 229.841 338.708 230.096 340.265 231.487C340.325 231.541 340.248 231.626 340.182 231.607C338.197 231.028 336.347 230.668 334.278 230.509C334.133 230.499 334.123 230.287 334.266 230.257Z" fill="#263238"/>
<path d="M332.848 231.158C334.838 230.742 337.29 230.997 338.848 232.388C338.908 232.442 338.83 232.526 338.765 232.508C336.78 231.928 334.93 231.569 332.861 231.41C332.715 231.399 332.705 231.187 332.848 231.158Z" fill="#263238"/>
<path d="M331.426 232.058C333.417 231.642 335.868 231.897 337.426 233.288C337.486 233.342 337.409 233.427 337.344 233.408C335.358 232.829 333.508 232.469 331.44 232.31C331.293 232.299 331.283 232.087 331.426 232.058Z" fill="#263238"/>
<path d="M332.867 227.641C334.304 228.71 336.154 229.119 337.818 229.695C337.99 229.755 338.123 229.591 338.126 229.439C338.159 229.432 338.186 229.407 338.171 229.366C337.591 227.708 336.371 225.96 334.995 224.854C334.146 224.171 332.672 223.715 331.91 224.814C331.189 225.853 332.028 227.017 332.867 227.641ZM332.324 226.044C331.925 223.858 334.304 224.959 334.91 225.488C335.299 225.828 335.655 226.221 335.994 226.61C336.703 227.425 337.285 228.326 337.907 229.204C337.107 228.871 336.285 228.61 335.474 228.307C334.507 227.946 332.544 227.248 332.324 226.044Z" fill="#263238"/>
<path d="M344.782 226.178C344.272 224.942 342.735 225.071 341.76 225.558C340.18 226.345 338.614 227.792 337.693 229.288C337.67 229.325 337.692 229.355 337.722 229.369C337.692 229.518 337.787 229.707 337.968 229.685C339.717 229.478 341.611 229.473 343.244 228.735C344.196 228.305 345.264 227.347 344.782 226.178ZM340.554 228.829C339.697 228.951 338.839 229.031 337.986 229.186C338.781 228.461 339.541 227.704 340.409 227.06C340.823 226.752 341.254 226.444 341.707 226.195C342.412 225.808 344.972 225.24 344.115 227.291C343.643 228.421 341.576 228.683 340.554 228.829Z" fill="#263238"/>
<path d="M335.128 229.938L356.851 229.536C356.851 229.536 350.751 151.187 351.509 147.035C352.751 140.24 351.693 132.485 348.425 128.803L327.257 129.195C327.257 129.195 326.947 135.143 329.197 138.651C329.197 138.651 331.206 139.869 332.181 140.405L335.128 229.938Z" fill="#263238"/>
<path d="M335.713 226.081C339.007 225.934 338.06 225.93 341.355 225.82C342.968 225.766 353.564 225.421 355.077 225.634C355.111 225.639 355.112 225.695 355.079 225.701C353.578 225.987 342.977 226.147 341.363 226.17C338.066 226.217 339.012 226.167 335.715 226.177C335.654 226.178 335.651 226.085 335.713 226.081Z" fill="#37474F"/>
<path d="M327.855 137.722C329.963 138.65 331.965 139.873 333.871 141.138C333.946 141.188 333.883 141.301 333.801 141.257C331.767 140.181 329.688 139.138 327.718 137.956C327.563 137.863 327.693 137.651 327.855 137.722Z" fill="#37474F"/>
<path d="M330.547 137.367C330.68 137.774 330.779 138.193 330.857 138.613C330.917 138.938 331.008 139.293 330.939 139.62C330.926 139.684 330.837 139.681 330.806 139.634C330.61 139.342 330.551 138.962 330.458 138.629C330.35 138.242 330.233 137.858 330.136 137.469C330.072 137.212 330.464 137.117 330.547 137.367Z" fill="#37474F"/>
<path d="M330.694 135.325C330.631 134.972 330.568 134.62 330.497 134.269C330.424 133.906 330.327 133.543 330.282 133.175C330.275 133.117 330.182 133.136 330.192 133.195C330.254 133.548 330.267 133.913 330.302 134.27C330.337 134.628 330.378 134.985 330.421 135.343C330.499 136.008 330.626 136.678 330.771 137.334C330.426 137.258 330.073 137.17 329.79 136.949C329.484 136.708 329.351 136.303 329.25 135.94C329.139 135.537 329.043 135.129 328.926 134.729C328.795 134.285 328.642 133.842 328.591 133.38C328.584 133.322 328.492 133.341 328.5 133.4C328.635 134.359 328.766 135.316 329.092 136.241C329.22 136.605 329.309 136.974 329.642 137.175C329.999 137.39 330.426 137.45 330.833 137.504C330.88 137.528 330.951 137.509 330.946 137.446C330.893 136.74 330.819 136.021 330.694 135.325Z" fill="#37474F"/>
<path d="M348.069 146.828C348.192 145.269 348.417 143.721 348.558 142.164C348.841 139.032 348.549 135.913 347.822 132.858C347.808 132.801 347.898 132.777 347.91 132.835C348.477 135.533 348.977 138.228 348.893 140.998C348.809 143.742 348.373 146.457 348.38 149.208C348.387 151.995 348.657 154.773 348.887 157.548C349.119 160.339 349.35 163.129 349.582 165.92C350.512 177.137 351.386 188.36 352.278 199.58C352.527 202.712 352.762 205.845 353.001 208.977C353.245 212.165 353.613 220.029 353.791 223.221C353.807 223.496 353.396 223.484 353.368 223.218C352.786 217.592 352.318 207.264 351.854 201.627C351.395 196.047 350.965 190.464 350.52 184.883C350.075 179.301 349.637 173.72 349.201 168.138C348.983 165.348 348.774 162.557 348.561 159.766C348.349 156.986 348.092 154.205 347.999 151.418C347.948 149.888 347.949 148.354 348.069 146.828Z" fill="#37474F"/>
<path d="M340.304 132.803C340.319 132.768 340.366 132.756 340.388 132.793C340.567 133.091 340.546 133.588 340.609 133.931C340.686 134.347 340.78 134.756 340.921 135.155C341.206 135.965 341.584 136.684 342.231 137.268C343.586 138.49 345.378 138.918 347.107 139.307C347.171 139.321 347.15 139.409 347.092 139.414C346.081 139.505 345.048 139.308 344.086 139.001C343.236 138.73 342.413 138.35 341.745 137.748C341.081 137.149 340.662 136.372 340.454 135.507C340.347 135.064 340.31 134.593 340.285 134.139C340.273 133.918 340.266 133.697 340.263 133.476C340.259 133.26 340.218 133.004 340.304 132.803Z" fill="#37474F"/>
<path d="M332.008 100.293C323.159 106.859 308.761 107.451 307.152 106.711C303.757 105.149 298.819 90.4748 297.625 85.1265C297.279 83.5766 308.474 83.9606 309.598 85.2332C310.62 86.3905 313.086 96.5276 314.115 96.6758C314.663 96.7548 323.324 96.8988 329.542 96.2508C336.967 95.4764 334.623 98.3526 332.008 100.293Z" fill="#D3766A"/>
<path d="M321.086 95.9068L322.412 106.266C322.412 106.266 330.291 103.184 333.72 100.019C337.149 96.855 335.191 95.6977 331.768 95.5212C328.346 95.3447 321.086 95.9068 321.086 95.9068Z" fill="#EBEBEB"/>
<path d="M322.775 96.23C322.765 96.1622 322.809 96.134 322.821 96.2006C323.442 99.5601 323.924 103.465 323.939 104.894C323.939 104.916 323.908 104.916 323.902 104.897C323.541 103.499 322.89 96.9745 322.775 96.23Z" fill="#263238"/>
<path d="M352.681 135.639C352.61 135.722 321.271 136.389 320.98 136.073C320.573 135.627 325.626 104.199 330.595 97.3403C331.838 95.6251 336.281 94.4454 338.136 96.1792C343.511 101.202 344.643 105.432 346.047 108.886C347.086 111.446 348.349 115.814 349.487 120.293C351.37 127.674 352.934 135.34 352.681 135.639Z" fill="#EBEBEB"/>
<path d="M338.669 96.2544C338.669 96.2544 334.055 106.786 333.295 109.471C332.255 113.149 330.738 137.407 330.738 137.407L353.161 136.097C353.161 136.097 348.881 111.843 344.015 103.238C340.185 96.4651 338.669 96.2544 338.669 96.2544Z" fill="#FDB514"/>
<path d="M331.396 96.7621C331.396 96.7621 328.795 106.372 328.28 107.812C327.765 109.253 323.233 137.423 323.233 137.423L320.469 136.394C320.469 136.394 323.576 116.893 326.32 106.967C329.064 97.0416 331.396 96.7621 331.396 96.7621Z" fill="#FDB514"/>
<path d="M331.398 127.918L351.463 127.876C351.295 127.123 351.117 126.334 350.928 125.518L331.581 125.559C331.515 126.359 331.459 127.149 331.398 127.918Z" fill="#EBEBEB"/>
<path d="M321.91 127.938L324.778 127.932C324.901 127.163 325.034 126.373 325.168 125.572L322.336 125.578C322.187 126.389 322.043 127.179 321.91 127.938Z" fill="#EBEBEB"/>
<path d="M331.09 132.059L352.339 132.015C352.192 131.303 352.024 130.514 351.84 129.662L331.262 129.706C331.201 130.536 331.145 131.326 331.09 132.059Z" fill="#EBEBEB"/>
<path d="M321.188 132.08L324.102 132.074C324.22 131.336 324.349 130.546 324.482 129.72L321.593 129.726C321.449 130.573 321.311 131.363 321.188 132.08Z" fill="#EBEBEB"/>
<path d="M342.119 103.08C343.311 111.865 341.63 124.095 339.63 125.519C333.925 129.58 324.104 131.74 319.931 132.225C317.495 132.507 316.489 120.484 318.64 120.126C322.032 119.56 330.15 117.833 331.302 117.318C332.453 116.802 334.681 108.785 336.781 102.968C339.064 96.6445 341.541 98.8232 342.119 103.08Z" fill="#D3766A"/>
<path d="M321.351 120.536C321.351 120.536 318.332 118.562 316.405 116.034C314.785 113.909 312.62 110.571 311.445 111.399C309.032 113.099 314.435 121.424 314.435 121.424C314.435 121.424 317.408 124.713 319.948 123.24C321.541 122.316 321.351 120.536 321.351 120.536Z" fill="#D3766A"/>
<path d="M304.664 120.832C304.252 122.065 305.341 122.854 305.341 122.854C305.341 122.854 304.522 123.491 304.385 124.479C304.228 125.61 305.932 126.352 305.932 126.352C305.932 126.352 305.236 127.169 305.197 128.226C305.155 129.324 306.769 130.318 306.769 130.318C306.769 130.318 306.538 131.434 307.16 132.373C308.221 133.979 311.16 133.902 313.029 133.873C314.897 133.843 320.17 132.009 321.21 131.762L321.123 119.768C321.123 119.768 312.707 117.517 310.515 117.864C308.669 118.154 305.127 119.449 304.664 120.832Z" fill="#D3766A"/>
<path d="M305.419 122.661C307.308 121.88 309.325 121.699 311.328 121.405C311.372 121.399 311.382 121.468 311.338 121.474C309.342 121.744 307.426 122.407 305.445 122.755C305.39 122.764 305.368 122.682 305.419 122.661Z" fill="#263238"/>
<path d="M305.959 126.195C306.392 126.031 306.877 126.01 307.334 125.966C307.826 125.919 308.318 125.88 308.811 125.849C309.798 125.786 310.786 125.746 311.775 125.736C311.819 125.735 311.83 125.802 311.784 125.805C310.801 125.869 309.819 125.947 308.839 126.053C308.349 126.106 307.859 126.163 307.37 126.223C306.914 126.279 306.438 126.375 305.979 126.329C305.91 126.322 305.894 126.219 305.959 126.195Z" fill="#263238"/>
<path d="M306.804 130.314C307.174 130.156 307.655 130.191 308.052 130.174C308.502 130.155 308.952 130.133 309.402 130.109C310.302 130.061 311.202 130.013 312.1 129.933C312.144 129.93 312.154 129.999 312.109 130.003C311.198 130.088 310.288 130.186 309.375 130.264C308.927 130.301 308.479 130.337 308.031 130.37C307.649 130.399 307.176 130.477 306.805 130.36C306.783 130.352 306.785 130.321 306.804 130.314Z" fill="#263238"/>
<path d="M333.477 111.372L343.578 114.021C343.578 114.021 343.671 105.562 342.021 101.197C340.371 96.832 338.565 98.2144 337.12 101.322C335.674 104.43 333.477 111.372 333.477 111.372Z" fill="#EBEBEB"/>
<path d="M334.411 109.923C334.344 109.907 334.334 109.856 334.4 109.869C337.748 110.552 341.549 111.567 342.88 112.088C342.901 112.096 342.889 112.126 342.869 112.123C341.437 111.935 335.144 110.096 334.411 109.923Z" fill="#263238"/>
<path d="M354.033 79.5953C358.81 79.7665 362.847 82.67 364.695 86.742L354.722 86.3841L352.601 91.7414L354.333 97.2369L364.312 97.5948C362.171 101.53 357.937 104.13 353.159 103.959C346.436 103.718 341.173 98.07 341.414 91.3404C341.655 84.6166 347.309 79.3542 354.033 79.5953Z" fill="#455A64"/>
<path d="M283.138 101.451C278.361 101.28 274.324 98.3767 272.477 94.3047L282.449 94.6625L284.57 89.3052L282.839 83.8097L272.859 83.4519C275 79.5164 279.234 76.9164 284.012 77.0876C290.736 77.3287 295.998 82.9767 295.757 89.7063C295.517 96.4295 289.862 101.692 283.138 101.451Z" fill="#455A64"/>
<path d="M290.562 84.0731L290.172 94.9263L349.427 97.0548L349.817 86.2016L290.562 84.0731Z" fill="#455A64"/>
<path d="M307.871 87.8903L307.711 92.3596L332.113 93.2362L332.274 88.7669L307.871 87.8903Z" fill="#37474F"/>
<path d="M332.563 100.535C333.861 100.787 336.94 98.7456 338.305 96.8427C338.398 96.712 338.364 95.2123 338.408 93.3883C338.439 92.2816 338.5 91.0496 338.637 89.9302L331.404 90.7792C331.404 90.7792 331.808 93.2112 331.558 95.1622C331.535 95.3254 331.5 95.4747 331.453 95.616C331.448 95.6368 331.439 95.6619 331.434 95.6907C331.185 96.5462 330.529 100.141 332.563 100.535Z" fill="#D3766A"/>
<path d="M331.457 95.6172C331.454 95.6374 331.445 95.6625 331.435 95.6924C331.652 95.7484 331.893 95.7921 332.157 95.8182C336.238 96.2241 337.862 91.3382 338.231 89.9825L331.406 90.7788C331.406 90.7788 331.811 93.2113 331.563 95.1601C331.536 95.3249 331.501 95.4769 331.457 95.6172Z" fill="#263238"/>
<path d="M339.903 80.4534C340.667 82.9628 339.339 90.2102 337.554 91.8257C334.966 94.1676 330.73 94.3894 328.741 91.2785C326.813 88.263 328.711 78.8486 330.705 77.3809C333.642 75.2193 338.774 76.7468 339.903 80.4534Z" fill="#D3766A"/>
<path d="M333.847 84.9159C333.855 84.8983 333.88 84.9473 333.875 84.9671C333.751 85.4481 333.691 86.0193 334.093 86.278C334.106 86.286 334.099 86.31 334.083 86.3041C333.565 86.1095 333.653 85.3516 333.847 84.9159Z" fill="#263238"/>
<path d="M334.395 84.5068C335.187 84.622 334.899 86.198 334.165 86.0914C333.442 85.9863 333.731 84.4103 334.395 84.5068Z" fill="#263238"/>
<path d="M330.801 84.318C330.8 84.2988 330.758 84.334 330.755 84.3543C330.682 84.8455 330.514 85.3953 330.043 85.4764C330.029 85.4791 330.026 85.5036 330.042 85.5041C330.595 85.5271 330.81 84.7948 330.801 84.318Z" fill="#263238"/>
<path d="M330.457 83.7286C329.683 83.5254 329.334 85.0892 330.051 85.2769C330.757 85.4625 331.107 83.8988 330.457 83.7286Z" fill="#263238"/>
<path d="M335.152 83.8998C334.947 83.8065 334.774 83.6865 334.581 83.5729C334.363 83.4449 334.176 83.366 334.062 83.1286C334 83.0012 334.071 82.806 334.189 82.735C334.464 82.5692 334.769 82.6593 335.038 82.8022C335.329 82.9574 335.513 83.1516 335.641 83.4556C335.765 83.75 335.422 84.023 335.152 83.8998Z" fill="#263238"/>
<path d="M330.021 83.014C330.247 83.0182 330.455 82.9846 330.677 82.966C330.929 82.9446 331.132 82.9537 331.337 82.7894C331.448 82.7014 331.468 82.4945 331.393 82.3793C331.217 82.111 330.902 82.0604 330.599 82.0737C330.269 82.0876 330.018 82.183 329.772 82.4022C329.533 82.6145 329.724 83.0086 330.021 83.014Z" fill="#263238"/>
<path d="M333.059 89.5164C332.921 89.6092 332.776 89.7452 332.596 89.7282C332.424 89.7111 332.238 89.5986 332.094 89.5095C332.079 89.501 332.061 89.5143 332.068 89.5308C332.161 89.7415 332.406 89.9074 332.639 89.909C332.868 89.9106 333.012 89.7399 333.102 89.5474C333.114 89.5202 333.079 89.5031 333.059 89.5164Z" fill="#263238"/>
<path d="M332.816 87.9612C332.465 88.335 332.021 88.4929 331.571 88.4977C331.37 88.5014 331.165 88.4705 330.968 88.4156C330.929 88.4076 330.891 88.3958 330.856 88.3814C330.822 88.3708 330.79 88.3606 330.752 88.3457C330.697 88.327 330.674 88.2742 330.675 88.2188L330.675 88.215C330.679 88.1969 330.682 88.183 330.689 88.166C330.689 88.166 330.689 88.166 330.69 88.1622L330.699 88.1196C330.757 87.742 330.898 87.1766 330.898 87.1766C330.748 87.2204 329.99 87.407 330.037 87.2129C330.432 85.6049 330.87 83.8172 331.602 82.3004C331.623 82.2492 331.703 82.2764 331.689 82.3292C331.371 83.8897 330.781 85.3836 330.437 86.9457C330.676 86.902 331.069 86.8113 331.265 86.8513C331.316 86.8764 330.973 87.9382 330.96 88.11C330.96 88.11 330.959 88.1169 330.96 88.1286C331.577 88.3249 332.088 88.2214 332.779 87.9094C332.82 87.8876 332.852 87.9276 332.816 87.9612Z" fill="#263238"/>
<path d="M331.219 88.2657C331.219 88.2657 331.47 88.7766 331.897 89.022C332.054 89.1132 332.23 89.1702 332.429 89.1542C332.838 89.1233 332.913 88.767 332.898 88.4481C332.886 88.1857 332.809 87.9478 332.809 87.9478C332.809 87.9478 332.142 88.3761 331.219 88.2657Z" fill="#263238"/>
<path d="M331.898 89.022C332.056 89.1132 332.232 89.1702 332.431 89.1542C332.84 89.1233 332.915 88.767 332.9 88.4481C332.474 88.4145 332.008 88.6225 331.898 89.022Z" fill="#FF9BBC"/>
<path d="M329.5 79.2193C329.608 79.0156 329.899 78.5057 330.184 78.5255C330.544 78.5452 330.729 79.1559 331.381 79.3985C332.298 79.7495 334.048 78.8636 335.319 79.3361C336.555 79.7953 337.248 81.1132 337.29 83.4513C337.333 85.7937 338.989 87.8215 339.645 86.3468C339.665 86.2924 339.705 86.1975 339.766 86.0615C340.162 83.8609 340.266 81.6343 339.904 80.4535C338.776 76.7489 333.64 75.2188 330.705 77.3836C330.284 77.6897 329.872 78.3495 329.5 79.2193Z" fill="#263238"/>
<path d="M338.363 86.36C338.363 86.36 340.05 84.0502 341.101 84.6566C342.153 85.263 340.851 88.6342 339.593 89.0736C338.336 89.5126 337.906 88.3563 337.906 88.3563L338.363 86.36Z" fill="#D3766A"/>
<path d="M340.707 85.6133C340.727 85.6117 340.73 85.64 340.712 85.6469C339.83 85.9835 339.352 86.7856 339.012 87.6208C339.279 87.3024 339.637 87.1318 340.065 87.4507C340.087 87.4678 340.065 87.503 340.04 87.4971C339.684 87.4128 339.423 87.4699 339.175 87.752C339 87.952 338.877 88.2064 338.75 88.4389C338.707 88.5163 338.567 88.4715 338.598 88.3819C338.6 88.3755 338.604 88.3685 338.606 88.3616C338.606 87.2453 339.506 85.7013 340.707 85.6133Z" fill="#263238"/>
<path d="M328.453 80.199C328.453 80.199 330.604 73.2284 336.835 75.0972C343.066 76.966 341.025 83.9702 341.025 83.9702L328.453 80.199Z" fill="#FDB514"/>
<path d="M341.636 83.6069L328.129 79.5555L327.832 80.546L341.339 84.5974L341.636 83.6069Z" fill="#FDB514"/>
<path d="M334.789 81.5596L331.977 80.7159L334.693 74.0647L337.506 74.9084L334.789 81.5596Z" fill="#FDB514"/>
<path opacity="0.1" d="M334.789 81.5596L331.977 80.7159L334.693 74.0647L337.506 74.9084L334.789 81.5596Z" fill="black"/>
<path d="M297.107 91.7798C298.471 92.6988 298.773 90.5649 298.773 90.5649C298.773 90.5649 299.079 93.742 300.852 94.1452C302.562 94.5297 302.836 91.9382 302.859 91.7532C302.876 91.9212 303.234 94.8332 305.057 95.055C306.952 95.2844 306.781 92.6358 306.769 92.4646C306.836 92.6177 307.748 94.6305 309.172 94.4838C311.618 94.231 309.495 88.2614 310.324 86.4508L313.94 85.6246C313.261 85.3953 312.563 85.2465 311.526 84.2012C310.556 83.2236 309.916 82.5638 309.096 82.294C307.749 81.8529 307.033 82.9052 307.033 82.9052C307.033 82.9052 306.572 81.2225 305.141 81.0022C304.407 80.8913 303.576 81.9676 303.576 81.9676C303.576 81.9676 303.15 80.6358 301.866 80.519C300.841 80.423 300.166 81.5174 300.166 81.5174C300.166 81.5174 299.164 80.4284 298.085 80.67C295.908 81.1537 294.186 89.8092 297.107 91.7798Z" fill="#D3766A"/>
<path d="M311.124 86.135L313.864 85.6332C313.96 85.5916 314.061 85.5489 314.151 85.5041C317.356 83.9478 318.377 79.4993 315.854 79.9062C313.934 80.2129 312.613 83.2385 310.602 83.2678L310.603 83.2721L311.124 86.135Z" fill="#D3766A"/>
<path d="M300.032 81.6746C300.04 81.6464 300.002 81.6293 299.99 81.657C298.729 84.3653 298.173 87.7275 298.744 90.6784C298.762 90.7755 298.928 90.7867 298.928 90.6763C298.921 87.5221 299.166 84.7226 300.032 81.6746Z" fill="#263238"/>
<path d="M303.563 81.921C303.573 81.888 303.518 81.872 303.502 81.9056C302.218 84.7034 301.696 88.5077 302.755 91.8314C302.791 91.9456 302.938 92.0112 302.906 91.8768C302.37 89.6133 302.769 84.6613 303.563 81.921Z" fill="#263238"/>
<path d="M306.92 92.6709C306.029 89.4448 306.26 86.2571 306.97 83.0176C306.979 82.9755 306.919 82.9669 306.901 83C306.122 84.4901 305.886 86.6027 305.84 88.2613C305.797 89.8501 306.077 91.2928 306.807 92.7024C306.835 92.7568 306.939 92.7397 306.92 92.6709Z" fill="#263238"/>
</svg>
