<svg width="13" height="13" viewBox="0 0 13 13" fill="none" xmlns="http://www.w3.org/2000/svg">
<path d="M1.85542 2.80378V11C1.85542 11.2125 1.78352 11.3906 1.63972 11.5343C1.4959 11.6781 1.3177 11.75 1.10512 11.75C0.892519 11.75 0.714427 11.6781 0.570844 11.5343C0.42726 11.3906 0.355469 11.2125 0.355469 11V1.15383C0.355469 0.897742 0.442086 0.683084 0.615319 0.509851C0.788552 0.336618 1.00321 0.25 1.25929 0.25H11.1054C11.3179 0.25 11.4961 0.321901 11.6398 0.465701C11.7836 0.609518 11.8554 0.787717 11.8554 1.0003C11.8554 1.2129 11.7836 1.39099 11.6398 1.53457C11.4961 1.67816 11.3179 1.74995 11.1054 1.74995H2.90924L12.2323 11.0827C12.3708 11.2211 12.4384 11.3952 12.4352 11.6048C12.432 11.8144 12.3612 11.9884 12.2227 12.1269C12.0843 12.2653 11.9118 12.3346 11.7054 12.3346C11.499 12.3346 11.3266 12.2653 11.1881 12.1269L1.85542 2.80378Z" fill="#808080"/>
</svg>
