<svg width="11" height="11" viewBox="0 0 11 11" fill="none" xmlns="http://www.w3.org/2000/svg">
<path d="M9.45333 3.00315L1.67606 10.7724C1.56067 10.8878 1.41565 10.9441 1.24098 10.9415C1.0663 10.9388 0.921271 10.8798 0.805896 10.7644C0.690507 10.649 0.632812 10.5053 0.632812 10.3333C0.632812 10.1613 0.690507 10.0176 0.805896 9.90223L8.57515 2.12496H1.74498C1.5679 2.12496 1.41946 2.06504 1.29967 1.94521C1.17989 1.82536 1.12 1.67686 1.12 1.49971C1.12 1.32254 1.17989 1.17413 1.29967 1.05448C1.41946 0.934827 1.5679 0.875 1.74498 0.875H9.9501C10.1635 0.875 10.3424 0.947181 10.4867 1.09154C10.6311 1.2359 10.7033 1.41479 10.7033 1.62819V9.83331C10.7033 10.0104 10.6434 10.1588 10.5235 10.2786C10.4037 10.3984 10.2552 10.4583 10.078 10.4583C9.90087 10.4583 9.75247 10.3984 9.63281 10.2786C9.51316 10.1588 9.45333 10.0104 9.45333 9.83331V3.00315Z" fill="#1C1B1F"/>
</svg>
