<svg width="220" height="66" viewBox="0 0 220 66" fill="none" xmlns="http://www.w3.org/2000/svg">
<path d="M218.54 57.6745C218.54 58.4949 218.378 59.3073 218.064 60.0652C217.75 60.823 217.289 61.5116 216.709 62.0914C216.128 62.6712 215.439 63.1309 214.681 63.4443C213.922 63.7577 213.109 63.9185 212.289 63.9177H7.71069C6.05257 63.9194 4.46166 63.2627 3.28782 62.0919C2.11398 60.9211 1.45333 59.3322 1.45117 57.6745V7.88708C1.45333 6.22866 2.11372 4.63887 3.28732 3.4668C4.46093 2.29472 6.05182 1.63617 7.71069 1.63574H212.287C213.108 1.63574 213.921 1.79745 214.68 2.11163C215.438 2.42581 216.128 2.8863 216.708 3.46682C217.289 4.04733 217.749 4.73648 218.063 5.49492C218.377 6.25336 218.539 7.06622 218.539 7.88708L218.54 57.6745Z" fill="white"/>
<path d="M212.289 65.3706H7.71067C5.66806 65.3702 3.70905 64.5597 2.26349 63.117C0.817922 61.6742 0.00388652 59.7171 0 57.6751L0 7.88928C0.00302174 5.84621 0.81652 3.88774 2.26204 2.44353C3.70755 0.999311 5.66705 0.187271 7.71067 0.185547L212.287 0.185547C214.331 0.188132 216.29 1.00045 217.735 2.44448C219.18 3.88851 219.994 5.84647 219.998 7.88928V57.6751C220.001 61.9198 216.536 65.3706 212.289 65.3706Z" fill="white"/>
<path d="M218.54 57.6745C218.54 58.4949 218.378 59.3073 218.064 60.0652C217.75 60.823 217.289 61.5116 216.709 62.0914C216.128 62.6712 215.439 63.1309 214.681 63.4443C213.922 63.7577 213.109 63.9185 212.289 63.9177H7.71069C6.05257 63.9194 4.46166 63.2627 3.28782 62.0919C2.11398 60.9211 1.45333 59.3322 1.45117 57.6745V7.88708C1.45333 6.22866 2.11372 4.63887 3.28732 3.4668C4.46093 2.29472 6.05182 1.63617 7.71069 1.63574H212.287C213.108 1.63574 213.921 1.79745 214.68 2.11163C215.438 2.42581 216.128 2.8863 216.708 3.46682C217.289 4.04733 217.749 4.73648 218.063 5.49492C218.377 6.25336 218.539 7.06622 218.539 7.88708L218.54 57.6745Z" fill="#0A0A0A"/>
<path d="M49.1221 32.4368C49.0748 27.183 53.425 24.6271 53.6239 24.5081C51.1602 20.917 47.3416 20.4264 45.9997 20.3872C42.7925 20.0498 39.6815 22.3058 38.0477 22.3058C36.3813 22.3058 33.8654 20.4199 31.1539 20.4753C27.6646 20.5291 24.4003 22.5487 22.6101 25.685C18.9153 32.0798 21.6709 41.4772 25.2107 46.6461C26.9814 49.1793 29.0506 52.0042 31.7588 51.9048C34.4084 51.7972 35.3981 50.2176 38.5955 50.2176C41.7636 50.2176 42.693 51.9048 45.4551 51.8412C48.2987 51.7972 50.089 49.2983 51.7978 46.7439C53.844 43.844 54.6658 40.9849 54.6984 40.8382C54.6332 40.8154 49.1775 38.7321 49.1221 32.4368ZM43.9045 16.9869C45.3295 15.2052 46.3046 12.7813 46.0339 10.3215C43.9713 10.4128 41.3919 11.7478 39.9065 13.4904C38.5923 15.0259 37.4183 17.5428 37.7216 19.9096C40.0385 20.0824 42.4175 18.7409 43.9045 16.9869Z" fill="white"/>
<path d="M212.289 0.185303H102.711L145.631 65.3704H212.289C214.332 65.3687 216.291 64.5571 217.737 63.1136C219.182 61.6701 219.996 59.7124 220 57.6699V7.88904C219.996 5.84609 219.183 3.88788 217.737 2.44376C216.292 0.999635 214.333 0.187458 212.289 0.185303Z" fill="url(#paint0_linear_119_36911)"/>
<path d="M87.5004 51.5391H83.7975L81.7692 45.1671H74.7188L72.7867 51.5391H69.1816L76.1684 29.846H80.4827L87.5004 51.5391ZM81.1577 42.4938L79.3234 36.8293C79.1294 36.2506 78.7641 34.8878 78.2293 32.7427H78.1641C77.9489 33.6653 77.6048 35.028 77.1336 36.8293L75.3303 42.4938H81.1577ZM105.433 43.5256C105.433 46.1859 104.71 48.2887 103.264 49.8324C101.97 51.2065 100.36 51.8928 98.4411 51.8928C96.3687 51.8928 94.8784 51.1544 93.9735 49.6743V57.8817H90.4973V41.0381C90.4973 39.3673 90.4532 37.6541 90.3685 35.8969H93.4257L93.6197 38.3762H93.6849C94.8442 36.5081 96.6035 35.5741 98.9645 35.5741C100.81 35.5741 102.351 36.3028 103.584 37.7617C104.815 39.2239 105.433 41.1441 105.433 43.5256ZM101.891 43.6528C101.891 42.1303 101.549 40.8751 100.861 39.8857C100.109 38.8571 99.0998 38.342 97.8345 38.342C96.9769 38.342 96.1975 38.6289 95.5013 39.1945C94.8034 39.765 94.3469 40.51 94.1333 41.4326C94.0379 41.7776 93.9838 42.1328 93.9719 42.4905V45.1003C93.9719 46.2364 94.3208 47.1966 95.0187 47.9822C95.7165 48.7647 96.6231 49.1575 97.7383 49.1575C99.0476 49.1575 100.067 48.6506 100.796 47.6448C101.526 46.6358 101.891 45.3057 101.891 43.6528ZM123.429 43.5256C123.429 46.1859 122.706 48.2887 121.26 49.8324C119.964 51.2065 118.356 51.8928 116.435 51.8928C114.363 51.8928 112.873 51.1544 111.968 49.6743V57.8817H108.492V41.0381C108.492 39.3673 108.448 37.6541 108.363 35.8969H111.42L111.614 38.3762H111.679C112.837 36.5081 114.596 35.5741 116.959 35.5741C118.803 35.5741 120.344 36.3028 121.58 37.7617C122.809 39.2239 123.429 41.1441 123.429 43.5256ZM119.886 43.6528C119.886 42.1303 119.541 40.8751 118.853 39.8857C118.102 38.8571 117.096 38.342 115.83 38.342C114.973 38.342 114.193 38.6289 113.494 39.1945C112.796 39.765 112.341 40.51 112.128 41.4326C112.022 41.8629 111.965 42.2134 111.965 42.4905V45.1003C111.965 46.2364 112.315 47.1966 113.01 47.9822C113.708 48.7631 114.614 49.1575 115.733 49.1575C117.044 49.1575 118.063 48.6506 118.79 47.6448C119.52 46.6358 119.886 45.3057 119.886 43.6528ZM143.549 45.454C143.549 47.3009 142.903 48.8022 141.62 49.9612C140.208 51.2261 138.237 51.8602 135.71 51.8602C133.375 51.8602 131.503 51.4103 130.091 50.5089L130.895 47.6122C132.419 48.5153 134.094 48.9652 135.917 48.9652C137.228 48.9652 138.247 48.6685 138.974 48.0801C139.703 47.49 140.071 46.701 140.071 45.7164C140.071 44.8346 139.766 44.0961 139.168 43.4946C138.566 42.8948 137.572 42.3357 136.174 41.8222C132.375 40.4057 130.474 38.3338 130.474 35.6083C130.474 33.8283 131.146 32.371 132.486 31.2316C133.826 30.0938 135.604 29.5249 137.815 29.5249C139.789 29.5249 141.434 29.8688 142.74 30.5551L141.868 33.3882C140.639 32.7231 139.251 32.3906 137.699 32.3906C136.473 32.3906 135.511 32.6921 134.823 33.292C134.244 33.8283 133.95 34.482 133.95 35.2579C133.95 36.1137 134.285 36.8244 134.95 37.3819C135.527 37.8953 136.58 38.4545 138.103 39.0543C139.972 39.8074 141.345 40.6844 142.223 41.6918C143.109 42.6992 143.549 43.956 143.549 45.454ZM155.072 38.505H151.24V46.0995C151.24 48.0311 151.915 48.9945 153.269 48.9945C153.89 48.9945 154.405 48.9424 154.813 48.8331L154.909 51.4722C154.224 51.7282 153.322 51.8569 152.205 51.8569C150.833 51.8569 149.76 51.438 148.985 50.6001C148.214 49.7623 147.826 48.3588 147.826 46.3831V38.4985H145.543V35.8903H147.826V33.0263L151.24 31.9961V35.8903H155.072V38.505ZM172.326 43.5892C172.326 45.9936 171.638 47.9676 170.265 49.5113C168.828 51.1006 166.918 51.8928 164.535 51.8928C162.236 51.8928 160.409 51.1316 159.045 49.6107C157.682 48.0866 157.001 46.1663 157.001 43.85C157.001 41.4261 157.705 39.4407 159.109 37.897C160.516 36.3517 162.411 35.579 164.793 35.579C167.089 35.579 168.933 36.3419 170.329 37.8644C171.662 39.3412 172.326 41.2484 172.326 43.5892ZM168.722 43.6691C168.722 42.2362 168.413 41.0072 167.791 39.9786C167.063 38.7365 166.019 38.1154 164.667 38.1154C163.275 38.1154 162.207 38.7365 161.48 39.9786C160.857 41.0072 160.547 42.2574 160.547 43.7343C160.547 45.1687 160.857 46.4011 161.48 47.4264C162.231 48.6685 163.28 49.2896 164.638 49.2896C165.967 49.2896 167.009 48.6555 167.762 47.3954C168.401 46.3424 168.722 45.1052 168.722 43.6691ZM183.63 38.9533C183.269 38.888 182.902 38.8558 182.535 38.8571C181.312 38.8571 180.366 39.3168 179.701 40.2426C179.123 41.0577 178.833 42.0879 178.833 43.3316V51.5391H175.357V40.823C175.36 39.1809 175.326 37.539 175.256 35.8985H178.284L178.411 38.8913H178.507C178.876 37.8627 179.453 37.033 180.245 36.412C180.971 35.8693 181.852 35.5754 182.758 35.5741C183.079 35.5741 183.369 35.5969 183.627 35.6377L183.63 38.9533ZM199.177 42.9779C199.186 43.5062 199.143 44.0341 199.05 44.5542H188.621C188.66 46.0995 189.166 47.2829 190.134 48.098C191.013 48.825 192.15 49.1901 193.545 49.1901C195.089 49.1901 196.498 48.9456 197.765 48.4517L198.31 50.8626C196.829 51.5081 195.081 51.8292 193.064 51.8292C190.638 51.8292 188.734 51.1153 187.348 49.6906C185.965 48.2643 185.272 46.3473 185.272 43.9462C185.272 41.5891 185.916 39.6248 187.206 38.0583C188.556 36.3859 190.381 35.5497 192.676 35.5497C194.931 35.5497 196.638 36.3859 197.798 38.0583C198.716 39.3836 199.177 41.0267 199.177 42.9779ZM195.862 42.0765C195.887 41.0446 195.658 40.1563 195.187 39.4048C194.586 38.4365 193.659 37.954 192.419 37.954C191.282 37.954 190.356 38.4251 189.652 39.3706C189.073 40.122 188.729 41.0251 188.623 42.0732L195.862 42.0765Z" fill="white"/>
<path d="M73.7164 22.1815C72.7495 22.1815 71.913 22.1343 71.2168 22.0544V11.5665C72.1905 11.4161 73.1746 11.342 74.1599 11.3448C78.1465 11.3448 79.9824 13.3058 79.9824 16.5024C79.9824 20.1896 77.8138 22.1815 73.7164 22.1815ZM74.3001 12.6896C73.762 12.6896 73.3038 12.7222 72.9239 12.8005V20.7732C73.1294 20.8058 73.524 20.8204 74.0783 20.8204C76.6904 20.8204 78.1774 19.3338 78.1774 16.5496C78.1774 14.067 76.8323 12.6896 74.3001 12.6896ZM85.7039 22.2614C83.457 22.2614 82.001 20.5841 82.001 18.3068C82.001 15.9335 83.488 14.2414 85.831 14.2414C88.0453 14.2414 89.5339 15.8389 89.5339 18.1813C89.5339 20.5841 87.9996 22.2614 85.7039 22.2614ZM85.7691 15.4901C84.5348 15.4901 83.744 16.6442 83.744 18.2579C83.744 19.8407 84.5511 20.9948 85.7528 20.9948C86.9545 20.9948 87.7616 19.7609 87.7616 18.2253C87.7616 16.6605 86.9708 15.4901 85.7691 15.4901ZM102.346 14.3996L99.9414 22.087H98.3745L97.3783 18.7486C97.1306 17.932 96.9243 17.1034 96.7603 16.266H96.7277C96.6022 17.1039 96.3641 17.9433 96.1114 18.7486L95.0516 22.087H93.4683L91.2052 14.3996H92.9612L93.8319 18.0542C94.0374 18.9246 94.2102 19.7462 94.3537 20.5221H94.3863C94.5119 19.875 94.7173 19.0665 95.0189 18.0705L96.1114 14.4012H97.5038L98.549 17.9922C98.8017 18.8627 99.0072 19.7169 99.167 20.5237H99.2126C99.3235 19.7332 99.4979 18.8937 99.7344 17.9922L100.669 14.4012L102.346 14.3996ZM111.2 22.087H109.491V17.6727C109.491 16.3133 108.97 15.6319 107.941 15.6319C106.928 15.6319 106.232 16.5024 106.232 17.5146V22.087H104.523V16.5969C104.523 15.9172 104.507 15.1885 104.46 14.3979H105.963L106.043 15.5846H106.09C106.55 14.7631 107.483 14.2414 108.528 14.2414C110.142 14.2414 111.202 15.4754 111.202 17.4837L111.2 22.087ZM115.912 22.087H114.202V10.8721H115.912V22.087ZM122.142 22.2614C119.897 22.2614 118.44 20.5841 118.44 18.3068C118.44 15.9335 119.927 14.2414 122.268 14.2414C124.484 14.2414 125.971 15.8389 125.971 18.1813C125.972 20.5841 124.437 22.2614 122.142 22.2614ZM122.206 15.4901C120.972 15.4901 120.181 16.6442 120.181 18.2579C120.181 19.8407 120.99 20.9948 122.188 20.9948C123.391 20.9948 124.197 19.7609 124.197 18.2253C124.199 16.6605 123.409 15.4901 122.206 15.4901ZM132.708 22.087L132.584 21.2019H132.539C132.017 21.9142 131.255 22.2614 130.29 22.2614C128.912 22.2614 127.934 21.2964 127.934 19.9989C127.934 18.1015 129.579 17.1202 132.428 17.1202V16.9783C132.428 15.9661 131.891 15.4591 130.831 15.4591C130.073 15.4591 129.408 15.6498 128.823 16.0296L128.475 14.9065C129.186 14.4631 130.073 14.2414 131.115 14.2414C133.124 14.2414 134.138 15.301 134.138 17.4217V20.2532C134.138 21.0291 134.172 21.6306 134.249 22.0886L132.708 22.087ZM132.473 18.2579C130.575 18.2579 129.623 18.7176 129.623 19.8081C129.623 20.615 130.114 21.0095 130.796 21.0095C131.665 21.0095 132.473 20.3461 132.473 19.4446V18.2579ZM142.436 22.087L142.356 20.853H142.309C141.818 21.7854 140.993 22.2614 139.84 22.2614C137.986 22.2614 136.613 20.6313 136.613 18.3378C136.613 15.9335 138.037 14.2398 139.98 14.2398C141.009 14.2398 141.738 14.587 142.149 15.2847H142.183V10.8721H143.893V20.0152C143.893 20.7585 143.911 21.4545 143.957 22.087H142.436ZM142.183 17.5635C142.183 16.4877 141.47 15.5699 140.383 15.5699C139.116 15.5699 138.342 16.6931 138.342 18.2742C138.342 19.8244 139.145 20.8856 140.349 20.8856C141.423 20.8856 142.183 19.9516 142.183 18.8448V17.5635ZM154.738 22.2614C152.493 22.2614 151.037 20.5841 151.037 18.3068C151.037 15.9335 152.524 14.2414 154.865 14.2414C157.081 14.2414 158.568 15.8389 158.568 18.1813C158.57 20.5841 157.035 22.2614 154.738 22.2614ZM154.801 15.4901C153.569 15.4901 152.778 16.6442 152.778 18.2579C152.778 19.8407 153.585 20.9948 154.785 20.9948C155.989 20.9948 156.794 19.7609 156.794 18.2253C156.797 16.6605 156.006 15.4901 154.801 15.4901ZM167.758 22.087H166.047V17.6727C166.047 16.3133 165.525 15.6319 164.496 15.6319C163.484 15.6319 162.789 16.5024 162.789 17.5146V22.087H161.079V16.5969C161.079 15.9172 161.063 15.1885 161.015 14.3979H162.519L162.599 15.5846H162.646C163.104 14.7631 164.038 14.2398 165.082 14.2398C166.696 14.2398 167.758 15.4738 167.758 17.482V22.087ZM179.254 15.6808H177.374V19.4137C177.374 20.364 177.704 20.8384 178.369 20.8384C178.67 20.8384 178.923 20.8058 179.127 20.7585L179.174 22.056C178.843 22.1832 178.4 22.2467 177.849 22.2467C176.502 22.2467 175.696 21.5034 175.696 19.5571V15.6808H174.575V14.3996H175.696V12.9912L177.374 12.4842V14.3979H179.254V15.6808ZM188.3 22.087H186.593V17.7053C186.593 16.3296 186.073 15.6335 185.043 15.6335C184.157 15.6335 183.332 16.235 183.332 17.4527V22.087H181.625V10.8721H183.332V15.4901H183.366C183.904 14.6522 184.684 14.2398 185.678 14.2398C187.306 14.2398 188.3 15.5047 188.3 17.5146V22.087ZM197.568 18.6541H192.44C192.473 20.1097 193.436 20.9313 194.863 20.9313C195.621 20.9313 196.319 20.8041 196.935 20.5678L197.201 21.7545C196.474 22.0707 195.618 22.2288 194.622 22.2288C192.217 22.2288 190.793 20.7096 190.793 18.3541C190.793 15.997 192.251 14.2251 194.429 14.2251C196.394 14.2251 197.627 15.6808 197.627 17.8798C197.638 18.1393 197.618 18.3992 197.568 18.6541ZM196.001 17.4364C196.001 16.2497 195.403 15.4118 194.31 15.4118C193.329 15.4118 192.553 16.266 192.442 17.4364H196.001Z" fill="white"/>
<defs>
<linearGradient id="paint0_linear_119_36911" x1="161.354" y1="65.5435" x2="161.354" y2="-169.545" gradientUnits="userSpaceOnUse">
<stop stop-color="#1A1A1A" stop-opacity="0.1"/>
<stop offset="0.123" stop-color="#212121" stop-opacity="0.151"/>
<stop offset="0.308" stop-color="#353535" stop-opacity="0.227"/>
<stop offset="0.532" stop-color="#575757" stop-opacity="0.318"/>
<stop offset="0.783" stop-color="#858585" stop-opacity="0.421"/>
<stop offset="1" stop-color="#B3B3B3" stop-opacity="0.51"/>
</linearGradient>
</defs>
</svg>
