<svg width="40" height="40" viewBox="0 0 40 40" fill="none" xmlns="http://www.w3.org/2000/svg">
<rect width="40" height="40" rx="20" fill="white"/>
<g clip-path="url(#clip0_109_75392)">
<mask id="mask0_109_75392" style="mask-type:luminance" maskUnits="userSpaceOnUse" x="0" y="1" width="78" height="38">
<path d="M0.8703 1.68421H77.093V38.9023H0.8703V1.68421Z" fill="white"/>
</mask>
<g mask="url(#mask0_109_75392)">
<path d="M28.8372 29.9258C29.4427 29.9258 29.9337 29.4348 29.9337 28.8293V11.1556C29.9337 10.5499 29.4427 10.0591 28.8372 10.0591H11.1636C10.5579 10.0591 10.0671 10.5499 10.0671 11.1556V28.8293C10.0671 29.4348 10.5579 29.9258 11.1636 29.9258H28.8372Z" fill="black"/>
<path d="M23.7747 29.9258V22.2324H26.3572L26.7438 19.2341H23.7747V17.3199C23.7747 16.4518 24.0158 15.8602 25.2606 15.8602L26.8484 15.8595V13.1778C26.5737 13.1414 25.6313 13.0597 24.5348 13.0597C22.2457 13.0597 20.6786 14.457 20.6786 17.023V19.2341H18.0896V22.2324H20.6786V29.9258H23.7747Z" fill="white"/>
</g>
</g>
<defs>
<clipPath id="clip0_109_75392">
<rect width="19.9999" height="20" fill="white" transform="translate(10.0001 10)"/>
</clipPath>
</defs>
</svg>
