<svg width="18" height="18" viewBox="0 0 18 18" fill="none" xmlns="http://www.w3.org/2000/svg">
<g clip-path="url(#clip0_426_3154)">
<mask id="mask0_426_3154" style="mask-type:alpha" maskUnits="userSpaceOnUse" x="0" y="0" width="18" height="18">
<rect width="18" height="18" fill="#D9D9D9"/>
</mask>
<g mask="url(#mask0_426_3154)">
<path d="M8.99088 16.688C8.78805 16.688 8.58431 16.6516 8.37966 16.5787C8.175 16.5058 7.99493 16.3917 7.83947 16.2362L6.47857 14.9992C4.7988 13.4676 3.2991 11.963 1.97946 10.4855C0.65982 9.00797 0 7.42508 0 5.73683C0 4.39231 0.453341 3.2667 1.36002 2.36002C2.2667 1.45334 3.39231 1 4.73683 1C5.50079 1 6.25535 1.17612 7.0005 1.52835C7.74564 1.88058 8.41214 2.45265 9 3.24456C9.58786 2.45265 10.2544 1.88058 10.9995 1.52835C11.7447 1.17612 12.4992 1 13.2632 1C14.6077 1 15.7333 1.45334 16.64 2.36002C17.5467 3.2667 18 4.39231 18 5.73683C18 7.4433 17.3289 9.0438 15.9868 10.5383C14.6447 12.0329 13.1484 13.5247 11.4977 15.0137L10.1514 16.2362C9.99595 16.3917 9.81437 16.5058 9.60667 16.5787C9.39898 16.6516 9.19371 16.688 8.99088 16.688ZM8.31863 4.6838C7.80608 3.90282 7.26651 3.33045 6.6999 2.9667C6.1333 2.60292 5.47894 2.42103 4.73683 2.42103C3.78946 2.42103 2.99998 2.73682 2.3684 3.3684C1.73682 3.99998 1.42103 4.78946 1.42103 5.73683C1.42103 6.49716 1.66607 7.2921 2.15615 8.12165C2.64622 8.9512 3.2614 9.77588 4.00167 10.5957C4.74196 11.4155 5.54389 12.2166 6.40745 12.9988C7.27101 13.7809 8.07142 14.5079 8.80868 15.1796C8.86334 15.2281 8.92711 15.2524 9 15.2524C9.07288 15.2524 9.13666 15.2281 9.19132 15.1796C9.92858 14.5079 10.729 13.7809 11.5926 12.9988C12.4561 12.2166 13.258 11.4155 13.9983 10.5957C14.7386 9.77588 15.3538 8.9512 15.8439 8.12165C16.3339 7.2921 16.579 6.49716 16.579 5.73683C16.579 4.78946 16.2632 3.99998 15.6316 3.3684C15 2.73682 14.2105 2.42103 13.2632 2.42103C12.5211 2.42103 11.8667 2.60292 11.3001 2.9667C10.7335 3.33045 10.1939 3.90282 9.68137 4.6838C9.60121 4.80526 9.5004 4.89636 9.37895 4.9571C9.25748 5.01782 9.13116 5.04819 9 5.04819C8.86884 5.04819 8.74252 5.01782 8.62105 4.9571C8.4996 4.89636 8.39879 4.80526 8.31863 4.6838Z" fill="#FF5151"/>
</g>
</g>
<defs>
<clipPath id="clip0_426_3154">
<rect width="18" height="18" fill="white"/>
</clipPath>
</defs>
</svg>
