<svg width="141" height="36" viewBox="0 0 141 36" fill="none" xmlns="http://www.w3.org/2000/svg">
<g clip-path="url(#clip0_109_75365)">
<path d="M111.896 6.05859C111.982 6.05884 112.067 6.05908 112.156 6.05934C112.301 6.05935 112.301 6.05935 112.45 6.05936C112.555 6.05993 112.661 6.0605 112.769 6.06109C112.931 6.06132 112.931 6.06132 113.095 6.06156C113.44 6.06218 113.784 6.06357 114.129 6.06497C114.362 6.06553 114.595 6.06603 114.828 6.06648C115.4 6.0677 115.973 6.06955 116.545 6.07187C117.472 8.77947 118.389 11.4897 119.287 14.2066C119.401 14.5504 119.515 14.894 119.63 15.2375C119.888 14.8488 120.034 14.4439 120.194 14.0086C120.228 13.9187 120.261 13.8288 120.295 13.7363C120.367 13.5433 120.439 13.3503 120.51 13.1572C120.696 12.6532 120.884 12.1496 121.071 11.646C121.127 11.4962 121.127 11.4962 121.184 11.3435C121.608 10.2036 122.043 9.06806 122.482 7.93391C122.573 7.69808 122.663 7.46188 122.752 7.22551C122.802 7.09463 122.851 6.96376 122.903 6.82892C122.948 6.70823 122.994 6.58755 123.04 6.4632C123.155 6.1823 123.155 6.1823 123.265 6.07187C123.567 6.06209 123.865 6.05915 124.167 6.06109C124.257 6.06125 124.348 6.0614 124.441 6.06156C124.73 6.06218 125.02 6.06357 125.31 6.06497C125.505 6.06553 125.701 6.06603 125.897 6.06648C126.378 6.0677 126.859 6.06961 127.341 6.07187C128.037 7.92968 128.729 9.78875 129.42 11.6486C129.559 12.0234 129.698 12.3982 129.838 12.773C129.923 13.0031 130.008 13.2332 130.094 13.4633C130.314 14.055 130.534 14.6464 130.755 15.2375C130.99 14.8852 131.111 14.542 131.24 14.144C131.265 14.067 131.291 13.9899 131.317 13.9105C131.401 13.6559 131.485 13.4011 131.568 13.1463C131.626 12.9688 131.685 12.7914 131.743 12.6141C131.866 12.2428 131.988 11.8714 132.11 11.5C132.384 10.6693 132.659 9.83919 132.934 9.00925C133.019 8.7546 133.103 8.49986 133.187 8.24512C133.24 8.08723 133.292 7.92934 133.345 7.77145C133.412 7.56652 133.412 7.56652 133.482 7.35745C133.63 6.92601 133.79 6.49904 133.95 6.07187C135.549 6.07187 137.149 6.07187 138.797 6.07187C138.945 6.51603 138.829 6.70887 138.675 7.14899C138.649 7.22408 138.623 7.29916 138.597 7.37652C138.511 7.62526 138.423 7.87348 138.336 8.12172C138.275 8.29612 138.214 8.47056 138.154 8.64502C137.966 9.18656 137.776 9.72741 137.585 10.2682C137.527 10.4344 137.468 10.6005 137.41 10.7667C137.188 11.3985 136.966 12.0301 136.743 12.6616C136.05 14.6226 135.377 16.5899 134.709 18.5595C134.669 18.6766 134.63 18.7938 134.589 18.9145C134.389 19.5043 134.189 20.0942 133.989 20.6842C133.915 20.9024 133.841 21.1206 133.768 21.3387C133.734 21.4393 133.7 21.5398 133.665 21.6433C133.617 21.7838 133.617 21.7838 133.569 21.9271C133.541 22.0084 133.514 22.0898 133.485 22.1735C133.39 22.4409 133.284 22.7041 133.179 22.9676C131.798 22.9676 130.416 22.9676 128.993 22.9676C128.374 21.4791 128.374 21.4791 128.161 20.8625C128.137 20.7942 128.114 20.7258 128.089 20.6554C128.038 20.5087 127.987 20.3618 127.936 20.2149C127.796 19.8093 127.654 19.4041 127.512 18.999C127.466 18.8687 127.466 18.8687 127.42 18.7358C127.009 17.5668 126.586 16.4022 126.163 15.2375C126.124 15.1288 126.085 15.02 126.044 14.908C125.932 14.5991 125.82 14.2902 125.708 13.9814C125.674 13.8882 125.64 13.7949 125.605 13.6989C125.443 13.2464 125.443 13.2464 125.248 12.8081C124.511 14.8118 123.783 16.8183 123.058 18.8265C123.018 18.9381 122.978 19.0498 122.936 19.1649C122.819 19.4903 122.701 19.8158 122.584 20.1413C122.547 20.2436 122.51 20.3459 122.472 20.4513C122.31 20.9023 122.148 21.3536 121.989 21.8059C121.963 21.879 121.937 21.9521 121.911 22.0275C121.844 22.2167 121.778 22.4061 121.712 22.5955C121.613 22.8571 121.613 22.8571 121.502 22.9676C121.193 22.9774 120.886 22.9803 120.576 22.9784C120.483 22.9782 120.39 22.9781 120.295 22.9779C119.997 22.9773 119.7 22.9759 119.402 22.9745C119.201 22.9739 119 22.9734 118.799 22.973C118.305 22.9718 117.811 22.9698 117.316 22.9676C117.286 22.8796 117.286 22.8796 117.255 22.7899C116.936 21.8721 116.616 20.9546 116.288 20.0403C115.762 18.5792 115.256 17.1138 114.771 15.639C114.421 14.5799 114.054 13.5277 113.681 12.4768C113.245 11.2474 112.819 10.0154 112.408 8.7774C112.363 8.64316 112.318 8.50892 112.272 8.37062C112.032 7.64453 111.802 6.91654 111.588 6.1823C111.698 6.07187 111.698 6.07187 111.896 6.05859Z" fill="white"/>
<path d="M74.0392 7.30733C74.3429 7.54658 74.6261 7.7953 74.9063 8.06179C74.9919 8.14307 75.0775 8.22435 75.1657 8.3081C76.8119 10.0038 77.516 12.2554 77.5913 14.584C77.5448 17.0975 76.6516 19.2935 74.92 21.1201C74.1379 21.869 73.2459 22.417 72.2625 22.8593C72.1904 22.8922 72.1182 22.9251 72.0439 22.959C70.3442 23.6666 67.9313 23.6823 66.2039 23.0802C64.6612 22.4171 64.6612 22.4171 64.3313 22.0863C64.3301 22.1746 64.329 22.2629 64.3278 22.3539C64.3171 23.1843 64.3058 24.0147 64.2939 24.8451C64.2878 25.272 64.2819 25.699 64.2765 26.1259C64.2712 26.5376 64.2655 26.9493 64.2593 27.361C64.2571 27.5184 64.255 27.6759 64.2532 27.8333C64.2505 28.053 64.2471 28.2728 64.2437 28.4925C64.242 28.6178 64.2403 28.7431 64.2385 28.8722C64.2211 29.1538 64.2211 29.1538 64.111 29.2642C62.5478 29.2642 60.9847 29.2642 59.3742 29.2642C59.3742 21.6115 59.3742 13.9587 59.3742 6.07406C60.8647 6.07406 62.3551 6.07406 63.8906 6.07406C63.9452 6.78467 63.9452 6.78467 64.0008 7.50964C64.1167 7.39576 64.2325 7.28188 64.3519 7.16455C67.0179 4.84421 71.3212 5.41942 74.0392 7.30733ZM65.2332 11.4713C64.3031 12.6109 64.1114 13.9041 64.2211 15.3501C64.4157 16.5761 64.9837 17.5758 65.9389 18.3658C66.8723 19.0236 67.96 19.2054 69.0839 19.0599C70.2034 18.8178 71.1721 18.3017 71.8219 17.3379C72.5827 16.1379 72.7644 14.725 72.4622 13.3555C72.1488 12.2196 71.5711 11.2944 70.5637 10.6526C68.7187 9.67032 66.6743 9.9133 65.2332 11.4713Z" fill="white"/>
<path d="M29.9703 7.01136C30.1197 7.13433 30.2626 7.26522 30.4031 7.39829C30.4395 6.96099 30.4758 6.52369 30.5133 6.07314C32.0037 6.07314 33.4941 6.07314 35.0297 6.07314C35.0297 13.7259 35.0297 21.3787 35.0297 29.2633C33.4666 29.2633 31.9035 29.2633 30.293 29.2633C30.1828 29.1529 30.1828 29.1529 30.1696 28.8713C30.1698 28.746 30.1701 28.6207 30.1703 28.4916C30.1703 28.2794 30.1703 28.2794 30.1703 28.0628C30.1709 27.9073 30.1715 27.7517 30.1721 27.5961C30.1723 27.4378 30.1724 27.2795 30.1725 27.1212C30.173 26.7038 30.174 26.2865 30.1753 25.8691C30.1764 25.4435 30.1769 25.0179 30.1774 24.5923C30.1786 23.7567 30.1805 22.921 30.1828 22.0854C30.0926 22.1393 30.0024 22.1931 29.9094 22.2486C29.7314 22.3539 29.7314 22.3539 29.5498 22.4614C29.4323 22.5312 29.3148 22.601 29.1938 22.6729C28.8061 22.889 28.4705 23.0123 28.0417 23.1207C27.9168 23.1534 27.792 23.1862 27.6634 23.2199C25.4472 23.7358 23.0223 23.4725 21.0534 22.2928C20.6295 22.0237 20.2144 21.7444 19.8281 21.4228C19.8281 21.3499 19.8281 21.2771 19.8281 21.202C19.6827 21.1291 19.5373 21.0562 19.3875 20.9811C19.3875 20.9082 19.3875 20.8353 19.3875 20.7603C19.3148 20.7603 19.2421 20.7603 19.1672 20.7603C18.3218 19.7687 17.7355 18.6691 17.2945 17.4474C17.2349 17.284 17.2349 17.284 17.1741 17.1174C16.4898 14.7704 16.9047 12.1218 18.0506 10.0076C18.366 9.45479 18.738 8.97144 19.1672 8.50259C19.2416 8.41789 19.316 8.33319 19.3927 8.24593C21.9786 5.45961 26.8226 4.73108 29.9703 7.01136ZM22.9332 11.4497C21.9455 12.6646 21.7948 14.0609 21.9211 15.5701C22.0152 16.0095 22.1574 16.3858 22.3617 16.7848C22.4016 16.8648 22.4415 16.9448 22.4826 17.0272C22.966 17.8912 23.7471 18.5446 24.675 18.883C25.8702 19.2132 27.0596 19.203 28.1763 18.6095C29.2934 17.8697 29.9322 16.8461 30.2172 15.5425C30.4436 14.0791 30.1218 12.6915 29.2689 11.4846C28.5328 10.6164 27.5455 10.1925 26.4375 10.0486C25.1059 9.99386 23.8533 10.4796 22.9332 11.4497Z" fill="white"/>
<path d="M109.275 7.73032C109.389 7.81551 109.389 7.81551 109.504 7.90243C111.087 9.16649 112.091 11.1532 112.359 13.1414C112.49 14.6906 112.466 16.2014 111.919 17.669C111.88 17.7836 111.842 17.8982 111.802 18.0162C111.476 18.9005 110.965 19.5912 110.377 20.3193C110.328 20.385 110.279 20.4508 110.229 20.5186C109.033 22.0976 106.852 23.1124 104.933 23.3802C102.256 23.591 99.5911 23.274 97.465 21.4624C97.1309 21.166 96.8126 20.8562 96.4969 20.5401C96.4313 20.4756 96.3657 20.4112 96.2981 20.3447C94.6916 18.6254 94.2314 16.2767 94.2641 14.0054C94.3336 11.9146 95.1017 10.1672 96.4969 8.61375C96.5619 8.53831 96.6269 8.46286 96.694 8.38513C99.9346 4.85992 105.657 4.94271 109.275 7.73032ZM100.27 11.4435C99.3175 12.5935 99.1276 14.0223 99.2508 15.4604C99.4985 16.7899 100.132 17.7739 101.234 18.5524C102.218 19.1108 103.341 19.2211 104.442 19.001C105.447 18.7064 106.297 18.0757 106.828 17.1664C107.498 15.8123 107.662 14.3118 107.223 12.8515C106.791 11.7534 105.981 10.8238 104.896 10.3392C103.176 9.73023 101.528 10.1389 100.27 11.4435Z" fill="white"/>
<path d="M14.2195 7.85055C14.4303 8.06235 14.4303 8.06235 14.4303 8.28321C14.503 8.28321 14.5757 8.28321 14.6506 8.28321C14.8224 8.51695 14.9791 8.74862 15.1326 8.99409C15.1996 9.10038 15.1996 9.10038 15.268 9.20881C16.2186 10.7406 16.5436 12.2444 16.5371 14.0393C16.5375 14.1576 16.5379 14.2759 16.5384 14.3978C16.5381 14.5693 16.5381 14.5693 16.5379 14.7442C16.5378 14.8474 16.5377 14.9506 16.5375 15.057C16.5233 15.3507 16.5233 15.3507 16.4131 15.9028C12.5962 15.9028 8.77931 15.9028 4.84673 15.9028C5.45562 17.4999 5.45562 17.4999 6.65743 18.6015C7.77903 19.0946 9.03509 19.1799 10.2018 18.7787C10.9461 18.4527 11.5044 18.0566 11.8967 17.3384C12.4663 17.3947 12.8795 17.5255 13.3838 17.7939C13.5171 17.8636 13.6505 17.933 13.784 18.0023C13.8529 18.0382 13.9218 18.0741 13.9928 18.1112C14.3683 18.3025 14.7503 18.4795 15.1326 18.6567C15.2053 18.6905 15.2781 18.7243 15.3531 18.7592C15.5228 18.8379 15.6925 18.9164 15.8624 18.9949C15.4389 20.375 14.4297 21.4614 13.1812 22.1598C11.6826 22.9165 10.2919 23.2532 8.6127 23.2395C8.53983 23.2391 8.46697 23.2387 8.3919 23.2383C6.18983 23.2206 4.30954 22.5794 2.6023 21.1664C2.4233 20.9826 2.4233 20.9826 2.4233 20.7617C2.35059 20.7617 2.27789 20.7617 2.20298 20.7617C0.675519 19.059 -0.0837751 16.9905 -0.0636376 14.7208C-0.0621097 14.4819 -0.0658811 14.2433 -0.0700652 14.0044C-0.0822293 11.7914 0.791973 9.77898 2.31314 8.17278C3.57515 6.93345 5.07559 6.12197 6.82955 5.85376C6.92596 5.83824 7.02238 5.82272 7.12172 5.80674C9.71753 5.48195 12.2166 6.16962 14.2195 7.85055ZM5.72798 10.7127C5.29682 11.2506 5.15109 11.6877 4.95689 12.3691C7.13798 12.3691 9.31908 12.3691 11.5663 12.3691C11.2339 11.2585 10.939 10.5072 9.93716 9.93576C8.47088 9.2943 6.85283 9.57594 5.72798 10.7127Z" fill="white"/>
<path d="M91.0992 6.7366C91.1793 6.78401 91.2594 6.83141 91.3419 6.88025C92.5718 7.70303 93.3295 9.12735 93.638 10.5467C93.7581 11.163 93.7726 11.7577 93.768 12.3841C93.768 12.5017 93.7681 12.6192 93.7681 12.7403C93.7679 13.1251 93.7662 13.5099 93.7645 13.8947C93.7641 14.163 93.7638 14.4313 93.7636 14.6995C93.7627 15.4028 93.7606 16.1061 93.7581 16.8094C93.7559 17.5282 93.7549 18.247 93.7537 18.9658C93.7514 20.3741 93.7477 21.7823 93.743 23.1906C93.0704 23.1933 92.3979 23.1953 91.7253 23.1967C91.4963 23.1972 91.2673 23.198 91.0383 23.1989C90.7099 23.2003 90.3816 23.2009 90.0532 23.2014C89.8986 23.2022 89.8986 23.2022 89.7409 23.2031C89.6461 23.2031 89.5513 23.2031 89.4536 23.2031C89.3697 23.2034 89.2858 23.2036 89.1993 23.2039C89.0063 23.1906 89.0063 23.1906 88.8961 23.0802C88.8841 22.7555 88.8791 22.4333 88.8787 22.1085C88.8782 22.0065 88.8776 21.9045 88.877 21.7994C88.8759 21.577 88.8749 21.3546 88.8742 21.1322C88.8729 20.7798 88.8707 20.4275 88.8683 20.0752C88.8615 19.0731 88.8556 18.071 88.8519 17.0688C88.8496 16.4565 88.8457 15.8442 88.8408 15.2319C88.8392 14.9987 88.8383 14.7655 88.8379 14.5323C88.8374 14.205 88.8348 13.8779 88.8318 13.5506C88.8322 13.4549 88.8325 13.3591 88.8328 13.2604C88.8199 12.3025 88.5413 11.6054 87.8866 10.8993C87.2742 10.3324 86.5727 10.2353 85.7739 10.2471C84.9243 10.3147 84.2986 10.6449 83.7188 11.2642C83.147 11.9956 83.1351 12.9833 83.1329 13.8759C83.1312 14.028 83.1312 14.028 83.1295 14.1832C83.1261 14.5148 83.1242 14.8464 83.1224 15.178C83.1203 15.4093 83.1182 15.6406 83.1159 15.8719C83.1103 16.4781 83.1059 17.0842 83.1018 17.6904C83.0974 18.31 83.0918 18.9296 83.0862 19.5492C83.0756 20.763 83.0663 21.9768 83.0578 23.1906C82.3853 23.1933 81.7127 23.1953 81.0401 23.1967C80.8111 23.1972 80.5822 23.198 80.3532 23.1989C80.0248 23.2003 79.6964 23.2009 79.368 23.2014C79.2135 23.2022 79.2135 23.2022 79.0558 23.2031C78.9135 23.2031 78.9135 23.2031 78.7684 23.2031C78.6845 23.2034 78.6006 23.2036 78.5142 23.2039C78.3211 23.1906 78.3211 23.1906 78.211 23.0802C78.2001 22.8624 78.197 22.6442 78.197 22.4262C78.1967 22.284 78.1963 22.1419 78.196 21.9954C78.1962 21.8364 78.1965 21.6774 78.1967 21.5184C78.1966 21.3521 78.1964 21.1858 78.1961 21.0195C78.1956 20.5666 78.1958 20.1138 78.1962 19.6609C78.1964 19.188 78.1962 18.7151 78.196 18.2422C78.1958 17.4479 78.1961 16.6536 78.1966 15.8593C78.1972 14.9396 78.197 14.02 78.1964 13.1003C78.1959 12.3122 78.1958 11.524 78.1961 10.7359C78.1963 10.2645 78.1963 9.79313 78.1959 9.32177C78.1956 8.87873 78.1958 8.43569 78.1965 7.99265C78.1966 7.82959 78.1966 7.66652 78.1963 7.50345C78.196 7.28177 78.1965 7.06009 78.197 6.83842C78.197 6.71407 78.1971 6.58972 78.1971 6.4616C78.211 6.18446 78.211 6.18446 78.3211 6.07403C78.6469 6.06423 78.97 6.06131 79.2957 6.06324C79.4422 6.06348 79.4422 6.06348 79.5916 6.06372C79.9048 6.06434 80.218 6.06572 80.5311 6.06713C80.7429 6.06768 80.9547 6.06818 81.1665 6.06864C81.6868 6.06986 82.2071 6.07176 82.7274 6.07403C82.7819 6.89397 82.7819 6.89397 82.8375 7.73047C82.942 7.59837 83.0465 7.46627 83.1542 7.33016C85.0849 5.12989 88.7779 5.34239 91.0992 6.7366Z" fill="white"/>
<path d="M37.0498 6.05859C37.1966 6.05893 37.1966 6.05893 37.3464 6.05927C37.4463 6.05917 37.5461 6.05906 37.6489 6.05895C37.8604 6.05888 38.0719 6.05908 38.2835 6.05954C38.6084 6.06013 38.9333 6.05955 39.2582 6.05884C39.4632 6.05891 39.6682 6.05905 39.8731 6.05927C39.971 6.05905 40.0689 6.05882 40.1697 6.05859C40.8553 6.06124 40.8553 6.06124 40.9781 6.18437C40.9896 6.50791 40.994 6.82893 40.9938 7.15254C40.9941 7.25418 40.9945 7.35582 40.9949 7.46055C40.9957 7.68223 40.9963 7.90391 40.9967 8.12559C40.9975 8.47706 40.9992 8.82852 41.0013 9.17998C41.0071 10.1797 41.0123 11.1793 41.014 12.179C41.0152 12.7899 41.0184 13.4008 41.023 14.0117C41.0244 14.2441 41.0249 14.4765 41.0247 14.7089C41.0244 15.0356 41.0269 15.3622 41.0299 15.6888C41.0292 15.7838 41.0285 15.8788 41.0277 15.9767C41.0398 16.7737 41.2413 17.5174 41.7337 18.1552C42.4762 18.7596 43.1298 19.0681 44.1008 19.0321C44.8068 18.9404 45.4858 18.7388 45.9834 18.2074C46.5607 17.3931 46.7721 16.5634 46.7664 15.5766C46.7681 15.4213 46.7681 15.4213 46.7698 15.2628C46.7731 14.9246 46.7733 14.5865 46.7734 14.2483C46.775 14.0122 46.7769 13.7761 46.7789 13.54C46.7837 12.9217 46.7859 12.3034 46.7876 11.685C46.7897 11.0528 46.7944 10.4206 46.7988 9.78842C46.8071 8.55027 46.8126 7.31211 46.8164 6.07394C47.489 6.07122 48.1615 6.06921 48.8341 6.06787C49.0631 6.06731 49.2921 6.06656 49.5211 6.06561C49.8495 6.06427 50.1778 6.06364 50.5062 6.06315C50.6608 6.0623 50.6608 6.0623 50.8185 6.06143C50.9133 6.06142 51.0081 6.06141 51.1058 6.0614C51.2317 6.06103 51.2317 6.06103 51.3601 6.06066C51.5531 6.07394 51.5531 6.07394 51.6633 6.18437C51.6742 6.40213 51.6772 6.62029 51.6773 6.83833C51.6776 6.98049 51.6779 7.12264 51.6782 7.2691C51.678 7.42811 51.6778 7.58712 51.6775 7.74612C51.6777 7.91242 51.6779 8.07871 51.6781 8.24501C51.6786 8.69789 51.6784 9.15078 51.6781 9.60366C51.6778 10.0766 51.6781 10.5495 51.6782 11.0224C51.6784 11.8167 51.6782 12.611 51.6777 13.4053C51.6771 14.3249 51.6773 15.2446 51.6779 16.1642C51.6784 16.9524 51.6784 17.7405 51.6781 18.5287C51.678 19 51.6779 19.4714 51.6783 19.9428C51.6786 20.3858 51.6784 20.8288 51.6778 21.2719C51.6776 21.4349 51.6777 21.598 51.6779 21.7611C51.6782 21.9828 51.6778 22.2044 51.6773 22.4261C51.6772 22.6126 51.6772 22.6126 51.6772 22.8029C51.6633 23.0801 51.6633 23.0801 51.5531 23.1905C51.2354 23.2003 50.9203 23.2032 50.6026 23.2013C50.4598 23.2011 50.4598 23.2011 50.3141 23.2008C50.0088 23.2002 49.7035 23.1988 49.3982 23.1974C49.1917 23.1968 48.9853 23.1963 48.7788 23.1959C48.2715 23.1947 47.7643 23.1928 47.257 23.1905C47.2207 22.6803 47.1843 22.1701 47.1469 21.6445C47.006 21.7971 46.8652 21.9497 46.72 22.1069C45.614 23.2036 44.2246 23.5194 42.6924 23.5632C40.9253 23.511 39.3422 23.0738 38.0392 21.8222C36.2166 19.7675 36.2068 17.2543 36.216 14.6646C36.2162 14.4195 36.2162 14.1743 36.2162 13.9292C36.2164 13.4191 36.2173 12.9089 36.2188 12.3987C36.2206 11.7434 36.221 11.0881 36.221 10.4328C36.221 9.92836 36.2216 9.42392 36.2224 8.91948C36.2227 8.67762 36.223 8.43576 36.223 8.1939C36.2233 7.85795 36.2242 7.52202 36.2254 7.18608C36.2254 7.08564 36.2253 6.98521 36.2253 6.88173C36.2295 6.07308 36.2427 6.06171 37.0498 6.05859Z" fill="white"/>
<path d="M53.2055 6.07422C54.7686 6.07422 56.3317 6.07422 57.9422 6.07422C57.9422 11.7227 57.9422 17.3712 57.9422 23.1908C56.3791 23.1908 54.816 23.1908 53.2055 23.1908C53.0076 22.9924 53.0814 22.694 53.0813 22.4264C53.081 22.2842 53.0807 22.1421 53.0804 21.9956C53.0806 21.8366 53.0808 21.6776 53.0811 21.5186C53.0809 21.3523 53.0807 21.186 53.0805 21.0197C53.08 20.5668 53.0802 20.1139 53.0805 19.6611C53.0808 19.1882 53.0805 18.7153 53.0804 18.2424C53.0802 17.4481 53.0804 16.6538 53.081 15.8595C53.0816 14.9398 53.0814 14.0202 53.0808 13.1005C53.0803 12.3123 53.0802 11.5242 53.0805 10.736C53.0806 10.2647 53.0807 9.79333 53.0803 9.32196C53.08 8.87892 53.0802 8.43589 53.0808 7.99285C53.081 7.82978 53.0809 7.66671 53.0807 7.50364C53.0804 7.28196 53.0808 7.06029 53.0813 6.83861C53.0814 6.71426 53.0814 6.58991 53.0815 6.46179C53.0953 6.18465 53.0953 6.18465 53.2055 6.07422Z" fill="white"/>
<path d="M102.719 28.3937C102.774 28.4256 102.829 28.4575 102.886 28.4903C102.83 28.901 102.763 29.234 102.555 29.5946C102.225 29.5324 101.902 29.456 101.578 29.3669C100.945 29.2079 100.396 29.1861 99.8016 29.4842C99.6588 29.602 99.6588 29.602 99.6845 29.8776C99.6868 29.9664 99.6891 30.0552 99.6914 30.1468C100.309 30.4251 100.927 30.6279 101.578 30.8113C102.155 30.983 102.709 31.182 103.037 31.7204C103.06 31.7842 103.083 31.8479 103.106 31.9136C103.117 31.8496 103.128 31.7855 103.139 31.7195C103.313 30.8087 103.665 30.2556 104.428 29.705C105.131 29.3611 106.026 29.3699 106.769 29.5946C107.383 29.8605 107.774 30.4016 108.111 30.9612C108.209 31.416 108.173 31.8902 108.173 32.3553C106.974 32.3553 105.774 32.3553 104.538 32.3553C104.896 32.9535 104.998 33.0489 105.64 33.2388C106.085 33.2523 106.439 33.1787 106.824 32.942C106.906 32.8942 106.988 32.8463 107.072 32.7971C107.454 32.8985 107.642 33.1271 107.843 33.4596C107.843 33.569 107.843 33.6783 107.843 33.7909C107.082 34.4052 106.26 34.5468 105.309 34.4535C104.638 34.3151 104.137 34.0735 103.657 33.5701C103.487 33.2844 103.345 32.993 103.216 32.6866C103.191 32.8028 103.166 32.919 103.141 33.0386C102.962 33.6461 102.568 33.9703 102.025 34.2672C101.05 34.6694 99.7859 34.5645 98.8097 34.218C98.5358 34.0987 98.2838 33.9627 98.0391 33.7909C98.1014 33.3538 98.2383 33.0548 98.4797 32.6866C98.566 32.7162 98.6524 32.7459 98.7413 32.7764C98.8731 32.8196 99.0049 32.8629 99.1406 32.9075C99.2703 32.9513 99.2703 32.9513 99.4027 32.9959C100.111 33.2245 100.681 33.3841 101.392 33.0731C101.485 33.0185 101.578 32.9638 101.674 32.9075C101.674 32.7253 101.674 32.5431 101.674 32.3553C101.057 32.077 100.439 31.8742 99.7876 31.6908C99.1457 31.4998 98.6265 31.2723 98.2663 30.6782C98.0814 30.0133 98.1328 29.5124 98.4453 28.8975C99.4479 27.7294 101.406 27.7481 102.719 28.3937ZM104.759 30.9198C104.686 31.102 104.613 31.2842 104.538 31.4719C105.302 31.4719 106.065 31.4719 106.852 31.4719C106.779 31.0316 106.779 31.0316 106.514 30.7817C105.921 30.4275 105.294 30.4618 104.759 30.9198Z" fill="white"/>
<path d="M80.0583 28.0223C80.2926 28.0212 80.5268 28.0178 80.7611 28.0143C81.7425 28.0066 82.6515 28.0457 83.4984 28.594C83.8358 28.9427 83.9717 29.2471 83.9804 29.7328C83.9711 30.2936 83.7769 30.661 83.4984 31.1408C83.5848 31.2205 83.6711 31.3002 83.7601 31.3824C84.147 31.798 84.2529 32.0621 84.304 32.6247C84.2543 33.1925 84.0915 33.532 83.6843 33.9292C83.054 34.3406 82.475 34.3742 81.7471 34.3648C81.6092 34.3644 81.6092 34.3644 81.4684 34.3639C81.1766 34.3627 80.8849 34.3599 80.5931 34.3571C80.3944 34.356 80.1958 34.355 79.9971 34.354C79.5119 34.3516 79.0266 34.3478 78.5414 34.3433C78.5389 33.5389 78.5369 32.7345 78.5357 31.9301C78.5351 31.5566 78.5343 31.1831 78.5331 30.8097C78.5317 30.3807 78.5311 29.9517 78.5307 29.5228C78.5301 29.3881 78.5295 29.2534 78.5289 29.1146C78.5289 28.9908 78.5289 28.867 78.5289 28.7394C78.5287 28.6298 78.5284 28.5202 78.5282 28.4073C78.562 27.7732 79.5639 28.0236 80.0583 28.0223ZM79.9734 29.1531C79.9734 29.6633 79.9734 30.1734 79.9734 30.6991C81.2417 30.7902 81.2417 30.7902 82.3969 30.3678C82.5626 30.0869 82.5626 30.0869 82.6172 29.8157C82.3365 29.3855 82.3365 29.3855 81.8805 29.191C81.4851 29.1499 81.1007 29.1424 80.7032 29.1462C80.4624 29.1485 80.2216 29.1507 79.9734 29.1531ZM79.9734 31.8034C79.9734 32.2771 79.9734 32.7509 79.9734 33.239C80.3682 33.2479 80.7628 33.2545 81.1576 33.2597C81.3255 33.2638 81.3255 33.2638 81.4967 33.2681C81.6586 33.2697 81.6586 33.2697 81.8237 33.2713C81.9229 33.2731 82.0222 33.2748 82.1244 33.2766C82.4546 33.231 82.6025 33.1425 82.8375 32.9077C82.9109 32.5212 82.9109 32.5212 82.8375 32.1347C82.6025 31.8998 82.4546 31.8114 82.1244 31.7658C82.0252 31.7675 81.926 31.7692 81.8237 31.771C81.7158 31.7721 81.6079 31.7732 81.4967 31.7743C81.3848 31.777 81.2729 31.7798 81.1576 31.7827C80.9872 31.7849 80.9872 31.7849 80.8134 31.7872C80.5334 31.7911 80.2534 31.7971 79.9734 31.8034Z" fill="white"/>
<path d="M53.0953 0C54.6948 0 56.2943 0 57.9422 0C57.9422 1.56699 57.9422 3.13399 57.9422 4.74847C56.3427 4.74847 54.7433 4.74847 53.0953 4.74847C53.0953 3.18147 53.0953 1.61448 53.0953 0Z" fill="white"/>
<path d="M139.719 18.2351C140.318 18.5714 140.747 19.0067 141 19.6569C141.148 21.2688 141.148 21.2688 140.828 21.8793C140.252 22.5604 139.698 23.0357 138.797 23.1907C138.008 23.2312 137.419 23.032 136.814 22.5281C136.293 22.0509 135.993 21.5843 135.933 20.8716C135.925 20.1339 136.057 19.4937 136.484 18.8839C137.394 17.9712 138.538 17.6879 139.719 18.2351Z" fill="white"/>
<path d="M132.628 27.7188C133.028 27.7188 133.428 27.7188 133.84 27.7188C133.84 29.9053 133.84 32.0918 133.84 34.3445C133.44 34.3445 133.04 34.3445 132.628 34.3445C132.592 34.2716 132.555 34.1987 132.518 34.1237C132.393 34.1783 132.268 34.233 132.139 34.2893C131.392 34.5668 130.694 34.5438 129.96 34.2315C129.421 33.9348 129.07 33.4352 128.773 32.9089C128.706 32.601 128.699 32.3053 128.704 31.991C128.705 31.908 128.706 31.8249 128.707 31.7394C128.732 31.1435 128.829 30.7002 129.218 30.2297C129.89 29.631 130.554 29.423 131.445 29.4339C131.747 29.4856 131.747 29.4856 132.518 29.8169C132.554 29.1245 132.591 28.4321 132.628 27.7188ZM130.243 31.1166C129.969 31.5701 130.015 32.0665 130.095 32.5776C130.365 32.98 130.578 33.0998 131.017 33.2954C131.517 33.3646 131.754 33.2704 132.188 33.0194C132.528 32.7124 132.595 32.3708 132.635 31.9177C132.624 31.5481 132.508 31.3309 132.298 31.0316C131.986 30.7737 131.761 30.6117 131.361 30.5416C130.913 30.6203 130.556 30.7802 130.243 31.1166Z" fill="white"/>
<path d="M138.356 29.8161C138.893 30.2884 139.232 30.7533 139.348 31.4726C139.348 31.7641 139.348 32.0556 139.348 32.356C138.148 32.356 136.948 32.356 135.712 32.356C136.07 32.9541 136.172 33.0496 136.814 33.2394C137.26 33.253 137.614 33.1793 137.998 32.9427C138.08 32.8948 138.162 32.847 138.246 32.7977C138.632 32.9002 138.801 33.1354 139.017 33.4603C138.862 33.8357 138.705 34.0252 138.356 34.2333C137.392 34.6005 136.493 34.5418 135.546 34.1583C134.95 33.8411 134.643 33.3818 134.398 32.7632C134.183 32.0037 134.274 31.3154 134.618 30.6098C134.954 30.0566 135.42 29.7235 136.034 29.528C136.807 29.3826 137.676 29.3846 138.356 29.8161ZM135.823 31.0309C135.786 31.1766 135.75 31.3224 135.712 31.4726C136.476 31.4726 137.239 31.4726 138.026 31.4726C137.822 30.8888 137.822 30.8888 137.365 30.5891C136.727 30.491 136.272 30.5245 135.823 31.0309Z" fill="white"/>
<path d="M89.943 29.4745C90.1098 29.4765 90.1098 29.4765 90.28 29.4784C90.3914 29.4794 90.5029 29.4804 90.6177 29.4814C90.747 29.4834 90.747 29.4834 90.8789 29.4853C91.3444 30.4697 91.7935 31.4565 92.2008 32.4669C92.4526 32.1534 92.6199 31.8542 92.7727 31.4826C92.8153 31.3803 92.858 31.2781 92.902 31.1728C92.9673 31.014 92.9673 31.014 93.0339 30.8519C93.1207 30.6409 93.208 30.4301 93.2959 30.2195C93.3342 30.1263 93.3725 30.0331 93.4119 29.9371C93.5227 29.7062 93.5227 29.7062 93.743 29.4853C94.0055 29.4638 94.0055 29.4638 94.3075 29.4715C94.4078 29.4735 94.508 29.4755 94.6113 29.4776C94.6883 29.4801 94.7653 29.4827 94.8446 29.4853C94.785 30.1046 94.6182 30.5931 94.3613 31.1569C94.3239 31.2409 94.2865 31.3249 94.248 31.4114C94.1689 31.5886 94.0894 31.7656 94.0094 31.9424C93.889 32.2085 93.7699 32.4751 93.6511 32.7419C93.4282 33.2409 93.2008 33.7376 92.9719 34.2338C92.9403 34.3031 92.9088 34.3725 92.8763 34.4439C92.7919 34.6284 92.7053 34.8118 92.6186 34.9952C92.5486 35.1446 92.5486 35.1446 92.4771 35.297C92.2408 35.6695 91.97 35.9495 91.5327 36.0561C91.46 36.0559 91.3872 36.0557 91.3122 36.0555C91.2315 36.0555 91.1508 36.0556 91.0676 36.0557C90.9849 36.0535 90.9022 36.0513 90.817 36.049C90.6923 36.0502 90.6923 36.0502 90.565 36.0514C90.091 36.0459 89.7886 36.012 89.4469 35.6694C89.5635 35.2936 89.6682 35.0053 89.8875 34.6755C89.9852 34.712 90.0829 34.7484 90.1836 34.7859C90.5242 34.889 90.7495 34.9532 91.0992 34.8964C91.3227 34.7265 91.3227 34.7265 91.4297 34.4547C91.3834 33.924 91.2033 33.4821 90.9792 33.0057C90.9456 32.9325 90.9121 32.8593 90.8775 32.7838C90.7709 32.5513 90.6632 32.3193 90.5553 32.0873C90.448 31.8557 90.3408 31.624 90.2344 31.392C90.1683 31.2482 90.1018 31.1046 90.0346 30.9613C89.8279 30.5117 89.6818 30.0728 89.5571 29.5958C89.6672 29.4853 89.6672 29.4853 89.943 29.4745Z" fill="white"/>
<path d="M127.12 29.8154C127.586 30.2704 127.764 30.7629 127.806 31.4095C127.805 31.5448 127.804 31.6801 127.803 31.8195C127.802 31.8921 127.802 31.9647 127.802 32.0395C127.801 32.269 127.798 32.4985 127.795 32.728C127.794 32.8846 127.793 33.0412 127.792 33.1977C127.79 33.5795 127.786 33.9613 127.781 34.343C127.381 34.343 126.982 34.343 126.57 34.343C126.533 34.2701 126.497 34.1972 126.459 34.1222C126.353 34.1768 126.246 34.2315 126.136 34.2878C125.498 34.5586 124.876 34.5355 124.222 34.3223C123.81 34.1409 123.579 33.9877 123.375 33.57C123.282 33.0304 123.21 32.4843 123.533 32.0154C123.999 31.6012 124.419 31.4563 125.039 31.4611C125.122 31.4614 125.206 31.4618 125.291 31.4621C125.377 31.4631 125.462 31.464 125.551 31.4649C125.638 31.4654 125.725 31.4659 125.815 31.4665C126.03 31.4677 126.245 31.4697 126.459 31.4718C126.327 31.0775 126.327 31.0775 126.06 30.7748C125.321 30.5602 124.812 30.716 124.146 31.0301C124.037 31.0301 123.928 31.0301 123.816 31.0301C123.49 30.456 123.49 30.456 123.471 30.126C123.707 29.7452 124.159 29.6585 124.569 29.532C125.436 29.3576 126.337 29.4014 127.12 29.8154ZM124.587 32.6866C124.625 33.088 124.625 33.088 124.869 33.3906C125.27 33.4937 125.621 33.4618 126.019 33.3491C126.304 33.1741 126.304 33.1741 126.459 32.9074C126.473 32.621 126.473 32.621 126.459 32.3553C126.251 32.3463 126.042 32.3399 125.833 32.3346C125.717 32.3307 125.6 32.3269 125.48 32.3229C125.098 32.359 124.897 32.4668 124.587 32.6866Z" fill="white"/>
<path d="M85.0682 29.4688C85.1681 29.469 85.2681 29.4693 85.3711 29.4696C85.5211 29.4692 85.5211 29.4692 85.674 29.4688C85.9219 29.4834 85.9219 29.4834 86.032 29.5938C86.0468 29.8094 86.0545 30.0254 86.0592 30.2413C86.0628 30.3735 86.0664 30.5057 86.0701 30.6418C86.0768 30.9219 86.0832 31.202 86.0891 31.4821C86.0947 31.681 86.0947 31.681 86.1005 31.884C86.1032 32.0059 86.106 32.1278 86.1088 32.2533C86.1414 32.568 86.1901 32.7548 86.3625 33.0172C86.7104 33.1915 87.0903 33.2181 87.4641 33.1276C87.7609 32.9452 87.8598 32.8759 88.0149 32.5754C88.0965 32.0698 88.0969 31.5684 88.0975 31.057C88.1011 30.7838 88.1051 30.5106 88.1095 30.2374C88.1103 30.0562 88.1103 30.0562 88.1111 29.8713C88.125 29.5938 88.125 29.5938 88.2352 29.4834C88.635 29.4834 89.0349 29.4834 89.4469 29.4834C89.4469 31.0869 89.4469 32.6903 89.4469 34.3423C89.047 34.3423 88.6472 34.3423 88.2352 34.3423C88.1988 34.2694 88.1625 34.1965 88.125 34.1215C88.0205 34.1761 87.916 34.2308 87.8083 34.2871C87.1528 34.5665 86.5145 34.5272 85.8393 34.3354C85.3776 34.0595 84.9351 33.691 84.7582 33.1628C84.6939 32.8201 84.6959 32.4915 84.6955 32.1428C84.6954 32.0701 84.6953 31.9975 84.6952 31.9226C84.6952 31.7698 84.6954 31.6169 84.6958 31.4641C84.6964 31.2292 84.6958 30.9944 84.6951 30.7596C84.6952 30.611 84.6953 30.4624 84.6955 30.3138C84.6957 30.1784 84.6958 30.043 84.6959 29.9035C84.715 29.4897 84.715 29.4897 85.0682 29.4688Z" fill="white"/>
<path d="M114.783 28.0488C116.564 28.0488 118.345 28.0488 120.18 28.0488C120.18 28.4497 120.18 28.8505 120.18 29.2636C119.49 29.2636 118.799 29.2636 118.088 29.2636C118.088 30.9399 118.088 32.6162 118.088 34.3433C117.651 34.3433 117.215 34.3433 116.766 34.3433C116.766 32.667 116.766 30.9907 116.766 29.2636C116.111 29.2636 115.457 29.2636 114.783 29.2636C114.783 28.8627 114.783 28.4618 114.783 28.0488Z" fill="white"/>
<path d="M108.614 27.7188C109.05 27.7188 109.487 27.7188 109.936 27.7188C109.936 29.9053 109.936 32.0918 109.936 34.3445C109.5 34.3445 109.064 34.3445 108.614 34.3445C108.614 32.158 108.614 29.9715 108.614 27.7188Z" fill="white"/>
<path d="M110.817 27.7188C111.217 27.7188 111.617 27.7188 112.029 27.7188C112.029 29.9053 112.029 32.0918 112.029 34.3445C111.593 34.3445 111.156 34.3445 110.707 34.3445C110.705 33.4969 110.703 32.6493 110.701 31.8018C110.701 31.4082 110.7 31.0147 110.699 30.6212C110.697 30.1692 110.697 29.7172 110.696 29.2652C110.696 29.1232 110.695 28.9813 110.695 28.8351C110.695 28.7046 110.695 28.5742 110.695 28.4398C110.694 28.3243 110.694 28.2088 110.694 28.0898C110.707 27.8292 110.707 27.8292 110.817 27.7188Z" fill="white"/>
<path d="M120.835 29.4578C120.983 29.4536 120.983 29.4536 121.134 29.4492C121.219 29.4612 121.304 29.4731 121.392 29.4855C121.465 29.5948 121.538 29.7041 121.613 29.8167C121.724 29.7621 121.835 29.7074 121.95 29.6511C122.359 29.4727 122.707 29.458 123.155 29.4855C123.155 29.8863 123.155 30.2872 123.155 30.7002C123 30.7275 122.846 30.7548 122.687 30.783C122.245 30.8811 121.997 30.9848 121.723 31.3628C121.611 31.6993 121.591 31.9532 121.578 32.3061C121.573 32.4247 121.568 32.5432 121.564 32.6653C121.557 32.8507 121.557 32.8507 121.551 33.0399C121.546 33.1648 121.541 33.2897 121.536 33.4184C121.524 33.727 121.513 34.0357 121.502 34.3443C121.066 34.3443 120.63 34.3443 120.18 34.3443C120.178 33.6701 120.176 32.9959 120.174 32.3217C120.174 32.0921 120.173 31.8625 120.172 31.633C120.171 31.3038 120.17 30.9746 120.17 30.6454C120.169 30.4904 120.169 30.4904 120.168 30.3324C120.168 30.2373 120.168 30.1423 120.168 30.0443C120.168 29.9602 120.167 29.8761 120.167 29.7894C120.195 29.3798 120.49 29.4638 120.835 29.4578Z" fill="white"/>
<path d="M95.5055 32.7978C95.774 32.9082 95.774 32.9082 95.9461 33.1291C96.0085 33.6212 96.037 33.8724 95.7671 34.2886C95.4214 34.5075 95.2468 34.5283 94.8446 34.4542C94.521 34.2265 94.521 34.2265 94.2938 33.9021C94.2938 33.5108 94.3314 33.2543 94.5279 32.9151C94.8608 32.726 95.1316 32.7583 95.5055 32.7978Z" fill="white"/>
<path d="M113.681 32.7977C114.005 33.0255 114.005 33.0255 114.232 33.3499C114.239 33.7753 114.218 34.0123 113.936 34.3368C113.6 34.4915 113.386 34.5076 113.02 34.4542C112.759 34.2885 112.759 34.2885 112.58 34.0124C112.515 33.6852 112.536 33.4712 112.58 33.129C112.887 32.7503 113.214 32.7213 113.681 32.7977Z" fill="white"/>
<path d="M140.821 32.9003C141.074 33.2228 141.062 33.4883 141.042 33.8903C141 34.1219 141 34.1219 140.821 34.3497C140.482 34.4838 140.26 34.5061 139.898 34.4532C139.637 34.2876 139.637 34.2876 139.458 34.0115C139.393 33.6843 139.414 33.4702 139.458 33.1281C139.822 32.6789 140.311 32.6985 140.821 32.9003Z" fill="white"/>
</g>
<defs>
<clipPath id="clip0_109_75365">
<rect width="141" height="36" fill="white"/>
</clipPath>
</defs>
</svg>
