<svg width="20" height="21" viewBox="0 0 20 21" fill="none" xmlns="http://www.w3.org/2000/svg">
<path d="M18.8 10.7083C18.8 10.0583 18.7417 9.43325 18.6333 8.83325H10V12.3833H14.9333C14.7167 13.5249 14.0667 14.4916 13.0917 15.1416V17.4499H16.0667C17.8 15.8499 18.8 13.4999 18.8 10.7083Z" fill="#4285F4"/>
<path d="M9.99974 19.6667C12.4747 19.6667 14.5497 18.85 16.0664 17.45L13.0914 15.1417C12.2747 15.6917 11.2331 16.025 9.99974 16.025C7.61641 16.025 5.59141 14.4167 4.86641 12.25H1.81641V14.6167C3.32474 17.6083 6.41641 19.6667 9.99974 19.6667Z" fill="#34A853"/>
<path d="M4.86536 12.2416C4.68203 11.6916 4.5737 11.1083 4.5737 10.4999C4.5737 9.8916 4.68203 9.30827 4.86536 8.75827V6.3916H1.81536C1.19036 7.62493 0.832031 9.0166 0.832031 10.4999C0.832031 11.9833 1.19036 13.3749 1.81536 14.6083L4.19036 12.7583L4.86536 12.2416Z" fill="#FBBC05"/>
<path d="M9.99974 4.98325C11.3497 4.98325 12.5497 5.44992 13.5081 6.34992L16.1331 3.72492C14.5414 2.24159 12.4747 1.33325 9.99974 1.33325C6.41641 1.33325 3.32474 3.39159 1.81641 6.39159L4.86641 8.75825C5.59141 6.59159 7.61641 4.98325 9.99974 4.98325Z" fill="#EA4335"/>
</svg>
