<svg width="16" height="20" viewBox="0 0 16 20" fill="none" xmlns="http://www.w3.org/2000/svg">
<g clip-path="url(#clip0_119_36008)">
<path fill-rule="evenodd" clip-rule="evenodd" d="M2 2H5.33333C5.86377 2 6.37247 2.21071 6.74755 2.58579C7.12262 2.96086 7.33333 3.46957 7.33333 4V7.33333C7.33333 7.86377 7.12262 8.37247 6.74755 8.74755C6.37247 9.12262 5.86377 9.33333 5.33333 9.33333H2C1.46957 9.33333 0.960859 9.12262 0.585786 8.74755C0.210714 8.37247 0 7.86377 0 7.33333L0 4C0 3.46957 0.210714 2.96086 0.585786 2.58579C0.960859 2.21071 1.46957 2 2 2ZM2 3.33333C1.82319 3.33333 1.65362 3.40357 1.5286 3.5286C1.40357 3.65362 1.33333 3.82319 1.33333 4V7.33333C1.33333 7.73333 1.6 8 2 8H5.33333C5.73333 8 6 7.73333 6 7.33333V4C6 3.6 5.73333 3.33333 5.33333 3.33333H2Z" fill="#6D3EC1"/>
<path fill-rule="evenodd" clip-rule="evenodd" d="M14.0052 9.33333H10.6719C10.1414 9.33333 9.63273 9.12262 9.25766 8.74755C8.88259 8.37247 8.67188 7.86377 8.67188 7.33333V4C8.67188 3.46957 8.88259 2.96086 9.25766 2.58579C9.63273 2.21071 10.1414 2 10.6719 2H14.0052C14.5356 2 15.0443 2.21071 15.4194 2.58579C15.7945 2.96086 16.0052 3.46957 16.0052 4V7.33333C16.0052 7.86377 15.7945 8.37247 15.4194 8.74755C15.0443 9.12262 14.5356 9.33333 14.0052 9.33333ZM14.0052 8C14.4052 8 14.6719 7.73333 14.6719 7.33333V4C14.6719 3.6 14.4052 3.33333 14.0052 3.33333H10.6719C10.4951 3.33333 10.3255 3.40357 10.2005 3.5286C10.0754 3.65362 10.0052 3.82319 10.0052 4V7.33333C10.0052 7.73333 10.2719 8 10.6719 8H14.0052Z" fill="#6D3EC1"/>
<path fill-rule="evenodd" clip-rule="evenodd" d="M5.33333 10.6719H2C1.46957 10.6719 0.960859 10.8826 0.585786 11.2577C0.210714 11.6327 0 12.1414 0 12.6719L0 16.0052C0 16.5356 0.210714 17.0443 0.585786 17.4194C0.960859 17.7945 1.46957 18.0052 2 18.0052H5.33333C5.86377 18.0052 6.37247 17.7945 6.74755 17.4194C7.12262 17.0443 7.33333 16.5356 7.33333 16.0052V12.6719C7.33333 12.1414 7.12262 11.6327 6.74755 11.2577C6.37247 10.8826 5.86377 10.6719 5.33333 10.6719ZM1.33333 12.6719C1.33333 12.2719 1.6 12.0052 2 12.0052H5.33333C5.73333 12.0052 6 12.2719 6 12.6719V16.0052C6 16.4052 5.73333 16.6719 5.33333 16.6719H2C1.82319 16.6719 1.65362 16.6016 1.5286 16.4766C1.40357 16.3516 1.33333 16.182 1.33333 16.0052V12.6719Z" fill="#6D3EC1"/>
<path fill-rule="evenodd" clip-rule="evenodd" d="M14.0052 18.0052H10.6719C10.1414 18.0052 9.63273 17.7945 9.25766 17.4194C8.88259 17.0443 8.67188 16.5356 8.67188 16.0052V12.6719C8.67188 12.1414 8.88259 11.6327 9.25766 11.2577C9.63273 10.8826 10.1414 10.6719 10.6719 10.6719H14.0052C14.5356 10.6719 15.0443 10.8826 15.4194 11.2577C15.7945 11.6327 16.0052 12.1414 16.0052 12.6719V16.0052C16.0052 16.5356 15.7945 17.0443 15.4194 17.4194C15.0443 17.7945 14.5356 18.0052 14.0052 18.0052ZM14.0052 16.6719C14.4052 16.6719 14.6719 16.4052 14.6719 16.0052V12.6719C14.6719 12.2719 14.4052 12.0052 14.0052 12.0052H10.6719C10.4951 12.0052 10.3255 12.0754 10.2005 12.2005C10.0754 12.3255 10.0052 12.4951 10.0052 12.6719V16.0052C10.0052 16.4052 10.2719 16.6719 10.6719 16.6719H14.0052Z" fill="#6D3EC1"/>
</g>
<defs>
<clipPath id="clip0_119_36008">
<rect width="16" height="20" fill="white"/>
</clipPath>
</defs>
</svg>
