<svg width="40" height="40" viewBox="0 0 40 40" fill="none" xmlns="http://www.w3.org/2000/svg">
<rect width="40" height="40" rx="20" fill="white"/>
<g clip-path="url(#clip0_109_75408)">
<path fill-rule="evenodd" clip-rule="evenodd" d="M12.2222 30H27.7778C29.0051 30 30 29.0051 30 27.7778V12.2222C30 10.9949 29.0051 10 27.7778 10H12.2222C10.9949 10 10 10.9949 10 12.2222V27.7778C10 29.0051 10.9949 30 12.2222 30Z" fill="black"/>
<path fill-rule="evenodd" clip-rule="evenodd" d="M27.2222 27.2218H24.2543V22.1668C24.2543 20.7809 23.7277 20.0064 22.6307 20.0064C21.4374 20.0064 20.8139 20.8124 20.8139 22.1668V27.2218H17.9537V17.5922H20.8139V18.8893C20.8139 18.8893 21.6739 17.298 23.7174 17.298C25.7599 17.298 27.2222 18.5453 27.2222 21.1249V27.2218ZM14.5415 16.3312C13.5672 16.3312 12.7778 15.5356 12.7778 14.5543C12.7778 13.573 13.5672 12.7773 14.5415 12.7773C15.5157 12.7773 16.3047 13.573 16.3047 14.5543C16.3047 15.5356 15.5157 16.3312 14.5415 16.3312ZM13.0646 27.2218H16.047V17.5922H13.0646V27.2218Z" fill="white"/>
</g>
<defs>
<clipPath id="clip0_109_75408">
<rect width="20" height="20" fill="white" transform="translate(10 10)"/>
</clipPath>
</defs>
</svg>
