<svg width="16" height="16" viewBox="0 0 16 16" fill="none" xmlns="http://www.w3.org/2000/svg">
<mask id="mask0_426_3150" style="mask-type:alpha" maskUnits="userSpaceOnUse" x="0" y="0" width="16" height="16">
<rect width="16" height="16" fill="#D9D9D9"/>
</mask>
<g mask="url(#mask0_426_3150)">
<path d="M8.00078 13.009C9.30505 11.8415 10.3031 10.7217 10.995 9.64943C11.6869 8.57721 12.0328 7.6381 12.0328 6.83212C12.0328 5.61674 11.6467 4.61759 10.8745 3.83468C10.1023 3.05177 9.14437 2.66031 8.00078 2.66031C6.85719 2.66031 5.89929 3.05177 5.12707 3.83468C4.35484 4.61759 3.96873 5.61674 3.96873 6.83212C3.96873 7.6381 4.31467 8.57721 5.00655 9.64943C5.69844 10.7217 6.69652 11.8415 8.00078 13.009ZM8.00078 13.9603C7.87087 13.9603 7.74096 13.9379 7.61105 13.893C7.48114 13.8481 7.36362 13.7787 7.25848 13.6847C6.66021 13.1334 6.10038 12.5657 5.57902 11.9815C5.05765 11.3973 4.60444 10.8133 4.2194 10.2296C3.83436 9.6458 3.52966 9.06717 3.3053 8.49367C3.08093 7.92015 2.96875 7.3663 2.96875 6.83212C2.96875 5.29367 3.4664 4.04817 4.4617 3.0956C5.45699 2.14303 6.63668 1.66675 8.00078 1.66675C9.36488 1.66675 10.5446 2.14303 11.5399 3.0956C12.5352 4.04817 13.0328 5.29367 13.0328 6.83212C13.0328 7.3663 12.9206 7.91909 12.6963 8.49047C12.4719 9.06183 12.1683 9.64047 11.7854 10.2264C11.4025 10.8123 10.9503 11.3962 10.429 11.9783C9.9076 12.5603 9.34777 13.127 8.74948 13.6782C8.64589 13.7723 8.52818 13.8428 8.39633 13.8898C8.26448 13.9368 8.13263 13.9603 8.00078 13.9603ZM8.00192 7.91032C8.33364 7.91032 8.61723 7.7922 8.8527 7.55598C9.08817 7.31976 9.2059 7.03579 9.2059 6.70407C9.2059 6.37234 9.08779 6.08875 8.85157 5.85328C8.61535 5.61782 8.33137 5.50008 7.99965 5.50008C7.66793 5.50008 7.38433 5.61819 7.14887 5.85441C6.9134 6.09064 6.79567 6.37461 6.79567 6.70633C6.79567 7.03805 6.91378 7.32165 7.15 7.55712C7.38622 7.79258 7.67019 7.91032 8.00192 7.91032Z" fill="#57585A"/>
</g>
</svg>
