<svg width="16" height="26" viewBox="0 0 16 26" fill="none" xmlns="http://www.w3.org/2000/svg">
<path d="M5.37627 15.7371C5.17535 15.7371 5.00921 15.6715 4.87784 15.5402C4.74646 15.4089 4.68076 15.2429 4.68076 15.0422C4.68076 14.8414 4.74646 14.6752 4.87784 14.5436C5.00921 14.4119 5.17535 14.3461 5.37627 14.3461H10.6263C10.8272 14.3461 10.9933 14.4118 11.1247 14.5431C11.2561 14.6743 11.3218 14.8404 11.3218 15.0411C11.3218 15.2419 11.2561 15.4081 11.1247 15.5397C10.9933 15.6713 10.8272 15.7371 10.6263 15.7371H5.37627ZM4.20961 12.2371C4.00869 12.2371 3.84254 12.1715 3.71118 12.0402C3.57979 11.9089 3.5141 11.7429 3.5141 11.5422C3.5141 11.3414 3.57979 11.1752 3.71118 11.0436C3.84254 10.9119 4.00869 10.8461 4.20961 10.8461H11.7929C11.9939 10.8461 12.16 10.9118 12.2914 11.0431C12.4228 11.1743 12.4884 11.3403 12.4884 11.5411C12.4884 11.7419 12.4228 11.9081 12.2914 12.0397C12.16 12.1713 11.9939 12.2371 11.7929 12.2371H4.20961ZM2.52695 25.2499C1.93763 25.2499 1.4388 25.0457 1.03047 24.6374C0.622135 24.2291 0.417969 23.7303 0.417969 23.141V2.85898C0.417969 2.26966 0.622135 1.77083 1.03047 1.3625C1.4388 0.954167 1.93763 0.75 2.52695 0.75H13.4756C14.0649 0.75 14.5637 0.954167 14.9721 1.3625C15.3804 1.77083 15.5846 2.26966 15.5846 2.85898V23.141C15.5846 23.7303 15.3804 24.2291 14.9721 24.6374C14.5637 25.0458 14.0649 25.2499 13.4756 25.2499L2.52695 25.2499ZM2.16794 20.2917H13.8346V5.70828H2.16794V20.2917Z" fill="white"/>
</svg>
