<svg width="220" height="66" viewBox="0 0 220 66" fill="none" xmlns="http://www.w3.org/2000/svg">
<path d="M211.852 65.1852H8.14815C3.58519 65.1852 0 61.6 0 57.037V8.14815C0 3.58519 3.58519 0 8.14815 0H211.852C216.415 0 220 3.58519 220 8.14815V57.037C220 61.6 216.415 65.1852 211.852 65.1852Z" fill="#0A0A0A"/>
<path d="M211.852 1.3037C215.6 1.3037 218.696 4.4 218.696 8.14815V57.037C218.696 60.7852 215.6 63.8815 211.852 63.8815H8.14815C4.4 63.8815 1.3037 60.7852 1.3037 57.037V8.14815C1.3037 4.4 4.4 1.3037 8.14815 1.3037H211.852ZM211.852 0H8.14815C3.58519 0 0 3.74815 0 8.14815V57.037C0 61.6 3.58519 65.1852 8.14815 65.1852H211.852C216.415 65.1852 220 61.6 220 57.037V8.14815C220 3.74815 216.415 0 211.852 0Z" fill="white"/>
<path d="M77.2465 16.62C77.2465 17.9237 76.9206 19.0644 76.1058 19.8792C75.128 20.857 73.9873 21.3459 72.5206 21.3459C71.0539 21.3459 69.9132 20.857 68.9354 19.8792C67.9576 18.9014 67.4688 17.7607 67.4688 16.294C67.4688 14.8274 67.9576 13.6866 68.9354 12.7089C69.9132 11.7311 71.0539 11.2422 72.5206 11.2422C73.1725 11.2422 73.8243 11.4051 74.4762 11.7311C75.128 12.057 75.6169 12.3829 75.9428 12.8718L75.128 13.6866C74.4762 12.8718 73.6613 12.5459 72.5206 12.5459C71.5428 12.5459 70.565 12.8718 69.9132 13.6866C69.0984 14.3385 68.7725 15.3163 68.7725 16.457C68.7725 17.5977 69.0984 18.5755 69.9132 19.2274C70.728 19.8792 71.5428 20.3681 72.5206 20.3681C73.6613 20.3681 74.4762 20.0422 75.291 19.2274C75.7799 18.7385 76.1058 18.0866 76.1058 17.2718H72.5206V15.9681H77.2465V16.62ZM84.7428 12.5459H80.3428V15.6422H84.4169V16.7829H80.3428V19.8792H84.7428V21.1829H79.0391V11.4052H84.7428V12.5459ZM90.1206 21.1829H88.8169V12.5459H86.0465V11.4052H92.891V12.5459H90.1206V21.1829ZM97.6169 21.1829V11.4052H98.9206V21.1829H97.6169ZM104.461 21.1829H103.158V12.5459H100.387V11.4052H107.069V12.5459H104.298V21.1829H104.461ZM119.943 19.8792C118.965 20.857 117.824 21.3459 116.358 21.3459C114.891 21.3459 113.75 20.857 112.772 19.8792C111.795 18.9014 111.306 17.7607 111.306 16.294C111.306 14.8274 111.795 13.6866 112.772 12.7089C113.75 11.7311 114.891 11.2422 116.358 11.2422C117.824 11.2422 118.965 11.7311 119.943 12.7089C120.921 13.6866 121.409 14.8274 121.409 16.294C121.409 17.7607 120.921 18.9014 119.943 19.8792ZM113.75 19.0644C114.402 19.7163 115.38 20.2051 116.358 20.2051C117.335 20.2051 118.313 19.8792 118.965 19.0644C119.617 18.4126 120.106 17.4348 120.106 16.294C120.106 15.1533 119.78 14.1755 118.965 13.5237C118.313 12.8718 117.335 12.3829 116.358 12.3829C115.38 12.3829 114.402 12.7089 113.75 13.5237C113.098 14.1755 112.609 15.1533 112.609 16.294C112.609 17.4348 112.935 18.4126 113.75 19.0644ZM123.202 21.1829V11.4052H124.669L129.395 19.0644V11.4052H130.698V21.1829H129.395L124.343 13.1977V21.1829H123.202Z" fill="white" stroke="white" stroke-width="0.325926" stroke-miterlimit="10"/>
<path d="M110.977 35.5264C107.065 35.5264 103.969 38.4598 103.969 42.5339C103.969 46.445 107.065 49.5413 110.977 49.5413C114.888 49.5413 117.984 46.6079 117.984 42.5339C117.984 38.2968 114.888 35.5264 110.977 35.5264ZM110.977 46.6079C108.858 46.6079 107.065 44.8153 107.065 42.3709C107.065 39.9264 108.858 38.1339 110.977 38.1339C113.095 38.1339 114.888 39.7635 114.888 42.3709C114.888 44.8153 113.095 46.6079 110.977 46.6079ZM95.821 35.5264C91.9099 35.5264 88.8136 38.4598 88.8136 42.5339C88.8136 46.445 91.9099 49.5413 95.821 49.5413C99.7321 49.5413 102.828 46.6079 102.828 42.5339C102.828 38.2968 99.7321 35.5264 95.821 35.5264ZM95.821 46.6079C93.7025 46.6079 91.9099 44.8153 91.9099 42.3709C91.9099 39.9264 93.7025 38.1339 95.821 38.1339C97.9395 38.1339 99.7321 39.7635 99.7321 42.3709C99.7321 44.8153 97.9395 46.6079 95.821 46.6079ZM77.7321 37.645V40.5783H84.7395C84.5766 42.2079 83.9247 43.5116 83.1099 44.3264C82.1321 45.3042 80.5025 46.445 77.7321 46.445C73.3321 46.445 70.0729 43.0227 70.0729 38.6227C70.0729 34.2227 73.4951 30.8005 77.7321 30.8005C80.0136 30.8005 81.8062 31.7783 83.1099 32.919L85.2284 30.8005C83.4358 29.1709 81.1543 27.8672 77.8951 27.8672C72.0284 27.8672 66.9766 32.7561 66.9766 38.6227C66.9766 44.4894 72.0284 49.3783 77.8951 49.3783C81.1543 49.3783 83.4358 48.4005 85.3914 46.282C87.3469 44.3264 87.9988 41.5561 87.9988 39.4376C87.9988 38.7857 87.9988 38.1339 87.8358 37.645H77.7321ZM151.717 39.9264C151.065 38.2968 149.436 35.5264 145.851 35.5264C142.265 35.5264 139.332 38.2968 139.332 42.5339C139.332 46.445 142.265 49.5413 146.177 49.5413C149.273 49.5413 151.228 47.5857 151.88 46.445L149.599 44.8153C148.784 45.9561 147.806 46.7709 146.177 46.7709C144.547 46.7709 143.569 46.119 142.754 44.6524L152.043 40.7413L151.717 39.9264ZM142.265 42.2079C142.265 39.6005 144.384 38.1339 145.851 38.1339C146.991 38.1339 148.132 38.7857 148.458 39.6005L142.265 42.2079ZM134.606 48.8894H137.702V28.519H134.606V48.8894ZM129.717 36.9931C128.902 36.1783 127.599 35.3635 125.969 35.3635C122.547 35.3635 119.288 38.4598 119.288 42.3709C119.288 46.282 122.384 49.2153 125.969 49.2153C127.599 49.2153 128.902 48.4005 129.554 47.5857H129.717V48.5635C129.717 51.1709 128.251 52.6376 125.969 52.6376C124.177 52.6376 122.873 51.3338 122.547 50.1931L119.94 51.3338C120.754 53.1264 122.71 55.4079 126.132 55.4079C129.717 55.4079 132.651 53.2894 132.651 48.2376V35.8524H129.717V36.9931ZM126.132 46.6079C124.014 46.6079 122.221 44.8153 122.221 42.3709C122.221 39.9264 124.014 38.1339 126.132 38.1339C128.251 38.1339 129.88 39.9264 129.88 42.3709C129.88 44.8153 128.251 46.6079 126.132 46.6079ZM165.895 28.519H158.562V48.8894H161.658V41.2301H165.895C169.317 41.2301 172.577 38.7857 172.577 34.8746C172.577 30.9635 169.317 28.519 165.895 28.519ZM166.058 38.2968H161.658V31.2894H166.058C168.34 31.2894 169.643 33.245 169.643 34.7116C169.48 36.5042 168.177 38.2968 166.058 38.2968ZM184.799 35.3635C182.517 35.3635 180.236 36.3413 179.421 38.4598L182.191 39.6005C182.843 38.4598 183.821 38.1339 184.962 38.1339C186.591 38.1339 188.058 39.1116 188.221 40.7413V40.9042C187.732 40.5783 186.428 40.0894 185.125 40.0894C182.191 40.0894 179.258 41.719 179.258 44.6524C179.258 47.4227 181.702 49.2153 184.31 49.2153C186.428 49.2153 187.406 48.2376 188.221 47.2598H188.384V48.8894H191.317V41.0672C190.991 37.482 188.221 35.3635 184.799 35.3635ZM184.473 46.6079C183.495 46.6079 182.028 46.119 182.028 44.8153C182.028 43.1857 183.821 42.6968 185.288 42.6968C186.591 42.6968 187.243 43.0227 188.058 43.3487C187.732 45.3042 186.102 46.6079 184.473 46.6079ZM201.584 35.8524L198.162 44.6524H197.999L194.414 35.8524H191.154L196.532 48.2376L193.436 55.082H196.532L204.843 35.8524H201.584ZM174.206 48.8894H177.303V28.519H174.206V48.8894Z" fill="white"/>
<path d="M16.9487 12.2188C16.4598 12.7076 16.2969 13.5225 16.2969 14.5002V50.5151C16.2969 51.4928 16.6228 52.3076 17.1117 52.7965L17.2747 52.9595L37.4821 32.7521V32.4262L16.9487 12.2188Z" fill="url(#paint0_linear_119_36898)"/>
<path d="M44.0018 39.6018L37.3203 32.9204V32.4315L44.0018 25.75L44.1648 25.913L52.1499 30.4759C54.4314 31.7796 54.4314 33.8981 52.1499 35.2019L44.0018 39.6018Z" fill="url(#paint1_linear_119_36898)"/>
<path d="M44.1679 39.4382L37.3235 32.5938L16.9531 52.9641C17.7679 53.7789 18.9087 53.7789 20.3753 53.1271L44.1679 39.4382Z" fill="url(#paint2_linear_119_36898)"/>
<path d="M44.1679 25.7491L20.3753 12.2232C18.9087 11.4084 17.7679 11.5713 16.9531 12.3862L37.3235 32.5936L44.1679 25.7491Z" fill="url(#paint3_linear_119_36898)"/>
<path opacity="0.2" d="M44.005 39.2734L20.3753 52.6364C19.0716 53.4512 17.9309 53.2882 17.1161 52.6364L16.9531 52.7994L17.1161 52.9623C17.9309 53.6142 19.0716 53.7771 20.3753 52.9623L44.005 39.2734Z" fill="#0A0A0A"/>
<path opacity="0.12" d="M16.9487 52.6382C16.4598 52.1493 16.2969 51.3345 16.2969 50.3567V50.5197C16.2969 51.4975 16.6228 52.3123 17.1117 52.8012V52.6382H16.9487ZM52.1487 34.7123L44.0006 39.2752L44.1635 39.4382L52.1487 34.8752C53.2895 34.2234 53.7784 33.4086 53.7784 32.5938C53.7784 33.4086 53.1265 34.0604 52.1487 34.7123Z" fill="#0A0A0A"/>
<path opacity="0.25" d="M20.3709 12.3863L52.1487 30.4752C53.1265 31.1271 53.7784 31.7789 53.7784 32.5938C53.7784 31.7789 53.2895 30.9641 52.1487 30.3123L20.3709 12.2234C18.0895 10.9197 16.2969 11.8975 16.2969 14.5049V14.6678C16.2969 12.2234 18.0895 11.0826 20.3709 12.3863Z" fill="white"/>
<defs>
<linearGradient id="paint0_linear_119_36898" x1="35.5265" y1="14.1906" x2="8.17643" y2="41.539" gradientUnits="userSpaceOnUse">
<stop stop-color="#00A0FF"/>
<stop offset="0.007" stop-color="#00A1FF"/>
<stop offset="0.26" stop-color="#00BEFF"/>
<stop offset="0.512" stop-color="#00D2FF"/>
<stop offset="0.76" stop-color="#00DFFF"/>
<stop offset="1" stop-color="#00E3FF"/>
</linearGradient>
<linearGradient id="paint1_linear_119_36898" x1="55.1387" y1="32.5961" x2="15.7065" y2="32.5961" gradientUnits="userSpaceOnUse">
<stop stop-color="#FFE000"/>
<stop offset="0.409" stop-color="#FFBD00"/>
<stop offset="0.775" stop-color="#FFA500"/>
<stop offset="1" stop-color="#FF9C00"/>
</linearGradient>
<linearGradient id="paint2_linear_119_36898" x1="40.4638" y1="36.3354" x2="3.37669" y2="73.4225" gradientUnits="userSpaceOnUse">
<stop stop-color="#FF3A44"/>
<stop offset="1" stop-color="#C31162"/>
</linearGradient>
<linearGradient id="paint3_linear_119_36898" x1="11.8964" y1="0.287794" x2="28.4583" y2="16.8497" gradientUnits="userSpaceOnUse">
<stop stop-color="#32A071"/>
<stop offset="0.069" stop-color="#2DA771"/>
<stop offset="0.476" stop-color="#15CF74"/>
<stop offset="0.801" stop-color="#06E775"/>
<stop offset="1" stop-color="#00F076"/>
</linearGradient>
</defs>
</svg>
