<svg width="200" height="179" viewBox="0 0 200 179" fill="none" xmlns="http://www.w3.org/2000/svg">
<path d="M35.3281 159.98C71.2968 178.465 129.613 178.466 165.581 159.98C201.55 141.494 201.55 111.522 165.581 93.0359C129.613 74.5496 71.2964 74.5496 35.3277 93.0355C-0.640552 111.521 -0.640555 141.494 35.3281 159.98Z" fill="#F5F5F5"/>
<path d="M162.668 110.458C162.711 107.986 165.297 101.526 167.918 98.3622C170.538 95.1983 174.611 92.9222 177.458 93.952C180.11 94.9111 179.76 98.4056 176.483 100.668C173.206 102.931 168.29 105.759 166.797 109.743L163.725 114.609L162.668 110.458Z" fill="#6D3EC1"/>
<path opacity="0.1" d="M162.668 110.458C162.711 107.986 165.297 101.526 167.918 98.3622C170.538 95.1983 174.611 92.9222 177.458 93.952C180.11 94.9111 179.76 98.4056 176.483 100.668C173.206 102.931 168.29 105.759 166.797 109.743L163.725 114.609L162.668 110.458Z" fill="black"/>
<path d="M163.126 112.463C163.205 112.458 163.274 112.402 163.291 112.321C165.093 103.914 172.037 97.1761 176.148 95.7325C176.242 95.6995 176.291 95.5965 176.258 95.5022C176.226 95.4088 176.125 95.357 176.028 95.3917C171.839 96.8626 164.767 103.711 162.938 112.246C162.917 112.343 162.979 112.439 163.076 112.46C163.093 112.463 163.11 112.464 163.126 112.463Z" fill="white"/>
<path d="M164.307 117.886C164.728 116.504 166.465 114.241 169.242 112.396C172.315 110.354 176.173 109.458 177.087 107.843C178.186 105.903 176.567 104.023 173.442 104.356C170.317 104.688 164.76 108.848 163.771 115.238L164.307 117.886Z" fill="#6D3EC1"/>
<path d="M163.72 116.42C163.789 116.415 163.851 116.372 163.877 116.303C166.59 109.121 172.148 106.681 174.708 106.394C174.807 106.382 174.878 106.293 174.867 106.194C174.856 106.094 174.771 106.023 174.668 106.034C171.837 106.352 166.308 108.845 163.539 116.175C163.504 116.268 163.551 116.373 163.644 116.408C163.67 116.418 163.695 116.421 163.72 116.42Z" fill="white"/>
<path d="M41.9734 133.825L44.9842 132.105C44.9842 132.105 46.4281 124.147 45.3482 117.306C43.8299 107.689 37.2812 104.371 34.9029 105.327C32.5246 106.283 31.9657 109.132 36.2609 114.689C38.7952 117.968 42.0546 124.899 41.9734 133.825Z" fill="#6D3EC1"/>
<g opacity="0.1">
<path d="M41.9734 133.825L44.9842 132.105C44.9842 132.105 46.4281 124.147 45.3482 117.306C43.8299 107.689 37.2812 104.371 34.9029 105.327C32.5246 106.283 31.9657 109.132 36.2609 114.689C38.7952 117.968 42.0546 124.899 41.9734 133.825Z" fill="black"/>
</g>
<path d="M43.0589 130.005C43.0489 130.005 43.0394 130.004 43.0291 130.003C42.9117 129.987 42.8294 129.878 42.8457 129.761C44.0899 120.757 40.469 110.892 36.4005 106.916C36.3158 106.834 36.3142 106.698 36.3973 106.613C36.4804 106.529 36.6161 106.527 36.7008 106.61C40.8433 110.658 44.5335 120.683 43.2709 129.82C43.2566 129.927 43.1643 130.005 43.0589 130.005Z" fill="white"/>
<path d="M33.6204 138.651C33.1446 138.924 32.1641 138.327 31.7886 138.075C31.1458 137.643 30.6247 137.033 30.2786 136.342C29.8761 135.537 29.7747 134.676 29.9008 133.786C29.966 133.325 30.0953 132.876 30.2237 132.428C30.3502 131.988 30.4763 131.548 30.6028 131.109C30.7273 130.675 30.8534 130.226 30.7962 129.778C30.6808 128.877 29.8801 128.245 29.1521 127.7C28.3474 127.097 27.5089 126.302 27.5137 125.216C27.5173 124.378 27.9512 123.599 28.4703 122.942C28.9894 122.284 29.6056 121.703 30.075 121.009C30.4127 120.509 30.6764 119.922 30.6215 119.322C30.5873 118.949 30.4326 118.597 30.254 118.268C29.8705 117.56 29.3646 116.913 29.1 116.153C28.8355 115.394 28.8733 114.449 29.466 113.906C29.9525 113.459 30.6756 113.397 31.3343 113.441C31.9437 113.481 32.5392 113.756 33.0722 114.052C34.7962 115.011 35.7803 117.053 37.6097 117.79C38.3153 118.075 39.0882 118.137 39.8237 118.332C40.5592 118.526 41.309 118.902 41.6499 119.582C42.3214 120.923 41.0751 122.576 41.5473 124C41.965 125.26 43.1893 125.742 43.8767 126.877C44.1774 127.374 44.2466 127.948 44.1981 128.527C44.1157 129.506 43.9725 130.225 43.5028 131.314C43.1145 132.214 41.9729 133.825 41.9729 133.825C41.9451 133.854 33.6932 138.609 33.6204 138.651Z" fill="#6D3EC1"/>
<path d="M38.5002 136.047C38.4975 136.047 38.4943 136.047 38.4943 136.047C38.3726 136.042 38.2811 135.942 38.2854 135.824C38.6403 127.301 34.6247 117.892 31.7046 115.159C31.6183 115.078 31.6135 114.942 31.6947 114.855C31.7758 114.769 31.9115 114.764 31.9982 114.845C34.9771 117.634 39.0742 127.199 38.715 135.841C38.7099 135.957 38.6144 136.047 38.5002 136.047Z" fill="white"/>
<path d="M37.2275 125.978C37.2064 125.978 37.185 125.975 37.1643 125.968C34.4264 125.122 31.0134 124.972 30.9796 124.971C30.8611 124.966 30.7692 124.866 30.7736 124.748C30.7788 124.63 30.8683 124.536 30.9971 124.542C31.0321 124.544 34.4988 124.695 37.2908 125.558C37.4041 125.593 37.4678 125.713 37.4324 125.826C37.4041 125.919 37.3194 125.978 37.2275 125.978Z" fill="white"/>
<path d="M34.6648 135.486L78.0767 160.548C79.0278 161.098 80.5703 161.098 81.5214 160.548L163.713 113.085C164.665 112.536 164.665 111.646 163.713 111.096L120.301 86.0338C119.35 85.4845 117.808 85.4845 116.856 86.0338L34.6648 133.497C33.7133 134.047 33.7133 134.937 34.6648 135.486Z" fill="#37474F"/>
<path d="M58.1473 147.128C59.4687 147.891 61.6108 147.891 62.9322 147.128C64.2536 146.365 64.2536 145.129 62.9322 144.366C61.6108 143.603 59.4687 143.603 58.1473 144.366C56.8259 145.129 56.8259 146.366 58.1473 147.128Z" fill="#263238"/>
<path d="M78.0854 160.548L34.6736 135.485C33.8231 134.995 33.7352 134.231 34.4058 133.682C33.5828 134.307 32.9512 135.487 32.9512 136.48V138.099C32.9512 139.198 33.7225 140.533 34.6736 141.083L78.0854 166.145C78.5608 166.419 79.1845 166.557 79.8078 166.557V160.96C79.1845 160.96 78.5608 160.822 78.0854 160.548Z" fill="#455A64"/>
<path d="M163.725 118.682C164.676 118.133 165.447 116.797 165.447 115.699V114.079C165.447 113.086 164.814 111.905 163.991 111.281C164.663 111.829 164.577 112.594 163.725 113.085L81.5329 160.548C81.0572 160.823 80.4339 160.96 79.8105 160.96V166.557C80.4339 166.557 81.0572 166.42 81.5329 166.145L163.725 118.682Z" fill="#263238"/>
<path d="M85.254 155.356L44.2758 131.696C43.705 131.366 43.705 130.832 44.2758 130.503L111.668 91.5699C112.239 91.2401 113.165 91.2401 113.735 91.5695L154.728 115.225C155.298 115.555 155.298 116.089 154.728 116.419L87.3205 155.356C86.7505 155.685 85.8249 155.685 85.254 155.356Z" fill="#FAFAFA"/>
<path d="M74.5815 123.519L98.8185 137.512L83.5216 146.344C83.0478 146.618 82.273 146.618 81.7992 146.344L59.285 133.345C58.8112 133.071 58.8112 132.624 59.285 132.351L74.5815 123.519Z" fill="#E6E6E6"/>
<path d="M98.8221 137.51L95.9657 126.156C95.8977 125.886 95.7509 125.64 95.5357 125.464C95.5341 125.463 95.5325 125.461 95.5309 125.46C95.3129 125.277 95.0472 125.161 94.7632 125.138L74.5859 123.516L98.8221 137.51Z" fill="#E0E0E0"/>
<path d="M98.8225 137.51L77.1317 136.615C76.5947 136.595 76.1532 136.186 76.0895 135.653L74.5859 123.516L98.8225 137.51Z" fill="#E0E0E0"/>
<path d="M98.8264 137.51L77.1356 136.615C76.5986 136.595 76.1571 136.185 76.0934 135.652L74.5898 123.516L77.2669 135.441C77.3146 135.656 77.5016 135.815 77.7243 135.835L98.8264 137.51Z" fill="#FAFAFA"/>
<path d="M79.4395 136.576L82.671 146.838L83.5322 146.341L79.4395 136.576Z" fill="#FAFAFA"/>
<path d="M58.4238 132.847L59.2854 132.349L76.1977 134.713L58.4238 132.847Z" fill="#FAFAFA"/>
<path d="M88.3646 118.419L107.648 129.552C108.123 129.827 108.894 129.827 109.37 129.552L136.732 113.755C137.208 113.481 137.208 113.035 136.732 112.761L117.45 101.628C116.974 101.354 116.203 101.354 115.728 101.628L88.365 117.425C87.8888 117.7 87.8888 118.145 88.3646 118.419Z" fill="#E6E6E6"/>
<path d="M103.697 116.95C103.224 116.14 103.166 115.332 103.525 114.525C103.884 113.718 104.663 112.969 105.86 112.278C107.228 111.489 108.65 110.987 110.127 110.774C111.604 110.561 113.076 110.613 114.544 110.93C116.01 111.247 117.428 111.8 118.796 112.59C120.073 113.327 120.944 114.086 121.407 114.867C121.872 115.648 121.929 116.41 121.58 117.153C121.23 117.897 120.497 118.591 119.379 119.236C118.192 119.922 117.021 120.304 115.869 120.382C114.716 120.459 113.721 120.256 112.883 119.772C112.473 119.536 112.241 119.281 112.186 119.007C112.131 118.734 112.228 118.473 112.478 118.225C111.829 118.277 111.19 118.233 110.562 118.095C109.933 117.957 109.349 117.732 108.81 117.421C107.892 116.88 107.412 116.303 107.373 115.693C107.333 115.082 107.772 114.511 108.69 113.981C109.828 113.324 111.051 113.01 112.358 113.039C113.666 113.068 114.908 113.422 116.086 114.102C116.595 114.396 117.006 114.734 117.321 115.118C117.636 115.501 117.808 115.862 117.838 116.203L114.245 118.277C113.955 118.444 113.798 118.593 113.773 118.722C113.748 118.852 113.851 118.983 114.08 119.116C114.469 119.34 114.996 119.385 115.659 119.249C116.323 119.114 117.059 118.813 117.868 118.346C118.766 117.827 119.335 117.274 119.574 116.686C119.814 116.098 119.751 115.515 119.387 114.936C119.023 114.357 118.401 113.814 117.523 113.307C115.916 112.379 114.242 111.882 112.5 111.816C110.759 111.75 109.055 112.198 107.388 113.16C106.41 113.725 105.781 114.321 105.502 114.949C105.222 115.577 105.264 116.193 105.629 116.794C105.993 117.397 106.624 117.957 107.522 118.476C108.012 118.758 108.543 118.996 109.117 119.189C109.691 119.382 110.227 119.502 110.727 119.547C110.806 119.559 110.861 119.573 110.891 119.59C110.921 119.608 110.921 119.643 110.891 119.694L110.367 120.429C110.327 120.475 110.303 120.501 110.293 120.507C110.243 120.536 110.163 120.542 110.053 120.524C109.444 120.449 108.803 120.298 108.13 120.07C107.456 119.843 106.829 119.562 106.25 119.228C105.022 118.518 104.172 117.759 103.697 116.95ZM111.991 117.295C112.614 117.35 113.146 117.251 113.585 116.997L115.667 115.795C115.507 115.461 115.158 115.139 114.618 114.827C113.94 114.436 113.211 114.234 112.433 114.222C111.654 114.211 110.926 114.401 110.247 114.793C109.669 115.127 109.386 115.457 109.401 115.782C109.416 116.108 109.728 116.446 110.337 116.798C110.816 117.075 111.367 117.241 111.991 117.295Z" fill="#FAFAFA"/>
<path d="M138.678 100.598C138.97 100.767 139.442 100.766 139.734 100.598C140.025 100.43 140.025 100.157 139.734 99.9887C139.442 99.8205 138.97 99.8205 138.678 99.9887C138.386 100.157 138.386 100.43 138.678 100.598Z" fill="#263238"/>
<path d="M140.353 105.387C140.937 105.724 141.882 105.724 142.465 105.387C143.048 105.05 143.048 104.505 142.465 104.168C141.882 103.831 140.937 103.831 140.353 104.168C139.77 104.505 139.77 105.05 140.353 105.387Z" fill="#263238"/>
<path d="M138.876 103.267C139.265 103.042 139.244 102.666 138.829 102.427L131.883 98.417C131.469 98.1775 130.817 98.1656 130.429 98.39C130.04 98.6147 130.061 98.9906 130.475 99.2297L137.422 103.24C137.836 103.48 138.488 103.491 138.876 103.267Z" fill="#263238"/>
<path d="M48.8438 52.6714C48.8438 51.887 49.3947 50.9327 50.0741 50.5405L113.013 14.2024C113.693 13.8102 114.794 13.8102 115.474 14.2024L116.861 15.0031C117.54 15.3953 118.091 16.3496 118.091 17.134V65.378C118.091 66.1593 117.537 67.1183 116.861 67.5089L53.9214 103.847C53.2448 104.237 52.1373 104.237 51.4607 103.847L50.0741 103.046C49.3975 102.656 48.8438 101.697 48.8438 100.915V52.6714Z" fill="#6D3EC1"/>
<path opacity="0.4" d="M49.2148 51.4627L52.7069 53.4766L117.742 15.9248C117.52 15.5405 117.212 15.2032 116.874 15.0051L115.483 14.208C114.808 13.8122 113.703 13.8122 113.027 14.208L50.088 50.5434C49.7447 50.7407 49.436 51.0784 49.2148 51.4627Z" fill="white"/>
<path opacity="0.1" d="M48.8535 52.672V100.915C48.8535 101.701 49.4064 102.656 50.0874 103.045L51.4725 103.849C51.5771 103.907 51.6877 103.959 51.8102 104C51.9673 104.052 52.136 104.093 52.3166 104.116C52.6368 104.157 52.9741 104.145 53.2887 104.081C53.3703 104.064 53.4518 104.041 53.5274 104.017C53.5799 104 53.6264 103.982 53.673 103.959C53.4463 104.041 53.2482 104.029 53.0851 103.948C52.8524 103.825 52.7068 103.546 52.7068 103.138V54.8952C52.7068 54.3888 52.963 54.0046 53.3468 53.8474L52.7068 53.4751L49.2147 51.4612C48.9931 51.8454 48.8535 52.2822 48.8535 52.672Z" fill="black"/>
<path opacity="0.2" d="M52.7055 53.4765L81.853 64.366C83.9306 65.1401 86.2648 64.372 87.4752 62.5151L92.1559 55.3444L117.973 15.791L93.0891 55.6137L118.101 65.4022C118.095 65.798 117.95 66.2403 117.717 66.6302L93.019 55.7255L87.5798 64.4301C86.3284 66.4265 83.8025 67.2061 81.649 66.2519L77.7762 64.5426L53.0834 103.949C52.8507 103.827 52.7051 103.547 52.7051 103.14V102.337L77.6553 64.4893L52.7055 53.4765Z" fill="black"/>
<path d="M59.928 42.2151L55.6272 39.7341C55.626 39.7333 55.6236 39.7321 55.622 39.7313L55.5826 39.7087L55.5787 39.715C53.6693 38.637 51.0492 38.7997 48.1513 40.4724C42.3159 43.842 37.584 52.0366 37.584 58.7757C37.584 62.1397 38.7642 64.5037 40.6695 65.61V65.6116L40.6783 65.6163C40.6783 65.6163 40.6795 65.6167 40.6795 65.6175L44.5928 67.8518L45.5276 66.2882C46.493 66.0662 47.4978 65.7217 48.5583 65.1092C54.3937 61.7396 59.1256 53.545 59.1268 46.8058C59.1268 45.805 58.992 44.9239 58.7955 44.1065L59.928 42.2151Z" fill="#37474F"/>
<path d="M52.2303 42.8168C46.3937 46.1864 41.6621 54.381 41.6621 61.1202C41.6621 67.8593 46.3933 70.5909 52.2295 67.2213C58.0657 63.8517 62.7972 55.6571 62.7976 48.9179C62.798 42.1788 58.0669 39.4472 52.2303 42.8168Z" fill="#455A64"/>
<path d="M48.9399 55.8201C48.8699 55.7565 48.8424 55.6574 48.8575 55.5214C48.8727 55.3854 48.9252 55.2513 49.0151 55.1185L52.2717 50.2751C52.352 50.1594 52.4344 50.0456 52.5199 49.933C52.6042 49.8209 52.6973 49.7353 52.7971 49.6777L53.9678 49.0018C54.078 48.9386 54.1726 48.9298 54.253 48.9756C54.333 49.0221 54.3727 49.1088 54.3727 49.2357V60.4296C54.3727 60.5569 54.3326 60.6897 54.253 60.8282C54.1726 60.967 54.078 61.0676 53.9678 61.1313L52.7522 61.833C52.642 61.8966 52.5469 61.9053 52.4666 61.8592C52.3866 61.8131 52.3468 61.726 52.3468 61.5991V53.0389L50.216 56.1929C50.1257 56.3253 50.0282 56.4136 49.9236 56.4566C49.8182 56.4999 49.7255 56.4932 49.6459 56.4351L48.9399 55.8201Z" fill="#FAFAFA"/>
<path d="M146.408 94.4027V93.6907H146.584C146.789 93.2762 147.172 92.8848 147.737 92.5586C149.51 91.5351 152.384 91.5351 154.157 92.5586C154.722 92.8852 155.106 93.2762 155.31 93.6907H155.484V94.3801C155.498 95.0614 155.057 95.7452 154.157 96.2651C152.384 97.2886 149.509 97.2886 147.736 96.2651C146.847 95.7508 146.404 95.0766 146.408 94.4027Z" fill="#263238"/>
<path d="M154.158 91.8355C152.385 90.812 149.511 90.812 147.738 91.8355C145.965 92.859 145.965 94.5185 147.738 95.542C149.511 96.5655 152.385 96.5655 154.158 95.542C155.931 94.5185 155.931 92.859 154.158 91.8355Z" fill="#455A64"/>
<path d="M152.109 66.4148L152.108 93.3778C152.108 93.5504 151.994 93.723 151.766 93.8547C151.31 94.118 150.57 94.118 150.114 93.8547C149.886 93.723 149.771 93.5504 149.771 93.3778L149.772 66.4148H152.109Z" fill="#37474F"/>
<path d="M149.771 69.3633V70.2082L152.109 71.5542V70.7153L149.771 69.3633Z" fill="#263238"/>
<path d="M164.685 59.2885V59.2893L164.486 59.6883L162.347 63.9787L161.332 66.0157L157.895 72.9084L157.516 73.6682C157.494 73.6702 157.471 73.671 157.449 73.671C157.309 73.671 157.169 73.6399 157.064 73.5783L141.747 64.7253C141.534 64.6024 141.361 64.3033 141.361 64.0575V58.1497C141.361 55.1982 143.305 51.6834 145.703 50.2983C146.84 49.642 147.872 49.5883 148.646 50.0231L148.649 50.0167L164.685 59.2885Z" fill="#455A64"/>
<path d="M161.776 59.5986C160.807 59.9578 157.285 62.8668 157.285 67.4476C157.285 71.2981 157.29 73.2973 157.29 73.6569C157.337 73.6641 157.385 73.6692 157.433 73.6692C157.455 73.6692 157.477 73.6684 157.5 73.6664L157.878 72.9067L161.315 66.014L162.331 63.977L162.563 63.5104L161.776 59.5986Z" fill="#37474F"/>
<path d="M165.945 68.8299C165.945 68.8307 165.945 68.8319 165.945 68.8319C165.916 68.8828 165.862 68.9369 165.785 68.9858C165.773 68.9946 165.759 69.0026 165.746 69.0109L157.835 73.5782C157.746 73.6299 157.633 73.6601 157.516 73.6681C157.494 73.6701 157.471 73.6709 157.449 73.6709V67.4488C157.449 66.3872 157.702 65.2543 158.137 64.1711L158.527 64.3963L161.332 66.0156L165.686 68.5308C165.686 68.5308 165.786 68.5889 165.909 68.6589C165.975 68.6975 165.985 68.7607 165.945 68.8299Z" fill="#37474F"/>
<path d="M164.686 59.2891C163.918 58.8865 162.905 58.9569 161.792 59.5997C160.544 60.3177 159.419 61.6161 158.629 63.1097C158.446 63.4546 158.281 63.8098 158.137 64.1706C157.702 65.2538 157.449 66.3866 157.449 67.4483V73.6703C157.471 73.6703 157.494 73.6695 157.516 73.6676C157.633 73.6596 157.746 73.6294 157.835 73.5777L165.746 69.0104C165.759 69.0024 165.772 68.9945 165.785 68.9853C165.843 68.9451 165.897 68.8918 165.945 68.8314C165.945 68.8314 165.945 68.8306 165.945 68.8294C166.058 68.6878 166.132 68.5032 166.132 68.3421V62.4351C166.132 60.8547 165.573 59.7549 164.686 59.2891ZM165.571 68.5975L158.01 72.9627C157.946 72.9997 157.895 72.9699 157.895 72.8959V67.4487C157.895 66.4992 158.114 65.4455 158.527 64.3965C158.534 64.3771 158.542 64.3564 158.55 64.3369C158.705 63.9494 158.882 63.5743 159.078 63.2155C159.845 61.7959 160.896 60.63 162.015 59.986C162.59 59.653 163.135 59.4844 163.634 59.4844C163.95 59.4844 164.235 59.5548 164.487 59.6885C165.244 60.0918 165.686 61.0699 165.686 62.4363V68.3974C165.686 68.471 165.634 68.5605 165.571 68.5975Z" fill="#455A64"/>
<path d="M165.69 62.4348V68.5296L158.531 64.3951C158.538 64.3756 158.546 64.3549 158.554 64.3354C159.322 62.4177 160.616 60.7916 162.019 59.9845C162.595 59.6516 163.14 59.4829 163.638 59.4829C164.904 59.4833 165.69 60.6142 165.69 62.4348Z" fill="#263238"/>
<path d="M152.578 65.4723L153.208 65.1087L153.208 65.1083L153.213 65.1055L153.213 65.1063C153.429 64.9846 153.725 65.0029 154.052 65.1918C154.711 65.5725 155.246 66.4981 155.246 67.2595C155.246 67.6394 155.112 67.9067 154.897 68.0316L154.896 68.0324L154.31 68.3681L154.204 68.1915C154.095 68.1664 153.981 68.1274 153.862 68.0582C153.203 67.6775 152.668 66.7519 152.668 65.9906C152.668 65.8776 152.683 65.7778 152.705 65.6855L152.578 65.4723Z" fill="#E0E0E0"/>
<path d="M153.448 65.5397C154.108 65.9204 154.642 66.846 154.642 67.6074C154.642 68.3687 154.107 68.6774 153.448 68.2967C152.789 67.9161 152.254 66.9904 152.254 66.2291C152.254 65.4677 152.789 65.1591 153.448 65.5397Z" fill="#FAFAFA"/>
<path d="M153.452 67.2454C153.26 67.2454 153.105 67.0903 153.105 66.8994V57.1136C153.105 56.9223 153.261 56.7676 153.452 56.7676C153.643 56.7676 153.798 56.9227 153.798 57.1136V66.8994C153.798 67.0907 153.642 67.2454 153.452 67.2454Z" fill="#EBEBEB"/>
<path d="M153.104 58.0799L149.637 56.0779L150.722 58.1666L149.637 59.0023L153.104 61.0044V58.0799Z" fill="#6D3EC1"/>
<mask id="mask0_244_158271" style="mask-type:luminance" maskUnits="userSpaceOnUse" x="157" y="59" width="9" height="15">
<path d="M165.673 62.4352C165.673 60.6145 164.887 59.4836 163.621 59.4836C163.122 59.4836 162.577 59.6519 162.001 59.9852C160.599 60.7919 159.305 62.4184 158.537 64.3361C158.529 64.3556 158.521 64.3763 158.514 64.3958L158.513 64.3966C158.1 65.4467 157.881 66.4969 157.881 67.4475V73.9612L165.673 69.4643V62.4352Z" fill="white"/>
</mask>
<g mask="url(#mask0_244_158271)">
<path d="M163.855 64.4315C163.855 64.3336 163.786 64.2147 163.702 64.1662L155.859 59.6383C155.774 59.5893 155.637 59.5893 155.552 59.6383L155.38 59.7381C155.295 59.787 155.227 59.906 155.227 60.0038V66.0154C155.227 66.1129 155.295 66.2322 155.38 66.2808L163.222 70.8087C163.307 70.8572 163.445 70.8572 163.529 70.8087L163.702 70.7088C163.786 70.6603 163.855 70.5406 163.855 70.4435V64.4315Z" fill="#F0F0F0"/>
<path d="M163.82 64.2799L163.385 64.5309L155.281 59.8518C155.309 59.8041 155.347 59.7619 155.389 59.7373L155.563 59.6378C155.647 59.5885 155.785 59.5885 155.869 59.6378L163.711 64.1653C163.754 64.19 163.793 64.2322 163.82 64.2799Z" fill="#FAFAFA"/>
<path d="M163.867 64.4307V70.4423C163.867 70.5402 163.798 70.6591 163.713 70.7076L163.54 70.8079C163.527 70.815 163.513 70.8218 163.498 70.8266C163.479 70.8329 163.458 70.8381 163.435 70.8409C163.395 70.8461 163.353 70.8445 163.314 70.8365C163.303 70.8345 163.293 70.8313 163.284 70.8286C163.278 70.8266 163.272 70.8242 163.266 70.8214C163.294 70.8317 163.319 70.8301 163.339 70.8198C163.368 70.8047 163.386 70.7697 163.386 70.7192V64.7075C163.386 64.6443 163.354 64.5966 163.306 64.5771L163.386 64.5305L163.821 64.2795C163.85 64.3277 163.867 64.3822 163.867 64.4307Z" fill="#E0E0E0"/>
<path d="M163.387 64.5322L159.755 65.889C159.496 65.9853 159.205 65.8898 159.054 65.6583L158.471 64.7649L155.254 59.8364L158.355 64.7987L155.238 66.0183C155.239 66.0676 155.257 66.1225 155.286 66.1714L158.364 64.8126L159.041 65.8974C159.197 66.146 159.512 66.2434 159.781 66.1245L160.263 65.9117L163.34 70.8219C163.369 70.8067 163.387 70.7717 163.387 70.7212V70.621L160.278 65.9049L163.387 64.5322Z" fill="#E0E0E0"/>
</g>
<path d="M170.899 63.4503L170.068 64.1424C169.893 64.405 169.662 64.7073 169.356 65.0573L166.969 67.8139L166.126 68.7885L160.7 71.923L158.107 74.0749C158.099 74.0789 158.091 74.0789 158.083 74.0789C158.007 74.0909 157.92 74.0789 157.856 74.0431L157.613 73.9039C157.613 73.9039 157.609 73.9039 157.609 73.8999C157.522 73.8442 157.502 73.7368 157.57 73.6573C157.574 73.6573 157.574 73.6533 157.574 73.6533L159.467 71.4655L159.471 71.4615C159.845 71.0319 160.251 70.5626 160.676 70.0733C162.458 68.0088 165.851 65.2164 168.246 63.8322C169.368 63.1878 170.068 62.965 170.318 63.1201L170.322 63.1162L170.891 63.4463C170.891 63.4503 170.895 63.4503 170.899 63.4503Z" fill="#455A64"/>
<path d="M169.922 65.3993L168.347 67.2171C168.339 67.2251 168.331 67.241 168.315 67.2569L166.82 68.9793C166.748 69.0628 166.613 69.1742 166.517 69.2299L158.18 74.043C158.152 74.0589 158.12 74.0709 158.088 74.0748C158.08 74.0788 158.072 74.0788 158.064 74.0788C158.331 73.7685 159.564 72.3445 161.072 70.6062H161.076C161.127 70.5426 161.187 70.4789 161.243 70.4113C163.025 68.3508 166.418 65.5584 168.812 64.1741C169.906 63.5417 170.606 63.3149 170.873 63.4462C170.873 63.4502 170.877 63.4502 170.881 63.4502C171.183 63.6173 170.885 64.2895 169.922 65.3993Z" fill="#37474F"/>
</svg>
