<svg width="24" height="24" viewBox="0 0 24 24" fill="none" xmlns="http://www.w3.org/2000/svg">
<path d="M8.20105 7.80161L11.101 2.00161C11.1829 1.83254 11.3108 1.68995 11.47 1.59018C11.6291 1.49042 11.8132 1.4375 12.001 1.4375C12.1889 1.4375 12.373 1.49042 12.5321 1.59018C12.6913 1.68995 12.8192 1.83254 12.901 2.00161L15.801 7.80161L22.101 8.80161C22.2883 8.82202 22.4661 8.89492 22.6137 9.01192C22.7614 9.12892 22.873 9.28525 22.9357 9.46291C22.9984 9.64056 23.0097 9.83232 22.9681 10.0161C22.9266 10.1999 22.834 10.3682 22.701 10.5016L18.101 15.0016L19.101 21.3016C19.1364 21.4823 19.1211 21.6693 19.0569 21.8419C18.9928 22.0145 18.8822 22.166 18.7374 22.2797C18.5927 22.3935 18.4193 22.4651 18.2364 22.4866C18.0535 22.5081 17.8683 22.4787 17.701 22.4016L12.001 19.4016L6.30105 22.4016C6.13897 22.4977 5.95306 22.546 5.76472 22.541C5.57639 22.536 5.3933 22.4779 5.23654 22.3734C5.07978 22.2689 4.95573 22.1222 4.87869 21.9503C4.80164 21.7784 4.77473 21.5882 4.80105 21.4016L6.00105 15.0016L1.40105 10.5016C1.26806 10.3682 1.17547 10.1999 1.13396 10.0161C1.09244 9.83232 1.10368 9.64056 1.16638 9.46291C1.22909 9.28525 1.3407 9.12892 1.48837 9.01192C1.63604 8.89492 1.81376 8.82202 2.00105 8.80161L8.30105 7.80161H8.20105Z" fill="#6D3EC1"/>
</svg>
