<svg width="40" height="40" viewBox="0 0 40 40" fill="none" xmlns="http://www.w3.org/2000/svg">
<rect width="40" height="40" rx="20" fill="white"/>
<g clip-path="url(#clip0_109_75404)">
<path fill-rule="evenodd" clip-rule="evenodd" d="M14.1037 14.083C14.144 14.1405 15.0769 15.4984 16.1768 17.1006C17.2768 18.7027 18.2942 20.1844 18.4377 20.3931C18.5811 20.6019 18.6985 20.7769 18.6985 20.782C18.6985 20.7872 18.6451 20.853 18.5798 20.9284C18.5145 21.0038 18.3306 21.2172 18.1711 21.4027C18.0116 21.5881 17.7427 21.9006 17.5736 22.0972C17.4045 22.2938 17.1069 22.6397 16.9124 22.8659C16.7179 23.0921 16.368 23.4989 16.135 23.7698C15.4143 24.6076 15.3103 24.7286 14.7617 25.3676C14.4687 25.7088 14.1878 26.035 14.1374 26.0926C14.087 26.1501 14.0458 26.2032 14.0458 26.2106C14.0458 26.2192 14.2298 26.224 14.5642 26.224H15.0826L15.6526 25.5598C15.966 25.1945 16.2753 24.8349 16.3397 24.7607C16.4791 24.6003 17.5423 23.3633 17.6316 23.2575C17.6658 23.217 17.7155 23.1594 17.7421 23.1294C17.7686 23.0995 17.9778 22.8565 18.2069 22.5894C18.4359 22.3224 18.6297 22.0974 18.6374 22.0894C18.645 22.0814 18.7663 21.9403 18.9069 21.7758C19.0474 21.6114 19.1668 21.4768 19.1721 21.4768C19.1774 21.4768 19.8994 22.5222 20.7765 23.7998C21.6537 25.0775 22.387 26.1454 22.4062 26.1731L22.4409 26.2234L24.2192 26.2237C25.6816 26.2239 25.9962 26.2208 25.9906 26.2063C25.9847 26.1908 25.1327 24.9481 22.947 21.7668C21.3735 19.4766 21.1643 19.1689 21.1703 19.1532C21.1761 19.1381 21.3905 18.8874 22.7995 17.2478C23.0412 16.9666 23.3744 16.5787 23.5399 16.3858C23.7054 16.1929 23.8725 15.9987 23.9112 15.9542C23.95 15.9097 24.1536 15.6731 24.3638 15.4283C24.574 15.1835 24.9313 14.7676 25.1579 14.504C25.3844 14.2405 25.5781 14.0144 25.5882 14.0017C25.6057 13.9799 25.5761 13.9785 25.0802 13.9785H24.5536L24.3194 14.2516C24.0077 14.6151 23.4442 15.2705 23.2842 15.4557C23.2136 15.5375 23.1254 15.6404 23.0883 15.6842C23.0512 15.7281 22.978 15.8128 22.9257 15.8726C22.8733 15.9323 22.6096 16.2391 22.3395 16.5544C22.0695 16.8696 21.8448 17.1306 21.8403 17.1343C21.8358 17.138 21.7779 17.2051 21.7117 17.2835C21.5959 17.4205 21.478 17.5576 20.9376 18.1844C20.7004 18.4595 20.6882 18.4713 20.6682 18.446C20.6567 18.4315 19.9615 17.4204 19.1233 16.1992L17.5994 13.9788L15.8149 13.9787L14.0305 13.9785L14.1037 14.083ZM15.4964 14.8112C15.5098 14.8316 15.8433 15.3096 16.2374 15.8733C16.9848 16.9425 19.922 21.1462 21.8109 23.8504C22.4145 24.7145 22.9157 25.4292 22.9247 25.4385C22.9376 25.4518 23.1134 25.4547 23.746 25.452L24.5508 25.4485L22.4447 22.4343C21.2863 20.7766 19.6091 18.3764 18.7177 17.1006L17.0968 14.7809L16.2845 14.7775L15.4721 14.774L15.4964 14.8112Z" fill="#FAFAFA"/>
<path fill-rule="evenodd" clip-rule="evenodd" d="M10 20V30L20.0034 29.9966L30.0067 29.9933L30.0101 19.9966L30.0135 10H20.0068H10V20ZM10.0067 20.0067C10.0067 25.5067 10.0082 27.7567 10.0101 25.0067C10.012 22.2567 10.012 17.7567 10.0101 15.0067C10.0082 12.2567 10.0067 14.5067 10.0067 20.0067ZM14.1037 14.0829C14.144 14.1404 15.0769 15.4983 16.1769 17.1005C17.2769 18.7026 18.2942 20.1843 18.4377 20.3931C18.5812 20.6018 18.6986 20.7768 18.6986 20.7819C18.6986 20.7871 18.6452 20.8529 18.5799 20.9283C18.5146 21.0037 18.3306 21.2171 18.1711 21.4026C18.0116 21.588 17.7428 21.9005 17.5736 22.0971C17.4045 22.2937 17.107 22.6396 16.9124 22.8658C16.7179 23.092 16.3681 23.4988 16.1351 23.7697C15.4143 24.6075 15.3103 24.7285 14.7617 25.3675C14.4688 25.7087 14.1878 26.0349 14.1375 26.0925C14.0871 26.15 14.0459 26.2031 14.0459 26.2105C14.0459 26.2191 14.2299 26.2239 14.5643 26.2239H15.0827L15.6526 25.5597C15.9661 25.1944 16.2753 24.8348 16.3398 24.7606C16.4792 24.6002 17.5423 23.3632 17.6317 23.2575C17.6659 23.217 17.7156 23.1593 17.7421 23.1293C17.7686 23.0994 17.9778 22.8564 18.2069 22.5893C18.436 22.3223 18.6297 22.0973 18.6374 22.0893C18.6451 22.0813 18.7664 21.9402 18.9069 21.7758C19.0475 21.6113 19.1668 21.4767 19.1721 21.4767C19.1774 21.4767 19.8994 22.5221 20.7766 23.7997C21.6537 25.0774 22.3871 26.1454 22.4062 26.173L22.441 26.2233L24.2192 26.2236C25.6816 26.2238 25.9963 26.2207 25.9907 26.2062C25.9848 26.1907 25.1328 24.948 22.9471 21.7667C21.3736 19.4765 21.1644 19.1688 21.1704 19.1531C21.1762 19.138 21.3905 18.8873 22.7995 17.2477C23.0412 16.9665 23.3744 16.5786 23.5399 16.3857C23.7054 16.1929 23.8726 15.9987 23.9113 15.9541C23.95 15.9096 24.1537 15.673 24.3639 15.4282C24.5741 15.1834 24.9314 14.7675 25.1579 14.5039C25.3845 14.2404 25.5781 14.0143 25.5883 14.0016C25.6057 13.9798 25.5761 13.9784 25.0802 13.9784H24.5537L24.3195 14.2515C24.0078 14.615 23.4443 15.2704 23.2843 15.4556C23.2136 15.5374 23.1254 15.6403 23.0883 15.6841C23.0512 15.728 22.9781 15.8127 22.9257 15.8725C22.8734 15.9322 22.6096 16.239 22.3396 16.5543C22.0695 16.8695 21.8449 17.1305 21.8403 17.1342C21.8358 17.1379 21.7779 17.205 21.7117 17.2834C21.5959 17.4204 21.4781 17.5575 20.9377 18.1843C20.7004 18.4594 20.6883 18.4712 20.6683 18.4459C20.6568 18.4314 19.9616 17.4203 19.1234 16.1991L17.5995 13.9787L15.815 13.9786L14.0305 13.9784L14.1037 14.0829ZM15.4965 14.8111C15.5099 14.8315 15.8433 15.3095 16.2374 15.8732C16.9849 16.9424 19.922 21.1461 21.8109 23.8503C22.4146 24.7144 22.9158 25.4291 22.9248 25.4384C22.9377 25.4517 23.1134 25.4546 23.746 25.4519L24.5509 25.4484L22.4447 22.4343C21.2863 20.7765 19.6092 18.3763 18.7177 17.1005L17.0969 14.7808L16.2845 14.7774L15.4722 14.7739L15.4965 14.8111Z" fill="#040404"/>
</g>
<defs>
<clipPath id="clip0_109_75404">
<rect x="10" y="10" width="20" height="20" rx="1" fill="white"/>
</clipPath>
</defs>
</svg>
