<svg width="12" height="7" viewBox="0 0 12 7" fill="none" xmlns="http://www.w3.org/2000/svg">
<path d="M6.00013 0.334345C6.12064 0.334345 6.23282 0.353578 6.33665 0.392045C6.4405 0.430511 6.53922 0.496536 6.6328 0.59012L11.127 5.08434C11.2655 5.22279 11.3363 5.39683 11.3395 5.60644C11.3427 5.81606 11.2719 5.9933 11.127 6.13817C10.9822 6.28304 10.8065 6.35547 10.6001 6.35547C10.3937 6.35547 10.2181 6.28304 10.0732 6.13817L6.00013 2.06507L1.92703 6.13817C1.78858 6.27662 1.61454 6.34745 1.40493 6.35067C1.19533 6.35387 1.01809 6.28304 0.873227 6.13817C0.728344 5.9933 0.655902 5.81766 0.655902 5.61124C0.655902 5.40484 0.728344 5.22921 0.873227 5.08434L5.36745 0.59012C5.46103 0.496536 5.55975 0.430511 5.6636 0.392045C5.76743 0.353578 5.87961 0.334345 6.00013 0.334345Z" fill="white"/>
</svg>
