<svg width="40" height="40" viewBox="0 0 40 40" fill="none" xmlns="http://www.w3.org/2000/svg">
<rect width="40" height="40" rx="20" fill="white"/>
<g clip-path="url(#clip0_109_75416)">
<g clip-path="url(#clip1_109_75416)">
<path d="M29.9795 15.3424C29.7326 14.4199 29.0076 13.695 28.0851 13.448C26.4148 13 19.7137 13 19.7137 13C19.7137 13 13.0128 13 11.3424 13.448C10.4199 13.695 9.69497 14.4199 9.44802 15.3424C9 17.0128 9 20.5 9 20.5C9 20.5 9 23.9872 9.44802 25.6576C9.69497 26.5801 10.4199 27.305 11.3424 27.5519C13.0128 28 19.7137 28 19.7137 28C19.7137 28 26.4148 28 28.0851 27.5519C29.0076 27.305 29.7326 26.5801 29.9795 25.6576C30.4276 23.9872 30.4276 20.5 30.4276 20.5C30.4276 20.5 30.4258 17.0128 29.9795 15.3424Z" fill="black"/>
<path d="M17.5681 23.7127L23.1349 20.499L17.5681 17.2852V23.7127Z" fill="white"/>
</g>
</g>
<defs>
<clipPath id="clip0_109_75416">
<rect width="21.4275" height="15" fill="white" transform="translate(9 13)"/>
</clipPath>
<clipPath id="clip1_109_75416">
<rect width="21.4275" height="15" fill="white" transform="translate(9 13)"/>
</clipPath>
</defs>
</svg>
